<?xml version="1.0" encoding="utf-8"?>
<!-- Generator: Adobe Illustrator 23.0.6, SVG Export Plug-In . SVG Version: 6.00 Build 0)  -->
<svg version="1.1" id="_x3C_Layer_x3E_" xmlns="http://www.w3.org/2000/svg" xmlns:xlink="http://www.w3.org/1999/xlink" x="0px"
	 y="0px" viewBox="0 0 2760 1840" style="enable-background:new 0 0 2760 1840;" xml:space="preserve">
<style type="text/css">
	.st0{display:none;fill:#FCECDB;}
	.st1{fill:#A8D29F;}
	.st2{fill:#AFCDFB;}
	.st3{fill:#599DAD;}
	.st4{fill:#6BB7BF;}
	.st5{fill:#86D1CD;}
	.st6{fill:#EFCBAB;}
	.st7{fill:#FFEBDC;}
	.st8{fill:#EFCDAF;}
	.st9{fill:#9ABCEF;}
	.st10{fill:#E9F3FE;}
	.st11{fill:#D8E8FD;}
	.st12{fill:#BBD5FC;}
	.st13{fill:#D2E4FD;}
	.st14{fill:#C65447;}
	.st15{fill:#FFB27D;}
	.st16{fill:#E58638;}
	.st17{fill:#233862;}
	.st18{fill:#2B478B;}
	.st19{fill:#EE9849;}
	.st20{fill:#ED985F;}
	.st21{fill:#2C3A64;}
</style>
<g>
	<g>
		<path class="st0" d="M2257.07,1659.06c0,0,169.74,40.24,253.3-142.13c108.41-236.6-43.74-461.35-306.2-477.54
			c-378.54-23.35-168.75-627.71-766.09-463.73c-167.96,46.11-533.29-191.92-748.34,211.39c-36.57,68.58-145.88,65.21-291.53,182.21
			c-256.92,206.38-164.43,691.99,52.04,694.2C666.72,1665.66,2257.07,1659.06,2257.07,1659.06z"/>
		<path class="st1" d="M488.09,1662.58c0,0,7.89-51.7,108.57-65.61c100.68-13.91,194.3-125.43,360.34-109.25
			c166.04,16.19,303.81,117.75,492.81,86.63c189-31.12,307.35,8.55,349.74,39.83c42.39,31.28,217.84-7.34,230.8,49.98
			L488.09,1662.58z"/>
		<path class="st2" d="M901.96,430.58c0,0-113.63-5.56-53.35,340.77c0,0,40.55,117.56-10.64,193.33h753.6v-534.1H901.96z"/>
		<g>
			<g>
				<path class="st3" d="M979.36,1331c0,0-52.65-61.42-3.25-100.44c0,0,36.08-21.85,65.51-20.07c0,0-41.69,69.91-28.2,76.87
					c13.49,6.95,40.84-81.25,40.84-81.25s82.12-7.96,108.53,4.74c0,0-70.2,57.45-55.42,60.87c14.79,3.42,90.61-52.97,90.61-52.97
					s76.43,13.01,72.35,59.63s-30.41,61.02-41.98,59.78c-11.58-1.24-79.28-27.08-80.76-17.6c-1.47,9.48,39.28,40.48,67.82,41.93
					c0,0-53.88,59.42-89.69,42.27c-35.81-17.15-38.87-44.34-61.19-54.53c-22.32-10.2-41.38-10.17-32.16,0.23
					s49.62,20.51,62.38,43.09c12.77,22.58,24.22,37.81-12.83,32.24c-37.05-5.57-97.28-32.68-99.92-63.73
					C979.36,1331,979.36,1331,979.36,1331z"/>
				<g>
					<path class="st3" d="M1232.79,1279.63c0,0-207.58-8-253.43,51.37c0,0-10.14,30.36-41.34,58.01l-4.86,13.25
						c0,0,35.97-37.93,48.84-40.22C982,1362.04,961.87,1288.49,1232.79,1279.63z"/>
					<path class="st3" d="M938.02,1389.01c0,0-44.56,32.95-47.65,91.83l8.09,0.72c0,0,14.23-60.88,39.95-84.69
						C964.13,1373.07,938.02,1389.01,938.02,1389.01z"/>
				</g>
			</g>
			<g>
				<path class="st4" d="M795.28,1253.75c0,0,83.75-46.9,44.67-110.55c0,0-31.27-39.08-64.77-49.13c0,0,17.87,94.92,0,97.15
					c-17.87,2.23-12.28-107.2-12.28-107.2s-88.22-42.43-122.83-39.08c0,0,54.72,92.68,36.85,90.45
					c-17.87-2.23-79.28-96.03-79.28-96.03s-90.45-16.75-104.97,36.85s8.93,80.4,22.33,83.75c13.4,3.35,99.38,2.23,97.15,13.4
					c-2.23,11.17-60.3,29.03-92.68,18.98c0,0,35.73,88.22,82.63,83.75c46.9-4.47,61.42-33.5,90.45-35.73
					c29.03-2.23,50.25,5.58,35.73,13.4s-63.65,2.56-87.1,22.5c-23.45,19.94-42.43,32.22,1.12,41.15
					c43.55,8.93,121.72,3.35,137.35-30.15S795.28,1253.75,795.28,1253.75z"/>
				<g>
					<path class="st4" d="M533.99,1092.95c0,0,234.5,75.93,261.3,160.8c0,0-1.12,37.97,22.33,81.52v16.75
						c0,0-24.57-56.95-37.97-64.77C779.65,1287.25,832.13,1213.55,533.99,1092.95z"/>
					<path class="st4" d="M817.62,1335.27c0,0,36.16,54.92,15.55,121.76l-9.3-2.5c0,0,9.03-73.63-9.89-110.66
						C795.05,1306.84,817.62,1335.27,817.62,1335.27z"/>
				</g>
			</g>
			<g>
				<path class="st5" d="M928.52,1189.07c0,0-110.4-61.82-58.88-145.72c0,0,41.21-51.52,85.37-64.77c0,0-23.55,125.12,0,128.06
					c23.55,2.94,16.19-141.31,16.19-141.31s116.29-55.93,161.92-51.52c0,0-72.13,122.17-48.58,119.23s104.51-126.59,104.51-126.59
					s119.23-22.08,138.37,48.58c19.13,70.66-11.78,105.98-29.44,110.4s-131,2.94-128.06,17.66c2.94,14.72,79.49,38.27,122.17,25.02
					c0,0-47.1,116.28-108.93,110.4c-61.82-5.89-80.96-44.16-119.23-47.1c-38.27-2.94-66.24,7.36-47.1,17.66
					c19.13,10.3,83.9,3.38,114.81,29.66c30.91,26.28,55.93,42.47-1.47,54.25c-57.41,11.78-160.45,4.42-181.05-39.74
					C928.52,1189.07,928.52,1189.07,928.52,1189.07z"/>
				<g>
					<path class="st4" d="M1272.96,977.11c0,0-309.11,100.09-344.44,211.96c0,0,1.47,50.05-29.44,107.45v22.08
						c0,0,32.38-75.07,50.05-85.38C949.13,1233.23,879.95,1136.08,1272.96,977.11z"/>
					<path class="st4" d="M899.08,1296.52c0,0-47.67,72.39-20.5,160.51l12.26-3.29c0,0-11.91-97.06,13.04-145.87
						C928.83,1259.05,899.08,1296.52,899.08,1296.52z"/>
				</g>
			</g>
			<path class="st6" d="M924.8,1648.12c119.43,0,216.25-96.82,216.25-216.25h-432.5C708.55,1551.3,805.37,1648.12,924.8,1648.12z"/>
			<path class="st7" d="M978.02,1646.47c-8.8,1.1-17.76,1.65-26.87,1.65c-119.43,0-216.24-96.82-216.24-216.25h53.72
				C788.63,1542.21,871.26,1633.24,978.02,1646.47z"/>
			<path class="st6" d="M1144.04,1659.13H705.57l0,0c0-14.74,11.94-26.68,26.68-26.68h385.12
				C1132.1,1632.45,1144.04,1644.39,1144.04,1659.13L1144.04,1659.13z"/>
			<rect x="701.44" y="1431.87" class="st8" width="444.53" height="6.63"/>
		</g>
		<g>
			<path class="st3" d="M1707.32,609.63c0,0-37.88-71.48,18.88-98.7c0,0,40-13.39,68.32-5.2c0,0-56.02,59.06-44.39,68.8
				c11.63,9.75,57.68-70.31,57.68-70.31s81.86,10.25,104.85,28.44c0,0-81.1,40.64-67.42,47.22c13.67,6.58,100.03-31.79,100.03-31.79
				s71.71,29.47,57.5,74.06c-14.21,44.59-43.06,52.86-54.08,49.11s-71.4-43.83-74.92-34.9c-3.52,8.93,29.44,48.11,56.96,55.79
				c0,0-65.61,46.15-96.79,21.55c-31.17-24.59-28.19-51.79-47.73-66.63c-19.54-14.85-38.14-19-31.43-6.84
				c6.71,12.17,43.91,30.9,51.41,55.73c7.5,24.83,15.33,42.2-19.59,28.63c-34.92-13.57-87.73-53.24-83.49-84.11
				C1707.32,609.63,1707.32,609.63,1707.32,609.63z"/>
			<g>
				<path class="st3" d="M1965.84,615.14c0,0-200.77-53.37-258.52-5.51c0,0-16.56,27.4-53.06,47.53l-7.65,11.86
					c0,0,43.42-29.11,56.48-28.52C1703.09,640.5,1699.59,564.33,1965.84,615.14z"/>
				<path class="st3" d="M1654.26,657.16c0,0-50.7,22.37-66.65,79.13l7.73,2.48c0,0,27.25-56.27,57.56-73.85
					C1683.23,647.34,1654.26,657.16,1654.26,657.16z"/>
			</g>
		</g>
		<g>
			<path class="st5" d="M1457.89,480.7c0,0-112.19-58.51-63.19-143.91c0,0,39.66-52.72,83.41-67.28c0,0-19.82,125.76,3.81,128
				c23.63,2.24,11.98-141.73,11.98-141.73s114.57-59.37,160.31-56.32c0,0-68.46,124.27-45,120.62
				c23.45-3.64,100.69-129.64,100.69-129.64s118.52-25.62,139.75,44.43c21.23,70.05-8.62,106.29-26.14,111.22
				c-17.52,4.94-130.86,6.84-127.48,21.47c3.38,14.63,80.59,35.89,122.86,21.38c0,0-43.62,117.64-105.59,113.59
				c-61.97-4.04-82.24-41.73-120.58-43.53c-38.34-1.8-65.99,9.33-46.56,19.06s83.96,0.88,115.64,26.22
				c31.68,25.35,57.17,40.79,0.14,54.27c-57.03,13.48-160.24,9.19-182.16-34.33C1457.89,480.7,1457.89,480.7,1457.89,480.7z"/>
			<g>
				<path class="st4" d="M1795.87,258.58c0,0-306,109.25-337.98,222.12c0,0,2.96,49.98-26.23,108.28l0.66,22.07
					c0,0,30.13-76,47.48-86.83C1479.8,524.23,1407.76,429.18,1795.87,258.58z"/>
				<path class="st4" d="M1431.66,588.99c0,0-45.49,73.78-15.71,161.05l12.16-3.66c0,0-14.79-96.66,8.69-146.19
					C1460.28,550.65,1431.66,588.99,1431.66,588.99z"/>
			</g>
		</g>
		<rect x="949.74" y="635.58" class="st9" width="786.78" height="1026.07"/>
		<rect x="975.47" y="635.58" class="st10" width="773.56" height="1026.07"/>
		<path class="st1" d="M2294.47,1659.13h-155.88c-8.35-7.09,5.78-23.18,20.55-24.26c6.41-0.48,14.52,0.86,23.79,2.82
			c2.14-28.49,14.39-156.57,60.56-151.42c51.91,5.76,0,56.4-14.67,86.39c-10.87,22.21-22.34,54.05-27.58,69.08
			c4.21,0.91,8.58,1.81,13.03,2.63c6.88-21.13,32.48-92.19,65.04-88.05c38.22,4.85,22.86,33.34-4.23,50.25
			c-19.88,12.44-44.28,30.11-55.88,38.65c9.83,1.6,20.08,2.68,30.49,2.44C2276.39,1647.03,2289.42,1654.9,2294.47,1659.13z"/>
		<path class="st10" d="M1749.03,635.56c-0.01,0.01-0.01,0.01-0.01,0.01H975.46c4.28-58.5-2.17-100.97-12.5-131.52
			c-19.84-58.74-54.03-73.47-54.03-73.47h729.54c62.27,0,110.55,37.51,123.69,87.3c0.49,1.87,0.95,3.74,1.34,5.6
			C1775.98,580.45,1749.54,634.52,1749.03,635.56z"/>
		<path class="st11" d="M1749.03,635.56c-0.01,0.01-0.01,0.01-0.01,0.01H975.46c4.28-58.5-2.17-100.97-12.5-131.52
			c79.05,14.48,274.85,45.32,484.42,40.13c135.58-3.36,242.72-12.43,316.12-20.69C1775.98,580.45,1749.54,634.52,1749.03,635.56z"/>
		<g>
			<path class="st12" d="M1544.68,872.17h-410.23c-4.21,0-7.66-3.45-7.66-7.66v-3.93c0-4.21,3.45-7.66,7.66-7.66h410.23
				c4.21,0,7.66,3.45,7.66,7.66v3.93C1552.34,868.73,1548.89,872.17,1544.68,872.17z"/>
			<path class="st12" d="M1385.91,904.55h-253.07c-3.32,0-6.04-2.72-6.04-6.04v-7.15c0-3.33,2.72-6.04,6.04-6.04h253.07
				c3.32,0,6.04,2.72,6.04,6.04v7.15C1391.95,901.83,1389.23,904.55,1385.91,904.55z"/>
			<g>
				<path class="st12" d="M1087.28,901.43v-39.3h-5.19c-3.15,0-4.72-1.31-4.72-3.93c0-1.89,1.23-3.22,3.7-4.01
					c1.26-0.42,3.26-0.73,6.01-0.94c2.75-0.21,4.96-0.31,6.64-0.31c1.62,0,2.65,0.33,3.07,0.98c0.42,0.66,0.63,2.32,0.63,4.99v42.53
					h5.35c3.46,0,5.19,1.49,5.19,4.48c0,3.14-1.73,4.72-5.19,4.72h-21.54c-1.52,0-2.79-0.41-3.81-1.22
					c-1.02-0.81-1.53-1.95-1.53-3.42c0-3.04,1.76-4.56,5.27-4.56H1087.28z"/>
			</g>
		</g>
		<g>
			<path class="st13" d="M1544.68,1074.82h-410.23c-4.21,0-7.66-3.45-7.66-7.66v-3.93c0-4.21,3.45-7.66,7.66-7.66h410.23
				c4.21,0,7.66,3.45,7.66,7.66v3.93C1552.34,1071.38,1548.89,1074.82,1544.68,1074.82z"/>
			<path class="st13" d="M1385.91,1107.2h-253.07c-3.32,0-6.04-2.72-6.04-6.04V1094c0-3.32,2.72-6.04,6.04-6.04h253.07
				c3.32,0,6.04,2.72,6.04,6.04v7.15C1391.95,1104.48,1389.23,1107.2,1385.91,1107.2z"/>
			<g>
				<path class="st13" d="M1108.77,1103.27c0,2.62-1.83,3.93-5.49,3.93h-22.79c-3.29,0-4.93-1.32-4.93-3.96
					c0-0.83,0.44-1.81,1.32-2.92c1.29-1.48,3.19-3.71,5.7-6.67c3.8-4.77,6.97-8.89,9.52-12.37c0.88-1.16,2.13-2.92,3.75-5.28
					c1.34-2.36,2.01-4.35,2.01-5.97c0-1.81-0.58-3.3-1.74-4.48c-1.16-1.18-2.64-1.77-4.45-1.77c-1.76,0-3.29,0.55-4.59,1.67
					c-0.88,0.74-1.58,2.13-2.08,4.17c-0.65,2.64-1.07,4.17-1.25,4.58c-0.69,1.48-1.83,2.22-3.4,2.22c-1.39,0-2.48-0.51-3.27-1.53
					c-0.74-0.88-1.11-2.04-1.11-3.47c0-1.62,0.25-3.27,0.76-4.93c1.11-3.57,3.08-6.3,5.9-8.2c2.69-1.81,5.95-2.71,9.8-2.71
					c4.21,0,7.73,1.28,10.56,3.83c2.92,2.69,4.38,6.12,4.38,10.3c0,3.11-1.04,6.31-3.13,9.6c-1.16,1.81-3.54,5.01-7.16,9.6
					c-1.85,2.37-4.77,5.8-8.75,10.3h15.01C1106.96,1099.21,1108.77,1100.56,1108.77,1103.27z"/>
			</g>
		</g>
		<g>
			<path class="st13" d="M1544.68,1243.87h-410.23c-4.21,0-7.66-3.45-7.66-7.66v-3.93c0-4.21,3.45-7.66,7.66-7.66h410.23
				c4.21,0,7.66,3.45,7.66,7.66v3.93C1552.34,1240.42,1548.89,1243.87,1544.68,1243.87z"/>
			<path class="st13" d="M1385.91,1276.24h-253.07c-3.32,0-6.04-2.72-6.04-6.04v-7.15c0-3.32,2.72-6.04,6.04-6.04h253.07
				c3.32,0,6.04,2.72,6.04,6.04v7.15C1391.95,1273.52,1389.23,1276.24,1385.91,1276.24z"/>
			<g>
				<path class="st13" d="M1108.77,1260.12c0,4.92-1.73,8.88-5.18,11.86c-3.27,2.84-7.41,4.26-12.43,4.26
					c-3.88,0-7.2-0.92-9.94-2.77c-4.36-2.93-6.53-6.46-6.53-10.58c0-1.18,0.38-2.2,1.14-3.05c0.76-0.85,1.73-1.28,2.91-1.28
					c1.23,0,2.39,0.83,3.48,2.49c1.75,2.75,2.77,4.26,3.05,4.55c1.56,1.66,3.57,2.48,6.04,2.48c3.31,0,5.68-1.23,7.1-3.69
					c0.66-1.23,0.99-2.79,0.99-4.69c0-4.64-2.72-7.22-8.17-7.74c-3.08-0.28-4.62-1.58-4.62-3.91c0-1.7,0.89-2.91,2.68-3.62
					c3.34-1.23,5.03-1.87,5.08-1.92c1.79-1.18,2.68-3.24,2.68-6.18c0-1.75-0.52-3.13-1.56-4.15c-1.04-1.02-2.43-1.53-4.18-1.53
					c-2.17,0-3.87,0.52-5.09,1.56c-1.04,0.9-1.91,2.44-2.62,4.62c-0.57,1.66-1.65,2.49-3.25,2.49c-1.13,0-2.07-0.5-2.8-1.49
					c-0.73-1-1.1-2.08-1.1-3.27c0-1.47,0.4-2.94,1.21-4.4c1.33-2.46,3.36-4.38,6.11-5.75c2.51-1.28,5.25-1.92,8.24-1.92
					c4.02,0,7.37,1.22,10.05,3.66c2.67,2.44,4.01,5.65,4.01,9.62c0,4.78-1.99,8.57-5.96,11.36
					C1105.88,1249.45,1108.77,1253.78,1108.77,1260.12z"/>
			</g>
		</g>
		<g>
			<path class="st12" d="M1496.9,703.72h-255.55c-4.37,0-7.95-3.58-7.95-7.96v-6.45c0-4.37,3.58-7.95,7.95-7.95h255.55
				c4.38,0,7.95,3.58,7.95,7.95v6.45C1504.85,700.15,1501.27,703.72,1496.9,703.72z"/>
			<path class="st12" d="M1563.54,738.19h-388.83c-5.37,0-9.75-4.39-9.75-9.75v-2.84c0-5.37,4.39-9.76,9.75-9.76h388.83
				c5.37,0,9.76,4.39,9.76,9.76v2.84C1573.29,733.8,1568.9,738.19,1563.54,738.19z"/>
		</g>
		<g>
			<path class="st14" d="M1339.15,975.93c-84.27,0-164.24-10.57-223.85-25.69c-60.23-15.27-92.67-40.23-92.67-62.37
				c0-20.06,26.44-38.52,76.46-53.36l0,0c-47.94,14.23-73.57,35.12-73.57,53.36c0,20.24,33.23,40.28,91.17,54.97
				c59.41,15.06,138.41,23.36,222.46,23.36c84.05,0,163.06-8.29,222.46-23.36c57.94-14.69,91.17-34.72,91.17-54.97
				c0-21.43-34.99-48.08-91.32-69.52c-64.05-24.39-143-33.44-222.31-33.44c-148.9,0-210.2,17.38-263.38,39.17l0,0
				c53.41-21.88,113.95-46.67,263.38-46.67c79.63,0,158.93,13.49,223.27,38c57.52,21.9,93.25,49.67,93.25,72.47
				c0,22.14-33.17,42.74-93.4,58.01C1502.66,961,1423.42,975.93,1339.15,975.93z"/>
		</g>
		<g>
			<path class="st15" d="M1850.88,1173.48c0,0-2.77,26.98-5.82,32.08c-3.04,5.1-16.01,21.41-21.53,24.61
				c-5.52,3.2,3.37-21.48,2.25-26.29c-1.13-4.8-4.55,8.77-6.98,9.08s-1.81-11.89-1.89-16.34c-0.09-4.44,11.84-15.42,16.05-24.88
				C1837.15,1162.29,1850.88,1173.48,1850.88,1173.48z"/>
			<path class="st15" d="M1519.44,924.67l-6.2-11.7c0,0,3.08-20.85-23.04-34.03c0,0-9.55-3.89-14.93,3.9
				c-4.96,7.17,9.46,5.88,8.69,18.14c-0.77,12.27,5.05,19.47,13.16,23.46l6.7,7.76L1519.44,924.67z"/>
			<path class="st16" d="M1766.28,896.7c0,0-22.43,110.09-145.87,146.06c-38.53,11.23-126.07-115.63-126.07-115.63
				s3.08-11.69,22.36-9.01c0,0,85.23,56.43,95.96,62.56c9.52,5.44,72.14-69.92,100.68-82.08
				C1741.9,886.46,1766.28,896.7,1766.28,896.7z"/>
			<g>
				
					<rect x="1481.86" y="837.26" transform="matrix(0.1518 -0.9884 0.9884 0.1518 381.8056 2235.4199)" class="st14" width="23.06" height="115.97"/>
				<polygon class="st15" points="1409.42,882.35 1434.32,897.84 1437.82,875.05 				"/>
				<path class="st15" d="M1564.62,902.26l-1.11,7.21c-0.68,4.43-4.83,7.47-9.26,6.79l-5.3-0.81l3.5-22.79l5.77,0.89
					C1562.39,894.18,1565.26,898.09,1564.62,902.26z"/>
			</g>
			<g>
				<path class="st17" d="M1913.65,1588.79c0,0,15.31,13.97,12.33,23.9c-2.99,9.93-16.81,16.55-18.67,28.68
					c-1.87,12.14-9.34,18.76-16.06,18.76c-6.72,0-32.05,0-32.05,0s-4.95-8.54,7-11.11c11.95-2.57,16.46-16.83,15.71-30.07
					c-0.75-13.24,1.12-30.89,1.12-30.89l25.4-5.88L1913.65,1588.79z"/>
				<path class="st17" d="M1725.79,1624.93c0,0,2.75,31.8-3.97,35.11l-86.04-0.18c0,0,0-9.93,13.82-12.14
					c13.82-2.21,38.1-10.3,42.2-28.32C1695.91,1601.39,1725.79,1624.93,1725.79,1624.93z"/>
				<path class="st18" d="M1653.15,1175.67c0,0,4.54,55.75,9.87,122.76c7.25,91.03,15.97,202.85,16.83,224.03
					c1.49,36.78,7.47,95.62,7.47,95.62s14.19,13.98,42.58,8.09c0,0,25.3-83.99,32.53-172.86c0.11-1.46,0.22-2.92,0.34-4.39
					c6.72-90.47,17.18-280.97,17.18-280.97L1653.15,1175.67z"/>
				<path class="st17" d="M1653.15,1175.67c0,0,4.54,55.75,9.87,122.76l99.41,154.88c0.11-1.46,0.22-2.92,0.34-4.39
					c6.72-90.47,17.18-280.97,17.18-280.97L1653.15,1175.67z"/>
				<path class="st18" d="M1673.87,1182.29c0,0,81.79,201.9,135.58,296.78c53.78,94.88,70.59,121.36,70.59,121.36
					s30.81-12.14,33.61-20.41c0,0-20.57-183.17-56.58-227.83c-20.35-25.23-44.26-100.95-45.38-127.43
					c-1.12-26.48-7.28-78.88-7.28-78.88L1673.87,1182.29z"/>
			</g>
			<path class="st15" d="M1781.49,871.15c0,0-55.34,26.7-87.25,16.79c0,0,7.85-9.91,21.6-17.28c-1.1-6.4-1.96-11.96-2.46-16.67
				c-1.35-10.88-1.35-17.04-1.35-17.04l21.35-16.8l20.25-16.07C1752.04,849.28,1781.49,871.15,1781.49,871.15z"/>
			<path class="st19" d="M1810.65,1156.23c0.12,3.38-7.12,7.25-10.31,8.7c-23.68,10.39-45.77,17.64-70.8,20.06
				c-29.57,3.02-64.55-3.63-76.57-3.38c-1.23,0-2.33-0.48-3.31-1.33c-0.86-0.61-1.47-36.25-0.86-81.08c0-1.81,0-3.63,0.12-5.44v-0.6
				c0.25-17.52,0.86-35.89,1.72-54.25c1.72-40.36,4.91-79.27,10.31-100.77c6.5-25.37,21.23-42.17,34.6-54.37l11.04-9.67
				c11.04,2.18,22.7,1.57,34.36-4.11c12.76-6.16,26.5-12.81,28.71-11.12c16.69,12.2,27.98,39.63,33.99,74.67
				c3.44,20.18,5.16,42.77,5.03,66.45c0,8.7-0.25,17.64-0.74,26.46c-2.94,47.85,0,89.41,1.72,113.46
				C1810.16,1146.92,1810.53,1152.36,1810.65,1156.23z"/>
			<path class="st16" d="M1809.67,1154.03c-193.8-0.39-35.74-210.29-35.74-210.29l31.4-10.2c2.48,21.56,3.73,45.7,3.64,71
				c0,9.3-0.18,18.85-0.53,28.27C1806.3,1083.93,1808.43,1128.34,1809.67,1154.03z"/>
			<path class="st20" d="M1754,821.37c0,0-13.99,25.49-40.62,32.62c-1.35-10.88-1.35-17.04-1.35-17.04l21.35-16.8L1754,821.37z"/>
			<path class="st15" d="M1702.3,836.22c0,0,52.8,8.64,57.75-23.82c4.96-32.46,15.11-53.2-18.39-60.09
				c-33.5-6.89-41.96,4.53-46.29,14.96S1688.69,833.14,1702.3,836.22z"/>
			<path class="st21" d="M1779.24,748.43c0.48-0.55,1.58-0.99,4.04-1.13c0,0-1.97-1.23-4.59-1.29c-0.52-3.42-2.33-9.48-8.22-10.95
				c0,0,3.16,1.69,3.58,5.32c-6.82-7-21.43-12.1-61.89-8.91c-53.32,4.21-35.75,38.35-28.85,42.42c6.9,4.07,24.28-7.09,37.14-6.07
				c12.86,1.02,15.31,19.61,19.67,22.16c4.36,2.55,2.65-1.96,8.55-4.63c5.9-2.67,6.47,7.11,4.76,13.47
				c-1.71,6.36,6.41,14.75,6.41,14.75s0,0,8.2-8.83c8.2-8.83,15.92-46.22,12.2-54.19C1779.9,749.86,1779.57,749.14,1779.24,748.43z"
				/>
			<path class="st19" d="M1769.64,858.6c0,0,33.4,15.82,49.42,40.14c24.84,37.72,53.64,175.19,54.17,187.92
				c0.53,12.73-21.02,102.6-21.02,102.6s-21.86-1.44-27.5-12.47c0,0,4.37-92.34,1.6-98.28c-2.77-5.94-91.12-123.87-81.19-149.04
				C1755.07,904.31,1769.64,858.6,1769.64,858.6z"/>
			<path class="st15" d="M1513.13,912.41c0,0,1.82-7.17-3.16-10.4c-4.98-3.23-9.56-12-11.66-10.81c-4.35,2.46,2.38,10.12,1.15,19.66
				C1499.03,914.21,1506.81,922.97,1513.13,912.41z"/>
		</g>
		<path class="st1" d="M701.44,1591.94c0,0-78.47-200.92-133.5-168.93C512.92,1455.01,701.44,1591.94,701.44,1591.94z"/>
		<path class="st1" d="M662.65,1591.94c0,0-103.66-89.58-151.01-72.95C464.29,1535.63,662.65,1591.94,662.65,1591.94z"/>
		<path class="st1" d="M1760.22,1620.88c0,0,23.89-83.06,51.91-73.26C1840.16,1557.42,1760.22,1620.88,1760.22,1620.88z"/>
		<path class="st1" d="M1782.02,1616.35c0,0,60.98-40.03,74.38-27.66C1869.8,1601.07,1782.02,1616.35,1782.02,1616.35z"/>
		<path class="st13" d="M1573.63,1438.5h-475.67c-3.18,0-5.79-2.6-5.79-5.79l0,0c0-3.18,2.6-5.79,5.79-5.79h475.67
			c3.18,0,5.79,2.6,5.79,5.79l0,0C1579.42,1435.9,1576.81,1438.5,1573.63,1438.5z"/>
		<path class="st13" d="M1573.63,1461.67h-475.67c-3.18,0-5.79-2.61-5.79-5.79l0,0c0-3.18,2.6-5.79,5.79-5.79h475.67
			c3.18,0,5.79,2.61,5.79,5.79l0,0C1579.42,1459.07,1576.81,1461.67,1573.63,1461.67z"/>
		<path class="st13" d="M1573.63,1487.35h-475.67c-3.18,0-5.79-2.6-5.79-5.79l0,0c0-3.18,2.6-5.79,5.79-5.79h475.67
			c3.18,0,5.79,2.6,5.79,5.79l0,0C1579.42,1484.75,1576.81,1487.35,1573.63,1487.35z"/>
		<path class="st13" d="M1511.18,1513.03h-413.61c-2.97,0-5.4-2.43-5.4-5.4v-0.77c0-2.97,2.43-5.4,5.4-5.4h413.61
			c2.97,0,5.4,2.43,5.4,5.4v0.77C1516.59,1510.59,1514.15,1513.03,1511.18,1513.03z"/>
	</g>
</g>
</svg>
