<?xml version="1.0" encoding="utf-8"?>
<!-- Generator: Adobe Illustrator 23.0.6, SVG Export Plug-In . SVG Version: 6.00 Build 0)  -->
<svg version="1.1" id="Layer_1" xmlns="http://www.w3.org/2000/svg" xmlns:xlink="http://www.w3.org/1999/xlink" x="0px" y="0px"
	 viewBox="0 0 541.3 796.32" style="enable-background:new 0 0 541.3 796.32;" xml:space="preserve">
<style type="text/css">
	.st0{fill:#FFB27D;}
	.st1{fill:#233862;}
	.st2{fill:#ED985F;}
	.st3{fill:#2B478B;}
	.st4{fill:#F99746;}
</style>
<g>
	<path class="st0" d="M180.08,546.49c-6.23,2.36-27.57,41.57-50.51,82.11l13.48-165.04c0,0,8.92-18.19,8.88-26.5
		c-0.04-8.31,11.01-73.87,5.44-75.87c-5.56-1.99-34.55,29.21-37.43,43.34c-1.73,8.46,2.1,48.26,2.1,48.26l0,0
		c-6.19,14.61-81.48,193.14-91.61,273.58c-2.94,23.26-0.42,38.33,10.8,38.84c2.83,0.13,5.67,0.1,8.54-0.05
		c11.5-0.67,23.07-3.54,33.45-7.07c0.09-0.05,0.19-0.09,0.3-0.1c11.1-3.53,21.69-8.39,31.72-14.18c0.23-0.14,0.45-0.25,0.68-0.39
		c2.89-1.6,4.5-2.61,4.5-2.61l0.02-0.12c32.66-20.26,59.07-50.1,77.64-75.55c19.88-27.21,30.79-49.39,30.79-49.39
		C246.98,551.37,200.7,538.62,180.08,546.49z"/>
	<path class="st1" d="M240.83,402.53c0,0,50.23,8.93,33.16,66.31c0,0,38.64-7.1,44.74-20.69c0,0,0.02,5.13-0.93,7.92
		c0,0,34.7-15.79,43.47-33.45c8.77-17.66-87.35-187.58-172.24-120.84c0,0-83.23,33.98-29.43,123.06
		c53.8,89.07,23.52,104.19,23.52,104.19s10.49-0.05,14.56-2.08c0,0,4.81-5.23,4.35-9.1c0,0,1.4,5.75,0.7,8.15
		c0,0,34.23-13.22,44.4-33.71C257.28,471.79,255.05,419.35,240.83,402.53z"/>
	<path class="st0" d="M347.16,511.47c2.98,25.03,2.73,64.27-26.22,71.78c-18.15,4.71-31.16,12.23-41.55,17.31
		c-14.33,7-23.72,9.37-34.88-6.7c-19.25-27.71-11.88-66.48-11.88-66.48l3.82-1.28c-8.87-17.54-17.33-35.83-20.67-47.82l65.13-33.57
		l6.11-3.15c0,0,6,7.3,16.3,17.17c13.46,12.94,34.27,30.28,58.53,41.41L347.16,511.47z"/>
	<path class="st2" d="M291.08,591.95l-11.69,8.61c-14.33,7-23.72,9.37-34.88-6.7c-19.25-27.71-11.88-66.48-11.88-66.48l3.82-1.28
		c-8.87-17.54-17.33-35.83-20.67-47.82l65.13-33.57c3.68,3.99,10.82,11.43,20.67,20.46C307.81,495.14,313.71,548.19,291.08,591.95z"
		/>
	<path class="st1" d="M272.12,445.9c0,0,12.12-40.31,9.14-71.05c-2.12-21.95-4.64-114.27-79.42-81.36c0,0-51.77,26.33-69.03,46.63
		c-13.72,16.14-31.25,47.62,14.93,107.64l13.47,20.87L272.12,445.9z"/>
	<path class="st0" d="M241,496.96c-14.67,10.75-27.6,16.94-27.6,16.94c-24.57,9.94-82.25-80.15-87.06-101.36
		c-4.81-21.2-4.29-48.45,55.43-74.08c42.06-18.05,58.06-1.64,73.69,29.44c6.56,13.04,13.06,28.69,21.41,45.44
		C294.47,448.72,265.36,479.12,241,496.96z"/>
	<path class="st2" d="M245.38,493.65c4.95-43.02-54.56-114.54-54.56-114.54s35.09-6.11,64.64-11.2
		c6.56,13.04,13.06,28.69,21.41,45.44C294.47,448.72,269.74,475.81,245.38,493.65z"/>
	<path class="st1" d="M148.52,360.07c0,0-11.19,24.11-8.52,40.8c2.67,16.68,15.45,47.39,6.29,50.7c0,0-41.3-35.8-32.97-71.87
		C122.15,341.45,148.52,360.07,148.52,360.07z"/>
	<path class="st1" d="M139.66,357.75c0,0,2.27,1.96,6.25,5.08c0.17,0.76,0.28,1.2,0.28,1.2s52.47,60.73,111.8,58.95
		c0,0-32.09-8.63-61.15-27.92c17.5,8.24,36.26,13.65,51.97,10.28c13.07-1.55,40.91,47.38,6.97,66.55c0,0,48.97-3.01,62.95-23.75
		c0,0,0.04,5.14-0.92,7.92c0,0,34.7-15.8,43.46-33.46C370.04,404.95,228.25,253.86,139.66,357.75z"/>
	<path class="st2" d="M198.08,665.13c-18.57,25.45-44.98,55.29-77.64,75.55l-0.02,0.12c0,0-1.61,1.01-4.5,2.61
		c-0.23,0.14-0.46,0.25-0.68,0.39c-10.03,5.79-20.62,10.65-31.72,14.18c-0.11,0.02-0.21,0.05-0.3,0.1
		c-10.38,3.53-21.95,6.4-33.45,7.07c9.7-1.79,19.03-5.48,27.93-10.5c16.61-9.33,31.7-23.26,44.69-38.08
		c29.18-33.32,47.68-71.13,48.71-71.38L198.08,665.13z"/>
	<path class="st3" d="M471.73,538.54c0.02,0,0-0.03,0-0.03c-2.71-5.24-5.44-10.23-8.19-14.92c-11.96-20.4-24.15-35.3-36.13-42.03
		c-0.02-0.02-0.05-0.02-0.06-0.03c-0.01,0-0.03,0-0.03-0.02c-6.6-3.67-18.5-4.01-33.62-2.05c-0.02,0-0.02,0-0.03,0
		c-14.37,1.85-31.68,5.75-50.18,10.81c-0.01,0-0.03,0.02-0.05,0.02c0.05,0,0.08,0,0.08,0s-11.62,41.62-29.78,69.76
		c-5.2,8.07-10.95,15.04-17.12,19.58c-4.57,3.39-9.39,5.44-14.37,5.63c-12.66,0.47-23.55-2.72-31.8-8.59
		c-12.57-8.9-19-24-16.24-41.71l0.01-0.08l2.08-8.69c0.01-0.02,0.01-0.04,0.02-0.06v-0.01l0,0l0.05-0.15v-0.01c0,0-0.02,0-0.05,0.01
		v0c-1.68,0.44-59.67,15.61-70.59,31.43c-11.08,16.04-27.48,52.98-27.48,52.98s25.32,68.94,66.26,78.66c0,0.08,0.01,0.14,0.01,0.21
		c1.91,20.2,18.15,48.45,38.86,76.03c7.96,10.61,16.6,21.13,25.33,31.04c62.03-5.05,127.31-14.85,188.98-31.04
		c28.9-7.58,57-16.57,83.6-27.14C523.59,667.3,498.58,590.32,471.73,538.54z"/>
	<path class="st0" d="M403.32,483.04c-8.6,3.46-42.19,71.23-73.72,128.2l-63.53-205.05c0,0-0.31-36.99-6-45.74
		c-5.69-8.75-26.69-27.57-34.57-25.38c-7.88,2.19,2.63,19.63,4.38,29.95c1.75,10.31,2.63,15.29,1.75,15.75
		c-0.88,0.47-6.45-17.69-9.02-16.82c-2.58,0.88,1.8,23.18,3.55,27.56c1.65,4.13,14.5,11.74,16.27,19.79
		c1.22,53.18,10.35,369.57,55.45,354.97c0.29-0.09,0.62-0.26,0.99-0.49c2.79-1.37,5.55-2.76,8.24-4.19c0.03-0.02,0.07-0.04,0.1-0.05
		c0.03-0.02,0.09-0.05,0.12-0.07c96.74-51.23,134.83-140.34,147.22-178.48c3.68-11.34,5.08-18.17,5.08-18.17
		C479.85,488.36,426.85,473.57,403.32,483.04z"/>
	<g>
		<path class="st4" d="M226.98,182.13c-3.84-3.93-8.64-5.89-14.39-5.89c-5.75,0-10.64,1.96-14.66,5.89
			c-4.02,3.93-6.04,8.78-6.04,14.52c0,5.56,2.06,10.35,6.19,14.37c4.11,4.02,8.94,6.04,14.51,6.04c5.75,0,10.55-1.97,14.39-5.89
			c3.82-3.93,5.75-8.78,5.75-14.52S230.8,186.06,226.98,182.13z M261.47,15.82C249.01,5.27,233.48,0,214.9,0
			c-11.89,0-23.19,2.74-33.93,8.19c-10.75,5.47-19.08,13.18-25.01,23.15c-3.65,6.13-5.47,12.26-5.47,18.41
			c0,4.79,1.48,8.76,4.46,11.92c2.97,3.17,6.76,4.74,11.36,4.74c5.37,0,10.06-2.77,14.08-8.33l11.5-15.53
			c5.56-5.55,12.95-8.33,22.14-8.33c7.86,0,14.42,2.16,19.69,6.47c5.27,4.31,7.92,10.4,7.92,18.25c0,9.02-2.78,16.01-8.35,20.99
			c-4.02,3.64-10.92,7-20.7,10.06c-7.28,2.31-12.12,4.65-14.51,7.05c-2.4,2.4-3.59,5.99-3.59,10.78v28.76
			c0,5.75,1.53,10.53,4.59,14.37c3.07,3.84,7.38,5.75,12.95,5.75c9.01,0,14.66-4.4,16.95-13.22c0.77-3.06,1.15-10.93,1.15-23.57
			c15.72-3.06,28.13-9.82,37.24-20.27c9.1-10.44,13.65-23.62,13.65-39.52C281.02,41.89,274.51,27.12,261.47,15.82z"/>
	</g>
	<g>
		<path class="st4" d="M338.92,196.2c-1.5-3.76-4.19-6.45-8.09-8.07c-3.9-1.62-7.78-1.67-11.62-0.15c-3.84,1.53-6.57,4.25-8.2,8.15
			c-1.57,3.78-1.54,7.61,0.12,11.51c1.65,3.9,4.37,6.62,8.15,8.19c3.9,1.64,7.7,1.65,11.42,0.08c3.71-1.59,6.37-4.33,8.01-8.24
			C340.34,203.77,340.4,199.94,338.92,196.2z M409.37,93.06c-5.47-10.67-14.52-18.64-27.14-23.9c-8.07-3.36-16.51-4.71-25.35-4.04
			c-8.82,0.67-16.66,3.56-23.51,8.64c-4.2,3.13-7.19,6.79-8.91,10.95c-1.36,3.26-1.47,6.36-0.35,9.36c1.13,2.98,3.24,5.12,6.38,6.42
			c3.64,1.53,7.61,0.96,11.91-1.67l12.2-7.29c5.33-2.19,11.13-1.99,17.38,0.61c5.33,2.22,9.17,5.53,11.53,9.95
			c2.37,4.42,2.43,9.3,0.21,14.63c-2.55,6.12-6.42,10.08-11.6,11.88c-3.76,1.35-9.39,1.67-16.89,0.98
			c-5.6-0.49-9.54-0.28-11.85,0.67c-2.29,0.95-4.13,3.06-5.47,6.3l-8.13,19.52c-1.64,3.9-1.94,7.58-0.95,11.05
			c0.99,3.47,3.38,5.99,7.15,7.55c6.12,2.55,11.19,1.16,15.26-4.17c1.38-1.86,3.87-7.09,7.45-15.67
			c11.53,2.37,21.86,1.28,30.99-3.23c9.14-4.51,15.96-12.17,20.46-22.96C415.27,116.28,415.01,104.44,409.37,93.06z"/>
	</g>
	<g>
		<path class="st4" d="M119.29,227.78c-2.58-3.35-5.87-5.31-9.88-5.87c-3.99-0.55-7.66,0.44-11.01,3.03
			c-3.35,2.58-5.31,5.93-5.89,10.03c-0.58,4.1,0.43,7.81,3.01,11.16c2.51,3.23,5.85,5.09,10.06,5.58c4.2,0.49,7.92-0.5,11.16-3.01
			c3.35-2.58,5.25-5.87,5.72-9.89C122.92,234.8,121.87,231.13,119.29,227.78z M86.02,126.6c-8.18-10.6-18.61-16.25-31.27-16.97
			c-11.99-0.54-23.39,3.36-34.22,11.73c-6.91,5.34-12.26,12-16.05,20.01c-3.79,8-5.18,16.24-4.16,24.71
			c0.64,5.21,2.34,9.59,5.09,13.16c2.16,2.78,4.8,4.43,7.95,4.94c3.15,0.5,6.07-0.28,8.75-2.34c3.12-2.42,4.6-6.15,4.45-11.19
			l-0.28-14.2c0.73-5.73,3.78-10.66,9.13-14.8c4.57-3.53,9.36-5.21,14.37-5.08c5,0.14,9.26,2.49,12.8,7.06
			c4.05,5.24,5.58,10.57,4.59,15.96c-0.7,3.93-3.21,8.99-7.52,15.15c-3.21,4.62-4.97,8.16-5.29,10.63
			c-0.32,2.48,0.61,5.11,2.75,7.89L70.03,210c2.59,3.35,5.64,5.44,9.14,6.3c3.5,0.86,6.88,0.03,10.11-2.48
			c5.25-4.05,6.56-9.16,3.93-15.32c-0.93-2.12-4.23-6.86-9.92-14.23c7.77-8.84,11.96-18.35,12.57-28.53
			C96.45,145.58,93.17,135.87,86.02,126.6z"/>
	</g>
	<path class="st2" d="M454.56,582.99c-12.39,38.14-50.48,127.25-147.22,178.48c52.47-29.41,99.65-176.21,99.65-176.21L454.56,582.99
		z"/>
	<path class="st3" d="M389.92,480.5c0,0,54.36-18.06,74.22,26.57c19.86,44.63-2.02,119.46-2.02,119.46s-95.48-5.25-110.27-74.82
		L389.92,480.5z"/>
</g>
</svg>
