<?xml version="1.0" encoding="utf-8"?>
<!-- Generator: Adobe Illustrator 23.0.6, SVG Export Plug-In . SVG Version: 6.00 Build 0)  -->
<svg version="1.1" id="Layer_1" xmlns="http://www.w3.org/2000/svg" xmlns:xlink="http://www.w3.org/1999/xlink" x="0px" y="0px"
	 viewBox="0 0 2662.08 1674.18" style="enable-background:new 0 0 2662.08 1674.18;" xml:space="preserve">
<style type="text/css">
	.st0{fill:#7DB2C9;}
	.st1{fill:url(#SVGID_1_);}
	.st2{fill:#A6D1E6;}
	.st3{fill:url(#SVGID_2_);}
	.st4{fill:#658DA1;}
	.st5{fill:url(#SVGID_3_);}
	.st6{fill:#F7A491;}
	.st7{fill:#466EB6;}
	.st8{fill:#F8A492;}
	.st9{fill:#B75742;}
	.st10{fill:#F47458;}
	.st11{fill:#FFFFFF;}
	.st12{fill:#184655;}
	.st13{fill:#07345A;}
	.st14{fill:#3C8F7C;}
	.st15{fill:#5E60CE;}
	.st16{fill:#FFD95E;}
	.st17{fill:#FDF0D9;}
	.st18{fill:#298AAB;}
	.st19{fill:#FFE89E;}
	.st20{fill:#1D6178;}
	.st21{fill:#FF916C;}
	.st22{fill:#FFBA94;}
	.st23{fill:#232A55;}
	.st24{fill:#7AAABF;}
	.st25{fill:#322783;}
	.st26{fill:#261D62;}
	.st27{fill:#453FAF;}
	.st28{fill:#6A65BF;}
	.st29{fill:#732B1A;}
	.st30{fill:#F75F4B;}
	.st31{opacity:0.39;fill:#247894;}
	.st32{opacity:0.68;fill:#FF682B;}
	.st33{fill:#0B0080;}
</style>
<g>
	<g>
		<g>
			<path class="st0" d="M604.17,1110.6H195.6c-6.61,0-11.97-5.36-11.97-11.97V708.96c0-6.61,5.36-11.97,11.97-11.97h408.57
				c6.61,0,11.97,5.36,11.97,11.97v389.68C616.14,1105.24,610.78,1110.6,604.17,1110.6z"/>
			<g>
				<linearGradient id="SVGID_1_" gradientUnits="userSpaceOnUse" x1="241.0268" y1="903.7974" x2="558.7405" y2="903.7974">
					<stop  offset="0" style="stop-color:#BCE3F1"/>
					<stop  offset="1" style="stop-color:#D0F7FF"/>
				</linearGradient>
				<path class="st1" d="M540.15,1032.04H259.62c-10.27,0-18.59-8.32-18.59-18.59V794.14c0-10.27,8.32-18.59,18.59-18.59h280.53
					c10.27,0,18.59,8.32,18.59,18.59v219.31C558.74,1023.72,550.42,1032.04,540.15,1032.04z"/>
				<path class="st2" d="M534.8,1019.93H264.96c-7.05,0-12.77-5.72-12.77-12.77V800.43c0-7.05,5.72-12.77,12.77-12.77H534.8
					c7.05,0,12.77,5.72,12.77,12.77v206.73C547.58,1014.22,541.86,1019.93,534.8,1019.93z"/>
				<linearGradient id="SVGID_2_" gradientUnits="userSpaceOnUse" x1="446.5346" y1="903.7974" x2="494.7204" y2="903.7974">
					<stop  offset="0" style="stop-color:#BCE3F1"/>
					<stop  offset="1" style="stop-color:#D0F7FF"/>
				</linearGradient>
				<path class="st3" d="M470.63,927.89c-13.28,0-24.09-10.81-24.09-24.09c0-13.28,10.81-24.09,24.09-24.09
					c13.28,0,24.09,10.81,24.09,24.09C494.72,917.08,483.91,927.89,470.63,927.89z"/>
				<g>
					
						<ellipse transform="matrix(0.9239 -0.3827 0.3827 0.9239 -310.0442 248.8992)" class="st4" cx="470.63" cy="903.8" rx="14.79" ry="14.79"/>
					<linearGradient id="SVGID_3_" gradientUnits="userSpaceOnUse" x1="305.0468" y1="903.7974" x2="353.2326" y2="903.7974">
						<stop  offset="0" style="stop-color:#BCE3F1"/>
						<stop  offset="1" style="stop-color:#D0F7FF"/>
					</linearGradient>
					<path class="st5" d="M329.14,927.89c-13.28,0-24.09-10.81-24.09-24.09c0-13.28,10.81-24.09,24.09-24.09
						c13.28,0,24.09,10.81,24.09,24.09C353.23,917.08,342.42,927.89,329.14,927.89z"/>
					
						<ellipse transform="matrix(0.9239 -0.3827 0.3827 0.9239 -320.8143 194.7541)" class="st4" cx="329.14" cy="903.8" rx="14.79" ry="14.79"/>
				</g>
			</g>
		</g>
	</g>
	<g>
		<g>
			<g>
				<path class="st6" d="M2358.61,1506.49c0,0,34.26,24.69,39.65,32.06c7.77,10.61-58.03,30.46-50.85,18.03
					c1.65-2.86,6.39-12.47,6.59-13.42c1.1-5.06-12.85-18.68-12.85-18.68L2358.61,1506.49z"/>
				<path class="st7" d="M2329.61,1577.35l23.26-32.87c0,0,14.52-3.37,29.43-20.14c0,0,13.4,5.11,21.64,16.2
					c0,0-15.57,16.78-39.56,35.67c0,0-14.22,12.6-33.88,19.24C2310.84,1602.08,2329.61,1577.35,2329.61,1577.35z"/>
				<path class="st8" d="M2644.88,1056.39c0,0-4.21,3.72-5.7,4.86c-1.75,1.33-7.27,4.92-7.27,4.92s-19.99,11.37-20.67,9.87
					c-0.68-1.49-0.65-5.81,0.34-6.95c0.99-1.14,3.87-2.31,4.86-3.44c0.99-1.14,1.33-3.43,0.05-4.69c-1.27-1.27-8.11,2.46-8.11,2.46
					s-5.53,3.08-7.85,6.79c-8.02,12.86-5.59,13.61-6.66,15.24c-1.27,1.92-29.31,14.65-29.31,14.65s-83.84,34.85-88.36,36.76l-0.06,0
					c-0.61,3.88,1.47,7.45,2.53,10.89c2,11.97,5.57,12.77,8.29,24.32c12.86-6.5,101.87-55.54,110.92-60.65
					c0,0,13.56-2.32,22.03-4.05c8.47-1.73,15.85-7.09,18.18-7.94c0.34-0.12,7.92-3.39,16.26-9.85c7.18-5.57-2.09-3.47-2.09-3.47
					s-15.1,8-15.49,6.73c-0.3-0.98,8.19-4.87,16.19-10.95c2.06-1.56,4.09-3.11,5.94-4.55c4.86-3.77,4.01-7.74-1.68-4.57
					c-2.01,1.12-5.31,3.05-7.47,4.76c-2.34,1.84-5.06,2.8-7.25,4.06c-4.36,2.5-7.5,4.37-7.5,4.14c0-0.3-1.2-0.4,0.94-2.12
					c2.57-2.07,8.97-5.31,12.52-8.65c2.01-1.89,6.45-5.59,6.45-5.59s5.7-6.81,5.42-7.26c-1.51-2.45-6.68,1.16-9.09,4.07
					c-2.46,1.1-7.03,5.13-7.03,5.13s-11,6.14-11.85,4.63c-0.36-0.64,5.96-5.19,11.47-10.6c5.13-5.02,9.5-10.9,8.69-12.02
					C2651.15,1051.4,2644.88,1056.39,2644.88,1056.39z"/>
				<path class="st9" d="M2411,1252.67l-5.42,26.8l-136.21,123.89l97.5,98.67l-26.33,26.91c0,0-144-105.74-149.19-119.6
					c-7.99-21.33,103.22-162.65,103.22-162.65L2411,1252.67z"/>
				<path class="st6" d="M2506.45,1577.79c0,0,34.26,24.69,39.65,32.06c7.77,10.61-58.03,30.46-50.85,18.03
					c1.65-2.86,6.39-12.47,6.59-13.42c1.1-5.06-12.85-18.69-12.85-18.69L2506.45,1577.79z"/>
				<path class="st7" d="M2477.42,1648.77l23.26-32.87c0,0,15.45-2.78,30.36-19.55c0,0,12.47,4.52,20.71,15.6
					c0,0-15.57,16.78-39.56,35.67c0,0-14.22,12.6-33.88,19.24C2458.65,1673.51,2477.42,1648.77,2477.42,1648.77z"/>
				<path class="st10" d="M2406.34,1265.09l-6.12,169.06l115.17,141.2l-27,24.89c0,0-133.7-114.75-148.38-146.71
					c-9.11-19.83-39.74-199.03-39.74-199.03L2406.34,1265.09z"/>
				<path class="st11" d="M2296.47,1251.21c11.08-25,9.8-204.25,52.91-246.23c15.17,2.56,25.99,4,28.52,4.66
					c2.25,18.46,4.73,86.22,6.25,148.32c1.01,41.37-0.03,84.76,5.06,107.62C2392.37,1279.77,2286.35,1274.05,2296.47,1251.21z"/>
				<path class="st7" d="M2413.18,1018.9c12.1,2.76,21.01,4.7,36.88,28.13c15.19,22.43,48.91,75.67,48.91,75.67l88.82-39.45
					l4.15,44.99c0,0-100.48,52.23-114.66,47.52c-14.18-4.71-54.03-62.97-56.98-66.9c-0.69-0.92,3.35,62.23,3.35,72.32
					c0,10.09,19.26,97.94,19.26,97.94s-48.88,12.03-58.42-9.82c-29.25-67-6.8-259.7-6.8-259.7S2404.47,1016.91,2413.18,1018.9z"/>
				<path class="st6" d="M2228.32,826.91c3.29-3.59,3.92-11.23,3.89-16.09l0.81-6.55c-1.58-0.42-31.5-0.7-40.39,0.25
					c-0.49,2.92-0.6,5.34-0.13,6.82c2.28,7.06,17.76,52.83,17.76,52.83l25.35-2.85C2235.62,861.31,2226.42,834.18,2228.32,826.91z"
					/>
				<path class="st7" d="M2339.39,1015.47c0,0-17.5,49.8-31.91,42.63c-14.4-7.17-95.32-89.67-96.12-93.65
					c-0.8-3.99-6.4-105.24-6.4-105.24l32.01-6.38l18.41,82.92c0,0,59.21,56.61,71.21,62.19
					C2338.59,1003.51,2339.39,1015.47,2339.39,1015.47z"/>
				<path class="st7" d="M2292.14,1263.19c-9.69,0-13.26-1.34-19.72-3.28c0,0,18.45-104,29.18-207.12
					c4.24-40.74,8.17-57.44,24.98-54.49c4.86,0.85,18.02,5.87,22.8,6.67c-42.23,119.49-42.38,211.47-48.36,238.14
					C2298.02,1256.5,2295.41,1263.28,2292.14,1263.19z"/>
				<path class="st6" d="M2353.84,986.93l-4.43,18.05c0,0-1.01,15.72,6.29,17.13c8.8,1.7,21.87-11.46,21.87-11.46l7.57-50.91
					L2353.84,986.93z"/>
				<path class="st6" d="M2353.84,986.93l-4.43,18.05c0,0-1.01,15.72,6.29,17.13c8.8,1.7,21.87-11.46,21.87-11.46l7.57-50.91
					L2353.84,986.93z"/>
				<path class="st10" d="M2385.07,959.97l-31.23,26.96l-3.31,13.49C2362.47,997.54,2379.49,984.41,2385.07,959.97z"/>
				<path class="st6" d="M2353.73,913.12c-7.55-0.02-14.35,5.22-17.01,12.76c-2.2,6.25-5.02,15.51-6.81,26.14
					c-3.3,19.58,7.84,37.5,17.55,38.93c9.7,1.43,32.81-5,37.92-32.73c2.19-11.89,5.07-27.48-4.71-35.68
					C2373.07,916.17,2362.41,913.15,2353.73,913.12z"/>
				<path class="st12" d="M2382.23,979.36c0,0,34.2-30.48,35.69-54.29c1.49-23.81-20.5-36.57-39.3-37.23
					c-8.49-0.3-14.24,0.08-23.01,1.19c-18.84,2.38-31.05,10.73-26.75,26.16c5.77,20.72,44.87,3.24,52.86,9.67
					c6.6,5.31-4.1,18.07,2.31,22.95c6.02,4.58,2.96,3.03,0.96,11.73C2383,968.24,2382.23,979.36,2382.23,979.36z"/>
				<path class="st6" d="M2395.41,951.74c-0.85,5.71-4.34,9.92-7.79,9.41c-3.45-0.51-5.57-5.55-4.72-11.25
					c0.85-5.71,4.34-9.92,7.79-9.41C2394.15,941,2396.26,946.04,2395.41,951.74z"/>
				<path class="st10" d="M2225.37,807.06c0,0-4.75,3.27-9.25,11.23c0,0-15.51-7.27-15.4-10.24c0.15-3.94,15.72,1.27,15.72,1.27
					L2225.37,807.06z"/>
			</g>
			<path class="st6" d="M2229.39,795.33l3.63,8.93l-8.33,4.31c0,0,2.12-4.23,1.35-5.39
				C2221.89,796.83,2225.42,790.59,2229.39,795.33z"/>
		</g>
		<g>
			<g>
				<path class="st6" d="M1046.24,719.75c0,0-8.88,13.38,1.24,31.8c2,3.64,8.94,18.47,8.94,18.47l3.39,39.87l29.85-4
					c0,0-7.75-28.13-6.68-37.35c3.51-30.28,2.68-31.74-2.34-44.78C1072.55,702.72,1046.24,719.75,1046.24,719.75z"/>
				<path class="st6" d="M1374.76,750.13c0,0,5.23,6.54-0.27,18.27c-1.76,3.76-16,19.98-16,19.98l-16.89,33.97l-23.86-13.59
					c0,0,18.34-19.23,19.43-33.6c0.99-12.98,4.53-20.99,6.13-24.18C1348.75,740.11,1374.76,750.13,1374.76,750.13z"/>
				<path class="st13" d="M1171.16,870.83c0,0,15.55-16.39,28.06,3.55c0,0,9.63-5.41,16.4,4.23c0,0,17.41-5.24,21.63,20.79
					c0,0,8.96-1.69,10.14,8.96c1.18,10.65-4.23,17.75-4.23,17.75s5.03,3.77,2.75,13.56c-1.94,8.32-8.83,9.59-8.83,9.59
					s-1.86,14.03-7.94,18.25c-6.08,4.23-14.37,2.2-14.37,2.2s-2.2,7.61-9.3,6.93c-7.1-0.68-15.89-7.44-23.83-4.39
					c-7.94,3.04-28.56-0.17-28.56-0.17s-23.16-10.31-16.23-33.97c0,0-12.17-10.99-1.52-24.17c0,0-7.78-20.62,7.61-32.79
					C1158.31,868.97,1171.16,870.83,1171.16,870.83z"/>
				<path class="st6" d="M1343.97,1449.89c0,0,26.81-3.06,31.25-5.25c4.44-2.18,26.95,19.31,22.48,30.09
					c-2.52,6.08-10.47,5.3-10.47,5.3l-6.43-6.28l-34.02,7.09L1343.97,1449.89z"/>
				<path class="st6" d="M1190.97,1562.86c0,0,14.12,23,17.97,26.1c3.86,3.1-6.1,32.59-17.75,33.1c-6.57,0.29-9.23-7.24-9.23-7.24
					l2.97-8.48l-20.82-27.82L1190.97,1562.86z"/>
				<path class="st13" d="M1208.09,1588.05c0,0-8.11,10.34-12.53,14.46c-5.71,5.31-13.03,10.51-13.03,10.51s-8.29,15.04-10.55,20.29
					c-5.04,11.68-10.7,24.7-9.89,31.24c0.26,2.1,4.98,4.32,8.91,3.11c16.36-5.03,58.2-43.3,63.49-53.58
					C1240.58,1602.23,1208.09,1588.05,1208.09,1588.05z"/>
				<path class="st9" d="M1088.67,1237.81c1.52-4.25,2.98-8.19,4.39-11.89c17.4,3.8,37.06,7.98,57.28,12.29l2.46,74.12
					c-0.01-5.72-15.2,118.22-15.2,118.22s41.31,82.05,68.18,132.75c-11.03,13.76-19.51,19.79-35.48,29.17
					c-41.72-50.01-95.03-138.16-97.3-153.38C1071.7,1430.34,1070.53,1288.85,1088.67,1237.81z"/>
				<path class="st10" d="M1244.01,1259.25c-4.73,51.38-12.55,129.16-13.98,155.33c33.22,4.79,111.7,28.39,126.33,28.37
					c5.54,12.41,8.6,27.47,4.76,39.84c-0.76,2.44-154.82,7.35-194.59-18.03c-10.37-6.62-13.57-77.59-13.73-152.43l-2.46-74.12
					C1184.03,1245.39,1215.01,1252.43,1244.01,1259.25z"/>
				<path class="st11" d="M1133.36,995.97l37.81,5.7c0,0,28.5,0.44,36.1,0.52c0.66,0.01,30.32,144.68,37.53,199.13
					c7.21,54.45,1.62,64.09,1.62,64.09s-50.28,11.31-87.49,8.01c-38.68-3.43-82.21-24.31-82.21-24.31s44.83-102.23,51.39-134.9
					C1134.67,1081.53,1133.36,995.97,1133.36,995.97z"/>
				<path class="st14" d="M1055.64,794.09c0,0,3.32,134.03,7.39,142.28c5.92,12,48.21,97.57,48.21,97.57s-31.81,133.13-45.19,179.11
					c-1.35,4.63-7.31,34.54-7.31,37.45c0,6.47,28.14,14.67,31.48,14.19c2.99-0.44,27.55-127.07,43.22-189.04
					c5.31-21,14.42-40.84,26.89-58.55l10.9-15.49l-64.62-78.2c0,0-13.99-123.75-13.99-131.48
					C1092.63,789.89,1059.69,786.49,1055.64,794.09z"/>
				<path class="st14" d="M1207.27,1002.19l64.74-97.63c0,0,42.02-102.57,43.05-106.36c1.01-3.72,34.05,0.53,44.49-0.48
					c3.35-0.33-43.99,107.68-48.98,125.68c-5.9,21.27-37.5,104.48-37.5,104.48s-21.83,49.82-18.43,88.32
					c5.66,63.94,16.88,156.08,14.14,158.84c-16.95,10.68-70.31,10.3-74.43,3.66C1148.87,1205.44,1207.27,1002.19,1207.27,1002.19z"
					/>
				<path class="st6" d="M1173.78,982.14l-2.82,20.88c0,0-6.31,30.09,1.81,35.89c8.11,5.8,34.5-36.75,34.5-36.75l-2.79-52.92
					L1173.78,982.14z"/>
				<path class="st10" d="M1205.39,966.4c-6.7,18.05-22.66,29.14-33.99,33.45l2.39-17.71l30.7-32.89L1205.39,966.4z"/>
				<path class="st13" d="M1247.66,913.29c0,8.06-4.58,14.59-10.24,14.59c-5.65,0-10.24-6.53-10.24-14.59
					c0-8.06,4.58-14.59,10.24-14.59C1243.08,898.69,1247.66,905.23,1247.66,913.29z"/>
				<path class="st13" d="M1216.95,881.92c0,4.63-5.58,8.39-12.45,8.39c-6.88,0-12.46-3.76-12.46-8.39c0-4.63,5.58-8.39,12.46-8.39
					C1211.37,873.53,1216.95,877.29,1216.95,881.92z"/>
				<path class="st6" d="M1185.74,893.66c-16.46-5.67-34.01,5.27-36.52,22.24c-1.09,7.38-2.08,16.65-2.26,26.79
					c-0.44,24.39,12.18,48.13,23.26,48.13s41.69-15.79,42.79-50.42C1213.69,919.02,1203.02,899.6,1185.74,893.66z"/>
				<path class="st6" d="M1204.85,943.14c0,5.38,3.57,9.74,7.97,9.74c4.4,0,7.97-4.36,7.97-9.74c0-5.38-3.57-9.74-7.97-9.74
					C1208.41,933.4,1204.85,937.76,1204.85,943.14z"/>
				<path class="st13" d="M1137.76,881.52c-11.44,9.06-15.45,22.83-8.96,30.76c6.5,7.92,21.03,7,32.48-2.06
					c11.44-9.06,15.45-22.83,8.96-30.76C1163.74,871.53,1149.2,872.46,1137.76,881.52z"/>
				<path class="st13" d="M1167.67,888.95c0,3.94,4.76,7.13,10.62,7.13c5.87,0,10.62-3.19,10.62-7.13c0-3.94-4.76-7.13-10.62-7.13
					C1172.42,881.82,1167.67,885.01,1167.67,888.95z"/>
				<ellipse class="st13" cx="1145.13" cy="919.26" rx="9.07" ry="9.17"/>
				<path class="st13" d="M1374.05,1445.03c0,0,5.94,11.72,7.8,17.48c2.4,7.42,4.01,16.25,4.01,16.25s10.12,13.87,13.92,18.14
					c8.45,9.51,18.8,20.76,25.07,22.79c2.01,0.65,7.73-1.06,7.68-5.5c-0.21-17.12-16.64-72.93-23.72-82.06
					C1400.64,1421.59,1374.05,1445.03,1374.05,1445.03z"/>
				<path class="st10" d="M1375.54,751.62c0,0,3.12,18.71-9.69,21.88c-9.26,2.29-20.53-26.83-20.53-26.83L1375.54,751.62z"/>
				<path class="st10" d="M1066.15,717l4.05,12.51c0,0-8.96,40.24-23.23,8.45L1066.15,717z"/>
				<g>
					<path class="st15" d="M1659.52,1179.16c-109.98,19.99-215.65,11.88-306.97-23.37c-5.6,9.77-11.68,19.21-18.23,28.31
						c-41.15,57.17-100.27,100.5-175.72,128.79c-4.95,1.86-9.91,3.62-14.94,5.32c-192.02,64.98-434.67,17.46-489.86-49.67
						l12.98-10.67c25.57,31.1,100.03,58.31,189.69,69.32c60.8,7.47,180.12,13.5,296.23-30.04c65.35-24.5,137.71-68.59,184.03-147.82
						c-0.64-0.27-1.28-0.55-1.92-0.83c-52.64-22.85-100.06-55.07-140.92-95.77c-43.81-43.63-80.52-97.46-109.13-160.02
						c-26.84-58.69-39.02-113.44-36.21-162.75c2.51-44.1,17.21-81.72,42.5-108.78c17.94-19.2,40.67-32.25,65.75-37.76
						c25.23-5.54,52.27-3.29,78.21,6.51c44.63,16.86,83.44,54.13,112.24,107.8c33.23,61.93,51.5,141.89,54.31,237.67
						c2.3,78.67-11.51,147.66-41.12,205.81c115.48,43.4,231.35,33.18,296.09,21.42c247.29-44.95,458.24-222.34,470.25-395.43
						l16.76,1.16c-6.22,89.63-61.38,181.84-155.33,259.65c-44.55,36.9-95.51,68.76-151.48,94.69
						c-24.53,11.37-49.52,21.35-74.83,29.92C1728.24,1164.01,1694.01,1172.89,1659.52,1179.16z M1103.32,632.67
						c-50.03,53.54-51.26,148.15-3.29,253.07c62.34,136.34,152.6,210.59,244.61,249.2c26.58-51.43,42.53-116.56,40.12-199.04
						c-2.73-93.15-20.33-170.6-52.32-230.22c-26.85-50.03-62.6-84.62-103.37-100.02c-27.62-10.43-55.4-11.11-80.17-2.73
						C1131.95,608.67,1116.41,618.66,1103.32,632.67z"/>
				</g>
				<path class="st6" d="M1357.25,768.4c0,0-6.29-7.65-6.75-17.52c-0.06-1.23,3.15-19.27-1.12-19.75
					c-4.04-0.46-10.29,32.93-10.29,32.93S1348.31,767.31,1357.25,768.4z"/>
				<path class="st6" d="M1369.58,759.82c-4.29,2.38-9.26,3.94-10.68,2.13c-1.51-1.91-0.04-4.05,2.11-5.87
					c-1.93,0.6-3.52,0.65-4.26-0.24c-1.6-1.93-0.05-4.23,2.15-6.19c-1.38,0.34-2.49,0.27-3.09-0.41c-3.7-4.19,7.74-11.63,7.74-11.63
					s5.84-4.91,8.17-2c0.35,0.44,0.84,3.45,0.47,4.21c-0.78,1.61-0.18,3.78,1.26,5.26c0.09,0.09,0.17,0.19,0.25,0.29
					c0.23,0.3,0.27,0.69,0.15,1.13c-0.48,1.76,2.26,6.1,2.43,6.34c0.38,0.54,0.46,1.97,0.19,3.46
					C1375.18,762.61,1371.09,765.27,1369.58,759.82z"/>
				<path class="st6" d="M1066.99,742.58c0,0,5.58-9.75-0.25-25c-0.44-1.15-7.1-11.89-3.39-14.06c6.17-3.61,17.29,20.23,17.29,20.23
					S1074.99,738.46,1066.99,742.58z"/>
				<path class="st6" d="M1048.87,736.05c4.44,2.08,9.54,3.2,10.92,1.12c1.45-2.2-0.12-4.33-2.37-6.05c1.98,0.44,3.6,0.31,4.31-0.72
					c1.55-2.24-0.11-4.53-2.43-6.38c1.41,0.22,2.54,0.02,3.12-0.77c3.59-4.88-8.31-11.6-8.31-11.6s-6.11-4.61-8.36-1.25
					c-0.34,0.51-0.72,3.78-0.31,4.55c0.86,1.63-0.88,4.06-0.93,4.19c-0.43,1.17-0.62,2.67-0.48,3.13c0.55,1.83-2.06,6.77-2.22,7.04
					c-0.37,0.61-0.39,2.15-0.06,3.72C1043.31,739.64,1047.56,742.05,1048.87,736.05z"/>
			</g>
		</g>
		<g>
			<g>
				<path class="st16" d="M2287.12,278.86c169.55,50.44,192.17,284.23,35.33,367.64c-28.17,14.98-49.55,40.17-61.06,69.93
					l-39.61,102.4c-10.91,28.22-41.68,43.32-70.67,34.69l-64.24-19.11c-29-8.63-46.51-38.09-40.22-67.68
					c22.93-107.99,39.21-146.15,9.9-199.33C1970.84,411.85,2117.53,228.41,2287.12,278.86z"/>
				<g>
					<path class="st17" d="M2201.66,736.35c21.71-86.45,48.92-180.78,60.25-215.72c-32.08-7.18-62.68-20.28-90-38.47
						c-14.47,72.5-30.96,145.27-49.13,216.72l-9.22-2.35c18.46-72.62,35.19-146.62,49.83-220.3
						c-16.24-11.75-34.75-26.47-39.06-45.76c-2.03-9.03,0.05-19.37,5.4-26.98c14.25-20.26,41.72-10.61,48.62,12.91
						c4.57,15.58,0.08,32.76-4.42,55.62c27.45,18.9,58.48,32.39,91.08,39.54c6.35-17.5,14.6-33.16,29.19-43.63
						c51.2-36.74,75.66,72.67-22.9,54.61c-8.93,27.32-37.27,124.03-60.4,216.12L2201.66,736.35z M2299.74,475.68
						c-12.22,8.76-19.56,22.36-25.29,37.77c21.44,3.72,36.75,1.42,46.77-6.97C2338.03,492.4,2327.29,455.9,2299.74,475.68z
						 M2148.15,402.08c-10.9,1.36-16.96,15.49-14.54,26.33c3.46,15.47,18.66,27.65,31.81,37.51c3.56-18.11,7.63-33.74,3.79-46.83
						C2166.52,409.91,2149.33,401.93,2148.15,402.08z"/>
				</g>
				<path class="st18" d="M2262.49,713.92c-0.35,0.85-0.77,1.66-1.1,2.52l-39.61,102.4c-10.91,28.22-41.68,43.32-70.67,34.69
					l-64.24-19.11c-29-8.63-46.51-38.09-40.22-67.68c10.2-48.04,19.07-82.24,23.21-110.11L2262.49,713.92z"/>
				<g>
					<path class="st19" d="M2411.68,231.06l63.76-87.96c6.17-8.51,4.27-20.42-4.24-26.59c-8.51-6.17-20.42-4.27-26.59,4.24
						l-63.76,87.96c-6.17,8.51-4.27,20.42,4.24,26.59C2393.65,241.51,2405.54,239.53,2411.68,231.06z"/>
				</g>
				<g>
					<path class="st19" d="M2509.69,459.17l114.12,4.44c10.51,0.41,19.35-7.78,19.76-18.29c0.41-10.5-7.78-19.36-18.29-19.76
						l-114.12-4.44c-10.5-0.41-19.35,7.78-19.76,18.28C2491,449.91,2499.17,458.75,2509.69,459.17z"/>
				</g>
				<g>
					<path class="st19" d="M2577.75,819.39c8.27-6.49,9.72-18.46,3.23-26.73c-24.27-30.93-51.63-59.69-81.32-85.47
						c-7.94-6.9-19.96-6.05-26.86,1.89c-6.89,7.94-6.05,19.96,1.89,26.86c27.86,24.2,53.54,51.19,76.32,80.23
						C2557.48,824.4,2569.44,825.92,2577.75,819.39z"/>
				</g>
				<g>
					<path class="st19" d="M2169.67,191.44c10.42-1.42,17.72-11.01,16.3-21.43c-6.73-49.47-8.31-99.81-4.7-149.6
						c0.75-10.49-7.11-19.62-17.61-20.36c-10.48-0.76-19.6,7.12-20.36,17.61c-3.8,52.42-2.14,105.4,4.94,157.48
						C2149.67,185.62,2159.33,192.86,2169.67,191.44z"/>
				</g>
				<g>
					<path class="st19" d="M2012.63,306.09c4.27-9.61-0.04-20.86-9.65-25.14l-112.86-50.24c-9.62-4.28-20.86,0.05-25.14,9.65
						c-4.27,9.61,0.04,20.86,9.65,25.13l112.86,50.24C1997.08,320,2008.34,315.72,2012.63,306.09z"/>
				</g>
				<g>
					<path class="st19" d="M1780.3,593.9c1.69,0.21,3.44,0.2,5.21-0.06c42.11-6.27,83.65-17.11,123.47-32.21
						c9.83-3.73,14.78-14.72,11.05-24.55c-3.73-9.83-14.72-14.78-24.55-11.05c-37.28,14.13-76.17,24.28-115.59,30.15
						c-10.4,1.55-17.57,11.24-16.02,21.64C1765.16,586.44,1772.05,592.85,1780.3,593.9z"/>
				</g>
			</g>
			<g>
				<polygon class="st20" points="624.32,1253.24 661.7,1285.86 686.85,1265.8 664.21,1221.41 				"/>
				<path class="st9" d="M295.9,1185.18c0,0,63.48,16.98,94,11.94c34.01-5.62,111.1-68.44,111.1-68.44l28.75-0.81
					c0,0-59.58,98.84-98.34,117.63c-38.76,18.79-123.54,36.64-123.54,36.64L295.9,1185.18z"/>
				<path class="st15" d="M421.48,1096.85l59.97,75.16l21.39-17.07l-59.97-75.16c-4.71-5.91-13.32-6.88-19.23-2.16l0,0
					C417.74,1082.34,416.77,1090.95,421.48,1096.85z"/>
				<path class="st18" d="M642.31,1042.77l67.12,84.12c19.49,24.43,15.49,60.03-8.94,79.52l-98.86,78.89
					c-24.43,19.49-60.03,15.49-79.52-8.94l-67.12-84.12L642.31,1042.77z"/>
				<path class="st15" d="M537.88,1004.48l59.97,75.16l21.39-17.07l-59.97-75.16c-4.71-5.91-13.32-6.87-19.23-2.16l0,0
					C534.13,989.97,533.17,998.58,537.88,1004.48z"/>
				<path class="st20" d="M448.05,1201.33l10.84,13.59c3.5,4.39,9.9,5.11,14.29,1.61l192.23-153.39c4.39-3.5,5.11-9.9,1.61-14.29
					l-10.84-13.59c-3.5-4.39-9.9-5.11-14.29-1.61l-192.23,153.39C445.27,1190.54,444.55,1196.94,448.05,1201.33z"/>
				<path class="st21" d="M540.44,1125.97c-2.91-3.81-8.57-10.38-13.32-11.08c-1.84-0.27-3.71,0.16-5.5,0.67
					c-7.31,2.08-19.33,10.73-24.35,16.4c-2.91,3.29-0.2,11.97,1.63,15.76c0,0,9.61-0.65,13.15-3.06c2.81-1.91-1.85-3.7-3.52-5.42
					c0.21,0.21,4.54-0.93,5.23-0.98c2.33-0.18,4.27,0.81,6.39,1.59c7.46,2.73,16.13,4.82,21.3-3
					C544.42,1132.4,543.15,1129.51,540.44,1125.97z"/>
			</g>
		</g>
		<g>
			<g>
				<g>
					<path class="st22" d="M66.47,1580.14c-8.32-6.21-15.44-11.02-17.85-11.23c-7.01-0.62-20.9,24.91-17.65,33.78
						c0,0,16.59,6.08,31.09,15.35C66.21,1606,67.13,1593,66.47,1580.14z"/>
					<path class="st23" d="M43.7,1605.21c3.36,3.48,4.35,8.6,2.54,13.09c-2.13,5.26-6.02,13.1-13.13,23.75
						c-14.75,22.09-31.3,33.2-32.87,20.72c-1.57-12.48,4.5-113.08,16.42-111.17s36.07,14.46,37.14,19.39
						c1.07,4.93-17.63,7.37-19.14,16.8C33.74,1593.59,39.29,1600.64,43.7,1605.21z"/>
					<path class="st24" d="M0.24,1662.76c0.76,6.02,5,6.55,10.85,3.01c-8.27-35.6,7.59-89.24,15.1-111.47
						c-3.53-1.3-6.84-2.28-9.53-2.71C4.74,1549.68-1.32,1650.28,0.24,1662.76z"/>
					<path class="st25" d="M118.22,1438.81c0,0,59.61,119.47,46.78,132.3c-12.83,12.83-111.15-7.56-111.15-7.56
						s-16.22,24.57-2.54,49.31c4.59,8.29,105.64,29.18,135.32,19.12c29.68-10.06,52.82-19.62,50.3-58.35
						c-2.52-38.73-24.15-118.21-24.15-118.21L118.22,1438.81z"/>
					<g>
						<path class="st26" d="M186.53,1601.24c1.14,4.12,9.81,14.93,16.46,19.07c20.52-10.17,33.84-29.93,31.86-65.16
							c-0.31-5.43-2.08-12.68-2.57-15.37C211.21,1567.63,184.5,1593.85,186.53,1601.24z"/>
						<path class="st26" d="M222.7,1494.79c-5.25-22.24-9.92-39.39-9.92-39.39l-94.57-16.6c0,0,7.89,15.8,17.3,36.53
							C162.21,1489.77,186.08,1488.42,222.7,1494.79z"/>
					</g>
					<path class="st22" d="M226.33,1574.61c0,0-35.21,50.3-35.21,57.35s26.66,18.61,35.21,14.59c0,0,11.07-41.25,28.67-52.82
						C272.61,1582.15,226.33,1574.61,226.33,1574.61z"/>
					<path class="st27" d="M125.76,1340.71c0,0-19.62,22.13-23.14,65.9c-3.52,43.76,39.55,62.54,71.74,67.57
						c32.19,5.03,89.73,8.38,89.73,27.5c0,19.12-75.96,87.53-72.44,98.6c3.52,11.07,44.27,27.67,55.84,16.1
						c11.57-11.57,114.07-130.54,114.07-158.21c0-27.67-148.78-69.16-148.78-69.16L125.76,1340.71z"/>
					<path class="st28" d="M216.81,1616.9c26.31-30.98,112.05-135.16,95.88-151.33c-18.31-18.31-161.03-23.59-178.88-52.65
						c-12.01-19.55-1.03-47.67,7.26-63.72l-1.89-1.05c-8.55,16.35-19.84,45.16-7.14,65.85c18.49,30.12,161.55,35.4,179.18,53.03
						c13.52,13.52-61.05,107.39-96.52,149.12C215.41,1616.42,216.11,1616.67,216.81,1616.9z"/>
					<path class="st23" d="M227.72,1633.64c3.17-3.65,8.19-5.09,12.81-3.69c5.43,1.65,13.58,4.84,24.82,10.97
						c23.31,12.73,35.84,28.23,23.55,30.9c-12.29,2.67-113.04,5.53-112.19-6.51c0.85-12.04,11.21-37.21,16.03-38.71
						c4.82-1.5,8.9,16.9,18.43,17.57C217.02,1644.59,223.56,1638.44,227.72,1633.64z"/>
					<path class="st29" d="M275.17,1151.28c0,0,42.8,19.23,59.52,45.75c16.72,26.52-4.77,60.17-14.73,70.12l-1.07-40.79
						l-49.12-29.33L275.17,1151.28z"/>
					<path class="st30" d="M328.07,1246.47c-12.37-29.65-49.94-39.19-74.87-18.93c-10.83,8.8-25.34,18.62-44.43,28.16
						c-56.34,28.17-100.61,73.44-100.61,73.44s13.88,73.95,108.84,62.02c0,0,106.42-84.26,111.87-113.95
						C330.91,1266.1,333.96,1260.59,328.07,1246.47z"/>
					<path class="st10" d="M309.24,1215.25l25.44,37.75c0,0-124.36,86.92-157.22,135.54c-5.94,8.78-17.08,12.41-27.05,8.79
						c-19.58-7.09-48.23-20.51-59.16-41.02c-17.3-32.43,22.83-90.45,98.94-129.94C266.3,1186.88,268.42,1183.97,309.24,1215.25z"/>
					<path class="st31" d="M299.73,1230.62c21.78,2.34-3.81-18.65-28.72-36.42c-11.95-1.29-25.2,3.82-48.53,15.52
						C238.21,1215.71,272.19,1227.66,299.73,1230.62z"/>
					<polygon class="st21" points="346.54,1185.4 320.43,1242.86 282.32,1201.54 321.04,1165.7 					"/>
					<path class="st32" d="M312.2,1174.06l8.84-8.36l25.5,19.71l-14.38,31.63c-3.4-2.23-6.34-4.73-8.42-7.38
						C317.68,1201.93,313.51,1188.02,312.2,1174.06z"/>
					<path class="st21" d="M367.15,1110.72c0,0,1.62-0.14,6.32,13.75c3.35,9.9,3.88,20.64,4.66,30.99
						c1.17,15.41,1.05,31.74-7.66,45.12c-4.58,7.03-36.18-0.57-46.55-11.11c-10.38-10.54-15.27-35.46-9.78-50.39
						C319.62,1124.13,362.52,1106.02,367.15,1110.72z"/>
					<path class="st33" d="M323.65,1178.15c-3.18,3.46-6.73,3.57-16.46,0.72c-12.52-3.67-21.92-16.98-19.66-35.2
						c6.92-55.73,60.91-52.94,75.34-53.96c5.41-0.38,8.69,2.36,10.67,5.94c3.19,5.76,8.66,9.81,15.18,10.76
						c2.85,0.41,10.09,2.49,10.75,7.24c1.87,13.58-1.83,25.93-22.89,19.33C328.86,1118.02,329.77,1171.48,323.65,1178.15z"/>
					<path class="st21" d="M337.57,1153.56c0,0,3.24-13.63-4.5-13.56c-7.74,0.08-14.91,13.54-9.43,18.58
						C329.14,1163.62,337.57,1153.56,337.57,1153.56z"/>
					<path class="st11" d="M174.37,1392.22c13.93-31.97,137.25-152.41,137.25-152.41c0-14.53-87.18-19.65-81.49-61.03
						c3.92-28.47,45.04-27.49,45.04-27.49s-4.42,20.93,15.37,40.71c19.79,19.79,51.72,49.71,47.01,60.99
						C326.83,1278.64,174.37,1392.22,174.37,1392.22z"/>
					<path class="st31" d="M279.44,1238.77c-0.3,0.57-18.25-16.3-30.86,50.55c-1.34,7.06-2.64,14.46-3.76,21.47h0
						c-0.64,4.01-1.28,8.34-1.82,12.36l0,0c-2.13,15.78-3.61,33.03-2.77,48.93c31.64-26.66,84.82-74.1,88.63-94.86
						C329.85,1271.87,303.86,1235.21,279.44,1238.77z"/>
					<path class="st24" d="M288.89,1671.83c5.93-1.29,6.08-5.56,2.03-11.07c-34.73,11.39-89.56,0.35-112.37-5.17
						c-1.42,3.74-1.66,7.01-1.85,9.73C175.85,1677.36,276.6,1674.5,288.89,1671.83z"/>
				</g>
				<path class="st21" d="M590.3,1292.07c-2.06-0.35-7.47,2.88-9.05,6.44c-1.42,3.18-10.86,14.57-12.33,4.69
					c-0.52-3.52,13.29-5.62,10.38-9.72c-2.91-4.1-27.23,6.44-46.25,14.41c-19.02,7.97-135.36,17.53-146.93,15.58
					c-11.57-1.96-23.59-14.09-23.59-14.09l-31.34,48.82c0,0,25.51,21.99,31.82,23.05c6.31,1.07,159.28-43.92,173.13-44.7
					c12.76-0.71,20.75,1.04,25.64-0.11c7.62-1.8,24.26-9.17,29.78-18.32c3.86-4.87,4.79-15.01,3.57-19.23
					C593.92,1294.64,590.3,1292.07,590.3,1292.07z"/>
				<path class="st10" d="M241.08,1245c-3.7,4.4-14.22,17.29,27.17,67.45c41.39,50.16,77.69,84.2,116.43,79.59
					c38.74-4.62,132.72-46.04,132.72-46.04s-1.72-34.81-12.09-41.33c0,0-87.22,20.6-110.41,5
					C371.71,1294.07,294.83,1181.12,241.08,1245z"/>
			</g>
		</g>
	</g>
</g>
</svg>
