<?xml version="1.0" encoding="utf-8"?>
<!-- Generator: Adobe Illustrator 23.0.6, SVG Export Plug-In . SVG Version: 6.00 Build 0)  -->
<svg version="1.1" id="Layer_1" xmlns="http://www.w3.org/2000/svg" xmlns:xlink="http://www.w3.org/1999/xlink" x="0px" y="0px"
	 viewBox="0 0 24 24" style="enable-background:new 0 0 24 24;" xml:space="preserve">
<style type="text/css">
	.st0{fill:none;stroke:#FFFFFF;stroke-width:2;stroke-linecap:round;stroke-linejoin:round;}
</style>
<path class="st0" d="M9,19c-5,1.5-5-2.5-7-3 M16,22v-3.87c0.08-0.96-0.27-1.92-0.94-2.61c3.14-0.35,6.44-1.54,6.44-7
	c0-1.4-0.54-2.74-1.5-3.75C20.46,3.55,20.42,2.2,19.91,1c0,0-1.18-0.35-3.91,1.48c-2.29-0.62-4.71-0.62-7,0C6.27,0.65,5.09,1,5.09,1
	C4.58,2.2,4.54,3.55,5,4.77C4.03,5.79,3.49,7.14,3.5,8.55c0,5.42,3.3,6.61,6.44,7C9.27,16.24,8.93,17.18,9,18.13V22"/>
</svg>
