<?xml version="1.0" encoding="utf-8"?>
<!-- Generator: Adobe Illustrator 23.0.6, SVG Export Plug-In . SVG Version: 6.00 Build 0)  -->
<svg version="1.1" id="Layer_1" xmlns="http://www.w3.org/2000/svg" xmlns:xlink="http://www.w3.org/1999/xlink" x="0px" y="0px"
	 viewBox="0 0 149.65 195.8" style="enable-background:new 0 0 149.65 195.8;" xml:space="preserve">
<style type="text/css">
	.st0{fill:#3A272E;}
	.st1{fill:#EF9898;}
	.st2{fill:#D9DCBC;}
	.st3{fill:none;stroke:#6F575F;stroke-width:0.2424;stroke-linecap:round;stroke-linejoin:round;stroke-miterlimit:10;}
	.st4{fill:#FF7A8C;}
	.st5{fill:none;stroke:#FFDEBC;stroke-width:0.2424;stroke-linecap:round;stroke-linejoin:round;stroke-miterlimit:10;}
	.st6{fill:none;stroke:#2D1C22;stroke-width:0.4393;stroke-linecap:round;stroke-linejoin:round;stroke-miterlimit:10;}
	.st7{fill:none;stroke:#FFDEBC;stroke-width:0.4848;stroke-linecap:round;stroke-linejoin:round;stroke-miterlimit:10;}
	.st8{fill:#2D1C22;}
	.st9{fill:#F1C4D3;}
	.st10{fill:#FFDEBC;}
	.st11{fill:#7C83BB;}
	.st12{fill:#86C2BA;}
	.st13{fill:#FF969F;}
</style>
<g>
	<g>
		<path class="st0" d="M70.68,0.16c-5.75-0.69-11.97,0.77-16.05,4.88c-1.97,1.99-3.38,4.5-5.44,6.4c-2.31,2.13-5.31,3.35-7.78,5.3
			c-4.35,3.44-6.73,9.21-6.09,14.72c0.29,2.47,1.14,4.95,0.62,7.38c-0.6,2.8-2.85,4.88-4.59,7.15c-4.06,5.31-5.52,12.52-3.84,18.99
			c1.33,5.12,4.52,10.17,3.22,15.29c-1.2,4.72-5.78,7.67-8.67,11.59c-5.3,7.21-4.51,17.07-3.4,25.96c0.13,1.07,0.31,2.23,1.07,3
			c0.72,0.72,1.79,0.93,2.8,1.08c17.08,2.47,34.54-3.34,51.64-0.99c0.78,0.11,1.65,0.21,2.28-0.26c0.62-0.46,0.78-1.3,0.89-2.06
			c0.47-3.13,0.93-6.26,1.39-9.4c3.53-24.44,6.21-49,8.04-73.63c0.62-8.39,1.88-17.67,0.58-26.04C86.38,3.37,76.04,0.81,70.68,0.16z
			"/>
		<path class="st0" d="M98.83,9.86c3.57,2,6.2,5.46,7.09,9.32c0.62,2.68,0.55,5.76,2.55,7.73c0.84,0.83,1.96,1.34,2.94,2.02
			c3.38,2.32,5,6.51,4.84,10.49c-0.2,4.89-2.73,9.98-0.71,14.48c1.25,2.78,4,4.65,5.86,7.1c3.8,5.01,3.48,11.95,1.44,17.83
			c-1.17,3.37-2.82,7.12-1.13,10.28c1.33,2.47,4.33,3.69,6.05,5.93c1.91,2.47,1.99,5.8,1.63,8.86c-0.49,4.17-1.68,8.26-3.5,12.08
			c-0.4,0.84-0.87,1.71-1.66,2.24c-0.98,0.66-2.27,0.69-3.47,0.69c-12.19,0-24.38,0-36.57,0c-1.33,0-2.81-0.06-3.72-0.99
			c-0.51-0.52-0.74-1.22-0.95-1.9c-2.63-8.73-3.04-17.91-3.26-26.99c-0.61-24.97,0.11-50.29,7.16-74.34
			c0.78-2.66,1.68-5.79,4.77-6.51C91.71,7.37,95.76,8.14,98.83,9.86z"/>
	</g>
	<g>
		<polygon class="st1" points="22.31,178.23 22.06,195.25 44.59,195.56 42.24,179.16 		"/>
		<polygon class="st1" points="130.86,175.88 131.11,195.21 108.58,195.56 110.93,176.94 		"/>
		<g>
			<g>
				<path class="st2" d="M57.73,95.88c0,0-16.85,4.63-26.51,12.8l13.37,86.89h64.36l10.89-89.12c0,0-5.94-4.95-13.74-7.92
					c-7.8-2.97-14.98-3.96-14.98-3.96L57.73,95.88z"/>
				<g>
					<path class="st2" d="M119.84,106.45c0,0,5.45,6.44,10.15,19.8c4.7,13.37,10.64,30.45,10.64,30.45l-29.21,11.14L119.84,106.45z"
						/>
					<path class="st2" d="M148.12,159.64c2.37,2.14,1.95,6.85-1.08,7.83c-1.32,0.43-2.91,0.16-4,1.03
						c-1.16,0.92-1.16,2.63-1.47,4.08c-0.75,3.54-4.1,6.36-7.71,6.48c-3.02,0.11-6.2-1.42-8.95-0.17c-1.65,0.75-2.95,2.45-4.77,2.46
						c-2.56,0.01-4.37-3.41-6.88-2.93c-0.45,0.09-0.88,0.3-1.33,0.22c-0.59-0.1-0.97-0.66-1.25-1.18c-2.24-4.28-1.4-9.97,1.99-13.42
						c2.48-2.53,5.96-3.77,9.37-4.75C130.34,156.9,140.89,153.12,148.12,159.64z"/>
				</g>
				<g>
					<path class="st2" d="M31.22,108.67c0,0-5.69,9.16-11.63,29.21c-5.94,20.05-7.18,26.74-7.18,26.74l30.2,10.64L31.22,108.67z"/>
					<path class="st2" d="M2.44,170.91c-1.11,0.94-2.26,2.06-2.42,3.5c-0.28,2.59,2.69,4.32,5.27,4.65c2.58,0.33,5.45,0.08,7.5,1.68
						c2.29,1.78,2.84,5.4,5.48,6.61c4.39,2.03,9.32-4.59,13.71-2.57c2.27,1.04,3.16,4.01,5.43,5.06c2.51,1.16,5.59-0.73,6.66-3.28
						c1.07-2.55,0.66-5.45,0.1-8.16c-0.39-1.86-0.86-3.76-1.97-5.3c-1.39-1.95-3.62-3.1-5.81-4.08c-5.88-2.63-12.1-4.47-18.45-5.52
						c-3.42-0.57-4.56-0.24-7.55,1.62C7.6,166.86,4.94,168.79,2.44,170.91z"/>
				</g>
			</g>
			<g>
				<path class="st3" d="M75.78,139.37c0,0,11.88,17.25,15.18,26.65c3.3,9.41,4.79,29.54,4.79,29.54"/>
				<path class="st3" d="M43.27,133.68c0,0-4.13,14.69-3.47,24.75c0.66,10.07,4.79,37.13,4.79,37.13"/>
				<path class="st3" d="M110.44,131.2c0,0,3.63,17.49,2.81,27.07c-0.83,9.57-4.29,37.3-4.29,37.3"/>
				<path class="st3" d="M31.22,108.67c0,0,7.26,6.52,11.06,19.06"/>
				<path class="st3" d="M117.86,105.29c0,0-6.11,10.89-7.43,21.45"/>
				<path class="st3" d="M112.42,167.01c0,0,18.15-4.62,27.89-11.06"/>
				<path class="st3" d="M12.9,163.38c0,0,13.2,8.75,28.55,9.57"/>
			</g>
			<path class="st3" d="M85.82,182.13c-2.89-2.69-6.25-5.29-10.18-5.58c-1.02-0.08-2.14,0.04-2.91,0.72
				c-1.52,1.33-0.82,3.86,0.34,5.52c2.41,3.47,6.13,5.76,9.83,7.81c2.16,1.2,4.35,2.35,6.56,3.44c1.8,0.89,4.23,2.01,6.3,1.53
				c-0.03-2.32-2.66-5.27-4.05-7.08C89.95,186.19,87.93,184.1,85.82,182.13z"/>
			<path class="st3" d="M103.25,177.91c1.11-2.06,2.33-4.11,4.1-5.64c0.67-0.58,1.69-1.09,2.41-0.56c0.26,0.19,0.42,0.48,0.56,0.76
				c1.34,2.76,1.06,6.1-0.12,8.94c-1.18,2.83-3.18,5.24-5.28,7.48c-1.54,1.64-3.14,3.23-4.81,4.74c-0.98,0.89-3.21,2.12-4.35,1.93
				C96.64,189.67,100.44,183.11,103.25,177.91z"/>
		</g>
	</g>
	<g>
		<g>
			<g>
				<path class="st1" d="M92.61,94.93c0,0-2.93,14.62-18.39,14.62c-15.46,0-16.49-13.68-16.49-13.68s2.06-2.1,4.12-7.37
					c1.31-3.34,2.62-8.8,3.39-12.34c0.45-2.04,0.73-3.45,0.73-3.45h18.56c0,0,0.25,1.27,0.62,3.32c0.39,2.12,0.92,5.05,1.44,8.26
					C87.62,90.61,92.61,94.93,92.61,94.93z"/>
				<path class="st4" d="M85.15,76.04c-0.79,2.59-2.19,4.98-4.05,6.9c-0.75,0.78-1.59,1.48-2.55,1.96c-3.25,1.6-7.32,0.15-9.79-2.52
					c-1.64-1.77-2.7-3.96-3.52-6.21c-0.07-0.21-0.14-0.41-0.22-0.62c-0.39-1.16-1.08-2.26-0.1-2.84c0.59-0.35,2.46-0.06,3.58,0.01
					c0.23,0.02,0.42,0.03,0.57,0.02c0.06,0,0.13-0.01,0.25-0.02h15.22C84.53,72.72,84.78,73.99,85.15,76.04z"/>
			</g>
			<path class="st1" d="M57.73,95.88c0,0,0.72,16.02,8.15,27.65c7.43,11.63,9.9,15.84,9.9,15.84s15.27-30.5,16.83-44.43L57.73,95.88
				z"/>
		</g>
		<g>
			<polyline class="st5" points="60,92.34 76.11,117.34 89.52,91.22 			"/>
			<circle class="st5" cx="75.98" cy="119.52" r="2.19"/>
		</g>
	</g>
	<g>
		<g>
			<g>
				<path class="st1" d="M101.13,55.58c-0.07,0.33-0.17,0.68-0.26,1.01c-2.23,8.23-7.7,16.16-15.23,20.23
					c-8.01,4.33-17.7,2.51-24.37-3.52c-5.42-4.9-8.99-12.05-10.59-19.47c-0.85-3.78-1.16-7.64-0.96-11.31
					C50.4,30.07,56.9,16.31,69.08,11.8c3.02-1.12,6.39-1.71,9.74-1.64c3.98,0.09,7.92,1.12,11.16,3.33
					c4.61,3.13,7.88,7.9,9.78,13.12C103.03,35.56,103.36,46.33,101.13,55.58z"/>
				<g>
					<g>
						<g>
							<path class="st1" d="M100.49,46.86c0.48-2.03,3.69-4.51,5.23-5.07c4.57-1.64,7.27,4.61,6.21,9.08
								c-0.92,3.84-3.78,7.46-7,8.86c-1.03,0.45-7.72,1.06-7.77,1.27C97.17,61.01,100.48,46.9,100.49,46.86z"/>
							<g>
								<path class="st6" d="M102.09,48.42c0.39-1.52,1.09-3.02,2.33-3.99c1.23-0.97,3.09-1.26,4.38-0.37
									c0.78,0.53,1.26,1.42,1.47,2.34c0.21,0.92,0.16,1.88,0.04,2.81c-0.39,3.06-1.61,6.15-4.04,8.05
									c-1.31,1.03-3.11,1.67-4.66,1.06"/>
								<path class="st6" d="M105.06,44.08c-1.44,4.55-1.65,9.49-0.63,14.15"/>
							</g>
						</g>
					</g>
					<path class="st7" d="M100.2,58.5c0,0-3.05,5.12,0.17,5.78c3.22,0.66,3.47-4.21,3.47-4.21"/>
					<g>
						<g>
							<path class="st1" d="M50.57,45.78c-0.48-2.03-3.69-4.51-5.23-5.07c-4.57-1.64-7.27,4.61-6.21,9.08
								c0.92,3.84,3.78,7.46,7,8.86c1.03,0.45,7.72,1.06,7.77,1.27C53.89,59.93,50.58,45.82,50.57,45.78z"/>
							<g>
								<path class="st6" d="M48.97,47.34c-0.39-1.52-1.09-3.02-2.33-3.99c-1.23-0.97-3.09-1.26-4.38-0.37
									c-0.78,0.53-1.26,1.42-1.47,2.34c-0.21,0.92-0.16,1.88-0.04,2.81c0.39,3.06,1.61,6.15,4.04,8.05
									c1.31,1.03,3.11,1.67,4.66,1.06"/>
								<path class="st6" d="M46,43c1.44,4.55,1.65,9.49,0.63,14.15"/>
							</g>
						</g>
					</g>
					<path class="st7" d="M51.02,57.68c0,0,2.6,6.81-1.49,7.06c-4.08,0.25-2.72-5.69-2.72-5.69"/>
				</g>
				<g>
					<g>
						<g>
							<path class="st8" d="M68.08,44.01c-0.06,1.07-0.97,1.88-2.04,1.82c-1.07-0.06-1.88-0.97-1.82-2.04
								c0.06-1.07,0.97-1.88,2.04-1.82C67.33,42.03,68.14,42.94,68.08,44.01z"/>
							<path class="st8" d="M89.04,44.45c-0.06,1.07-0.97,1.88-2.04,1.82c-1.07-0.06-1.88-0.97-1.82-2.04
								c0.06-1.07,0.97-1.88,2.04-1.82C88.28,42.47,89.1,43.38,89.04,44.45z"/>
						</g>
						<path class="st6" d="M75.04,38.81c1.65,4.05,1.72,8.71,0.2,12.81c-0.46,1.25-1.08,2.55-0.84,3.86
							c0.25,1.36,1.37,2.36,2.42,3.26"/>
					</g>
					<g>
						<g>
							<path class="st8" d="M58.31,37.05c0.46-1.1,1.25-1.94,2.19-2.61c0.94-0.66,2.05-1.12,3.22-1.29
								c1.16-0.17,2.38-0.11,3.47,0.27c1.11,0.34,2.09,0.97,2.85,1.8c0.15,0.16,0.14,0.42-0.02,0.57c-0.08,0.07-0.17,0.11-0.27,0.11
								l-0.04,0c-1.1,0.02-2.03-0.1-2.94-0.06c-0.9-0.02-1.76,0.07-2.61,0.19c-0.85,0.12-1.69,0.32-2.56,0.58
								c-0.88,0.25-1.78,0.6-2.76,0.94l-0.06,0.02c-0.2,0.07-0.42-0.04-0.49-0.24C58.27,37.23,58.27,37.14,58.31,37.05z"/>
						</g>
						<g>
							<path class="st8" d="M93.54,38.04c-0.98-0.34-1.88-0.69-2.76-0.94c-0.87-0.27-1.72-0.46-2.56-0.58
								c-0.85-0.12-1.7-0.22-2.61-0.19c-0.92-0.04-1.85,0.08-2.94,0.06l-0.04,0c-0.22,0-0.4-0.19-0.4-0.41c0-0.1,0.04-0.2,0.11-0.27
								c0.77-0.83,1.75-1.46,2.85-1.8c1.09-0.38,2.31-0.44,3.47-0.27c1.17,0.17,2.28,0.63,3.22,1.29c0.94,0.67,1.73,1.51,2.19,2.61
								c0.08,0.2-0.01,0.42-0.21,0.5c-0.09,0.04-0.19,0.04-0.27,0.01L93.54,38.04z"/>
						</g>
					</g>
					<g>
						<path class="st9" d="M101.55,53.27c0,0-1.1,7.53-5.47,14.62c-0.1,0.14-0.18,0.28-0.28,0.43c-2.66,4.17-6.49,8.13-11.92,10.25
							c-0.16,0.06-0.31,0.12-0.47,0.17c-2.22,0.8-4.71,1.3-7.49,1.38c-0.09,0.01-0.18,0.01-0.28,0.01h-0.22
							c-8.57,0.09-14.11-4.3-17.67-9.57c-0.1-0.15-0.19-0.29-0.28-0.44c-1.07-1.64-1.95-3.35-2.67-5.03
							c-0.07-0.15-0.13-0.3-0.19-0.45c-2.55-6.15-3.07-11.79-3.07-11.79s5.4-2.95,13.85-4.48c0.19-0.04,0.39-0.08,0.59-0.11
							c2.84-0.48,6.01-0.8,9.42-0.8c0.16,0,0.33,0,0.49,0.01c0.15-0.01,0.29,0,0.44,0c9.33,0.17,17.11,2.53,21.47,4.18
							c0.16,0.07,0.33,0.13,0.48,0.18C100.38,52.67,101.55,53.27,101.55,53.27z"/>
					</g>
					<g>
						<g>
							<path class="st9" d="M108.2,41.66c-0.64-0.2-1.33-0.2-1.96-0.03c-0.49-0.14-0.98-0.12-1.44,0.05
								c-3.06,1.09-4.95,8.4-5.43,11.13l-0.95-0.16c0.07-0.43,1.83-10.38,6.06-11.89C105.68,40.33,106.91,40.69,108.2,41.66z"/>
							<path class="st9" d="M106.44,58.86c-2.5,3.86-9.51,7.13-9.82,7.26l-0.41-0.88c0.07-0.03,5.26-2.45,8.2-5.43
								C105.23,59.56,105.99,59.13,106.44,58.86z"/>
						</g>
						<g>
							<path class="st9" d="M43.04,40.54c0.66-0.14,1.33-0.1,1.96,0.07c0.49-0.14,0.93-0.04,1.39,0.13
								c3.06,1.09,5.12,9.24,5.6,11.97l0.95-0.39c-0.07-0.43-2-11-6.23-12.5C45.5,39.39,44.33,39.57,43.04,40.54z"/>
							<path class="st9" d="M44.75,57.91c2.5,3.86,9.91,7.41,10.22,7.54l0.1-1.28c-0.07-0.03-5.36-2.34-8.3-5.31
								C45.95,58.61,45.19,58.19,44.75,57.91z"/>
						</g>
					</g>
					<g>
						<path class="st10" d="M96.08,67.89c-0.1,0.14-0.18,0.28-0.28,0.43c-0.16-0.05-0.34-0.08-0.52-0.12
							c-0.3-0.07-0.6-0.13-0.9-0.23c-1.05-0.39-1.75-1.27-2.43-2.12c-0.17-0.21-0.34-0.43-0.51-0.62c-1.01-1.17-2.18-1.99-3.39-2.36
							c-1.4-0.42-2.87-0.22-3.92,0.53c-2.28,1.61-2.06,5.09-1.72,7.03c0.16,0.97,0.39,1.95,0.6,2.91c0.38,1.71,0.77,3.46,0.88,5.23
							c-0.16,0.06-0.31,0.12-0.47,0.17c-0.11-1.77-0.49-3.57-0.89-5.29c-0.21-0.96-0.44-1.96-0.61-2.94
							c-0.35-2.05-0.57-5.74,1.92-7.5c1.17-0.83,2.79-1.07,4.34-0.6c1.3,0.4,2.55,1.26,3.62,2.5c0.17,0.2,0.35,0.42,0.52,0.64
							c0.64,0.8,1.3,1.62,2.22,1.97c0.26,0.1,0.54,0.15,0.83,0.21C95.61,67.77,95.85,67.82,96.08,67.89z"/>
						<path class="st11" d="M98.28,51.84c0.12,2.39-0.8,4.97-2.71,7.69c-1.01,1.43-2.05,2.14-3.08,2.14c-0.1,0-0.19,0-0.28-0.01
							c-1.26-0.16-2-1.24-2.71-2.29c-0.16-0.25-0.33-0.49-0.5-0.73c-1.33-1.77-3.53-2.85-5.74-2.78c-0.48,0.01-0.99,0.08-1.47,0.14
							c-0.96,0.13-1.95,0.25-2.92,0.01c-2.07-0.53-3.31-2.63-3.62-4.48c-0.22-1.36-0.09-2.74,0.16-4.06c0.16,0,0.33,0,0.49,0.01
							c-0.24,1.3-0.39,2.67-0.17,3.98c0.28,1.69,1.4,3.61,3.27,4.08c0.87,0.22,1.77,0.11,2.72-0.01c0.5-0.07,1.02-0.14,1.53-0.15
							h0.17c2.31,0,4.59,1.12,5.96,2.98c0.17,0.24,0.35,0.49,0.52,0.75c0.65,0.96,1.31,1.94,2.36,2.07
							c0.93,0.12,1.93-0.53,2.91-1.93c1.9-2.7,2.79-5.25,2.63-7.59C97.96,51.73,98.13,51.79,98.28,51.84z"/>
						<path class="st12" d="M76.23,78.76c-0.07,0.48-0.17,0.92-0.31,1.36c-0.09,0.01-0.18,0.01-0.28,0.01h-0.22
							c0.15-0.46,0.26-0.94,0.33-1.43c0.34-2.42-0.61-4.9-2.38-6.15c-0.4-0.28-0.85-0.52-1.29-0.75c-0.8-0.43-1.63-0.86-2.21-1.6
							c-0.37-0.48-0.59-1.03-0.81-1.56c-0.17-0.43-0.34-0.83-0.57-1.2c-1.33-2.08-4.5-2.23-6.62-1.06
							c-1.75,0.96-3.03,2.56-4.11,4.18c-0.1-0.15-0.19-0.29-0.28-0.44c1.09-1.61,2.39-3.19,4.16-4.17c2.32-1.28,5.79-1.1,7.26,1.22
							c0.25,0.41,0.44,0.85,0.62,1.28c0.21,0.52,0.42,1.03,0.75,1.44c0.51,0.66,1.26,1.06,2.05,1.46c0.46,0.24,0.92,0.48,1.35,0.79
							C75.56,73.5,76.59,76.16,76.23,78.76z"/>
						<path class="st10" d="M65.98,48.27c-0.05,0.12-0.1,0.22-0.16,0.34c-0.56,1.1-1.45,2.12-2.8,3.22
							c-0.15,0.12-0.29,0.23-0.44,0.35c-0.59,0.47-1.19,0.95-1.66,1.52c-0.95,1.18-1.31,2.74-1.66,4.25
							c-0.07,0.31-0.14,0.62-0.21,0.93c-0.62,2.51-1.53,4.22-2.86,5.36c-0.4,0.34-0.87,0.63-1.39,0.85
							c-0.07-0.15-0.13-0.3-0.19-0.45c0.47-0.19,0.9-0.47,1.27-0.78c1.24-1.08,2.1-2.7,2.7-5.11c0.08-0.3,0.15-0.61,0.22-0.92
							c0.36-1.56,0.73-3.17,1.75-4.44c0.49-0.62,1.12-1.12,1.74-1.6c0.15-0.12,0.29-0.23,0.43-0.35c1.3-1.05,2.15-2.03,2.68-3.06
							v-0.01C65.58,48.33,65.77,48.3,65.98,48.27z"/>
						<path class="st13" d="M79.3,59.39c-0.91-1.09-2.25-1.42-3.56-1.74c-0.55-0.15-1.08-0.27-1.57-0.46
							c-1.11-0.42-2.03-1.1-2.99-1.81c-0.69-0.51-1.4-1.05-2.18-1.46c-1.59-0.85-3.34-0.42-4.47,1.11c-1.11,1.5-1.41,3.85,0.18,5.42
							c0.93,0.92,2.22,1.21,3.46,1.48c0.88,0.2,1.79,0.41,2.56,0.83c1.6,0.89,2.48,2.69,3.25,4.45c0.32,0.73,0.64,1.47,1.24,2.04
							c0.4,0.37,0.99,0.66,1.59,0.66c0.27,0,0.55-0.06,0.8-0.2c0.68-0.37,0.98-1.14,1.19-1.84c0.3-0.93,0.58-1.89,0.85-2.85
							C80.17,63.21,80.58,60.93,79.3,59.39z M79.19,64.88c-0.26,0.96-0.54,1.91-0.83,2.84c-0.2,0.63-0.45,1.28-0.97,1.56
							c-0.58,0.32-1.37,0.05-1.83-0.39c-0.52-0.48-0.83-1.19-1.12-1.88c-0.8-1.83-1.73-3.7-3.46-4.67
							c-0.82-0.46-1.76-0.67-2.69-0.87c-1.23-0.28-2.39-0.54-3.23-1.37c-1.39-1.38-1.12-3.45-0.13-4.79
							c0.54-0.74,1.4-1.35,2.43-1.35c0.44,0,0.91,0.11,1.41,0.38c0.76,0.4,1.45,0.92,2.12,1.43c0.95,0.71,1.93,1.43,3.11,1.88
							c0.51,0.19,1.08,0.33,1.62,0.47c1.23,0.3,2.49,0.62,3.3,1.58C80.06,61.06,79.67,63.19,79.19,64.88z"/>
					</g>
				</g>
			</g>
		</g>
		<g>
			<path class="st0" d="M87.41,16.91c1.89,1.87,4.99,2.42,6.35,4.71c1.97,3.33-1.04,8.12,1.15,11.31c1.34,1.95,4.18,2.48,5.38,4.52
				c1.21,2.05,0.52,5.22,2.54,6.49c3.35-2.63,3.88-7.5,3.37-11.73c-0.79-6.48-3.45-12.72-7.57-17.77c-1.54-1.89-3.31-3.63-5.46-4.77
				c-1.97-1.04-5.49-2.26-6.94,0.14C84.97,11.88,85.78,15.3,87.41,16.91z"/>
			<path class="st0" d="M84.03,15.35c-2.03,1.01-4.39,1.08-6.65,0.96c-2.26-0.12-4.55-0.4-6.78-0.01c-1.14,0.2-2.27,0.58-3.2,1.28
				c-3.23,2.43-2.96,7.6-5.81,10.48c-1.3,1.32-3.12,2-4.48,3.26c-2.77,2.57-3.1,6.95-5.68,9.7c-0.66,0.7-1.63,1.31-2.53,0.99
				c-0.84-0.29-1.23-1.24-1.48-2.09c-2.43-8.28-0.19-17.77,5.69-24.09c3.97-4.27,9.34-7.03,14.9-8.78c2.9-0.91,5.94-1.57,8.96-1.26
				c2.98,0.31,6.91,1.58,9.26,3.51C88.53,11.19,86.34,14.2,84.03,15.35z"/>
			<path class="st0" d="M51.71,47.99c0.22,0.5,0.53,1.07,1.07,1.16c0.46,0.07,0.91-0.26,1.12-0.68c0.21-0.42,0.23-0.9,0.25-1.37
				c0.15-3.81,0.3-7.63,0.45-11.44c0.08-1.95,0.03-4.18-1.45-5.44c-3.95-3.35-5.88,2.98-5.86,5.8
				C47.33,39.98,50.14,44.44,51.71,47.99z"/>
			<path class="st0" d="M100.12,48.96c-0.22,0.44-0.52,0.94-1.01,0.99c-0.42,0.05-0.81-0.27-0.98-0.66
				c-0.17-0.38-0.17-0.82-0.17-1.24c0.02-3.42,0.03-6.85,0.05-10.27c0.01-1.75,0.13-3.75,1.51-4.82c3.67-2.85,5.15,2.9,5.02,5.43
				C104.37,41.96,101.67,45.85,100.12,48.96z"/>
		</g>
	</g>
</g>
</svg>
