<?xml version="1.0" encoding="utf-8"?>
<!-- Generator: Adobe Illustrator 23.0.6, SVG Export Plug-In . SVG Version: 6.00 Build 0)  -->
<svg version="1.1" id="Layer_1" xmlns="http://www.w3.org/2000/svg" xmlns:xlink="http://www.w3.org/1999/xlink" x="0px" y="0px"
	 viewBox="0 0 126.99 194.72" style="enable-background:new 0 0 126.99 194.72;" xml:space="preserve">
<style type="text/css">
	.st0{fill:#F1C4D3;}
	.st1{fill:#FFDEBC;}
	.st2{fill:#F89D9D;}
	.st3{fill:#6F575F;}
	.st4{fill:#FF7A8C;}
	.st5{fill:none;stroke:#2D1C22;stroke-width:0.3939;stroke-linecap:round;stroke-linejoin:round;stroke-miterlimit:10;}
	.st6{fill:#2D1C22;}
	.st7{fill:#86C2BA;}
	.st8{fill:#D9DCBC;}
	.st9{fill:none;stroke:#2D1C22;stroke-width:0.2438;stroke-linecap:round;stroke-linejoin:round;stroke-miterlimit:10;}
</style>
<g>
	<g>
		<path class="st0" d="M126.6,170.19c-0.03,0.36-0.07,0.69-0.11,0.98c-0.14,1.18-0.24,1.81-0.24,1.81l-2.78-1.74l-1.49-0.93h-0.04
			l-9.58-6.06h-0.04l-1.51-0.94c0,0,0,0-0.01,0h-0.01c-0.01-0.01-0.01-0.01-0.02,0l-8.76-5.51l-0.48,5.57l-0.08,0.96l-0.54,6.21
			l-0.09,0.97l-0.53,6.2l-0.09,0.96l-0.53,6.2l-0.09,0.97l-0.53,6.19L98.97,193l-0.15,1.72H25.46l0.04-2.53l0.02-0.96l0.1-6.2
			l0.02-0.96l0.1-6.2l0.01-0.96l0.11-6.19l0.01-0.97l0.1-6.2l0.02-0.96v-0.03l-0.02,0.02c-0.01,0-0.02,0.01-0.03,0.01l-1.76,0.91
			h-0.04l-11.47,5.8h-0.04l-1.73,0.9l-10.87,5.5c0,0-0.36-3.21,2.49-13.56l0.01-0.04c0.03-0.15,0.08-0.3,0.12-0.45
			c0.5-1.81,1.1-3.84,1.81-6.1c0.1-0.31,0.19-0.63,0.3-0.95c0.6-1.87,1.27-3.9,2.03-6.09c0.11-0.31,0.21-0.63,0.32-0.95
			c0.43-1.19,0.87-2.44,1.34-3.72c0.28-0.79,0.57-1.59,0.86-2.37c0.12-0.32,0.24-0.63,0.36-0.94c0.05-0.15,0.11-0.28,0.15-0.43
			c0.71-1.91,1.43-3.79,2.17-5.67c0.13-0.32,0.25-0.64,0.38-0.96c0.02-0.06,0.05-0.12,0.07-0.17c0.78-1.98,1.58-3.96,2.39-5.92
			c0.06-0.14,0.12-0.28,0.17-0.42c0.08-0.18,0.15-0.36,0.22-0.54c0.74-1.76,1.48-3.52,2.23-5.27c0.12-0.28,0.24-0.55,0.36-0.83
			c0.14-0.32,0.27-0.63,0.42-0.95c0.5-1.15,1.01-2.29,1.52-3.44c0.4-0.89,0.8-1.78,1.21-2.66c0.14-0.32,0.28-0.64,0.43-0.95
			c0.15-0.32,0.3-0.65,0.44-0.97c0.6-1.29,1.21-2.57,1.82-3.86c0.2-0.43,0.42-0.86,0.62-1.29c0.15-0.32,0.31-0.64,0.46-0.96
			c0.14-0.29,0.28-0.57,0.42-0.85c0.41-0.81,0.81-1.64,1.21-2.45c0.33-0.66,0.67-1.24,1.21-1.74c0.42-0.4,0.88-0.73,1.35-1.04
			c0.36-0.23,0.72-0.45,1.06-0.69c0.13-0.08,0.24-0.16,0.37-0.24c0.89-0.58,1.81-1.11,2.75-1.64c1.49-0.81,3.02-1.57,4.57-2.27
			c1.53-0.71,3.09-1.36,4.65-1.99c0.04-0.02,0.08-0.03,0.12-0.05c0.8-0.32,1.61-0.62,2.42-0.92c0.6-0.23,1.2-0.45,1.81-0.67
			c1.2-0.44,2.4-0.84,3.61-1.24c0.82-0.27,1.64-0.53,2.48-0.78c0.3-0.1,0.61-0.18,0.91-0.28c0,0,22.87-1.8,31.51-0.32
			c1.66,0.28,3.29,0.72,4.9,1.21c2.3,0.72,4.57,1.56,6.8,2.46c0.1,0.04,0.18,0.08,0.28,0.12c0.69,0.28,1.36,0.56,2.04,0.85
			c1.37,0.58,2.73,1.19,4.08,1.82c0.75,0.35,1.48,0.7,2.23,1.05c0.48,0.23,0.98,0.44,1.43,0.72c0.66,0.41,1.04,0.98,1.46,1.61
			c0.2,0.31,0.41,0.63,0.61,0.95c0.19,0.32,0.39,0.64,0.58,0.96c0.51,0.85,1,1.72,1.48,2.59c0.67,1.18,1.31,2.37,1.91,3.58
			c0.16,0.32,0.33,0.64,0.48,0.96c0.94,1.88,1.83,3.79,2.66,5.72c0.07,0.15,0.13,0.3,0.18,0.44c0.14,0.32,0.28,0.64,0.41,0.96
			c0.77,1.81,1.49,3.64,2.18,5.49c0.09,0.22,0.16,0.45,0.24,0.68c0.13,0.32,0.24,0.64,0.35,0.96c0.73,2.04,1.41,4.1,2.04,6.16
			c0.02,0.07,0.05,0.15,0.07,0.21c0.08,0.25,0.15,0.49,0.22,0.75c0.61,2.04,1.18,4.09,1.7,6.15c0.08,0.33,0.16,0.65,0.23,0.97
			c0.11,0.42,0.21,0.83,0.31,1.25c0.4,1.67,0.74,3.32,1.05,4.92c0.06,0.33,0.12,0.65,0.17,0.97c0.39,2.14,0.7,4.2,0.94,6.16
			c0.04,0.33,0.08,0.65,0.12,0.97C127.37,159.1,126.98,166.43,126.6,170.19z"/>
		<g>
			<path class="st1" d="M99.17,92.7c-2.38,0.01-4.84,0.01-7.34,0.01c-15.63,0-33.32-0.15-49.41-0.44c0.8-0.32,1.61-0.62,2.42-0.92
				c17.19,0.29,36,0.42,52.02,0.38c0.1,0.04,0.18,0.08,0.28,0.12C97.81,92.13,98.49,92.41,99.17,92.7z"/>
			<path class="st1" d="M109.56,99.8c-5.41,0.05-11.4,0.07-17.74,0.07c-20.15,0-43.78-0.23-62.93-0.72
				c0.36-0.23,0.72-0.45,1.06-0.69c0.13-0.08,0.24-0.16,0.37-0.24c24.76,0.6,56.51,0.8,78.65,0.62
				C109.17,99.17,109.37,99.49,109.56,99.8z"/>
			<path class="st1" d="M113.43,106.94c-6.35,0.07-13.71,0.11-21.61,0.11c-21.82,0-47.71-0.28-67.58-0.84
				c0.15-0.32,0.31-0.64,0.46-0.96c26.84,0.75,64.44,0.99,88.24,0.74C113.11,106.3,113.28,106.62,113.43,106.94z"/>
			<path class="st1" d="M116.68,114.06c-7.03,0.1-15.58,0.15-24.86,0.15c-23.06,0-50.65-0.31-70.89-0.94
				c0.14-0.32,0.28-0.64,0.43-0.95c28.22,0.87,70.48,1.11,94.92,0.78C116.42,113.42,116.56,113.74,116.68,114.06z"/>
			<path class="st1" d="M119.45,121.18c-7.5,0.13-17.09,0.19-27.62,0.19c-24.28,0-53.57-0.34-74.04-1.05
				c0.14-0.32,0.27-0.63,0.42-0.95c29.22,1,76.14,1.26,100.9,0.85C119.23,120.54,119.34,120.86,119.45,121.18z"/>
			<path class="st1" d="M121.78,128.3c-7.8,0.15-18.3,0.23-29.95,0.23c-25.48,0-56.5-0.38-77.04-1.15c0.06-0.14,0.12-0.28,0.17-0.42
				c0.08-0.18,0.15-0.36,0.22-0.54c29.83,1.12,81.46,1.4,106.29,0.92c0.02,0.07,0.05,0.15,0.07,0.21
				C121.63,127.81,121.71,128.05,121.78,128.3z"/>
			<path class="st1" d="M123.72,135.42c-7.94,0.18-19.23,0.28-31.88,0.28c-26.68,0-59.46-0.42-79.87-1.27
				c0.13-0.32,0.25-0.64,0.38-0.96c30.06,1.25,86.41,1.54,111.14,0.98C123.56,134.78,123.65,135.1,123.72,135.42z"/>
			<path class="st1" d="M125.25,142.55c-7.99,0.2-19.93,0.31-33.42,0.31c-27.88,0-62.42-0.45-82.55-1.39
				c0.12-0.32,0.24-0.63,0.36-0.94c29.89,1.36,90.91,1.68,115.44,1.05C125.14,141.91,125.2,142.23,125.25,142.55z"/>
			<path class="st1" d="M126.31,149.68c-7.98,0.22-20.38,0.35-34.47,0.35c-29.08,0-65.4-0.49-85.07-1.52
				c0.11-0.31,0.21-0.63,0.32-0.95c29.26,1.5,94.67,1.84,119.1,1.15C126.23,149.04,126.27,149.36,126.31,149.68z"/>
			<path class="st1" d="M126.76,156.83c-7.95,0.24-20.56,0.36-34.92,0.36c-30.28,0-68.4-0.53-87.41-1.64
				c0.1-0.31,0.19-0.63,0.3-0.95c28.15,1.62,97.34,2,122,1.27L126.76,156.83z"/>
			<path class="st1" d="M101.54,163.37l-0.08,0.96c-3.09,0.01-6.31,0.02-9.62,0.02c-21.21,0-46.26-0.26-65.89-0.79
				c-0.61-0.02-1.2-0.04-1.79-0.05h-0.04c-8.64-0.25-16.14-0.55-21.65-0.91l0.03-0.46l0.01-0.04l0.03-0.46c0.03,0,0.06,0,0.09,0.01
				c5.88,0.38,13.98,0.7,23.3,0.96c0.01,0,0.02-0.01,0.03-0.01c0.01,0,0.01,0.01,0.02,0.01C48.69,163.21,78.67,163.46,101.54,163.37
				z"/>
			<path class="st1" d="M126.76,164c-3.83,0.12-8.74,0.19-14.4,0.25h-0.04l-1.51-0.94c6.31-0.07,11.75-0.15,15.92-0.28L126.76,164z"
				/>
			<path class="st1" d="M2.54,168.79c2.86,0.18,6.26,0.36,10.07,0.51l-1.73,0.9c-3.14-0.14-5.97-0.28-8.41-0.45L2.54,168.79z"/>
			<path class="st1" d="M100.92,170.54l-0.09,0.97c-2.9,0-5.91,0.01-9.01,0.01c-21.24,0-46.33-0.26-65.98-0.79l0.01-0.97
				C48.39,170.37,78.1,170.62,100.92,170.54z"/>
			<path class="st1" d="M126.6,170.19c-1.4,0.05-2.94,0.08-4.62,0.12l1.49,0.93c1.07-0.02,2.08-0.04,3.02-0.07L126.6,170.19z"/>
			<path class="st1" d="M100.3,177.71l-0.09,0.96c-2.71,0.01-5.51,0.01-8.39,0.01c-21.28,0-46.43-0.26-66.09-0.8l0.01-0.96
				C48.08,177.53,77.52,177.78,100.3,177.71z"/>
			<path class="st1" d="M99.68,184.87l-0.09,0.97c-2.52,0.01-5.11,0.01-7.77,0.01c-21.32,0-46.53-0.26-66.21-0.81l0.02-0.96
				C47.79,184.68,76.94,184.94,99.68,184.87z"/>
			<path class="st1" d="M99.06,192.03L98.97,193c-2.32,0.01-4.71,0.01-7.15,0.01c-21.36,0-46.63-0.26-66.33-0.81l0.02-0.96
				C47.48,191.84,76.38,192.1,99.06,192.03z"/>
		</g>
	</g>
	<path class="st2" d="M4.22,172.74c0,0,7.25,16.8,21.74,17.13c14.49,0.33,51.71-7.25,51.71-7.25l-46.85-22.73L4.22,172.74z"/>
	<path class="st2" d="M124.21,171.73c0,0-10.19,12.87-19.21,15.09c-9.02,2.22-27.79-4.45-27.79-4.45l-46.57-22.36l1.98-8.44
		l71.27,5.72L124.21,171.73z"/>
	<g>
		<g>
			<path class="st3" d="M95.88,11.9c1.49,1.23,2.93,2.63,3.68,4.41c0.65,1.55,0.71,3.28,1.18,4.9c1.03,3.54,3.86,6.23,5.58,9.49
				c1.62,3.08,2.21,6.69,1.64,10.13c-0.45,2.77-1.63,5.57-0.97,8.3c0.84,3.43,4.26,5.54,5.98,8.62c1.36,2.43,1.58,5.31,1.68,8.1
				c0.16,4.26,0.09,8.52-0.14,12.78H73.7c0.01,0.78,0.05-0.78,0.06,0c-2.33-2.93-3.58-4.28-4.1-7.98c-0.51-3.7-0.36-7.46-0.22-11.2
				c0.38-9.8,0.71-19.64,2.47-29.29c1.47-8.05,3.91-15.88,6.35-23.69c0.17-0.53,0.36-1.1,0.8-1.44c1.65-1.24,3.85-2.44,5.68-1.71
				C87.71,4.49,93.44,9.88,95.88,11.9z"/>
			<path class="st3" d="M39.88,16.18c-2.24,2.48-3.83,5.6-4.54,8.93c-1.18,5.52-0.09,11.78-3.1,16.48c-1.34,2.09-3.34,3.6-4.92,5.49
				c-3.19,3.84-4.45,9.1-4.44,14.18c0.01,5.08,1.18,10.08,2.35,15.01c0.19,0.79,0.66,1.54,0.85,2.33h44.21
				c-0.2,0-0.09,0.37,0.1,0.29c0.19-0.07,0.23-0.32,0.24-0.53c0.55-10.88,1.79-21.82,0.39-32.61c-1.65-12.65-6.93-24.59-14.11-34.92
				c-1.46-2.1,3.95-6.73,2.65-8.8c-3.15,0.93-10.2,6.53-12.65,8.35C44.48,12.2,41.94,13.9,39.88,16.18z"/>
			<path class="st3" d="M85,3.49c2.68,1.81,4.1,5.05,6.7,6.97c0.93,0.69,1.99,1.18,2.93,1.86c1.71,1.23,2.98,3.06,3.54,5.09
				c0.95,3.45-0.09,7.41,1.68,10.52c0.74,1.3,1.91,2.31,2.66,3.6c1.34,2.31,1.16,5.16,1.37,7.82c0.13,1.66,0.42,3.36,0.06,4.98
				c-0.42,1.88-1.65,3.46-2.85,4.97c-0.83,1.04-1.7,2.11-2.92,2.63c-1.81,0.77-3.88,0.12-5.74-0.53c-1.5-0.52-3.03-1.07-4.21-2.14
				c-2.34-2.13-2.59-5.64-2.8-8.8c-0.21-3.15-0.53-6.29-0.97-9.41c-0.24-1.7-0.51-3.42-1.16-5.02c-1.05-2.59-3.03-4.72-4.17-7.27
				c-1.2-2.67-1.43-5.66-1.6-8.58c-0.1-1.69-1.15-6.51,0.16-7.62C79.4,1.13,83.47,2.45,85,3.49z"/>
			<path class="st3" d="M77.6,7.55c-0.16-1.87-0.46-3.84-1.72-5.27C74.32,0.5,71.69,0.02,69.27,0c-2.77-0.02-5.53,0.43-8.14,1.33
				c-1.3,0.45-2.59,1.02-3.63,1.9c-1.3,1.1-2.15,2.61-3.22,3.92c-3.12,3.8-8.27,5.97-10.51,10.31c-1.95,3.79-1.21,8.34-2.35,12.43
				c-0.75,2.7-2.34,5.41-1.67,8.13c0.45,1.81,1.85,3.27,3.35,4.44c1.11,0.87,2.34,1.65,3.74,1.95c3.06,0.65,6.1-1.18,8.33-3.3
				c3.6-3.42,6.23-7.86,10.48-10.49c2.18-1.35,4.71-2.17,6.73-3.73C78.12,22.46,78.15,13.97,77.6,7.55z"/>
		</g>
		<g>
			<path class="st2" d="M86.66,88.39c0,0-2.91,12.89-17.48,12.89S53.64,88.39,53.64,88.39s1.94-1.98,3.88-6.94
				c1.23-3.14,2.47-8.29,3.2-11.62c0.43-1.92,0.69-3.25,0.69-3.25h17.48c0,0,0.23,1.2,0.58,3.12c0.37,1.99,0.86,4.76,1.36,7.78
				C81.8,83.43,86.66,88.39,86.66,88.39z"/>
			<path class="st4" d="M79.47,69.7c-0.75,2.44-2.06,4.69-3.82,6.5c-0.71,0.73-1.5,1.4-2.4,1.84c-3.06,1.51-6.9,0.14-9.23-2.37
				c-1.54-1.67-2.54-3.73-3.31-5.85c-0.07-0.2-0.14-0.39-0.2-0.58c-0.37-1.09-1.02-2.13-0.1-2.68c0.55-0.33,2.32-0.06,3.37,0.01
				c0.21,0.02,0.4,0.03,0.53,0.02c0.06,0,0.13-0.01,0.23-0.02h14.33C78.89,66.58,79.12,67.78,79.47,69.7z"/>
		</g>
		<g>
			<g>
				<path class="st2" d="M92.94,52.03c-0.07,0.3-0.15,0.61-0.23,0.91c-2,7.38-6.9,14.48-13.66,18.13
					c-7.18,3.88-15.87,2.25-21.85-3.15c-4.86-4.39-8.06-10.8-9.5-17.46c-0.76-3.39-1.04-6.85-0.86-10.14
					c0.61-11.16,6.44-23.5,17.36-27.55c2.71-1.01,5.73-1.54,8.74-1.47c3.57,0.08,7.1,1.01,10.01,2.99
					c4.13,2.81,7.07,7.09,8.77,11.76C94.64,34.08,94.94,43.74,92.94,52.03z"/>
				<g>
					<g>
						<g>
							<path class="st2" d="M92.18,44.21c0.43-1.82,3.3-4.04,4.69-4.54c4.1-1.47,6.52,4.13,5.56,8.14
								c-0.82,3.44-3.39,6.68-6.28,7.95c-0.92,0.4-6.92,0.95-6.96,1.14C89.2,56.9,92.17,44.25,92.18,44.21z"/>
							<g>
								<path class="st5" d="M93.79,45.61c0.35-1.36,0.98-2.71,2.09-3.58c1.11-0.87,2.77-1.13,3.92-0.33
									c0.7,0.48,1.13,1.27,1.31,2.1c0.18,0.82,0.14,1.68,0.03,2.52c-0.35,2.74-1.45,5.51-3.62,7.22
									c-1.18,0.92-2.79,1.49-4.18,0.95"/>
								<path class="st5" d="M95.9,54.4c-0.92-4.18-0.72-8.6,0.56-12.69"/>
							</g>
						</g>
					</g>
					<g>
						<g>
							<path class="st2" d="M47.6,43.25c-0.43-1.82-3.3-4.04-4.69-4.54c-4.1-1.47-6.52,4.13-5.56,8.14
								c0.82,3.44,3.39,6.68,6.28,7.95c0.92,0.4,6.92,0.95,6.96,1.14C50.58,55.93,47.61,43.28,47.6,43.25z"/>
							<g>
								<path class="st5" d="M46.17,44.64c-0.35-1.36-0.98-2.71-2.08-3.58c-1.11-0.87-2.77-1.13-3.92-0.33
									c-0.7,0.48-1.13,1.27-1.31,2.1c-0.18,0.82-0.14,1.68-0.03,2.52c0.35,2.74,1.45,5.51,3.62,7.22
									c1.18,0.92,2.79,1.49,4.18,0.95"/>
								<path class="st5" d="M43.5,40.75c1.29,4.08,1.48,8.5,0.56,12.69"/>
							</g>
						</g>
					</g>
				</g>
				<g>
					<g>
						<g>
							<path class="st6" d="M61.61,41.66c-0.06,0.96-0.87,1.69-1.83,1.63c-0.96-0.05-1.68-0.87-1.63-1.83
								c0.06-0.96,0.87-1.69,1.83-1.63C60.94,39.88,61.67,40.7,61.61,41.66z"/>
							<path class="st6" d="M82.38,41.81c-0.06,0.96-0.87,1.68-1.83,1.63c-0.96-0.06-1.69-0.87-1.63-1.83
								c0.06-0.96,0.87-1.69,1.83-1.63C81.7,40.03,82.43,40.85,82.38,41.81z"/>
							<path class="st3" d="M55.16,33.02c-1.44,0.45-3.01,1.08-3.31,2.1c-0.11,0.38,0.01,0.81,0.45,1.04
								c0.47,0.25,1.16,0.21,1.78,0.14c1.18-0.14,2.34-0.38,3.5-0.62c1.66-0.34,3.32-0.68,4.97-1.02c0.81-0.17,1.8-0.46,1.85-1.02
								c0.02-0.22-0.13-0.44-0.31-0.62C62.08,31.02,57.82,32.19,55.16,33.02z"/>
							<path class="st3" d="M85.4,33.18c1.38,0.44,2.89,1.06,3.19,2.1c0.11,0.39,0,0.83-0.42,1.08c-0.45,0.26-1.11,0.24-1.7,0.18
								c-1.13-0.12-2.24-0.35-3.35-0.57c-1.59-0.32-3.18-0.64-4.76-0.96c-0.78-0.16-1.72-0.44-1.78-1.01
								c-0.03-0.23,0.11-0.45,0.29-0.64C78.76,31.25,82.85,32.37,85.4,33.18z"/>
						</g>
						<path class="st5" d="M68.92,36.75c1.48,3.63,1.54,7.81,0.18,11.48c-0.42,1.12-0.97,2.28-0.75,3.46
							c0.23,1.22,1.23,2.12,2.17,2.92"/>
					</g>
					<g>
						<g>
							<path class="st7" d="M93.09,49.22c0,0-0.06,1.73-1.3,5.37l-2.74,6.62v0.01c-0.75,1.27-1.63,2.53-2.62,3.76
								c-3.42,4.2-8.37,7.8-15.42,8.52h-0.01c-0.21,0.02-0.43,0.04-0.64,0.06c-2.04,0.15-3.89,0.01-5.56-0.39
								c-1.77-0.42-3.36-1.11-4.76-1.99c-3.23-2.03-5.55-5.11-7.22-8.31c-0.56-1.08-1.05-2.19-1.48-3.27
								c-2.14-5.49-2.59-10.5-2.59-10.5s1.23-0.68,3.43-1.52c3.32-1.28,8.85-2.94,15.65-3.25c1.03-0.05,2.08-0.07,3.15-0.05
								c1.06,0.02,2.1,0.08,3.11,0.15c0,0,0.01-0.01,0.01,0c1.61,0.12,3.14,0.31,4.6,0.54C87.59,46.42,93.09,49.22,93.09,49.22z"/>
						</g>
						<path class="st7" d="M95.55,55.97l-6.89,4.83l-0.42-0.6l5.56-3.9C94.45,56.25,95.08,56.1,95.55,55.97z"/>
						<g>
							<path class="st8" d="M67.65,45.66c-0.39,0.82-1.29,1.36-2.2,1.38c-0.14,0-0.3,0.01-0.37,0.13c-0.04,0.08-0.03,0.16-0.01,0.24
								c0.2,1.04,1.22,1.81,1.34,2.85c0.03,0.24,0,0.49-0.14,0.68c-0.17,0.23-0.5,0.3-0.79,0.32c-1.09,0.06-2.21-0.37-2.97-1.14
								c-0.31-0.32-0.58-0.69-0.96-0.92c-0.38-0.23-0.93-0.27-1.22,0.07c-0.15,0.16-0.19,0.4-0.24,0.61
								c-0.33,1.34-0.88,2.6-1.64,3.75c-0.32,0.47-0.75,0.97-1.33,0.96c-0.45-0.02-0.85-0.38-1.03-0.8
								c-0.18-0.42-0.2-0.89-0.21-1.35c-0.03-0.99-0.06-1.97-0.09-2.96c-0.01-0.27-0.05-0.59-0.29-0.7
								c-0.1-0.05-0.21-0.05-0.33-0.03c-0.61,0.08-1.13,0.48-1.72,0.68c-0.59,0.2-1.4,0.08-1.58-0.52c-0.09-0.27,0-0.57,0.1-0.85
								c0.06-0.15,0.12-0.31,0.19-0.46c3.32-1.28,8.85-2.94,15.65-3.25C67.89,44.79,67.84,45.25,67.65,45.66z"/>
							<path class="st1" d="M60.89,58.01c-1.27,2.41-1.99,5.1-2.08,7.81c0.9,0.23,1.84-0.11,2.67-0.53
								c2.33-1.18,4.34-3.08,5.43-5.45c1.01-2.2,1.4-5.39,0.13-7.57c-0.46,0.38-1.03,0.5-1.56,0.78c-0.67,0.36-1.29,0.81-1.86,1.32
								C62.5,55.4,61.6,56.66,60.89,58.01z"/>
							<path class="st8" d="M86.43,64.99c-3.42,4.2-8.37,7.8-15.42,8.52h-0.01c-0.35-0.41-0.67-0.89-0.92-1.48
								c-0.23-0.54-0.36-1.21-0.01-1.69c0.44-0.61,1.34-0.57,2.07-0.46c1.04,0.14,2.07,0.28,3.11,0.43c0.36,0.05,0.78,0.07,1-0.22
								c0.12-0.16,0.13-0.38,0.13-0.58c-0.02-1.96-0.55-4.01,0.14-5.84c0.15-0.39,0.38-0.78,0.76-0.96c0.61-0.26,1.3,0.16,1.79,0.62
								c0.69,0.65,1.27,1.4,1.72,2.23c0.15,0.28,0.3,0.59,0.55,0.78c0.25,0.2,0.65,0.27,0.89,0.06c0.12-0.11,0.18-0.27,0.23-0.43
								c0.22-0.66,0.35-1.36,0.68-1.97c0.34-0.61,0.95-1.14,1.64-1.11c0.58,0.02,1.09,0.44,1.35,0.96
								C86.32,64.19,86.4,64.59,86.43,64.99z"/>
							<path class="st1" d="M79.52,51.41c-1.47,1.35-2.61,3.01-3.7,4.68c2.62,0.6,5.46,0.2,7.8-1.11c2.13-1.19,4.53-3.56,5.01-6.05
								C85.54,47.8,81.79,49.32,79.52,51.41z"/>
							<path class="st1" d="M65.81,70.83c-0.15,0.81-0.52,1.62-1.02,2.36c-1.77-0.42-3.36-1.11-4.76-1.99
								C61.89,70.42,63.97,70.15,65.81,70.83z"/>
							<path class="st0" d="M78.94,46.05c-0.02,0.51-0.22,1-0.47,1.44c-0.59,1.05-1.47,1.94-2.53,2.54
								c-0.51,0.29-1.08,0.52-1.67,0.56c-0.59,0.04-1.22-0.13-1.65-0.53c-0.44-0.42-0.65-1.04-0.65-1.65
								c0.01-0.61,0.2-1.2,0.47-1.74c0.39-0.79,0.95-1.62,1.64-2.22c0-0.01,0-0.01,0.01,0c1.61,0.12,3.14,0.31,4.6,0.54
								C78.85,45.32,78.95,45.68,78.94,46.05z"/>
							<path class="st0" d="M58.09,58.36c-0.01,0.51-0.21,1-0.46,1.45c-0.59,1.05-1.47,1.94-2.53,2.53
								c-0.51,0.29-1.08,0.52-1.67,0.56c-0.2,0.01-0.41,0-0.61-0.03c-0.56-1.08-1.05-2.19-1.48-3.27c0.07-0.21,0.16-0.43,0.26-0.63
								c0.94-1.94,2.99-4.06,5.26-2.72C57.59,56.7,58.12,57.51,58.09,58.36z"/>
							<path class="st0" d="M69.13,61.64c-0.27,0.55-0.47,1.14-0.47,1.75c0,0.61,0.2,1.24,0.65,1.65c0.44,0.41,1.06,0.57,1.65,0.53
								c0.59-0.04,1.16-0.27,1.68-0.56c1.05-0.6,1.93-1.49,2.52-2.54c0.25-0.45,0.45-0.94,0.47-1.45c0.02-0.85-0.5-1.67-1.23-2.1
								C72.12,57.57,70.08,59.7,69.13,61.64z"/>
							<path class="st0" d="M91.96,55.07l-2.91,6.14v0.01c-0.3,0.11-0.61,0.18-0.92,0.2c-0.59,0.04-1.22-0.13-1.65-0.53
								c-0.44-0.42-0.65-1.05-0.65-1.65c0.01-0.6,0.2-1.2,0.47-1.74c0.95-1.94,2.99-4.07,5.26-2.72
								C91.71,54.87,91.83,54.97,91.96,55.07z"/>
						</g>
					</g>
				</g>
			</g>
		</g>
		<g>
			<path class="st3" d="M74.76,20.54c-0.41,2.42,0.06,4.91,0.75,7.26c0.08,0.27,0.16,0.57,0.05,0.83c-0.16,0.4-0.68,0.48-1.11,0.52
				c-6.22,0.58-12.45,1.15-18.68,1.73c-0.45-1.85-1.86-4.12,1.81-14.03c0,0-4.98,5.67-5.3,14.35c-2.17,0.2-4.33,0.4-6.5,0.6
				c-0.79-6.08,2.54-11.97,6.66-16.52c4.54-5.01,10.3-9.09,16.87-10.73c1.76-0.45,3.66-0.7,5.39-0.13c4.38,1.46,3.65,6.52,2.29,9.89
				C76.17,16.37,75.12,18.37,74.76,20.54z"/>
			<path class="st3" d="M79.09,18.29c1.61,3.66,4.3,7.13,4.14,11.13c4.56,2.12,9.12,4.25,13.68,6.37c0.58-7.4-1.58-14.99-5.96-20.99
				c-2.54-3.48-6.57-7.45-10.98-8.29C74.75,5.51,78.07,15.99,79.09,18.29z"/>
		</g>
		<path class="st3" d="M48.19,45.51c-0.44,0.11-0.78-0.36-0.99-0.76c-1.17-2.31-2.36-4.71-2.54-7.29c-0.1-1.49,0.2-3.06,0.96-4.35
			c0.88-1.51,2.38-2.96,2.54-0.39C48.43,36.97,48.39,41.26,48.19,45.51z"/>
		<path class="st3" d="M92,43.29c0,0.16,0.01,0.32,0.1,0.45c0.15,0.23,0.49,0.26,0.74,0.13c0.24-0.12,0.41-0.35,0.57-0.58
			c1.2-1.73,2.27-3.59,2.85-5.61c0.58-2.03,0.64-4.25-0.13-6.21c-0.24-0.59-0.56-1.17-1.06-1.58c-0.5-0.4-1.2-0.6-1.8-0.37
			c-2.18,0.83-1.53,4.04-1.48,5.76C91.85,37.96,91.92,40.62,92,43.29z"/>
		<g>
			<g>
				<path class="st7" d="M50.44,48.58l-0.72,0.13c-0.01-0.08-1.17-6.89-4.06-9.16c-1.33-1.05-2.41-1.13-3.18-0.93
					c-0.39-0.09-0.87-0.15-1.39-0.11c0.83-0.59,2.65-1.4,5.02,0.46C49.23,41.42,50.39,48.29,50.44,48.58z"/>
				<path class="st7" d="M51.66,57.88l-0.35,0.64l-6.09-3.34c0.75,0.14,1.5,0.2,1.92,0.22L51.66,57.88z"/>
			</g>
			<path class="st7" d="M99.04,39.46L99.04,39.46c-0.51-0.1-1.02-0.05-1.49,0.08c-0.44-0.13-0.89-0.11-1.34,0.05
				c-3.34,1.15-5.66,9-5.68,9.08l-0.7-0.2c0.1-0.33,2.45-8.29,6.13-9.56C97.01,38.55,98.04,38.73,99.04,39.46z"/>
			<path class="st7" d="M90.68,58.05"/>
		</g>
	</g>
	<g>
		<path class="st9" d="M39.96,120.7l-9.24,39.16c0,0,31.35,18.89,47.12,22.76"/>
		<line class="st9" x1="33.86" y1="147.21" x2="40.61" y2="129.75"/>
		<g>
			<line class="st9" x1="94.8" y1="120.7" x2="99.57" y2="155.28"/>
			<line class="st9" x1="92.82" y1="129.59" x2="98.75" y2="148.69"/>
		</g>
	</g>
	<g>
		<g>
			<path class="st2" d="M80.84,155.22c0,0,11.49-14.95,17.29-17.91c5.81-2.96,12.6-6.79,13.71-5.93c1.11,0.86,1.11,1.98,0.62,2.59
				c-0.49,0.62-7.41,5.68-7.41,5.68l-3.58,3.09c0,0,11.73-3.09,12.97-1.98c1.24,1.11-1.98,12.85-2.84,14.57
				c-0.86,1.73-7.04,2.35-7.04,2.35L80.84,155.22z"/>
			<path class="st9" d="M94.59,144.72c0,0,5.37-1.71,9.65-2.53c4.28-0.82,10.03-1.83,10.03-1.83"/>
			<path class="st9" d="M95.91,148.92c0,0,13.5-3.05,18.2-3.05"/>
			<path class="st9" d="M97.31,153.28c0,0,9.88-2.47,15.4-2.22"/>
		</g>
		<line class="st9" x1="80.88" y1="155.28" x2="105.09" y2="157.75"/>
	</g>
</g>
</svg>
