<?xml version="1.0" encoding="utf-8"?>
<!-- Generator: Adobe Illustrator 23.0.6, SVG Export Plug-In . SVG Version: 6.00 Build 0)  -->
<svg version="1.1" id="Layer_1" xmlns="http://www.w3.org/2000/svg" xmlns:xlink="http://www.w3.org/1999/xlink" x="0px" y="0px"
	 viewBox="0 0 123.44 224.03" style="enable-background:new 0 0 123.44 224.03;" xml:space="preserve">
<style type="text/css">
	.st0{fill:#86C2BA;}
	.st1{fill:#FFAFAD;}
	.st2{fill:#FF7A8C;}
	.st3{fill:#6F575F;}
	.st4{fill:none;stroke:#2D1C22;stroke-width:0.4423;stroke-linecap:round;stroke-linejoin:round;stroke-miterlimit:10;}
	.st5{fill:#2D1C22;}
	.st6{fill:none;stroke:#2D1C22;stroke-width:0.4461;stroke-linecap:round;stroke-linejoin:round;stroke-miterlimit:10;}
	.st7{fill:#FFDEBC;}
	.st8{fill:#F1C4D3;}
	.st9{fill:none;stroke:#2D1C22;stroke-width:0.25;stroke-linecap:round;stroke-linejoin:round;stroke-miterlimit:10;}
	.st10{fill:none;stroke:#2D1C22;stroke-width:0.2545;stroke-linecap:round;stroke-linejoin:round;stroke-miterlimit:10;}
</style>
<g>
	<path class="st0" d="M119.27,130.58c-1.53-7.15-10.21-16.6-10.21-16.6S89.39,96.88,81.99,96.37c-7.4-0.51-37.67,1.06-37.67,1.06
		s-23.87,7.88-31.02,16.05c0,0-10.98,5.87-12.77,35.49c-1.79,29.62,0.51,55.66,12,65.36c0.69,0.58,2.16,0.86,3.94,0.95l-1.9,8.76
		l96.47-0.13l0.11-14.51c1.64-0.51,2.93-1.11,3.63-1.83C130.05,191.84,120.8,137.73,119.27,130.58z"/>
	<g>
		<g>
			<path class="st1" d="M80.25,97.43c0,0-11.8,19.75-16.31,19.86c-9.55,0.24-19.62-19.86-19.62-19.86s1.87-1.43,3.92-7.21
				c1.44-4.06,2.48-9.96,2.66-13.69c0.11-2.25,0.86-3.7,0.86-3.7h21.62c0,0,0.29,1.37,0.73,3.55c0.45,2.27,1.07,5.42,1.68,8.87
				C76.99,92.02,80.25,97.43,80.25,97.43z"/>
			<path class="st2" d="M74.11,76.37c-0.93,2.79-2.55,5.34-4.73,7.41c-0.87,0.84-1.84,1.59-2.97,2.09
				c-3.78,1.72-8.52,0.17-11.41-2.7c-1.92-1.89-3.15-4.24-4.11-6.65c0.53-2.19,0.86-3.7,0.86-3.7h2.95
				c0.26,0.02,0.49,0.03,0.66,0.02c0.07,0,0.16-0.01,0.29-0.02h17.73C73.38,72.83,73.67,74.19,74.11,76.37z"/>
		</g>
		<g>
			<g>
				<path class="st3" d="M27.61,30.07c-0.04,1.21,0.14,2.42,0.01,3.62c-0.35,3.16-2.86,5.8-3.06,8.97c-0.21,3.34,2.17,6.23,4.4,8.73
					c1.77,1.99,3.55,3.98,5.32,5.96c0.87,0.98,1.97,2.04,3.26,1.86c1.78-0.25,2.34-2.51,2.44-4.3c0.44-7.55,0.11-15.19,1.63-22.6
					c0.5-2.45,1.21-4.96,0.72-7.42C40.41,15.32,27.84,23.38,27.61,30.07z"/>
				<path class="st3" d="M95.04,22.46c0.75,3.47-1.11,7.04-0.75,10.58c0.25,2.48,1.57,4.75,1.8,7.23c0.37,3.96-2.5,7.98-6.37,8.91
					c-0.44,0.1-0.93,0.17-1.3-0.08c-0.28-0.18-0.44-0.5-0.57-0.8c-3.03-6.71-2.72-14.51-5.39-21.37c-0.29-0.75-0.62-1.5-0.67-2.3
					c-0.06-0.92,0.26-1.81,0.57-2.68c1.09-2.96,1.83-7.63,5.88-6.33C91.32,16.6,94.35,19.22,95.04,22.46z"/>
			</g>
			<g>
				<g>
					<path class="st1" d="M87.48,57.29c-0.07,0.32-0.16,0.66-0.25,0.98c-2.19,7.97-7.56,15.64-14.95,19.58
						c-7.86,4.19-17.37,2.43-23.92-3.41c-5.31-4.74-8.82-11.66-10.39-18.85c-0.83-3.66-1.14-7.4-0.94-10.95
						c0.67-12.06,7.05-25.38,19-29.75c2.96-1.09,6.27-1.66,9.56-1.59c3.91,0.09,7.77,1.09,10.96,3.23c4.52,3.03,7.74,7.65,9.6,12.7
						C89.34,37.91,89.67,48.34,87.48,57.29z"/>
					<g>
						<g>
							<g>
								<path class="st1" d="M86.95,48.39c0.49-2.03,3.74-4.5,5.32-5.06c4.64-1.64,7.39,4.6,6.3,9.06
									c-0.93,3.83-3.84,7.44-7.11,8.85c-1.04,0.45-7.83,1.06-7.89,1.27C83.58,62.51,86.94,48.43,86.95,48.39z"/>
								<g>
									<path class="st4" d="M88.78,49.94c0.4-1.51,1.11-3.02,2.36-3.98c1.25-0.97,3.13-1.25,4.44-0.37
										c0.79,0.53,1.28,1.42,1.49,2.33c0.21,0.92,0.16,1.87,0.04,2.81c-0.39,3.05-1.64,6.14-4.1,8.03
										c-1.33,1.03-3.16,1.66-4.74,1.06"/>
									<path class="st4" d="M91.16,59.73c-1.04-4.66-0.82-9.58,0.64-14.12"/>
								</g>
							</g>
						</g>
						<g>
							<g>
								<path class="st1" d="M39.08,47.7c-0.49-2.03-3.74-4.5-5.32-5.06c-4.64-1.64-7.39,4.6-6.3,9.06
									c0.93,3.83,3.84,7.44,7.11,8.85c1.04,0.45,7.84,1.06,7.89,1.27C42.46,61.82,39.09,47.74,39.08,47.7z"/>
								<g>
									<path class="st4" d="M37.46,49.25c-0.4-1.51-1.11-3.02-2.36-3.98c-1.25-0.97-3.13-1.25-4.44-0.37
										c-0.79,0.53-1.28,1.42-1.49,2.33c-0.21,0.92-0.16,1.87-0.04,2.81c0.39,3.05,1.64,6.14,4.1,8.03
										c1.33,1.03,3.16,1.66,4.74,1.06"/>
									<path class="st4" d="M34.44,44.92c1.46,4.55,1.68,9.47,0.64,14.12"/>
								</g>
							</g>
						</g>
					</g>
				</g>
			</g>
			<g>
				<path class="st5" d="M44.97,39.63c-0.4,0.44-0.72,0.94-0.71,1.47c0.01,0.53,0.43,1.08,1.11,1.25c0.59,0.15,1.24,0.01,1.84-0.13
					c2.17-0.49,4.4-0.85,6.65-1.09c1.07-0.11,2.31-0.28,2.82-0.97c0.44-0.59,0.11-1.37-0.56-1.84c-0.67-0.47-1.59-0.68-2.5-0.82
					C50.34,37.04,46.95,37.47,44.97,39.63z"/>
				<path class="st5" d="M81.07,39.53c0.4,0.44,0.72,0.95,0.71,1.48c-0.01,0.53-0.43,1.08-1.11,1.26c-0.59,0.15-1.24,0.01-1.84-0.13
					c-2.17-0.49-4.4-0.86-6.65-1.1c-1.07-0.11-2.31-0.28-2.82-0.97c-0.44-0.6-0.11-1.38,0.56-1.85s1.59-0.69,2.5-0.82
					C75.7,36.92,79.09,37.36,81.07,39.53z"/>
				<path class="st5" d="M54.51,47.3c-0.06,1.01-0.92,1.78-1.93,1.72c-1.01-0.06-1.78-0.92-1.72-1.93c0.06-1.01,0.92-1.78,1.94-1.72
					C53.8,45.42,54.57,46.29,54.51,47.3z"/>
				<path class="st5" d="M74.88,47.11c-0.06,1.01-0.92,1.78-1.93,1.72c-1.01-0.06-1.78-0.92-1.72-1.93
					c0.06-1.01,0.92-1.78,1.93-1.72C74.17,45.24,74.94,46.1,74.88,47.11z"/>
				<path class="st6" d="M59.86,41.65c0.77,0.86,1.02,2.07,1,3.22c-0.02,1.15-0.27,2.28-0.37,3.43c-0.23,2.56,0.27,5.18-0.24,7.7
					c-0.17,0.86-0.46,1.71-0.47,2.58c-0.01,0.88,0.33,1.83,1.1,2.24c0.9,0.48,2.1,0.1,2.95,0.67"/>
			</g>
			<g>
				<path class="st3" d="M34.18,3.79c-3.93,2.98-6.33,8.3-4.9,13.02c0.59,1.94,1.75,3.66,2.89,5.34c1.84,2.71,4.12,5.68,7.38,5.97
					c4.27,0.37,7.65-4.08,11.94-4.3c2.14-0.11,4.18,0.87,6.31,1.19c2.9,0.44,5.98-0.43,8.23-2.32c2.43-2.05,4.23-5.37,7.39-5.67
					c1.94-0.19,3.79,0.91,5.22,2.24c1.43,1.33,2.6,2.93,4.13,4.14c0.26,0.21,0.56,0.41,0.89,0.45c1.01,0.12,1.53-1.14,1.72-2.14
					c0.72-3.89,1.35-8.13-0.48-11.64c-1.7-3.28-5.19-5.2-8.6-6.61c-1.68-0.7-3.41-1.32-5.2-1.59c-5.11-0.76-10.48,1.39-15.4-0.16
					c-3.89-1.22-6.76-1.97-10.87-1.64C41.04,0.39,37.24,1.47,34.18,3.79z"/>
				<path class="st3" d="M80.71,24.01c-0.75,2.14-1.12,4.61-0.05,6.62c1.07,2.02,3.39,3.23,4.15,5.38c0.58,1.65,0.11,3.53,0.69,5.19
					c0.51,1.47,1.77,2.54,2.97,3.53c0.24,0.2,0.55,0.41,0.83,0.28c0.2-0.09,0.29-0.33,0.36-0.54c1.71-5.17,2.43-10.66,2.11-16.09
					c-0.16-2.74-0.61-5.56-2.12-7.85c-0.91-1.38-4.1-4.42-6.03-3.4C82.21,17.87,81.23,22.54,80.71,24.01z"/>
				<path class="st3" d="M41.17,36.97c-0.33,1.5-0.39,3.05-0.83,4.52c-0.57,1.93-1.76,3.6-2.93,5.23
					c-3.07-3.94-3.91-9.21-3.69-14.19c0.19-4.11,2.76-14.71,9.07-11.27C48.72,24.49,42.11,32.71,41.17,36.97z"/>
			</g>
			<g>
				<path class="st3" d="M84.96,47.57c-0.01,0.4-0.02,0.81,0.13,1.17c0.15,0.37,0.5,0.68,0.9,0.66c0.24-0.01,0.46-0.14,0.65-0.29
					c1.44-1.1,1.88-3.04,2.67-4.67c0.77-1.58,1.94-2.95,2.63-4.56c0.28-0.64,0.47-1.35,0.37-2.04c-0.18-1.2-1.31-2.13-2.51-2.26
					C83.94,34.98,85.04,44.32,84.96,47.57z"/>
				<path class="st3" d="M37.4,48.46c0.2,0.75,0.65,1.67,1.42,1.57c0.27-0.04,0.51-0.21,0.7-0.4c0.88-0.89,1.1-2.22,1.24-3.46
					c0.25-2.24,0.38-4.49,0.38-6.74c0-0.67-0.01-1.36-0.29-1.97c-0.13-0.28-0.31-0.54-0.56-0.72c-0.31-0.23-0.71-0.32-1.09-0.32
					c-1.45,0-2.67,1.19-3.18,2.55C34.85,42.07,36.58,45.44,37.4,48.46z"/>
			</g>
			<g>
				<g>
					<g>
						<g>
							<g>
								<g>
									<path class="st5" d="M86.96,54.89c0,0-0.01,0.19-0.07,0.58c0,0.01,0.01,0.01,0,0.02c-0.05,0.42-0.17,1.07-0.39,1.96
										l-0.01,0.03c-0.05,0.23-0.12,0.48-0.19,0.75c-0.04,0.15-0.08,0.3-0.13,0.46c-0.16,0.56-0.36,1.2-0.59,1.9l-1.57,3.79
										l-0.44,1.07l-0.31,0.74l-0.58,1.4v0.01c-0.8,1.34-1.72,2.68-2.78,3.98c-0.18,0.22-0.35,0.43-0.54,0.64
										c-0.16,0.19-0.32,0.37-0.49,0.55c-0.08,0.1-0.17,0.19-0.26,0.28c-0.14,0.16-0.29,0.32-0.45,0.47
										c-1.63,1.67-3.53,3.17-5.73,4.37c-2.05,1.13-4.38,1.98-6.99,2.44c-0.6,0.11-1.22,0.2-1.85,0.26h-0.01
										c-0.23,0.02-0.45,0.05-0.68,0.07c-0.49,0.03-0.96,0.05-1.42,0.06H61.2c-0.25,0-0.5-0.01-0.75-0.02
										c-1.22-0.04-2.36-0.2-3.43-0.45c-0.86-0.21-1.68-0.46-2.45-0.79c-0.92-0.37-1.78-0.82-2.59-1.32
										c-3.41-2.15-5.87-5.41-7.63-8.79c-0.25-0.47-0.48-0.96-0.7-1.43c-0.04-0.09-0.08-0.18-0.13-0.27
										c-0.07-0.18-0.15-0.35-0.23-0.52c-0.12-0.29-0.24-0.57-0.35-0.85c-0.03-0.1-0.08-0.18-0.11-0.27
										c-0.02-0.04-0.03-0.08-0.05-0.12c-0.1-0.27-0.2-0.54-0.3-0.8v-0.01c-0.13-0.36-0.25-0.7-0.36-1.04
										c-0.01-0.01-0.01-0.02-0.01-0.02c-0.13-0.39-0.25-0.77-0.36-1.14c-0.15-0.48-0.28-0.95-0.4-1.4
										c-0.04-0.12-0.07-0.25-0.1-0.37c-0.03-0.13-0.07-0.25-0.1-0.38c-0.37-1.4-0.61-2.65-0.78-3.63
										c-0.25-1.44-0.33-2.32-0.33-2.32s0.51-0.28,1.47-0.72c0.21-0.09,0.44-0.19,0.7-0.3c0.43-0.18,0.91-0.38,1.45-0.58
										c0.5-0.2,1.05-0.39,1.64-0.6c0.08-0.03,0.17-0.06,0.26-0.09c2.8-0.94,6.56-1.94,10.98-2.45c0.08-0.02,0.17-0.03,0.25-0.03
										c1.11-0.13,2.26-0.22,3.43-0.27c0.2-0.01,0.39-0.02,0.59-0.02c0.9-0.04,1.82-0.06,2.75-0.03c1.13,0.02,2.22,0.08,3.28,0.16
										c0,0,0,0,0.02,0c1.69,0.12,3.32,0.33,4.86,0.57c1.84,0.3,3.55,0.65,5.1,1.03c1.06,0.25,2.03,0.51,2.94,0.78
										c0.25,0.07,0.5,0.15,0.75,0.22c0.59,0.18,1.14,0.36,1.66,0.53c0.23,0.08,0.46,0.16,0.67,0.23c0.42,0.15,0.8,0.29,1.15,0.42
										c0.25,0.1,0.48,0.19,0.7,0.28c0.07,0.02,0.14,0.05,0.21,0.08C86.24,54.53,86.96,54.89,86.96,54.89z"/>
								</g>
							</g>
						</g>
					</g>
					<g>
						<g>
							<path class="st5" d="M94.62,42.87c-0.55-0.06-1.06-0.01-1.5,0.11c-0.55-0.16-1.12-0.13-1.68,0.08
								c-3.93,1.45-6.72,10.82-6.75,10.91c-0.04,0.16-0.19,0.28-0.36,0.28c-0.04,0-0.08-0.01-0.11-0.02
								c-0.2-0.06-0.32-0.27-0.26-0.47c0.11-0.4,2.93-9.83,7.22-11.41c1.13-0.42,2.26-0.28,3.36,0.44
								C94.55,42.8,94.58,42.84,94.62,42.87z"/>
							<path class="st5" d="M90.03,61.68c-3.41,2.32-6.29,3.71-6.32,3.73c-0.05,0.02-0.11,0.04-0.16,0.04
								c-0.14,0-0.29-0.08-0.35-0.23c-0.09-0.18-0.01-0.42,0.18-0.51c0.02-0.01,2.12-1.02,4.83-2.74
								C88.8,61.88,89.45,61.78,90.03,61.68z"/>
						</g>
						<g>
							<path class="st5" d="M42.11,54.65c-0.04,0.01-0.08,0.01-0.12,0.01c-0.16,0-0.31-0.09-0.36-0.26
								c-1.11-3.29-4.68-11.93-7.91-12.54c-0.49-0.09-0.96,0-1.42,0.3c-0.56,0.09-1.05,0.3-1.46,0.53c-0.01-0.1,0.01-0.2,0.08-0.29
								c0.89-1.06,1.87-1.49,2.94-1.3c4.35,0.81,8.33,12.55,8.51,13.05C42.42,54.36,42.32,54.57,42.11,54.65z"/>
							<path class="st5" d="M43.25,65.02c-0.06,0.14-0.2,0.23-0.34,0.23c-0.06,0-0.12-0.02-0.17-0.04
								c-0.03-0.02-3.34-1.62-7.04-4.22c-0.07-0.05-0.12-0.13-0.15-0.21c0.54,0.17,1.17,0.3,1.76,0.38
								c3.15,2.09,5.74,3.35,5.77,3.36C43.26,64.6,43.34,64.84,43.25,65.02z"/>
						</g>
					</g>
				</g>
				<g>
					<g>
						<path class="st7" d="M60.29,57.35c-0.21,0-0.38-0.17-0.38-0.38V52.2c0-0.21,0.17-0.38,0.38-0.38c0.21,0,0.38,0.17,0.38,0.38
							v4.77C60.66,57.18,60.49,57.35,60.29,57.35z"/>
						<path class="st7" d="M62.65,54.81H57.8c-0.21,0-0.38-0.17-0.38-0.38c0-0.21,0.17-0.38,0.38-0.38h4.85
							c0.21,0,0.38,0.17,0.38,0.38C63.02,54.64,62.86,54.81,62.65,54.81z"/>
					</g>
					<g>
						<path class="st7" d="M67.08,64.15c-0.21,0-0.38-0.17-0.38-0.38V59c0-0.21,0.17-0.38,0.38-0.38c0.21,0,0.38,0.17,0.38,0.38
							v4.77C67.46,63.98,67.29,64.15,67.08,64.15z"/>
						<path class="st7" d="M69.45,61.61h-4.85c-0.21,0-0.38-0.17-0.38-0.38c0-0.21,0.17-0.38,0.38-0.38h4.85
							c0.21,0,0.38,0.17,0.38,0.38C69.82,61.44,69.65,61.61,69.45,61.61z"/>
					</g>
					<g>
						<path class="st7" d="M71.87,57.89c-0.21,0-0.38-0.17-0.38-0.38v-4.77c0-0.21,0.17-0.38,0.38-0.38c0.21,0,0.38,0.17,0.38,0.38
							v4.77C72.25,57.72,72.08,57.89,71.87,57.89z"/>
						<path class="st7" d="M74.23,55.35h-4.85c-0.21,0-0.38-0.17-0.38-0.38c0-0.21,0.17-0.38,0.38-0.38h4.85
							c0.21,0,0.38,0.17,0.38,0.38C74.61,55.18,74.44,55.35,74.23,55.35z"/>
					</g>
					<g>
						<path class="st7" d="M80.51,52.45v3.44c0,0.21-0.17,0.38-0.38,0.38c-0.2,0-0.37-0.17-0.37-0.38v-3.66
							C80.01,52.3,80.26,52.38,80.51,52.45z"/>
						<path class="st7" d="M82.5,53.72h-4.85c-0.21,0-0.38-0.17-0.38-0.38c0-0.21,0.17-0.38,0.38-0.38h4.85
							c0.21,0,0.38,0.17,0.38,0.38C82.87,53.56,82.71,53.72,82.5,53.72z"/>
					</g>
					<g>
						<path class="st7" d="M73.28,70.34c-0.21,0-0.38-0.17-0.38-0.38v-4.77c0-0.21,0.17-0.38,0.38-0.38c0.21,0,0.38,0.17,0.38,0.38
							v4.77C73.65,70.17,73.48,70.34,73.28,70.34z"/>
						<path class="st7" d="M75.64,67.8h-4.85c-0.21,0-0.38-0.17-0.38-0.38c0-0.21,0.17-0.38,0.38-0.38h4.85
							c0.21,0,0.38,0.17,0.38,0.38C76.01,67.63,75.84,67.8,75.64,67.8z"/>
					</g>
					<g>
						<path class="st7" d="M78.96,64.66c-0.21,0-0.38-0.17-0.38-0.38v-4.77c0-0.21,0.17-0.38,0.38-0.38s0.38,0.17,0.38,0.38v4.77
							C79.33,64.49,79.16,64.66,78.96,64.66z"/>
						<path class="st7" d="M81.32,62.12h-4.85c-0.21,0-0.38-0.17-0.38-0.38c0-0.21,0.17-0.38,0.38-0.38h4.85
							c0.21,0,0.38,0.17,0.38,0.38C81.69,61.95,81.53,62.12,81.32,62.12z"/>
					</g>
					<g>
						<path class="st7" d="M86.89,55.49c0.01-0.01,0-0.01,0-0.02c-0.05-0.13-0.18-0.23-0.34-0.23c-0.21,0-0.38,0.17-0.38,0.38v1.86
							v0.75v0.46c0.05-0.16,0.09-0.31,0.13-0.46c0.07-0.27,0.14-0.52,0.19-0.75L86.89,55.49z"/>
						<path class="st7" d="M86.49,57.48c-0.05,0.23-0.12,0.48-0.19,0.75h-2.24c-0.21,0-0.38-0.17-0.38-0.38
							c0-0.2,0.17-0.37,0.38-0.37H86.49z"/>
					</g>
					<g>
						<path class="st7" d="M79.36,72.77v-0.55v-1.31c0-0.21-0.17-0.38-0.38-0.38c-0.2,0-0.37,0.17-0.37,0.38v1.86v0.28v0.47
							L79.36,72.77z"/>
						<path class="st7" d="M79.36,72.77h-0.49h-0.26H76.5c-0.21,0-0.38,0.16-0.38,0.37s0.17,0.38,0.38,0.38h1.66h0.45L79.36,72.77z"
							/>
					</g>
					<g>
						<path class="st7" d="M48.8,57.35c-0.21,0-0.38-0.17-0.38-0.38V52.2c0-0.21,0.17-0.38,0.38-0.38c0.21,0,0.38,0.17,0.38,0.38
							v4.77C49.17,57.18,49,57.35,48.8,57.35z"/>
						<path class="st7" d="M51.16,54.81h-4.85c-0.21,0-0.38-0.17-0.38-0.38c0-0.21,0.17-0.38,0.38-0.38h4.85
							c0.21,0,0.38,0.17,0.38,0.38C51.53,54.64,51.37,54.81,51.16,54.81z"/>
					</g>
					<g>
						<path class="st7" d="M55.59,64.15c-0.21,0-0.38-0.17-0.38-0.38V59c0-0.21,0.17-0.38,0.38-0.38c0.21,0,0.38,0.17,0.38,0.38
							v4.77C55.97,63.98,55.8,64.15,55.59,64.15z"/>
						<path class="st7" d="M57.96,61.61h-4.85c-0.21,0-0.38-0.17-0.38-0.38c0-0.21,0.17-0.38,0.38-0.38h4.85
							c0.21,0,0.38,0.17,0.38,0.38C58.33,61.44,58.16,61.61,57.96,61.61z"/>
					</g>
					<g>
						<path class="st7" d="M61.79,70.34c-0.21,0-0.38-0.17-0.38-0.38v-4.77c0-0.21,0.17-0.38,0.38-0.38c0.21,0,0.38,0.17,0.38,0.38
							v4.77C62.16,70.17,61.99,70.34,61.79,70.34z"/>
						<path class="st7" d="M64.15,67.8H59.3c-0.21,0-0.38-0.17-0.38-0.38c0-0.21,0.17-0.38,0.38-0.38h4.85
							c0.21,0,0.38,0.17,0.38,0.38C64.52,67.63,64.36,67.8,64.15,67.8z"/>
					</g>
					<g>
						<path class="st7" d="M67.5,76.05c-0.21,0-0.38-0.17-0.38-0.38V70.9c0-0.21,0.17-0.38,0.38-0.38c0.21,0,0.38,0.17,0.38,0.38
							v4.77C67.87,75.88,67.71,76.05,67.5,76.05z"/>
						<path class="st7" d="M69.86,73.51h-4.85c-0.21,0-0.38-0.17-0.38-0.38c0-0.21,0.17-0.38,0.38-0.38h4.85
							c0.21,0,0.38,0.17,0.38,0.38C70.24,73.34,70.07,73.51,69.86,73.51z"/>
					</g>
					<g>
						<path class="st7" d="M42.13,64.02c-0.21,0-0.38-0.17-0.38-0.38v-4.77c0-0.21,0.17-0.38,0.38-0.38c0.21,0,0.38,0.17,0.38,0.38
							v4.77C42.5,63.85,42.33,64.02,42.13,64.02z"/>
						<path class="st7" d="M44.86,61.11c0,0.21-0.17,0.37-0.38,0.37h-3.13c-0.04-0.12-0.07-0.25-0.1-0.37
							c-0.03-0.13-0.07-0.25-0.1-0.38h3.33C44.69,60.73,44.86,60.9,44.86,61.11z"/>
					</g>
					<g>
						<path class="st7" d="M48.92,70.82c-0.21,0-0.38-0.17-0.38-0.38v-4.77c0-0.21,0.17-0.38,0.38-0.38c0.21,0,0.38,0.17,0.38,0.38
							v4.77C49.3,70.65,49.13,70.82,48.92,70.82z"/>
						<path class="st7" d="M51.29,68.28h-4.85c-0.21,0-0.38-0.17-0.38-0.38c0-0.21,0.17-0.38,0.38-0.38h4.85
							c0.21,0,0.38,0.17,0.38,0.38C51.66,68.11,51.49,68.28,51.29,68.28z"/>
					</g>
					<g>
						<path class="st7" d="M55.12,77.01c-0.21,0-0.38-0.17-0.38-0.38v-4.77c0-0.21,0.17-0.38,0.38-0.38c0.21,0,0.38,0.17,0.38,0.38
							v4.77C55.49,76.84,55.32,77.01,55.12,77.01z"/>
						<path class="st7" d="M57.48,74.47h-4.85c-0.21,0-0.38-0.17-0.38-0.38c0-0.21,0.17-0.38,0.38-0.38h4.85
							c0.21,0,0.38,0.17,0.38,0.38C57.85,74.3,57.68,74.47,57.48,74.47z"/>
					</g>
					<g>
						<path class="st7" d="M61.2,77.58v3.14c-0.25,0-0.5-0.01-0.75-0.02v-3.12c0-0.21,0.17-0.38,0.37-0.38
							C61.03,77.2,61.2,77.37,61.2,77.58z"/>
						<path class="st7" d="M63.19,80.18h-4.85c-0.21,0-0.38-0.17-0.38-0.38c0-0.21,0.17-0.38,0.38-0.38h4.85
							c0.21,0,0.38,0.17,0.38,0.38C63.57,80.01,63.4,80.18,63.19,80.18z"/>
					</g>
				</g>
			</g>
		</g>
	</g>
	<path class="st8" d="M49.5,85.46c0,0-1.74,7.8-1.23,9.33c0.58,1.75,9.72,3.37,11.6,7.29c1.87,3.91,3.74,14.13,3.74,14.13
		s4.43-17.36,7.15-18.72c2.72-1.36,6.85-5.71,6.35-6.79c-0.61-1.31-1.37-5.62-1.37-5.62s3.28,2.87,4.47,4.91
		c1.19,2.04,5.7,5.96,5.7,5.96l-6.64,14.81l-2.89-6.98l-12.77,31.49l-14.21-29.53l-7.4,8.09l-0.47-15.15L49.5,85.46z"/>
	<g>
		<path class="st9" d="M72.46,97.9c0,0,4.43,6.04,6.64,13.28c0,0,4.34-7.49,6.81-15.23"/>
		<line class="st9" x1="41.99" y1="113.82" x2="54.24" y2="100.29"/>
		<line class="st9" x1="63.69" y1="115.44" x2="63.61" y2="135.26"/>
	</g>
	<line class="st9" x1="32.88" y1="179.26" x2="42.75" y2="180.63"/>
	<g>
		<path class="st1" d="M30.16,168.12c0,0,6.47-3.23,9.19-3.57c2.72-0.34,5.79,1.45,5.79,1.45l-2.47,14.51l-10.05-1.44L30.16,168.12z
			"/>
		<g>
			<path class="st9" d="M13.99,115.61c0,0,6.98,11.4,12.09,35.23c5.11,23.83,7.49,32.34,7.49,32.34"/>
			<path class="st9" d="M105.73,114.92c0,0-9.13,38.96-8.11,59.38"/>
			<path class="st10" d="M103.69,176.57c-21.45-7.06-58.28-10.57-58.28-10.57l-2.49,15.35c0,0,35.94,26.16,53.79,28.03
				c17.36,1.83,18.81-2.81,18.81-2.81"/>
			<path class="st10" d="M97.39,209.39c5.27-10.14,14.47-18.17,25.23-22.03"/>
		</g>
		<g>
			<line class="st9" x1="28.37" y1="214.67" x2="76.2" y2="202.24"/>
			<path class="st10" d="M13.82,214.84c0,0,2.81,1.91,14.81-0.26"/>
			<path class="st10" d="M3.11,195.38c1.03,0.14,2.03,0.45,3.01,0.81c8.65,3.2,15.76,10.33,18.94,18.99"/>
		</g>
	</g>
</g>
</svg>
