<?xml version="1.0" encoding="utf-8"?>
<!-- Generator: Adobe Illustrator 23.0.6, SVG Export Plug-In . SVG Version: 6.00 Build 0)  -->
<svg version="1.1" id="Слой_1" xmlns="http://www.w3.org/2000/svg" xmlns:xlink="http://www.w3.org/1999/xlink" x="0px" y="0px"
	 viewBox="0 0 2070.37 1297.77" style="enable-background:new 0 0 2070.37 1297.77;" xml:space="preserve">
<style type="text/css">
	.st0{display:none;fill:#EBF3FA;}
	.st1{fill:#B0D4FF;}
	.st2{fill:#95C0F4;}
	.st3{fill:#CAE5FF;}
	.st4{fill:#DFEDFB;}
	.st5{fill:#FFFFFF;}
	.st6{fill:#FFA412;}
	.st7{fill:#EEF6FF;}
	.st8{fill:#78ACEA;}
	.st9{fill:#BAE8E3;}
	.st10{fill:#A1D6CE;}
	.st11{fill:#F99746;}
	.st12{fill:#C0D8FB;}
	.st13{fill:#DFEBFD;}
	.st14{fill:#B7D3F3;}
	.st15{fill:#FFB27D;}
	.st16{fill:#233862;}
	.st17{fill:#A9453D;}
	.st18{fill:#ED975D;}
	.st19{fill:#2A4E96;}
	.st20{fill:#5F9AA8;}
	.st21{fill:#1E3D70;}
	.st22{fill:#ED7D2B;}
	.st23{fill:#163560;}
	.st24{fill:#B0D0FF;}
	.st25{fill:#98BAF4;}
	.st26{fill:#E8945B;}
	.st27{fill:#EBF3FA;}
	.st28{fill:#F2CCAA;}
	.st29{fill:#B5453C;}
	.st30{fill:#2B478B;}
	.st31{fill:#EBF3FF;}
	.st32{fill:#213F7A;}
	.st33{fill:#E2915A;}
</style>
<g>
	<path class="st0" d="M-297.22,1292.86c0.13,0.1,2521.51-0.31,2521.51-0.31c83.01-177.06,82.87-263.57,92.31-365.06
		c52.15-560.95-370.35-647.19-494.12-670.58c-378.99-71.62-206.5-425.99-1194.08-359.51c-90.51,6.09-303.93,55.29-377.48,87.16
		C199.33,6.91,4.97,106.86-52.05,275.93c-18.01,53.36-22.33,113.61-4.17,180.47C8.05,693.01-159.51,679.41-281.95,792.17
		C-445.38,942.66-428.3,1188.77-297.22,1292.86z"/>
	<g>
		<g>
			<path class="st1" d="M1204.7,1292.71h0.35c2.04,0,3.67-1.68,3.63-3.71l-5.5-238.41l-16.2-1.89l13.82,240.31
				C1200.9,1291.08,1202.62,1292.71,1204.7,1292.71z"/>
		</g>
		<g>
			<path class="st2" d="M1299.12,1292.71h0.35c2.04,0,3.67-1.68,3.63-3.71l-5.5-238.41l-16.2-1.89l13.82,240.31
				C1295.32,1291.08,1297.04,1292.71,1299.12,1292.71z"/>
		</g>
		<g>
			<path class="st1" d="M1038.57,1292.71h-0.35c-2.04,0-3.67-1.68-3.63-3.71l5.5-238.41l16.2-1.89l-13.82,240.31
				C1042.37,1291.08,1040.65,1292.71,1038.57,1292.71z"/>
		</g>
		<path class="st1" d="M1309.85,1035.8V872.44c0-28.75-23.3-52.05-52.05-52.05h-117.7c-28.75,0-52.05,23.3-52.05,52.05v169.61
			L1309.85,1035.8z"/>
		<path class="st2" d="M1066.97,1061.59h227.26c8.63,0,15.63-7,15.63-15.63v-10.16h-242.89V1061.59z"/>
		<path class="st3" d="M1039.73,1061.59h171.93c6.38,0,11.56-5.17,11.56-11.56v-2.68c0-6.38-5.17-11.56-11.56-11.56h-171.93
			c-6.38,0-11.56,5.17-11.56,11.56v2.68C1028.18,1056.42,1033.35,1061.59,1039.73,1061.59z"/>
	</g>
	<g>
		<rect x="757.38" y="175.97" class="st2" width="678.53" height="585.74"/>
		<g>
			<rect x="770.29" y="185.73" class="st4" width="652.42" height="564.3"/>
			<g>
				<polygon class="st5" points="998.32,431.25 855.36,431.25 855.36,252.73 879.6,230.88 998.32,230.88 				"/>
				<polygon class="st1" points="855.36,252.73 878.82,252.73 879.6,230.88 				"/>
				<rect x="903.95" y="248.25" class="st1" width="45.77" height="2.18"/>
				<rect x="893.17" y="254.79" class="st1" width="67.33" height="2.18"/>
				<rect x="872.28" y="296.79" class="st1" width="111.79" height="2.8"/>
				<rect x="872.28" y="305.3" class="st1" width="111.79" height="2.8"/>
				<rect x="872.28" y="313.82" class="st1" width="111.79" height="2.8"/>
				<rect x="872.28" y="322.33" class="st1" width="111.79" height="2.8"/>
				<rect x="872.28" y="413.41" class="st1" width="111.79" height="2.8"/>
			</g>
			<g>
				<polygon class="st5" points="1163.4,678.93 1020.43,678.93 1020.43,500.41 1044.68,478.56 1163.4,478.56 				"/>
				<polygon class="st1" points="1020.43,500.41 1043.9,500.41 1044.68,478.56 				"/>
				<rect x="1069.03" y="495.93" class="st1" width="45.78" height="2.18"/>
				<rect x="1058.25" y="502.47" class="st1" width="67.33" height="2.18"/>
				<rect x="1037.36" y="544.47" class="st1" width="111.79" height="2.8"/>
				<rect x="1037.36" y="552.98" class="st1" width="111.79" height="2.8"/>
				<rect x="1037.36" y="561.49" class="st1" width="111.79" height="2.8"/>
				<rect x="1037.36" y="570.01" class="st1" width="111.79" height="2.8"/>
				<rect x="1037.36" y="596.2" class="st1" width="111.79" height="2.8"/>
				<rect x="1037.36" y="604.71" class="st1" width="111.79" height="2.8"/>
				<rect x="1037.36" y="614.58" class="st1" width="111.79" height="2.8"/>
			</g>
			<g>
				<rect x="1165.13" y="230.88" class="st1" width="78.94" height="69.6"/>
				<path class="st6" d="M1201.15,239.16c0-1.91,1.55-3.46,3.46-3.46s3.46,1.55,3.46,3.46s-1.55,3.46-3.46,3.46
					S1201.15,241.07,1201.15,239.16z"/>
			</g>
			<g>
				
					<rect x="1165.17" y="325.09" transform="matrix(0.9976 -0.0696 0.0696 0.9976 -22.1265 84.7133)" class="st5" width="78.94" height="69.6"/>
				<path class="st1" d="M1199.61,337.9c-0.13-1.9,1.3-3.56,3.21-3.69c1.9-0.13,3.56,1.3,3.69,3.21s-1.3,3.56-3.21,3.69
					C1201.39,341.24,1199.74,339.81,1199.61,337.9z"/>
			</g>
			<g>
				
					<rect x="902.82" y="581.48" transform="matrix(0.9976 -0.0696 0.0696 0.9976 -40.6073 67.0762)" class="st5" width="78.94" height="69.6"/>
				<path class="st1" d="M937.28,594.3c-0.13-1.9,1.3-3.56,3.21-3.69c1.9-0.13,3.56,1.3,3.69,3.21c0.13,1.9-1.3,3.56-3.21,3.69
					S937.41,596.21,937.28,594.3z"/>
			</g>
			<g>
				
					<rect x="801.53" y="629" transform="matrix(0.9999 -0.0103 0.0103 0.9999 -6.7928 8.6979)" class="st5" width="78.94" height="69.6"/>
				<path class="st1" d="M837.34,641.73c-0.02-1.91,1.51-3.47,3.42-3.49s3.47,1.51,3.49,3.42s-1.51,3.47-3.42,3.49
					C838.93,645.17,837.36,643.64,837.34,641.73z"/>
			</g>
			<g>
				
					<rect x="1281.3" y="366.06" transform="matrix(0.1759 -0.9844 0.9844 0.1759 685.3936 1629.7722)" class="st7" width="69.6" height="78.94"/>
				<path class="st8" d="M1317.6,380.08c0.29-1.63,1.85-2.72,3.49-2.43c1.63,0.29,2.72,1.85,2.43,3.49s-1.85,2.72-3.49,2.43
					C1318.4,383.27,1317.31,381.71,1317.6,380.08z"/>
			</g>
			<g>
				
					<rect x="1043.61" y="325.01" transform="matrix(0.9942 -0.1076 0.1076 0.9942 -32.4273 118.6281)" class="st7" width="78.94" height="69.6"/>
				<path class="st8" d="M1077.36,334.91c-0.18-1.65,1.01-3.13,2.67-3.31c1.65-0.18,3.13,1.01,3.31,2.66s-1.01,3.13-2.66,3.31
					C1079.02,337.75,1077.53,336.56,1077.36,334.91z"/>
			</g>
			<g>
				
					<rect x="842.8" y="492.99" transform="matrix(0.978 -0.2085 0.2085 0.978 -90.6557 195.558)" class="st9" width="78.94" height="69.6"/>
				<path class="st6" d="M875.38,505.42c-1.39-0.9-1.79-2.76-0.89-4.16c0.9-1.39,2.76-1.79,4.16-0.89c1.39,0.9,1.79,2.76,0.89,4.16
					C878.64,505.93,876.78,506.33,875.38,505.42z"/>
			</g>
			<g>
				<g>
					<polygon class="st5" points="1120.64,300.47 1045.51,300.47 1045.51,249.99 1066.31,230.88 1120.64,230.88 					"/>
					<polygon class="st1" points="1045.1,249.99 1065.63,249.99 1066.31,230.88 					"/>
				</g>
				<path class="st1" d="M1083.35,237.32c0-1.36,1.11-2.47,2.47-2.47s2.47,1.11,2.47,2.47s-1.11,2.47-2.47,2.47
					S1083.35,238.68,1083.35,237.32z"/>
			</g>
			<g>
				<g>
					<polygon class="st5" points="1340.18,713.73 1265.04,713.73 1265.04,663.24 1285.84,644.13 1340.18,644.13 					"/>
					<polygon class="st1" points="1264.64,663.24 1285.16,663.24 1285.84,644.13 					"/>
				</g>
				<path class="st1" d="M1302.88,650.57c0-1.36,1.11-2.47,2.47-2.47c1.37,0,2.47,1.11,2.47,2.47s-1.11,2.47-2.47,2.47
					S1302.88,651.93,1302.88,650.57z"/>
			</g>
			<g>
				<g>
					<polygon class="st5" points="1374.45,613.54 1299.31,613.54 1299.31,563.06 1320.12,543.94 1374.45,543.94 					"/>
					<polygon class="st1" points="1298.91,563.06 1319.44,563.06 1320.12,543.94 					"/>
				</g>
				<path class="st1" d="M1337.16,550.38c0-1.36,1.11-2.47,2.47-2.47s2.47,1.11,2.47,2.47s-1.11,2.47-2.47,2.47
					S1337.16,551.75,1337.16,550.38z"/>
			</g>
			<g>
				<g>
					<polygon class="st9" points="1275.3,613.54 1200.16,613.54 1200.16,563.06 1220.96,543.94 1275.3,543.94 					"/>
					<polygon class="st10" points="1199.76,563.06 1220.28,563.06 1220.96,543.94 					"/>
				</g>
				<path class="st11" d="M1238,550.38c0-1.36,1.11-2.47,2.47-2.47s2.47,1.11,2.47,2.47s-1.11,2.47-2.47,2.47
					S1238,551.75,1238,550.38z"/>
			</g>
			<g>
				<g>
					<polygon class="st9" points="1395.65,283.05 1320.52,283.05 1320.52,232.57 1341.32,213.46 1395.65,213.46 					"/>
					<polygon class="st10" points="1320.12,232.57 1340.64,232.57 1341.32,213.46 					"/>
				</g>
				<path class="st11" d="M1358.36,219.89c0-1.36,1.11-2.47,2.47-2.47s2.47,1.11,2.47,2.47s-1.11,2.47-2.47,2.47
					S1358.36,221.26,1358.36,219.89z"/>
			</g>
		</g>
	</g>
	<g>
		<path class="st12" d="M652.64,161.8H509.72c-6.56,0-11.93-5.37-11.93-11.93V11.93c0-6.56,5.37-11.93,11.93-11.93h142.92
			c6.56,0,11.93,5.37,11.93,11.93v137.94C664.57,156.43,659.2,161.8,652.64,161.8z"/>
		<path class="st13" d="M646.45,154.79H515.91c-5.99,0-10.9-4.9-10.9-10.9V17.91c0-5.99,4.9-10.9,10.9-10.9h130.54
			c5.99,0,10.9,4.9,10.9,10.9V143.9C657.35,149.89,652.44,154.79,646.45,154.79z"/>
		<g>
			<g>
				<path class="st14" d="M577.73,21.78c0-1.91,1.55-3.45,3.45-3.45c1.91,0,3.45,1.55,3.45,3.45c0,1.91-1.55,3.45-3.45,3.45
					C579.27,25.23,577.73,23.68,577.73,21.78z"/>
				<path class="st14" d="M605.6,26.66c0.93-1.67,3.03-2.27,4.7-1.34c1.67,0.93,2.27,3.03,1.34,4.7s-3.03,2.27-4.7,1.34
					C605.28,30.43,604.68,28.33,605.6,26.66z"/>
				<path class="st14" d="M629.49,45.63c1.6-1.03,3.74-0.57,4.78,1.03c1.03,1.6,0.57,3.74-1.03,4.78c-1.6,1.03-3.74,0.57-4.78-1.03
					S627.88,46.67,629.49,45.63z"/>
				<path class="st14" d="M641.32,75c1.91,0,3.45,1.55,3.45,3.46c0,1.91-1.55,3.45-3.45,3.45c-1.91,0-3.45-1.55-3.45-3.45
					C637.86,76.55,639.41,75,641.32,75z"/>
				<path class="st14" d="M635.27,109.08c1.35,1.35,1.35,3.54,0,4.89s-3.54,1.35-4.89,0s-1.35-3.54,0-4.89
					C631.74,107.73,633.93,107.73,635.27,109.08z"/>
				<path class="st14" d="M613.58,130.84c1.35,1.35,1.35,3.54,0,4.89s-3.54,1.35-4.89,0s-1.35-3.54,0-4.89
					C610.04,129.49,612.23,129.49,613.58,130.84z"/>
				<path class="st14" d="M577.73,142.05c0-1.91,1.55-3.45,3.45-3.45c1.91,0,3.45,1.55,3.45,3.45s-1.55,3.45-3.45,3.45
					C579.27,145.5,577.73,143.95,577.73,142.05z"/>
			</g>
			<g>
				<path class="st14" d="M556.65,26.66c-0.93-1.67-3.03-2.27-4.7-1.34c-1.67,0.93-2.27,3.03-1.34,4.7s3.03,2.27,4.7,1.34
					C556.97,30.43,557.57,28.33,556.65,26.66z"/>
				<path class="st14" d="M532.77,45.63c-1.6-1.03-3.74-0.57-4.78,1.03c-1.03,1.6-0.57,3.74,1.03,4.78c1.6,1.03,3.74,0.57,4.78-1.03
					C534.83,48.81,534.37,46.67,532.77,45.63z"/>
				<path class="st14" d="M520.94,75c-1.91,0-3.45,1.55-3.45,3.46c0,1.91,1.55,3.45,3.45,3.45c1.91,0,3.46-1.55,3.46-3.45
					C524.39,76.55,522.84,75,520.94,75z"/>
				<path class="st14" d="M526.98,109.08c-1.35,1.35-1.35,3.54,0,4.89s3.54,1.35,4.89,0s1.35-3.54,0-4.89
					C530.51,107.73,528.33,107.73,526.98,109.08z"/>
				<path class="st14" d="M548.67,130.84c-1.35,1.35-1.35,3.54,0,4.89s3.54,1.35,4.89,0s1.35-3.54,0-4.89
					C552.21,129.49,550.02,129.49,548.67,130.84z"/>
			</g>
		</g>
		<g>
			<path class="st14" d="M580.25,78.46c0-1.91,1.55-3.46,3.46-3.46c1.91,0,3.45,1.55,3.45,3.46c0,1.91-1.55,3.45-3.45,3.45
				C581.8,81.91,580.25,80.36,580.25,78.46z"/>
			<g>
				<rect x="583.23" y="35.3" class="st14" width="0.94" height="43.16"/>
			</g>
			<g>
				
					<rect x="580.16" y="67.98" transform="matrix(0.7865 -0.6176 0.6176 0.7865 84.1114 382.1049)" class="st14" width="29.09" height="2.83"/>
			</g>
		</g>
	</g>
	<g>
		<g>
			<path class="st15" d="M1532.48,1284.18c-0.68,9.28-13.78,9.38-28.64,7.66s-10.91,2.04-31.72,2.33
				c-20.81,0.29-27.98-6.59-28.99-9.56c-0.9-2.64,9.12-4.86,19.84-7.47c1.35-0.32,2.7-0.66,4.05-1.01
				c12.09-3.07,20.09-12.12,30.44-20.02c9.8-7.48,22.43-34.57,22.43-34.57l28.42-1.28c0,0-11.97,24.28-16.47,34.74
				c-2.64,6.16-1.52,13.72-0.37,19.53C1532.11,1277.68,1532.72,1280.91,1532.48,1284.18z"/>
			<path class="st16" d="M1503.84,1291.83c-14.86-1.72-10.91,2.04-31.72,2.33c-20.81,0.29-27.98-6.59-28.99-9.56
				c-0.9-2.64,9.12-4.86,19.84-7.47l0.13,0.2c0,0,13.4,7.19,30.53,5.47c13.97-1.4,28.22-7.23,37.85-8.27
				c0.62,3.16,1.23,6.39,0.98,9.66C1531.8,1293.46,1518.7,1293.56,1503.84,1291.83z"/>
		</g>
		<g>
			<path class="st15" d="M1728.79,1286.1c-0.67,9.28-13.77,9.4-28.63,7.69c-14.86-1.71-10.91,2.05-31.71,2.36
				c-20.81,0.31-27.99-6.56-29-9.53c-0.9-2.64,9.12-4.87,19.84-7.49c1.35-0.33,2.7-0.67,4.05-1.01
				c12.09-3.08,20.08-12.14,30.42-20.05c9.79-7.49,0.01-51.86,0.01-51.86l31.26-3.04c0,0-1.5,37.35-1.48,54.33
				c0.01,6.7,3.09,13.14,4.25,18.95C1728.41,1279.6,1729.03,1282.83,1728.79,1286.1z"/>
			<path class="st16" d="M1700.16,1293.79c-14.86-1.71-10.91,2.05-31.71,2.36c-20.81,0.31-27.99-6.56-29-9.53
				c-0.9-2.64,9.12-4.87,19.84-7.49l0.13,0.2c0,0,13.4,7.18,30.54,5.44c13.96-1.41,28.21-7.26,37.84-8.31
				c0.62,3.16,1.24,6.38,0.99,9.65C1728.12,1295.38,1715.02,1295.5,1700.16,1293.79z"/>
		</g>
		<path class="st17" d="M1637.55,519.37c-5.38-22.14,2.42-32.44,9.46-37.93c3.34-8.15,7.15-14.02,11.04-16.23
			c7.11-4.04,15.62-4.48,21.58-4.13c-1.53-1.58-4.55-2.16-4.55-2.16c3.69-0.55,11.94,3.11,11.94,3.11
			c51.37-19.79,59.45,55.85,58.37,73.42c-1.07,17.57-0.93,38.27,25.8,52.11c51,26.42-16.95,125.97-16.95,125.97
			c1.3-14.2-64.23-89.14-98.41-111.58c-8.32-12.25-11.28-33.89-11.5-35.6c1.44,17.16,4.37,26.79,7,32.21
			C1635.73,584.22,1633.43,549.79,1637.55,519.37z"/>
		<path class="st15" d="M1657.84,603.07c-0.17,0.08,16.51,8.74,29.05,5.31c11.8-3.22,19.51-18.52,19.35-18.55
			c-5-0.99-6.44-7.86-6.33-37.37l-2.26,0.44l-37.98,7.52c0,0,0.86,11.95,0.89,23.21C1660.58,593.09,1660.01,602.06,1657.84,603.07z"
			/>
		<path class="st18" d="M1659.67,560.42c0,0,0.86,11.95,0.89,23.21c21.25-0.6,32.49-19.99,37.09-30.74L1659.67,560.42z"/>
		<path class="st19" d="M1505.13,1236.59c-1.86,5.84,2.32,11.85,8.45,12.14l14.84,0.69l15.7,0.48c3.93,0.12,7.68-1.59,10.16-4.64
			c12.53-15.37,51.11-66.62,74.51-141.07c0.66-2.09,1.35-4.2,2.09-6.34c15.45-45.06,47.49-101.62,64.37-152.81
			c2.69-8.15,5.1-15.83,7.26-23.09c0.69-2.33,1.37-4.61,2.01-6.86c12.44-43.23,16.04-71.61,19.36-101.93l-121.91,0.98
			C1601.97,814.13,1576.31,1013.61,1505.13,1236.59z"/>
		<path class="st5" d="M1619.04,744.08c0.31,58.01-8.51,82.9-8.51,82.9s52.2,26.52,114.23,7c0.73-0.23,51.36-11.79,51.36-11.79
			c-1.04-2.35-10.27-41.44-11.28-43.6c-13.1-28.13-23.04-40.46-24.6-49.11c-2.88-16.14-2.95-32.85-1.51-48.6
			c3.78-41.7,15.04-76.32,15.04-76.32c-16.9-3.85-32.73-10.6-50.32-17.2c-4.05,5.04-16.42,10.31-27.15,10.07
			c-12.36-0.27-16.36-5.56-15.72-11.34c-13.17,7.33-23.68,14.25-23.68,14.25c-11.19,19.44-33.89,38.32-35.53,68.14
			C1600.97,675.82,1619.03,742.46,1619.04,744.08z"/>
		<path class="st20" d="M1723.88,750.55c5.33,7.54,15.55,53.38,40.96,59.15c-13.1-32.67-23.04-47-24.6-57.04
			c-2.88-18.75-2.95-38.15-1.51-56.45c-8.51-14.91-14.86-25.14-14.86-25.14c-0.67-2.41-13.52-42.16-17.64-6.63
			C1702.13,699.97,1717.93,742.11,1723.88,750.55z"/>
		<path class="st15" d="M1652.57,571.08c0,0,50.29,0.83,50.32-30.5c0.03-31.32,6.55-52.31-25.56-54.17
			c-32.11-1.85-38.36,10.09-40.91,20.54C1633.87,517.42,1639.49,570.06,1652.57,571.08z"/>
		<path class="st17" d="M1654.43,485.65c0,0,13.77,36.75,34.9,42.18s30.3-0.23,30.3-0.23s-16.21-12.88-19.57-35.35
			C1700.05,492.26,1664.82,468.16,1654.43,485.65z"/>
		<path class="st17" d="M1657.84,488.64c0,0-10.28,8.21-12.79,16.18c-2.51,7.98-3.63,24.4-8.42,23.84c0,0-10.37-24.98,1.28-39.11
			C1650.28,474.57,1657.84,488.64,1657.84,488.64z"/>
		<polygon class="st15" points="1573.44,784.35 1549.69,856.76 1563.24,862.19 1602.51,798.21 		"/>
		<path class="st11" d="M1637.48,596.08c0,0-28.01,11.11-36.11,28.44c-8.11,17.33-20.38,133.55-25.27,145.48
			c-4.89,11.94-8.56,21.38-8.56,21.38s14.12,11.9,28.32,12.77C1610.06,805.04,1637.48,596.08,1637.48,596.08z"/>
		<path class="st11" d="M1660.58,586.1c0,0-29.09,71.88-29.95,86.42c-0.86,14.55-3.42,237.87-3.42,237.87s1.71,10.27-17.97,5.99
			s-24.81-8.56-24.81-8.56s18.82-137.76,13.69-185.68c-5.13-47.92,39.36-126.07,39.36-126.07L1660.58,586.1z"/>
		<path class="st21" d="M1528.41,1249.42l17.05,0.52c3.05,0.09,5.96-1.22,7.91-3.57c11.46-13.88,51.42-65.82,75.42-142.17
			c0.66-2.09,1.35-4.2,2.09-6.34c15.45-45.06,47.49-101.62,64.37-152.81c2.69-8.15,5.1-15.83,7.26-23.09
			c0.69-2.33,1.37-4.61,2.01-6.86l-17.95-13.62c0,0-53.9,87.28-70.58,169.41C1601.48,1142.22,1543.44,1228.07,1528.41,1249.42z"/>
		<path class="st19" d="M1684.69,1078.53c-0.29,37.79,1.5,122.01,6.1,163.18c0.42,3.77,3.61,6.61,7.4,6.61h12.72
			c5.36,0,9.37-0.04,12.04-0.08c2.31-0.03,4.28-1.69,4.72-3.95c12.65-64.37,21.7-117.84,28.33-164.05
			c5.54-38.68,10.47-71.83,14.26-100.38c3.82-28.72,6.47-52.78,7.42-73.1c0.15-3.2,0.26-6.31,0.32-9.33
			c0.06-3.04,0.08-5.99,0.05-8.86l-105.33-10.27C1674.04,948.29,1684.86,1055.31,1684.69,1078.53z"/>
		<path class="st21" d="M1710.91,1248.32c4.82,0,8.54-0.03,11.18-0.07c2.8-0.04,5.2-2.04,5.74-4.79
			c12.56-64,21.57-117.21,28.17-163.22c5.54-38.68,10.47-71.83,14.26-100.38c3.82-28.72,6.47-52.78,7.42-73.1l-38.65,22.74
			c0,0,24.67,8.7,15.26,74.59C1744.87,1069.97,1724.01,1238.99,1710.91,1248.32z"/>
		<path class="st11" d="M1705.93,906.12c0,0,7.42,26.81,33.09,23.38c25.67-3.42,62.17-18.82,62.17-18.82s-10.97-34.66-24.61-80.2
			c-16.51-55.13-36.96-126.2-46.59-171.03c-2.7-12.56-4.55-23.05-5.24-30.56l-21.3-41.32c0,0-31.75,71.27-33.46,89.24
			C1668.28,694.77,1705.93,906.12,1705.93,906.12z"/>
		<path class="st15" d="M1731.56,674.12l-28.11-86.56c0.08,0.04,35.5,10.54,53.32,19.54c0,0,11.14,14.36,18.03,47.49
			c0,0,7.28,79.54-8.98,108.63c0,0-51.34,10.27-133.48-17.97v-18.82c0,0,89.84,4.71,108.24,6.84L1731.56,674.12z"/>
		<path class="st22" d="M1707.07,714.45c1.15,29.09,7.99,85.57,69.03,115.8c0.16,0.08,0.32,0.16,0.49,0.23
			c-16.51-55.13-36.96-126.2-46.59-171.03C1718.78,676.2,1706.45,698.43,1707.07,714.45z"/>
		<path class="st11" d="M1703.46,587.56c0,0,52.1,3.67,64.65,31.62c12.55,27.95,16.54,120.93,0.57,148.31c0,0-21.99,6.26-60.88-1.01
			c-0.48-0.09-0.96-0.18-1.44-0.27c0,0-12.41-30.38-1.28-36.37c0,0,32.8,1.71,29.38-9.13
			C1731.03,709.88,1703.46,587.56,1703.46,587.56z"/>
		<g>
			<path class="st17" d="M1572.82,738.06l1.54,4.93l85.5-26.6c0,0,1.14-1.3,0.58-3.02c-0.62-1.91-2.11-1.91-2.11-1.91
				L1572.82,738.06z"/>
			<polygon class="st17" points="1566.64,742.72 1572.82,738.06 1574.35,742.99 			"/>
		</g>
		<path class="st15" d="M1553.06,854.78c0,0-21.69,11.99-24.54,21.12c-2.85,9.13-0.89,28.25,2.55,27.97
			c3.44-0.29,8.58-20.55,11.43-21.97s6.85-5.7,6.85-2.57s-2.85,8.84-1.43,9.7c1.43,0.86,5.99-7.99,9.13-9.7s4.46-15.83,7.51-19.61
			C1567.62,855.92,1553.06,854.78,1553.06,854.78z"/>
		<path class="st15" d="M1632.35,726.43c0,0-19.4-11.95-27.53-10.11c-8.14,1.84-28.87,16.86-18.9,20.11
			c9.97,3.25,18.05-0.16,21.89,2.2s6.67,6.68,24.54,6.62S1632.35,726.43,1632.35,726.43z"/>
	</g>
	<g>
		<path class="st23" d="M106.95,598.09c-3.25-6.27,70.94-28.85,72.11,33.04c0,0,138.98-3.42,72.62-80.88
			c-22.97-26.82-20.61-48.99-19.92-69.63c0.7-20.64-14.31-80.63-65.75-74.59c0,0-13.47-5.48-30.28,3.24
			C97.49,429.1,11.85,620.91,106.95,598.09z"/>
		<path class="st15" d="M334.16,667.28c0,0,9.05-13.77,16.34-14.04c7.29-0.27,20.79-4.05,19.71-1.35c-1.08,2.7-9.45,2.97-10.26,4.59
			c-0.81,1.62,12.42,4.05,16.2,4.32s12.69,0,12.42,1.89s-16.06,9.72-27.2,8.64c-11.14-1.08-24.91,3.24-24.91,3.24L334.16,667.28z"/>
		<path class="st24" d="M203.33,671.74c0,0,4.92,9.74,13.84,20.92c10.75,13.46,27.32,29.02,48.14,32.09
			c9.94,1.47,19.66-0.67,28.6-4.64c0.02-0.01,0.03-0.01,0.03-0.01c25.27-11.22,44.28-37.02,44.28-37.02
			c4.46-12.15-2.83-20.39-2.83-20.39s-51.04,11.48-55.9,9.05c-4.86-2.43-33.21-84.11-39.96-94.38
			c-6.76-10.26-29.76-15.59-29.76-15.59L203.33,671.74z"/>
		<path class="st25" d="M217.17,692.66c10.75,13.46,27.32,29.02,48.14,32.09c9.94,1.47,19.66-0.67,28.6-4.64
			c-0.99,0.13-26.23,3.25-36.29-14.75c-10.26-18.37-21.36-47.53-36.61-37.81C214.42,671.74,214.71,682.17,217.17,692.66z"/>
		<path class="st16" d="M12.92,1222.64c0,0-15.57,14.21-12.53,24.31c3.04,10.1,17.09,16.83,18.99,29.17
			c1.9,12.34,9.5,19.07,16.33,19.07s32.6,0,32.6,0s5.03-8.69-7.12-11.3c-12.15-2.62-16.74-17.12-15.98-30.59
			c0.76-13.46-1.14-31.42-1.14-31.42l-25.83-5.98L12.92,1222.64z"/>
		<path class="st16" d="M144.73,1228.68c0,0-5.6,60.21,1.23,63.57l87.5-0.18c0,0,0-10.1-14.05-12.34s-38.74-10.47-42.92-28.8
			C172.31,1232.6,144.73,1228.68,144.73,1228.68z"/>
		<path class="st15" d="M82.38,796.74c18.01-40.38,29.02-51.97,26.92-64.5c-1.57-9.33,4.77-173.92,4.77-173.92
			c2.14-0.66,6.42-1.25,8.76-1.77c7.39-1.64,13.5-6.83,16.04-13.95c3.06-8.58,5.5-21.26,5.44-37.14l2.31,0.45l38.78,7.68
			c0,0-0.88,12.2-0.91,23.7c0,0.1,0,0.19,0,0.29c-0.05,9.99,6.5,18.8,16.1,21.57c4.9,1.41,9.16,2.62,9.16,2.62
			s14.24,40.66,16.96,82.42c2.72,41.77-25.9,59.91,0.22,143.37C253.58,872.81,72.43,819.05,82.38,796.74z"/>
		<path class="st26" d="M185.4,513.59c0,0-0.88,12.2-0.91,23.7c-21.7-0.61-33.17-20.41-37.87-31.38L185.4,513.59z"/>
		<path class="st15" d="M192.65,524.47c0,0-51.35,0.85-51.38-31.14c-0.04-31.98-6.69-53.41,26.09-55.31
			c32.78-1.89,39.16,10.3,41.77,20.98S206,523.43,192.65,524.47z"/>
		<path class="st23" d="M190.75,437.25c0,0-14.06,37.52-35.63,43.07c-21.57,5.55-30.93-0.23-30.93-0.23s16.55-13.15,19.98-36.09
			C144.17,443.99,180.14,419.39,190.75,437.25z"/>
		<path class="st23" d="M187.26,440.29c0,0,10.42,3.9,14.72,11.5c4.2,7.44,7.77,17.28,6.94,29.36c0,0,10.59-25.5-1.31-39.93
			C194.99,425.93,187.26,440.29,187.26,440.29z"/>
		<path class="st27" d="M181.48,504.63c0,0,3.54,4.66,10.63,4.33c5.71-0.27,7.91-5.22,7.91-5.22S189.53,501.21,181.48,504.63z"/>
		<path class="st24" d="M77.43,631.12c0,0-1.3,18.38,0,40.44c0.87,14.62,15.66,34.21,17.76,39.05c5.27,12.15,11.2,14.13,11.2,14.13
			L152.33,736l16.15,3.95l50.94-15.21c0,0,23.2-64.76,13.89-101.21c-9.32-36.45-23.55-61.77-23.55-61.77s-41.57,40.7-95.69-3.45
			L77.43,631.12z"/>
		<path class="st28" d="M90.87,677.54c0.87,14.62,2.21,28.24,4.31,33.08c5.27,12.15,11.2,14.13,11.2,14.13l45.94,11.26l19.95-5.87
			c0,0-66.61-10.09-59.23-67.4L90.87,677.54z"/>
		<path class="st22" d="M216.18,734.58c0,0,25.23,78.52,26.85,105.25s-48.22,379.77-50.23,392.09
			c-1.89,11.61-16.31,19.01-16.31,19.01s-6.63,3.91-16.1,1.24c-13.13-3.71-17.28-8.15-17.28-8.15s-19.63-251.78-7.48-341.72
			s12.29-167.72,12.29-167.72L216.18,734.58L216.18,734.58z"/>
		<path class="st11" d="M109.3,732.24c0,0-38.48,51.63-42.07,86.53s-5.63,157.5-13.27,191.52s-35.72,99.5-35.72,205.62
			c0,0,2.92,6.08,11.93,9.32c2.88,1.04,6.74,2.04,10.49,2.9c7.43,1.7,15.06-1.93,18.45-8.76c18.98-38.22,79.46-161.5,82.56-187.09
			c2.19-18.11,21.29-137.96,62.94-208.29c10-16.88-6.14-84.03-6.14-84.03L109.3,732.24z"/>
		<path class="st5" d="M182.62,505.49c0,0,0.89,3.77,10.26,3.19c0,0,7.87-0.49,7.63-4.63C200.51,504.05,192.88,501.1,182.62,505.49z
			"/>
		<path class="st16" d="M220.21,722.46c0,0-10.13,8.01-30.25,8.42c-24.03,0.48-83.57-6.13-83.57-6.13s-2.65,7.39-2.54,15.2
			c0,0,72.72,18.34,114.86,2.68C218.71,742.62,224.14,732.4,220.21,722.46z"/>
		<g>
			<path class="st5" d="M184.76,739.17c0-6.84,4.92-12.41,10.96-12.41c6.05,0,10.97,5.57,10.97,12.41s-4.92,12.41-10.97,12.41
				C189.68,751.58,184.76,746.01,184.76,739.17z M188.4,739.17c0,4.84,3.29,8.78,7.33,8.78c4.04,0,7.33-3.94,7.33-8.78
				s-3.29-8.78-7.33-8.78C191.69,730.39,188.4,734.33,188.4,739.17z"/>
		</g>
		
			<rect x="42.12" y="668.66" transform="matrix(0.6567 -0.7542 0.7542 0.6567 -503.8684 329.2928)" class="st29" width="135.24" height="98.8"/>
		<path class="st15" d="M123.19,736.9c0,0,27.3,3.19,27.21,9.67c-0.09,6.48-6.8,19.79-10.17,20.38s-22.22-18-22.22-18L123.19,736.9z
			"/>
		<path class="st24" d="M114.06,558.31c0,0-36.45,2.56-50.42,36.52s-40.48,90.99-40.48,100.58s14.81,39.16,94.33,56.17
			c0,0,8.23-8.65,7.73-15.49c0,0-49.64-42.64-49.51-47.62c0.25-9.43,8.14-21.87,51.72-65.47
			C139.29,611.14,114.06,558.31,114.06,558.31z"/>
	</g>
	<g>
		<g>
			<g>
				<path class="st1" d="M516.75,1293.34h-0.35c-2.04,0-3.67-1.68-3.63-3.71l5.5-238.41l16.2-1.89l-13.82,240.31
					C520.54,1291.72,518.83,1293.34,516.75,1293.34z"/>
			</g>
			<g>
				<path class="st2" d="M422.33,1293.34h-0.35c-2.04,0-3.67-1.68-3.63-3.71l5.5-238.41l16.2-1.89l-13.82,240.31
					C426.12,1291.72,424.41,1293.34,422.33,1293.34z"/>
			</g>
			<g>
				<path class="st1" d="M682.87,1293.34h0.35c2.04,0,3.67-1.68,3.63-3.71l-5.5-238.41l-16.2-1.89l13.82,240.31
					C679.08,1291.72,680.79,1293.34,682.87,1293.34z"/>
			</g>
			<path class="st1" d="M411.59,1036.44V873.07c0-28.75,23.3-52.05,52.05-52.05h117.7c28.75,0,52.05,23.3,52.05,52.05v169.61
				L411.59,1036.44z"/>
			<path class="st2" d="M654.48,1062.23H427.22c-8.63,0-15.63-7-15.63-15.63v-10.16h242.89V1062.23z"/>
			<path class="st1" d="M681.71,1062.23H509.78c-6.38,0-11.56-5.17-11.56-11.56V1048c0-6.38,5.17-11.56,11.56-11.56h171.93
				c6.38,0,11.56,5.17,11.56,11.56v2.68C693.27,1057.06,688.1,1062.23,681.71,1062.23z"/>
		</g>
		<g>
			<path class="st16" d="M675.04,995.73c-16.86,29.35-38.07,40.68-38.07,40.68h-88.23C548.74,1036.41,687.9,973.34,675.04,995.73z"
				/>
			<g>
				<path class="st15" d="M607.28,1222.8c-2.3,2.64-2.59,5.58-1.45,8.72c0,0.01,0.01,0.03,0.02,0.04
					c2.1,5.81,9.06,12.31,17.13,18.79c1.03,0.83,1.95,1.59,2.75,2.29c0.21,0.18,0.42,0.37,0.62,0.55c0.16,0.14,0.32,0.29,0.47,0.43
					c7.53,6.94,4.7,8.53,18.23,22.62c15.43,16.05,26.05,16.34,29.07,14.88c2.56-1.25-2.64-9.76-8.39-19.33
					c-0.28-0.46-0.55-0.93-0.84-1.4c-0.77-1.27-1.53-2.56-2.29-3.84c-6.74-11.52-5.01-16.92-3.41-34.06
					c1.3-13.93,21.67-77.8,21.67-77.8l-29.56-5.09c0,0-8.9,50.86-18.71,58.7c-5.25,4.17-11.12,4.23-16.16,7.32
					c-0.36,0.21-0.71,0.44-1.05,0.66C612.5,1218.19,609.58,1220.15,607.28,1222.8z"/>
				<path class="st16" d="M607.28,1222.8c-2.3,2.64-2.59,5.58-1.45,8.72c0,0.01,0.01,0.03,0.02,0.04
					c2.58,5.81,9.35,12.27,17.16,18.73c1.02,0.85,1.92,1.62,2.72,2.35c0.21,0.18,0.42,0.37,0.62,0.55c0.16,0.14,0.32,0.29,0.47,0.43
					c7.53,6.94,4.7,8.53,18.23,22.62c15.43,16.05,26.05,16.34,29.07,14.88c2.56-1.25-2.64-9.76-8.39-19.33
					c-3-1.1-16.95-6.77-27.5-20.26c-9.29-11.85-15.48-27.08-21.81-35.91c-0.36,0.21-0.71,0.44-1.05,0.66
					C612.5,1218.19,609.58,1220.15,607.28,1222.8z"/>
				<path class="st15" d="M845.65,1204.33c1.83,9.13,14.83,7.6,29.37,4.05c14.53-3.55,11.08,0.67,31.76-1.62s26.95-10,27.58-13.08
					c0.56-2.73-9.65-3.69-20.62-4.95c-1.38-0.15-2.76-0.33-4.15-0.5c-12.38-1.55-21.44-9.54-32.68-16.1
					c-10.65-6.21-26.54-31.52-26.54-31.52l-28.36,2.25c0,0,14.88,22.61,20.64,32.44c3.39,5.78,3.21,13.43,2.78,19.33
					C845.22,1197.84,845.01,1201.12,845.65,1204.33z"/>
				<path class="st16" d="M875.02,1208.38c14.53-3.55,11.08,0.67,31.76-1.62s26.95-10,27.58-13.08c0.56-2.73-9.65-3.69-20.62-4.95
					l-0.1,0.21c0,0-12.4,8.79-29.62,9.21c-14.03,0.34-28.89-3.68-38.58-3.52c-0.22,3.21-0.43,6.49,0.22,9.7
					C847.48,1213.46,860.49,1211.94,875.02,1208.38z"/>
				<path class="st16" d="M736.95,1022.96l-26.52,71.35l-34.62,93.16c0,0-9.39,0.91-18.39-1.68c-8.28-2.39-17.79-8.66-17.79-8.66
					s9.61-100.03,27.54-157.45c4.6-14.74,9.75-26.66,15.43-33.37C710.41,953.46,736.95,1022.96,736.95,1022.96z"/>
				<path class="st30" d="M709.99,909.65c-17.37-5.6-66.92,1.59-116.69,11.33l-10.42-17.19l-107.5-8.4c0,0-35.47,78.67-16.05,128.79
					c2.85,7.37,8.53,12.09,18.19,12.25h1.57c0,0,63.98-0.04,84.76-0.04c53.46,0,113.14-36.75,120.87-38.29
					c12.64-2.53,17.69,22.75,30.33,49.28c12.64,26.54,118.79,117.53,118.79,117.53s16.31,0.16,23.05-2.37
					c7.25-2.72,9.9-6.25,9.9-6.25S749.17,922.29,709.99,909.65z"/>
				<path class="st16" d="M578.66,590.77c-13.77-7.23-34.73-8.21-38.13-8.67c-40.74-5.47-65.25,53.72-66.7,71.66
					c-2.66,33.06-20.15,38.1-44.76,58.81c-49.36,41.51-34.88,89.75-7.9,107.68c16.19,10.75,44.74,0,44.74,0
					c0.4,0.28,78.06-43.41,116.34-64.49C639.64,747.59,613.75,609.2,578.66,590.77z"/>
				<path class="st15" d="M550.17,737.81c0.17,0.11-18.83,6.6-31.54,0.97c-11.95-5.28-21.01-24.95-20.83-24.96
					c5.44-0.25,11.41-5,16.01-36.2l2.32,0.83l38.93,14.01c0,0-2.82,12.49-4.65,24.39C548.87,726.83,548.04,736.39,550.17,737.81z"/>
				<path class="st18" d="M555.05,692.46c0,0-2.82,12.49-4.65,24.39c-22.36-4.03-31.14-26.31-34.29-38.4L555.05,692.46z"/>
				<path class="st15" d="M560.85,704.85c0,0-53.27-7.15-48.31-40.25c4.96-33.1,1.43-56.32,35.65-53.16
					c34.22,3.17,38.92,16.79,39.95,28.24C589.17,651.13,574.83,705.86,560.85,704.85z"/>
				<path class="st16" d="M586.2,621.54c0,0-34.1,29.39-57.29,31.75c-23.19,2.37-31.98-5.08-31.98-5.08s13.67-11.35,21.9-29.67
					c2.42-5.4,7.55-9.1,13.45-9.61C548.84,607.5,580.23,606.85,586.2,621.54z"/>
				<path class="st16" d="M564.89,618.9c0,0,11.41,11.03,15,19.21c3.47,7.89,4.51,26.78,1.75,34.28c0,0,17.77-34.56,7.71-51.35
					C578.67,603.23,564.89,618.9,564.89,618.9z"/>
				<path class="st5" d="M595.02,816.28c-1.61,107.83-0.44,85.3-12.24,95.53c-2.84,2.46-10.83,3.93-21.35,4.63
					c-33.06,2.19-91.19-3.25-93.4-9.36c-7.63-21.14-2.24-27.71-8.61-60.08c-0.66-3.44-1.48-7.17-2.45-11.23
					c-5.31-22.23-10.47-29.8,8.35-65.51c17.07-32.35,34.8-58.61,36.4-57.66c45.03,26.73,48.66,4.26,48.66,4.26
					S595.81,763.68,595.02,816.28z"/>
				<path class="st30" d="M710.44,1094.31l-34.62,93.16c0,0-9.39,0.91-18.39-1.68c-8.28-2.39-17.79-8.66-17.79-8.66
					s9.61-100.03,27.54-157.45L710.44,1094.31z"/>
				<path class="st5" d="M550.4,716.84c0,0,46.34,7.86,51.78,27.81c5.44,19.95,37.46,137.24,37.46,137.24s-23.56,4.23-34.44-6.65
					c-10.88-10.88-37.87-100.96-37.87-100.96L550.4,716.84z"/>
				<path class="st31" d="M561.44,916.43c-33.06,2.19-91.19-3.25-93.4-9.36c-7.63-21.14-2.24-27.71-8.61-60.08l15.95-44.91
					c0,0-2.64,50.01,12.11,63.16c14.73,13.15,60.38,25.39,67.55,36.38C558.5,906.89,560.77,912.18,561.44,916.43z"/>
				<path class="st15" d="M523.55,895.4c0,0,32.62-7.26,37.88-4.37s18.13,13.44,19.74,17.11s-11.72-2.79-16.05-3.95
					c-2.81-0.75-10.2,1.81-13.86,3.03c-15.4,5.13-24.83,2.49-24.83,2.49L523.55,895.4z"/>
				<path class="st5" d="M501.71,712.56c0,0-43.8,2.7-58.96,23.84c-21.34,29.77-63.68,156.64-39.42,173.56
					c27.33,19.05,124.37,4.98,124.37,4.98s3.23-15.09-1.26-22.4c-4.49-7.3-77.51-19.1-80.88-22.47s42.13-65.72,42.13-75.83
					C487.68,784.15,501.71,712.56,501.71,712.56z"/>
				<path class="st15" d="M563.02,900.11c0,0,6.83,8.82,9.08,9.87c2.24,1.05,3.69,0.79,3.69,0.79l-4.61-8.29L563.02,900.11z"/>
				<path class="st15" d="M561.44,891.03l19.87,9.65c0,0-0.85,1.38-3.29,1.27c-2.45-0.11-8.62-2.37-8.62-2.37L561.44,891.03z"/>
			</g>
			<g>
				<g>
					<polygon class="st11" points="572.09,923.48 729.28,923.48 776.57,805.9 619.62,805.9 					"/>
					<polygon class="st22" points="731.12,918.9 523.55,918.9 523.55,923.48 729.28,923.48 					"/>
				</g>
				<path class="st5" d="M689.6,864.69c1.19-4.13-1.2-7.48-5.34-7.48c-4.13,0-8.44,3.35-9.63,7.48c-1.19,4.13,1.2,7.48,5.34,7.48
					C684.1,872.18,688.42,868.82,689.6,864.69z"/>
			</g>
		</g>
	</g>
	<g>
		<g>
			<path class="st8" d="M1393.07,1297.7h0.46c2.69,0,4.86-2.35,4.8-5.2l-7.27-333.8l-21.43-2.65l18.27,336.47
				C1388.06,1295.43,1390.33,1297.7,1393.07,1297.7z"/>
		</g>
		<g>
			<path class="st8" d="M524.34,1297.7h-0.46c-2.69,0-4.86-2.35-4.8-5.2l7.27-333.8l21.43-2.65l-18.27,336.47
				C529.35,1295.43,527.08,1297.7,524.34,1297.7z"/>
		</g>
		<path class="st8" d="M1418.88,964.84H502.13c-7.51,0-13.6-6.09-13.6-13.6v-13.09c0-7.51,6.09-13.6,13.6-13.6h916.75
			c7.51,0,13.6,6.09,13.6,13.6v13.09C1432.47,958.75,1426.39,964.84,1418.88,964.84z"/>
	</g>
	<path class="st4" d="M302.34,352.46c-3.46-85.71,68.38-123.79,141.83-123.79s153.39,19.03,160.32,133
		c4.46,73.32-34.63,118.43-147.18,118.43c-37.96,0-67.46-5.99-90.05-16.66L311,513.43l27.65-69.1
		C314.15,421.57,303.83,389.45,302.34,352.46z"/>
	<g>
		<path class="st16" d="M1971.84,1297.33c0,0,2.07-16.1,6.85-25.67c4.79-9.57,35.25-3.48,35.25-3.48s6.09,5.22,7.4,29.59
			L1971.84,1297.33z"/>
		<path class="st16" d="M1868.05,1297.11c7.16-4.37,3.08-36.96,3.08-36.96s-33.35-26.68-37.94-6.25s-31.68,29.6-47.11,32.1
			c-10.65,1.73-13.94,7.62-14.97,11.11H1868.05z"/>
		<path class="st32" d="M1937.14,1060.07c-1.36,7.48-2.22,13.62-2.45,18.01c-3.1,60.48-50.91,198.75-59.46,201.98
			c-13.23,4.99-34.07-5.62-44.97-9.09c-4.52-1.44-7.57-6-6.56-10.62c23.67-108.84,32.38-265.56,35.54-358.34
			c1.6-46.74,9.62-79.02,9.62-79.02s116.6-31.11,117.29,8.24C1986.77,866.05,1947.54,1002.62,1937.14,1060.07z"/>
		<path class="st16" d="M1937.14,1060.07L1859.25,902c1.6-46.74,9.62-79.02,9.62-79.02s116.6-31.11,117.29,8.24
			C1986.77,866.05,1947.54,1002.62,1937.14,1060.07z"/>
		<path class="st32" d="M1911.2,831.37l61.64,446.74c0,0,27.07,6.53,48.12,1.31c0,0,18.05-237.59,16.54-295.03
			c-1.5-57.44,12.95-153.7-3.3-164.32C2017.95,809.44,1911.2,831.37,1911.2,831.37z"/>
		<path class="st24" d="M2046.21,823.92c0.3,4.04-2.29,7.71-6.17,8.84c-8.6,2.5-18.51,4.23-37.63,8.19
			c-17.96,3.73-42.12,7.03-71.8,7.21c-47.21,0.3-65.09-15.97-65.09-15.97c-2.03,0.04,1.07-9.84,3.87-56.83
			c0.95-15.92,1.86-36.09,2.52-61.59c0.6-22.94,1-50.2,1.04-82.53c0.05-38.9,60.26-80.74,61.37-80.74l0.01,0.02
			c0,5.6,8.83,15.94,22.42,16.83c16.14,1.06,35.93-6.98,35.93-16.27c0-0.09,29.17,46.66,39.53,96.48
			C2037.45,672.64,2035.33,671.97,2046.21,823.92z"/>
		<path class="st24" d="M1934.32,550.51c0,0-55.98-0.48-69.46,18.42c-13.47,18.9-43.01,120.55-27.6,154.37
			c15.42,33.82,44.26-13.99,60.27-34.71C1913.54,667.87,1934.32,550.51,1934.32,550.51z"/>
		<path class="st15" d="M1933.75,541.96l0.03,5.79c0,0-1.58,18.1,20.71,20.74c22.29,2.65,38.83-3.38,38.22-17.35
			c-2.01-10.81-3.87-21.92-4.02-30.87c-0.05-3.33,0.17-6.85,0.79-10.84l-43.19-0.86l-12.72,2.08L1933.75,541.96z"/>
		<path class="st33" d="M1933.58,510.66l0.17,31.31c4.59,2.13,9.76,3.43,15.57,3.43c19.85,0,32.68-14.55,39.38-25.12
			c-0.05-3.33,0.17-6.85,0.79-10.84l-43.19-0.86L1933.58,510.66z"/>
		<path class="st15" d="M1992.8,502.49c-5.01,26.97-39.81,26.08-54.84,24.39c-4.23-0.47-6.89-1.01-6.89-1.01
			c-4.77-1.27-7.43-8.79-8.67-18.63c-2.46-19.48,0.65-48.08,3.94-55.4c4.95-11.01,14.28-22.91,49.33-14.32
			C2010.7,446.11,1999.22,467.94,1992.8,502.49z"/>
		<path class="st25" d="M1877.07,626.26c0,0-21.65,47.82-21.02,62.15c0,0,10.72-0.37,21.02,2.7
			C1894,696.16,1877.07,626.26,1877.07,626.26z"/>
		<path class="st16" d="M1915.57,426.17c0,0,15.42-1.19,33.62-9.1c14.76-6.42,33.39,0.65,39.44,3.84c-0.16-0.97-0.55-2.3-1.47-3.64
			c0,0,2.71,1.92,3.12,4.62c0.28,0.21,0.4,0.35,0.33,0.4c0,0,3.08-0.56,5.06,0.33c0,0-1.38-0.2-1.88,0.69
			c-0.05,0.09-0.13,0.17-0.22,0.25c23.03,11.13,25.16,47.53,17.75,55.95c-8.92,10.13-22.38,33.06-22.38,33.06s-1.13-5.5,0.5-14.42
			c1.62-8.92-6.08-8.92-15.81-12.97s-1.62-15.4-10.13-22.29c-8.51-6.89-39.72-2.84-39.32-8.11
			C1912.57,450.55,1915.57,427.36,1915.57,426.17z"/>
		<path class="st25" d="M1999.85,715.84c-9.14,36.7-107.99,55.67-130.46,59.53c0.95-15.92,1.86-36.09,2.52-61.59L1999.85,715.84z"/>
		<path class="st15" d="M1978.15,727.77c0.94,0,21.98-3.14,25.74-5.02s21-26.37,9.71-32.65c-11.28-6.28-41.57,18.83-41.57,18.83
			L1978.15,727.77z"/>
		<path class="st24" d="M1850.22,735.04c0,0,81.35,4.41,135.94-7.28c0,0,1.38-15.77-15.78-22.78c0,0-85.08-18.03-105.53-13.01
			C1844.42,697,1850.22,735.04,1850.22,735.04z"/>
		<path class="st24" d="M2037.04,671.2c-16.88,20.36-38.95,36.97-63.28,40.87l-0.01-0.01c-0.2-0.31-7.37-11.18-6.02-27.17
			c0.62-7.4,3.06-15.89,8.86-24.94c1.78-2.78,3.37-6.03,4.78-9.64c13.29-33.9,11.31-99.23,11.31-99.23s56.42,5.91,74,31.02
			C2077.45,597.49,2063.72,639.02,2037.04,671.2z"/>
		<path class="st33" d="M1937.95,526.88c-4.23-0.47-6.89-1.01-6.89-1.01c-4.77-1.27-7.43-8.79-8.67-18.63
			c8.95,2.2,13.05,9.12,14.75,12.06C1937.91,520.62,1938.07,523.59,1937.95,526.88z"/>
		<path class="st15" d="M1915.22,542.13c0,0-19.49-32.15-4.33-33.55c15.15-1.4,21.24,8.86,23.43,12.62
			c2.19,3.77-0.57,20.76-0.57,20.76L1915.22,542.13z"/>
		<path class="st24" d="M1989.49,683.82c-0.6,4.08-1.81,7.82-3.32,11.16c-4.76,10.57-12.41,17.09-12.41,17.09l-0.01-0.01
			c-50.61-22.84-60.85-101.28-62.56-144.38c-0.69-17.32,0-28.94,0-28.94c22.83-7.56,29.25,5.58,29.25,5.58s26.95,64.1,40.94,105.99
			C1986.72,666.34,1990.17,679.13,1989.49,683.82z"/>
		<path class="st25" d="M2037.04,671.2c-16.88,20.36-38.95,36.97-63.28,40.87l-0.01-0.01c-50.61-22.84-60.85-101.28-62.56-144.38
			c0,0,23.95,86.85,56.54,117.21c5.89,5.49,12.07,9.14,18.43,10.08c0,0,41.1-11.62,49.72-22.55
			C2036.5,671.64,2036.88,671.25,2037.04,671.2z"/>
	</g>
	<g>
		<g>
			<polygon class="st30" points="1115.33,924.56 958.14,924.56 910.85,806.97 1067.8,806.97 			"/>
			<polygon class="st30" points="956.3,919.98 1163.86,919.98 1163.86,924.56 958.14,924.56 			"/>
		</g>
		<path class="st5" d="M997.82,865.77c-1.19-4.13,1.2-7.48,5.34-7.48c4.13,0,8.44,3.35,9.63,7.48s-1.21,7.48-5.34,7.48
			C1003.31,873.25,999,869.9,997.82,865.77z"/>
	</g>
</g>
</svg>
