<?xml version="1.0" encoding="utf-8"?>
<!-- Generator: Adobe Illustrator 23.0.6, SVG Export Plug-In . SVG Version: 6.00 Build 0)  -->
<svg version="1.1" id="OBJECTS" xmlns="http://www.w3.org/2000/svg" xmlns:xlink="http://www.w3.org/1999/xlink" x="0px" y="0px"
	 viewBox="0 0 500 500" style="enable-background:new 0 0 500 500;" xml:space="preserve">
<style type="text/css">
	.st0{fill:#D1711F;}
	.st1{fill:#C9620A;}
	.st2{fill:#FFCC9D;}
	.st3{fill:#FFBA7A;}
	.st4{fill:#1D262D;}
	.st5{fill:#7A821C;}
	.st6{fill:#717A00;}
	.st7{fill:#656B17;}
	.st8{fill:#535900;}
	.st9{clip-path:url(#XMLID_3_);fill:#CF7100;}
	.st10{clip-path:url(#XMLID_3_);fill:#EB860C;}
	.st11{clip-path:url(#XMLID_3_);fill:#B56300;}
	.st12{opacity:0.6;clip-path:url(#XMLID_3_);fill:#674800;}
	.st13{fill:#FFAE36;}
	.st14{fill:#EB860C;}
	.st15{fill:#FFFFFF;}
	.st16{fill:#474D00;}
	.st17{fill:#33360C;}
	.st18{fill:#555C00;}
	.st19{fill:#FFB947;}
	.st20{fill:#FFA538;}
	.st21{clip-path:url(#SVGID_2_);}
	.st22{fill:#686A3A;}
	.st23{fill:#27391F;}
</style>
<g>
	<g>
		<path class="st0" d="M253.34,332.91c-0.54,7.86-5.44,33.21-5.44,33.21l-18.34,4.77c0,0-1.41-2.01-0.6-12.69
			c0.81-10.68,3.04-27.91,10.17-34.55L253.34,332.91z"/>
		<path class="st1" d="M237.39,325.64c-5.75,7.63-7.69,22.81-8.43,32.56c-0.81,10.68,0.6,12.69,0.6,12.69l5.41-1.41
			C234.02,354.83,234.49,340.22,237.39,325.64z"/>
		<path class="st2" d="M228.6,364.65c0,0-2.17,4.48-0.8,12.14c0,0,11.1,3.06,16.4,1.4c0,0,0.87-0.24,1.85-2.86
			c0.9-2.42,2.5-7.81,1.85-9.21C247.9,366.12,237.64,369.03,228.6,364.65z"/>
		<path class="st3" d="M234.7,366.59c-2.01-0.37-4.08-0.97-6.1-1.94c0,0-2.17,4.48-0.8,12.14c0,0,3.22,0.88,7.02,1.44
			C234.55,374.36,234.67,370.43,234.7,366.59z"/>
		<path class="st4" d="M227.61,374.86c0,0,0.5,2.49,9.7,2.7c2.58,0.06,8.46,0.14,8.74-2.04c0,0,1.19-1.3-0.17,7.21
			c-1.05,6.57-2.86,17.38-2.86,17.38s9.34-0.1,9.81,5.9h-26.29C226.54,406,225.75,375.42,227.61,374.86z"/>
	</g>
	<g>
		<path class="st0" d="M214.07,334.93c-0.55,7.92-19.33,66.07-19.33,66.07h-8.93c0,0-0.81-28.66,0-39.42
			c0.81-10.76,6.94-27.86,14.13-34.56L214.07,334.93z"/>
		<path class="st1" d="M190.49,377.59c-0.01-1.82,0-3.63,0.06-5.45c0.13-4.61,0.64-9.07,1.39-13.45c1.1-9.37,2.77-18.67,5.04-27.81
			c-5.85,7.98-10.48,21.88-11.18,31.13c-0.81,10.76,0,39.85,0,39.85h5.05C190.34,393.79,190.2,385.68,190.49,377.59z"/>
		<path class="st2" d="M185.44,367.96c0,0-2.18,4.52-0.81,12.23c0,0,11.19,3.08,16.53,1.41c0,0,4.05-4.59,3.73-12.16
			C204.9,369.44,194.55,372.37,185.44,367.96z"/>
		<path class="st3" d="M190.25,369.69c0-0.02,0-0.03,0-0.05c-1.6-0.38-3.22-0.91-4.81-1.68c0,0-2.18,4.52-0.81,12.23
			c0,0,2.53,0.69,5.76,1.24C190.21,377.53,190.24,373.61,190.25,369.69z"/>
		<path class="st4" d="M184.45,378.43c0,0,0.5,2.41,9.77,2.63c2.6,0.06,8.53,0.1,8.81-2.11c0,0,1.58-0.16-0.77,6.42
			c-2.26,6.32-4.71,18.5-4.71,18.5s9.41-0.88,9.88,6.12h-26.5C180.93,410,182.57,379,184.45,378.43z"/>
	</g>
	<path class="st4" d="M241.01,133.34c-15.47,2.75-36.32,7.63-40.32,17.08c-4.01,9.45-10.07,77.02-10.83,90.55
		c-0.76,13.53,18.34,11.01,18.34,11.01l29.29-3.75l9.58-93.25L241.01,133.34z"/>
	<path class="st5" d="M228.33,333.83c3.43,5.06,22.29,5.19,27.07-0.08c4.78-5.27,5.24-72.53,3.63-88.64l-49.09-2.89
		c0,0-7.05,1.44-8.4,6.34c-5.11,18.62,0.06,25.59-3.17,40.75c-4.39,20.56-5.88,37.21-5.17,38.72c6.52,14.04,25.1,10.19,27.59,7.24
		c2.49-2.94,8.9-55.18,8.9-55.18l3.56-0.33C232.7,294.63,225.94,330.32,228.33,333.83z"/>
	<path class="st6" d="M194.44,330.29c0.61-4,1.29-8,2.11-11.97c2.03-9.84,5.77-19.18,7.85-29.03c2.16-10.21,2.26-20.2,2.93-30.54
		c0.34-5.26,0.68-11.04,2.05-16.38c-1.67,0.45-6.73,2.13-7.85,6.21c-5.11,18.62,0.06,25.59-3.17,40.75
		c-4.39,20.56-5.88,37.21-5.17,38.72C193.57,328.85,193.99,329.59,194.44,330.29z"/>
	<path class="st6" d="M222.8,276.97c2.09,1.63,6.88,3.14,6.88,3.14l3.56-0.33c-0.06,1.67-0.2,3.61-0.4,5.74
		c0.01,0.12,0,0.23-0.03,0.35c-1.59,16.79-6.58,44.87-4.48,47.97c0.86,1.27,2.69,2.23,5.03,2.87c-1.89-5.49-1.06-11.92-0.44-17.9
		c1.53-14.56,2.04-23.07,4.16-37.57c0.16-1.12,4.59-4.23,5.18-8.01C238.5,277.2,233.69,278.74,222.8,276.97z"/>
	<path class="st7" d="M254.51,247.22c0.65,6.28,1.77,12.47,4.09,18.37c0.37,0.94,0.79,1.79,1.24,2.62
		c-0.08-10.05-0.37-18.58-0.82-23.1l-5.5-0.32C254.04,245.39,254.41,246.18,254.51,247.22z"/>
	<path class="st7" d="M193.17,323.05c-0.19,2.78-0.18,4.54,0.03,4.99c6.52,14.04,25.1,10.19,27.59,7.24c0.52-0.62,1.22-3.44,2-7.48
		C214.72,332.02,200.63,329.3,193.17,323.05z"/>
	<path class="st7" d="M210.81,265.7c5.3-3.99,8.63-11.81,10.15-18c0.32-1.31,1.01-2.17,1.87-2.68c0.17-0.67,0.36-1.34,0.57-2
		l-13.46-0.79c0,0-7.05,1.44-8.4,6.34c-2.31,8.43-2.52,14.46-2.35,19.95C203.37,268.82,207.49,268.19,210.81,265.7z"/>
	<path class="st8" d="M199.84,258.24c1.33-0.03,6.89-7.41,8.09-8.73c2.04-2.25,3.93-4.62,5.72-7.06l-3.71-0.22
		c0,0-7.05,1.44-8.4,6.34c-1,3.63-1.59,6.8-1.94,9.69C199.68,258.26,199.76,258.24,199.84,258.24z"/>
	<path class="st7" d="M228.05,325.5c-0.34,4.32-0.34,7.42,0.27,8.33c3.43,5.06,22.29,5.19,27.07-0.08c0.92-1.01,1.68-4.32,2.29-9.11
		C248.49,329.69,235.66,331.67,228.05,325.5z"/>
	<path class="st2" d="M261.54,220.29c-3.06,8.35-3.06,19.22,0,26.69c0,0-20.38,15.96-56.04-1.7l30.74-104.44l20.13,3.19l14.96,39.73
		L261.54,220.29"/>
	<path class="st3" d="M234.18,147.85l-28.67,97.43c6.08,3.01,11.71,5.03,16.88,6.33c1.5-7.29,5.4-13.64,9.87-19.7
		c5.07-6.87,8.95-13.19,10.97-21.62c3.63-15.1,1.85-31.07,0.84-46.63C241.39,157.73,238.21,152.37,234.18,147.85z"/>
	<g>
		<g>
			<defs>
				<path id="XMLID_1_" d="M205.75,134.28c0.86,9.38-3.82,17.47-10.44,18.07c-6.62,0.6-12.68-6.51-13.54-15.88
					c-0.86-9.38,3.82-17.47,10.44-18.07C198.83,117.79,204.9,124.91,205.75,134.28z"/>
			</defs>
			<use xlink:href="#XMLID_1_"  style="overflow:visible;fill:#FF9B22;"/>
			<clipPath id="XMLID_3_">
				<use xlink:href="#XMLID_1_"  style="overflow:visible;"/>
			</clipPath>
			<path class="st9" d="M207.83,134.29c0.52,5.7,2.9,8.9-0.47,11.55c-1.32,1.04-9.77,4.74-11.44,4.89
				c-5.91,0.54-11.29-5.46-12.02-13.39c-0.72-7.94,3.25-14.98,9.08-16.14c2.77-0.55,13.56-2.95,13.56-2.95
				S207.22,127.62,207.83,134.29z"/>
			<path class="st10" d="M207.83,134.29c-0.61-6.67-1.3-16.03-1.3-16.03s-10.79,2.4-13.56,2.95c-0.08,0.02-0.16,0.05-0.25,0.07
				c11.29,1.8,14.78,25.42,4.19,29.23c0,0.09,0.28-0.18,0.27-0.09c2.92-0.94,9.05-3.69,10.16-4.56
				C210.72,143.2,208.35,139.99,207.83,134.29z"/>
			<path class="st11" d="M202.61,143.53c-1.07,2.01-3.95,3.59-6.17,3.37c-3.08-0.3-7.51-2.87-8.03-10.48
				c-0.46-6.65,2.5-10.3,3.9-10.98c1.4-0.68,2.08-0.68,5.23-1.61C202.85,127.66,205.07,137.42,202.61,143.53z"/>
			<path class="st12" d="M192.5,128.62c-0.92,0.45-1.89,2.7-1.37,8.81c0.29,3.42,2.63,7.15,4.57,6.62
				C199.57,142.99,196.93,126.47,192.5,128.62z"/>
		</g>
		<path class="st13" d="M197.21,151.97c2.3-0.58,13.06-7.64,27.5-13.21c5.72-2.2,38.92-11.55,45.49-12.79c0,0,2.76-3.91,1.13-13.7
			c-1.64-9.79-8.06-16.23-8.06-16.23s-56.91,19.47-72.37,20.08c0,0,8.49,2.03,12,9.56c3.09,6.63,3.28,13.32,1.42,17.83
			C201.43,150.45,197.21,151.97,197.21,151.97z"/>
		<path class="st14" d="M207.58,113.01c0,0,0.1-0.66,1.77-0.16c0,0,5.24,2,7.36,14.08c2.08,11.91-2.02,16.07-2.02,16.15l-1.47,0.7
			c0,0,4.31-4.29,2.03-17.36C213.34,115.52,207.58,113.01,207.58,113.01z"/>
	</g>
	<g>
		<path class="st0" d="M178.44,214.32c0,0-6.79,16.91-7.7,39.27c0,0-2.94,5.44-3.79,7.31c-0.85,1.87,2.21,4.08,4.59,5.77
			c2.38,1.7,6.12,2.21,6.8,0c0.67-2.21,2.38-8.05,1.28-11.27c-1.1-3.23,9.3-18.67,11.73-36.73c-5.07-3.62,0,0,0,0L178.44,214.32"/>
		<path class="st1" d="M177.16,264.11c-8.94-0.66-4.06-13.65-3.06-18.37c2.11-9.97,3.97-20.71,8.04-30.17l-3.7-1.25
			c0,0-6.79,16.91-7.7,39.27c0,0-2.94,5.44-3.79,7.31c-0.85,1.87,2.21,4.08,4.59,5.77c2.38,1.7,6.12,2.21,6.8,0
			c0.2-0.66,0.5-1.65,0.78-2.79C178.53,264.07,177.88,264.16,177.16,264.11z"/>
	</g>
	<path class="st5" d="M236.24,140.85c0,0-34.47,8.26-43.08,22.1c-8.6,13.84-13.13,35.12-12.68,46.9l11.77,4.48
		c0,0,6.55-11.04,11.55-24.17c0,0-2.94,18.14-4.3,28.98c-1.36,10.84-8.15,20.15-15.4,27.85c-7.25,7.7-10.48,18.57-3.65,35.32
		c0,0,1.39-12.23,15.43-25.36c14.04-13.13,30.14-22.42,40.36-38.26C249.96,197.41,255.2,171.07,236.24,140.85z"/>
	<path class="st6" d="M184.1,246.98c-6.94,7.38-10.18,17.68-4.43,33.28c-0.42-12.78,1.07-20.04,8.67-31.41
		c5.63-8.43,12.71-20.74,14.56-31.06c1.5-8.35,0.65-16.94,0.54-25.39c-0.83,5.18-2.87,18.22-3.94,26.74
		C198.14,229.97,191.35,239.28,184.1,246.98z"/>
	<path class="st6" d="M204.5,167.95c9.16-10.71,20.75-18.42,33.05-24.93c-0.43-0.72-0.86-1.44-1.31-2.17c0,0-34.47,8.26-43.08,22.1
		c-8.6,13.84-13.13,35.12-12.68,46.9l6.59,2.5C186.41,196.71,194.82,179.27,204.5,167.95z"/>
	<path class="st7" d="M236.24,140.85c0,0-2.26,0.54-5.75,1.57c4.95,16.16,2.84,33.96-2.38,49.98c0.19,0.07,8.13-1.57,7.67,7.22
		c-0.86,16.34-17.48,29.92-46.44,58.14c-5.31,5.17-6.66,12.36-7.43,19.24c1.77-4.79,5.63-12.25,13.97-20.05
		c14.04-13.13,30.14-22.42,40.36-38.26C249.96,197.41,255.2,171.07,236.24,140.85z"/>
	<g>
		<path class="st2" d="M180.52,205.55c0,0-2.75,3.74-2.08,8.78c0,0,9.96,4.58,12.91,4.35c0,0,3.03-2.81,2.87-7.86
			C194.22,210.82,190.07,206.46,180.52,205.55z"/>
		<path class="st3" d="M187.69,207.09c-1.93-0.69-4.3-1.27-7.17-1.55c0,0-2.75,3.74-2.08,8.78c0,0,2.01,0.92,4.48,1.92
			C182.75,212.72,184.39,208.94,187.69,207.09z"/>
	</g>
	<path class="st5" d="M255.2,143.51c0,0,30.78,10.84,43.7,29.21c0,0,4.75,9.06,4.08,15.62c0,0-14.72,1.88-31.47-7.21
		c0,0-1.36,28.78-9.96,39.16c0,0,7.7-25.16,2.49-48.03c-5.21-22.87-8.83-27.49-8.83-27.49"/>
	<path class="st7" d="M262.35,217.27c1.26-3.8,2.69-7.53,3.94-11.35c2.24-6.85,2.66-14.13,2.61-21.21c-0.03-3.3-0.19-5.19,0.62-8.38
		c0.12-0.85,1.64-4.35,1.81-5.2c-3.27-2.97-4.1-6.57-5.54-10.93c-2.1-6.37-6.74-14.32-10.59-16.15v0.72c0,0,3.62,4.62,8.83,27.49
		C268.16,190.39,264.18,209.93,262.35,217.27z"/>
	<g>
		<path class="st0" d="M309.87,186.74c2.6-3,14.41-26.71,2.69-49.72c0,0-0.16-3.38-0.84-8.81l-10.71,0.75c0,0,0.68,5.74,5.07,8.2
			c0,0-5.8,16.25-5.59,35.19L309.87,186.74z"/>
		<path class="st1" d="M304.18,164.78c1.63-8.92,1.7-19.41,6.76-27.2c0.45-0.7,0.99-1.19,1.57-1.52c-0.09-1.37-0.31-4.13-0.78-7.85
			l-10.71,0.75c0,0,0.68,5.74,5.07,8.2c0,0-5.8,16.25-5.59,35.19l1.97,3.03C302.94,171.84,303.54,168.31,304.18,164.78z"/>
	</g>
	<path class="st2" d="M301.62,172.77c0,0-1.19-0.96-2.72-0.06c0,0-1.02,11.15,4.08,15.62c0,0,5.77,0.91,7.13-1.98
		C310.11,186.36,307.36,176.02,301.62,172.77z"/>
	<path class="st4" d="M201.62,204.17c-1.04,0.53-2.41,4.91-0.71,4.76c1.71-0.15,15.58-5.34,25.54-20.45
		c9.96-15.11,6.96-38.02,4.04-46.05c0,0-4.53-2.33-7.88,2.55c0,0,5.55,22.91-0.39,38.41C216.27,198.87,201.62,204.17,201.62,204.17z
		"/>
	<path class="st4" d="M254.8,143.06c0,0,0.65-0.68,1.7-0.68c3.4,0,10.54,7.42,13.45,15.12c5.49,14.47,6.87,30.98-0.92,42.41
		c0,0,4.56-11.71-2.92-35.62C260.67,146.84,254.8,143.06,254.8,143.06z"/>
	<path class="st15" d="M235.23,141.1c0,0,0-2.07,1.86-2.8c0,0,5.77,6.45,14.26,7.81c0,0-1.87,1.87-3.06,3.74
		c-1.19,1.87-1.22,4.25-1.22,4.25S237.77,148.24,235.23,141.1z"/>
	<path class="st15" d="M251.35,146.11c0,0,3.77-1.1,3.85-3.74l1.17,1.67c0,0,2.46,2.75-1.17,8.36
		C255.2,152.4,255.49,147.21,251.35,146.11z"/>
	<g>
		<path class="st0" d="M255.14,143.11l0.57-3.39c0,0,9.23,0.45,10.48-3.34c1.03-3.15,6.69-24.79-12.11-31.59
			c-18.8-6.79-25.36,10.58-16.99,33.51c0,0,8.66,8.85,14.26,7.81C255.23,145.39,255.14,143.11,255.14,143.11z"/>
		<path class="st1" d="M255.52,140.82c-3.39-0.09-6.73-0.69-9.92-2.07c-5.32-2.3-8.49-6.26-8.77-12.08
			c-0.3-6.2-0.53-12.54,0.04-18.76c-4.47,6-4.57,17.28,0.22,30.39c0,0,8.66,8.85,14.26,7.81c3.88-0.72,3.78-3.01,3.78-3.01
			L255.52,140.82z"/>
	</g>
	<path class="st4" d="M231.31,119.45c0,0,1.16,7.59,4.17,13.89c0,0,0.75-9.79,2.93-11.21c2.18-1.42,6.23,1.58,8.18-6.02
		L231.31,119.45z"/>
	<g>
		<path class="st5" d="M231.69,112.29c0,0-10.19,8.6-10.16,13.02c0.03,5.26,54.31-23.09,53.86-24.92
			c-0.45-1.82-7.71-3.03-20.42,0.08C254.96,100.47,243.23,103.39,231.69,112.29z"/>
		<path class="st2" d="M254.19,95.75c-2.43,2.59-5.6,4.48-8.62,6.45c-5.02,3.27-10.77,6.51-16.62,8.05
			c-0.02,2.65,0.31,4.51,0.31,4.51c17.04-3.39,30.06-15.22,30.06-15.22S257.28,97.61,254.19,95.75z"/>
		<path class="st7" d="M255.45,96.55c-4.43-2.94-11.94-6.46-18.62-2.5c-6.77,4.02-7.9,11.74-7.89,16.53
			C238.02,107.99,247.97,103.08,255.45,96.55z"/>
	</g>
	<g>
		
			<ellipse transform="matrix(0.0286 -0.9996 0.9996 0.0286 125.4178 373.9528)" class="st4" cx="255.11" cy="122.45" rx="2.8" ry="2.48"/>
		<path class="st4" d="M267.66,117.2c-0.04,1.55-1.19,2.77-2.56,2.73c-1.37-0.04-2.44-1.32-2.4-2.87s1.19-2.77,2.56-2.73
			C266.63,114.37,267.7,115.65,267.66,117.2z"/>
		<g>
			<path class="st16" d="M327,124.15l-61.55-5.16c-0.91-0.12-1.59-0.88-1.61-1.8l0,0c-0.02-0.92,0.63-1.71,1.53-1.87l61.17-12.17
				L327,124.15z"/>
			<path class="st17" d="M266.25,116.71c-0.5,0.13-1,0.24-1.49,0.39c-0.33,0.09-0.62,0.12-0.91,0.13c0.04,0.9,0.71,1.65,1.61,1.77
				l61.55,5.16l-0.39-17.67C320.34,107.62,275.37,116.22,266.25,116.71z"/>
			
				<ellipse transform="matrix(0.9998 -0.0223 0.0223 0.9998 -2.4548 7.3362)" class="st7" cx="327.64" cy="113.71" rx="5.55" ry="10.94"/>
			<path class="st4" d="M328.21,123.36c-1.86,0.04-4.01-3.88-4.14-9.57c-0.13-5.69,1.85-9.71,3.71-9.75
				c1.86-0.04,4.01,3.88,4.14,9.57C332.04,119.31,330.06,123.32,328.21,123.36z"/>
		</g>
		<g>
			<path class="st18" d="M314.9,135.33l-59.53-10.96c-0.96-0.18-1.65-1.03-1.62-2l0,0c0.03-0.98,0.76-1.79,1.73-1.91l60.06-7.53
				L314.9,135.33z"/>
			<path class="st17" d="M254.1,121.36c-0.19,0.3-0.33,0.63-0.35,1.01c-0.03,0.98,0.66,1.83,1.62,2l59.53,10.96l0.53-18.65
				C294.97,117.89,274.51,120.33,254.1,121.36z"/>
			<path class="st7" d="M322.06,124.41c-0.18,6.44-2.99,11.59-6.26,11.5c-3.27-0.09-5.77-5.39-5.59-11.84
				c0.18-6.44,2.99-11.59,6.26-11.5C319.75,112.67,322.25,117.97,322.06,124.41z"/>
			<path class="st4" d="M316.22,134.56c-1.98-0.06-4.07-4.35-3.89-10.43c0.17-6.08,2.5-10.25,4.48-10.19
				c1.98,0.06,4.07,4.35,3.89,10.43C320.53,130.45,318.2,134.62,316.22,134.56z"/>
		</g>
	</g>
</g>
<g>
	<path class="st19" d="M0,464v36h273c0,0,8.7-54.52,15.85-67.26c7.15-12.74,32.78-34.76,9.96-32.25C276,403,0,420.5,0,420.5V464z"/>
	<path class="st20" d="M273.62,496.24c0.42-11.94-0.69-23.91-3.71-35.15c-2.33-8.66-6.52-17.12-13.35-23.1
		c-6.57-5.76-15.2-8.83-23.72-10.19c-22.81-3.64-46.97-1.47-69.92-0.79c-28.51,0.85-57.03,1.98-85.56,1.73
		c-14.01-0.12-28.03-0.23-42.03-0.55c-7.16-0.16-14.29-0.53-21.43-0.98c-4.35-0.27-9.13-0.74-13.19-2.44
		c-0.25-0.1-0.47-0.22-0.7-0.34V500h273C273,500,273.22,498.61,273.62,496.24z"/>
</g>
<g>
	<defs>
		<rect id="SVGID_1_" width="500" height="500"/>
	</defs>
	<clipPath id="SVGID_2_">
		<use xlink:href="#SVGID_1_"  style="overflow:visible;"/>
	</clipPath>
	<g class="st21">
		<g>
			<path class="st22" d="M43.05,358.6c2.07-0.1,3.63-2.29,0.69-21.68c-2.79-18.41-8.87-31.93-9.95-32c-1.05,0-0.66,13.58,2.27,32.32
				C39.09,356.99,40.89,358.9,43.05,358.6z"/>
			<path class="st22" d="M30.35,370.83c2.25-0.82,3.75-3.94-3.64-26.05c-7.23-21.36-18.02-36.57-19.19-36.48
				c-1.16,0.19,3.24,16.76,10.63,38.94C25.68,370.21,27.93,371.9,30.35,370.83z"/>
			<path class="st22" d="M81.27,341.49c-5.7-1.01-8.79-1.19-10.47-0.86c1.03-1.58,2.38-5.06,4.45-12.13
				c3.72-12.41,5.3-22.5,4.6-22.82c-0.7-0.32-6.06,7.84-9.78,20.08c-4,13.17-2.99,15.02-1.56,15.81c0.17,0.09,0.33,0.16,0.5,0.2
				c0,0.01-0.01,0.02-0.01,0.02c-0.39-0.01-3.23,1.2-6.46,3.17c-1.3,0.81-2.59,1.65-3.88,2.51c-0.69,0.03-1.22,0.13-1.63,0.29
				c0.96-2.5,1.98-7.23,3.17-15.91c2.36-16.51,1.64-29.34,0.64-29.65c-0.98-0.27-5.45,10.87-7.75,27.29
				c-2.5,17.77-1.06,20.05,0.94,20.67c0.17,0.06,0.34,0.11,0.51,0.13c-3.01,2.14-5.99,4.42-8.94,6.84c-0.15,0.09-0.28,0.2-0.39,0.31
				c-9.63,7.96-18.93,17.5-27.91,29.02c1.3-2.45,0.59-8.78-7.89-28.6C-1,333.86-14.97,316.86-16.21,317.05
				c-1.23,0.27,5.89,19.65,16.43,45c10.66,25.92,13.27,27.34,15.87,25.65c0.2-0.12,0.4-0.26,0.58-0.42
				c-5.28,6.84-10.45,14.36-15.51,22.66c-0.16,0.16-0.3,0.34-0.42,0.53c1.33-3.31,0.28-11.38-9.16-34.84
				c-11.93-29.22-28.22-49.98-29.66-49.82c-1.43,0.24,7.04,23.76,18.97,55c12.17,32.17,15.19,33.79,18.27,31.56
				c0.43-0.29,0.84-0.64,1.18-1.15c-0.03,0.07-0.05,0.14-0.08,0.21c-5.24,8.72-10.36,18.28-15.36,28.76
				c1.26-4.79-0.6-15.36-12.53-43.93c-15.5-36.72-36.46-63.39-38.09-63.21c-1.55,0.25,10.6,31.11,25.67,71.25
				c15.55,41.37,19.32,42.55,22.99,39.13c0.3-0.28,0.59-0.58,0.86-0.92c-2.48,5.28-4.93,10.79-7.34,16.55
				c-3.65,8.76-6.07,16.98-5.53,17.51c0.57,0.54,3.84-6.78,7.42-15.57c1.75-4.31,3.52-8.47,5.31-12.52c0.27,5.29,5,12.7,28.21,23.87
				c26.69,11.93,50,7.5,50.36,5.17c0.36-2.59-19.98-14.42-45.6-26.59c-18.4-9.14-25.9-11.53-29.39-10.35
				c4.12-8.84,8.33-17.03,12.62-24.61c0.93,3.86,5.81,9.14,23.51,17.59c22.05,10.07,40.92,9.17,41.16,7.23
				c0.21-2.1-16.49-13.41-37.8-23.38c-12.88-6.23-19.34-8.48-22.75-8.47c3.93-6.5,7.93-12.54,12-18.13
				c0.29,3.19,3.88,7.88,19.52,17.54c18.55,11.25,34.67,13.77,34.97,12.09c0.25-1.74-13.56-14.09-31.54-24.93
				c-11.15-6.82-16.61-9.23-19.44-9.38c3.73-4.84,7.51-9.34,11.36-13.51c-0.47,3.01,0.77,6.52,18.65,13.39
				c16.92,6.39,30.61,6.27,30.7,4.78c0.09-1.55-12.52-9.98-29.03-16.22c-10.16-3.92-15.13-5.1-17.64-4.81
				c3.6-3.73,7.24-7.2,10.94-10.42c-0.28,2.43,1.32,5.32,15.65,11.65c14.34,6.28,25.97,7.19,26.09,5.92
				c0.11-1.3-10.4-9.33-24.44-15.4c-7.73-3.39-11.91-4.67-14.23-4.78c2.63-2.18,5.29-4.23,7.97-6.18c0.05,2.29,2.03,4.73,15.4,8.36
				c13.6,3.65,24.12,2.61,24.17,1.4c0.05-1.24-9.96-6.93-23.39-10.48c-5.71-1.55-9.37-2.26-11.75-2.4c0.95-0.64,1.9-1.27,2.85-1.88
				c3.03-1.88,5.63-3.29,6.14-3.69c-0.09,0.26-0.13,0.55-0.15,0.85c-0.11,1.96,0.76,3.88,12.14,5.89
				c10.66,1.85,18.88,0.25,18.92-0.69C99.89,347.01,91.89,343.32,81.27,341.49z"/>
		</g>
		<g>
			<g>
				<g>
					<path class="st4" d="M127.13,442.18c-0.04,0.16-3.28,0.06-7.29,0.19c-37.55,1.94-78.91,17.65-130.65,58.16
						c-7.47,5.84-13.96,10.57-14.18,9.82c-0.21-0.73,5.98-6.66,13.5-12.45c52.11-39.86,93.74-54.82,131.41-56.22
						C123.95,441.58,127.18,441.99,127.13,442.18z"/>
				</g>
				<g>
					<path class="st23" d="M127.13,442.18c-0.04,0.16-3.28,0.06-7.29,0.19c-37.55,1.94-78.91,17.65-130.65,58.16
						c-7.47,5.84-13.96,10.57-14.18,9.82c-0.21-0.73,5.98-6.66,13.5-12.45c52.11-39.86,93.74-54.82,131.41-56.22
						C123.95,441.58,127.18,441.99,127.13,442.18z"/>
				</g>
			</g>
			<path class="st4" d="M136,428.76c-10.02,9.44-10.06,11.54-9.21,12.94c0.9,1.46,2.31,1.65,12.34-7.98
				c9.4-8.92,15.78-16.89,15.34-17.52C154.02,415.58,145.31,419.99,136,428.76z"/>
			<path class="st4" d="M119.41,423.57c-11.01,14.17-10.89,16.87-9.47,18.4c1.39,1.61,3.45,1.44,14.46-12.83
				c10.26-13.15,16.01-24.64,15.3-25.4C138.99,403.02,129.57,410.47,119.41,423.57z"/>
			<path class="st4" d="M100.8,421.82c-7.2,18.65-6.59,21.2-4.56,22.01c1.84,0.94,4.28-0.18,11.38-18.47
				c6.73-17.36,8.18-32.12,7.28-32.71C113.98,392.13,107.57,404.1,100.8,421.82z"/>
			<path class="st4" d="M80.28,421.59c-4.89,23.67-3.78,26.26-1.14,26.54c2.36,0.41,5.21-1.55,9.79-24.42
				c4.34-22.13,2.55-40.69,1.48-41.19C89.31,382.11,84.89,398.68,80.28,421.59z"/>
			<path class="st4" d="M57.36,425.54c-3.64,27.79-2.08,30.32,1.02,30.14c2.79-0.03,5.93-2.65,9.03-29.21
				c2.9-26-0.77-47.7-1.94-48.15C64.27,377.95,60.82,398.3,57.36,425.54z"/>
			<path class="st4" d="M31.27,432.21c-5.44,33.96-3.62,36.87,0.16,36.47c3.38-0.21,7.23-3.51,11.68-35.66
				c4.18-31.28,0.36-57.39-0.97-57.97C40.79,374.55,36.45,399.16,31.27,432.21z"/>
			<path class="st4" d="M1.41,442.19c-7.07,43.63-4.39,46.53,0.5,45.38c4.45-0.99,9.19-5.5,14.28-46.19
				c4.81-39.56-0.12-73.12-1.63-73.78C13.09,367.06,8.3,399.87,1.41,442.19z"/>
			<path class="st4" d="M120.24,458c-10.73-10.73-10.31-13.43-8.86-15.46c1.49-2.06,3.45-2.64,14.04,7.97
				c9.89,9.76,15.75,19.67,15.08,20.72C139.88,472.25,130.23,467.93,120.24,458z"/>
			<path class="st4" d="M104.89,463.12c-9.93-13.48-9.19-16.33-7.48-18.28c1.75-1.97,3.86-2.31,13.62,10.87
				c9.17,12.25,14.29,24.44,13.55,25.51C123.84,482.27,114.21,475.7,104.89,463.12z"/>
			<path class="st4" d="M88.21,470.86c-12.35-15.16-11.4-18.66-9.41-21.04c2.09-2.46,4.48-2.9,16.54,11.95
				c11.23,13.62,17.97,27.2,17.13,28.5C111.65,491.52,99.71,484.81,88.21,470.86z"/>
			<path class="st4" d="M64.95,483.28c-11.09-20.42-9.41-24.39-6.84-26.75c2.7-2.43,5.36-2.43,16.19,17.32
				c10.21,18.34,16.05,35.93,14.97,37.31C88.19,512.47,75.45,502.27,64.95,483.28z"/>
			<path class="st4" d="M41.89,499.12c-15.04-21.74-12.75-26.9-9.79-30.02c3.3-3.32,6.24-3.51,20.73,17.68
				c13.53,19.24,22.4,37.36,21.17,39.07C72.84,527.41,56.01,518.82,41.89,499.12z"/>
			<path class="st4" d="M12.63,527.05c-18.27-26.6-14.32-33.67-10.43-37.67c4.58-4.4,7.87-4.47,25.21,21.46
				c16.18,23.29,27.95,43.67,26.35,45.74C52.29,558.41,29.86,550.67,12.63,527.05z"/>
			<path class="st4" d="M137.9,447.98c-8.84-7.38-10.36-6.78-11.45-5.09c-1.07,1.65-1.27,3.75,7.6,11.14
				c8.33,6.91,16.26,9.6,16.76,8.81C151.32,462.03,146.21,454.85,137.9,447.98z"/>
		</g>
	</g>
	<g class="st21">
		<g>
			<path class="st22" d="M485.61,387.6c-2.07-0.1-3.63-2.29-0.69-21.68c2.79-18.41,8.87-31.93,9.95-32c1.05,0,0.66,13.58-2.27,32.32
				C489.58,385.99,487.78,387.9,485.61,387.6z"/>
			<path class="st22" d="M498.31,399.83c-2.25-0.82-3.75-3.94,3.64-26.05c7.23-21.36,18.02-36.57,19.19-36.48
				c1.16,0.19-3.24,16.76-10.63,38.94C502.99,399.21,500.74,400.9,498.31,399.83z"/>
			<path class="st22" d="M447.4,370.49c5.7-1.01,8.79-1.19,10.47-0.86c-1.03-1.58-2.38-5.06-4.45-12.13
				c-3.72-12.41-5.3-22.5-4.6-22.82c0.7-0.32,6.06,7.84,9.78,20.08c4,13.17,2.99,15.02,1.56,15.81c-0.17,0.09-0.33,0.16-0.5,0.2
				c0,0.01,0.01,0.02,0.01,0.02c0.39-0.01,3.23,1.2,6.46,3.17c1.3,0.81,2.59,1.65,3.88,2.51c0.69,0.03,1.22,0.13,1.63,0.29
				c-0.96-2.5-1.98-7.23-3.17-15.91c-2.36-16.51-1.64-29.34-0.64-29.65c0.98-0.27,5.45,10.87,7.75,27.29
				c2.5,17.77,1.06,20.05-0.94,20.67c-0.17,0.06-0.34,0.11-0.51,0.13c3.01,2.14,5.99,4.42,8.94,6.84c0.15,0.09,0.28,0.2,0.39,0.31
				c9.63,7.96,18.93,17.5,27.91,29.02c-1.3-2.45-0.59-8.78,7.89-28.6c10.41-24.01,24.38-41.01,25.62-40.81
				c1.23,0.27-5.89,19.65-16.43,45c-10.66,25.92-13.27,27.34-15.87,25.65c-0.2-0.12-0.4-0.26-0.58-0.42
				c5.28,6.84,10.45,14.36,15.51,22.66c0.16,0.16,0.3,0.34,0.42,0.53c-1.33-3.31-0.28-11.38,9.16-34.84
				c11.93-29.22,28.22-49.98,29.66-49.82c1.43,0.24-7.04,23.76-18.97,55c-12.17,32.17-15.19,33.79-18.27,31.56
				c-0.43-0.29-0.84-0.64-1.18-1.15c0.03,0.07,0.05,0.14,0.08,0.21c5.24,8.72,10.36,18.28,15.36,28.76
				c-1.26-4.79,0.6-15.36,12.53-43.93c15.5-36.72,36.46-63.39,38.09-63.21c1.55,0.25-10.6,31.11-25.67,71.25
				c-15.55,41.37-19.32,42.55-22.99,39.13c-0.3-0.28-0.59-0.58-0.86-0.92c2.48,5.28,4.93,10.79,7.34,16.55
				c3.65,8.76,6.07,16.98,5.53,17.51c-0.57,0.54-3.84-6.78-7.42-15.57c-1.75-4.31-3.52-8.47-5.31-12.52
				c-0.27,5.29-5,12.7-28.21,23.87c-26.69,11.93-50,7.5-50.36,5.17c-0.36-2.59,19.98-14.42,45.6-26.59
				c18.4-9.14,25.9-11.53,29.39-10.35c-4.12-8.84-8.33-17.03-12.62-24.61c-0.93,3.86-5.81,9.14-23.51,17.59
				c-22.05,10.07-40.92,9.17-41.16,7.23c-0.21-2.1,16.49-13.41,37.8-23.38c12.88-6.23,19.34-8.48,22.75-8.47
				c-3.93-6.5-7.93-12.54-12-18.13c-0.29,3.19-3.88,7.88-19.52,17.54c-18.55,11.25-34.67,13.77-34.97,12.09
				c-0.25-1.74,13.56-14.09,31.54-24.93c11.15-6.82,16.61-9.23,19.44-9.38c-3.73-4.84-7.51-9.34-11.36-13.51
				c0.47,3.01-0.77,6.52-18.65,13.39c-16.92,6.39-30.61,6.27-30.7,4.78c-0.09-1.55,12.52-9.98,29.03-16.22
				c10.16-3.92,15.13-5.1,17.64-4.81c-3.6-3.73-7.24-7.2-10.94-10.42c0.28,2.43-1.32,5.32-15.65,11.65
				c-14.34,6.28-25.97,7.19-26.09,5.92c-0.11-1.3,10.4-9.33,24.44-15.4c7.73-3.39,11.91-4.67,14.23-4.78
				c-2.63-2.18-5.29-4.23-7.97-6.18c-0.05,2.29-2.03,4.73-15.4,8.36c-13.6,3.65-24.12,2.61-24.17,1.4
				c-0.05-1.24,9.96-6.93,23.39-10.48c5.71-1.55,9.37-2.26,11.75-2.4c-0.95-0.64-1.9-1.27-2.85-1.88c-3.03-1.88-5.63-3.29-6.14-3.69
				c0.09,0.26,0.13,0.55,0.15,0.85c0.11,1.96-0.76,3.88-12.14,5.89c-10.66,1.85-18.88,0.25-18.92-0.69
				C428.78,376.01,436.78,372.32,447.4,370.49z"/>
		</g>
		<g>
			<g>
				<g>
					<path class="st4" d="M401.53,471.18c0.04,0.16,3.28,0.06,7.29,0.19c37.55,1.94,78.91,17.65,130.65,58.16
						c7.47,5.84,13.96,10.57,14.18,9.82c0.21-0.73-5.98-6.66-13.5-12.45c-52.11-39.86-93.74-54.82-131.41-56.22
						C404.71,470.58,401.49,470.99,401.53,471.18z"/>
				</g>
				<g>
					<path class="st23" d="M401.53,471.18c0.04,0.16,3.28,0.06,7.29,0.19c37.55,1.94,78.91,17.65,130.65,58.16
						c7.47,5.84,13.96,10.57,14.18,9.82c0.21-0.73-5.98-6.66-13.5-12.45c-52.11-39.86-93.74-54.82-131.41-56.22
						C404.71,470.58,401.49,470.99,401.53,471.18z"/>
				</g>
			</g>
			<path class="st4" d="M392.67,457.76c10.02,9.44,10.06,11.54,9.21,12.94c-0.9,1.46-2.31,1.65-12.34-7.98
				c-9.4-8.92-15.78-16.89-15.34-17.52C374.64,444.58,383.35,448.99,392.67,457.76z"/>
			<path class="st4" d="M409.25,452.57c11.01,14.17,10.89,16.87,9.47,18.4c-1.39,1.61-3.45,1.44-14.46-12.83
				c-10.26-13.15-16.01-24.64-15.3-25.4C389.67,432.02,399.1,439.47,409.25,452.57z"/>
			<path class="st4" d="M427.86,450.82c7.2,18.65,6.59,21.2,4.56,22.01c-1.84,0.94-4.28-0.18-11.38-18.47
				c-6.73-17.36-8.18-32.12-7.28-32.71C414.68,421.13,421.09,433.1,427.86,450.82z"/>
			<path class="st4" d="M448.39,450.59c4.89,23.67,3.77,26.26,1.14,26.54c-2.36,0.41-5.21-1.55-9.79-24.42
				c-4.34-22.13-2.55-40.69-1.48-41.19C439.36,411.11,443.78,427.68,448.39,450.59z"/>
			<path class="st4" d="M471.31,454.54c3.64,27.79,2.08,30.32-1.02,30.14c-2.79-0.03-5.93-2.65-9.03-29.21
				c-2.9-26,0.77-47.7,1.94-48.15C464.4,406.95,467.85,427.3,471.31,454.54z"/>
			<path class="st4" d="M497.4,461.21c5.44,33.96,3.62,36.87-0.16,36.47c-3.38-0.21-7.23-3.51-11.68-35.66
				c-4.18-31.28-0.36-57.39,0.97-57.97C487.87,403.55,492.22,428.16,497.4,461.21z"/>
			<path class="st4" d="M527.25,471.19c7.07,43.63,4.39,46.53-0.5,45.38c-4.45-0.99-9.19-5.5-14.28-46.19
				c-4.81-39.56,0.12-73.12,1.63-73.78C515.57,396.06,520.37,428.87,527.25,471.19z"/>
			<path class="st4" d="M408.42,487c10.73-10.73,10.31-13.43,8.86-15.46c-1.49-2.06-3.45-2.64-14.04,7.97
				c-9.89,9.76-15.75,19.67-15.08,20.72C388.79,501.25,398.44,496.93,408.42,487z"/>
			<path class="st4" d="M423.78,492.12c9.93-13.48,9.19-16.33,7.48-18.28c-1.75-1.97-3.86-2.31-13.62,10.87
				c-9.17,12.25-14.29,24.44-13.55,25.51C404.83,511.27,414.46,504.7,423.78,492.12z"/>
			<path class="st4" d="M440.46,499.86c12.35-15.16,11.4-18.66,9.41-21.04c-2.09-2.46-4.48-2.9-16.54,11.95
				c-11.23,13.62-17.97,27.2-17.13,28.5C417.02,520.52,428.96,513.81,440.46,499.86z"/>
			<path class="st4" d="M463.71,512.28c11.09-20.42,9.41-24.39,6.84-26.75c-2.7-2.43-5.36-2.43-16.19,17.32
				c-10.21,18.34-16.05,35.93-14.97,37.31C440.48,541.47,453.21,531.27,463.71,512.28z"/>
			<path class="st4" d="M486.78,528.12c15.04-21.74,12.75-26.9,9.79-30.02c-3.3-3.32-6.25-3.51-20.73,17.68
				c-13.53,19.24-22.4,37.36-21.17,39.07C455.83,556.41,472.65,547.82,486.78,528.12z"/>
			<path class="st4" d="M516.04,556.05c18.27-26.6,14.32-33.67,10.43-37.67c-4.58-4.4-7.87-4.47-25.21,21.46
				c-16.18,23.29-27.95,43.67-26.35,45.74C476.38,587.41,498.81,579.67,516.04,556.05z"/>
			<path class="st4" d="M390.77,476.98c8.84-7.38,10.36-6.78,11.45-5.09c1.07,1.65,1.27,3.75-7.6,11.14
				c-8.33,6.91-16.26,9.6-16.76,8.81C377.35,491.03,382.46,483.85,390.77,476.98z"/>
		</g>
	</g>
</g>
</svg>
