<?xml version="1.0" encoding="utf-8"?>
<!-- Generator: Adobe Illustrator 23.0.6, SVG Export Plug-In . SVG Version: 6.00 Build 0)  -->
<svg version="1.1" id="Layer_1" xmlns="http://www.w3.org/2000/svg" xmlns:xlink="http://www.w3.org/1999/xlink" x="0px" y="0px"
	 viewBox="0 0 121.41 203.14" style="enable-background:new 0 0 121.41 203.14;" xml:space="preserve">
<style type="text/css">
	.st0{fill:#FFDEBC;}
	.st1{fill:#FFABA9;}
	.st2{fill:#FF7A8C;}
	.st3{fill:#2D1C22;}
	.st4{fill:#FF969F;}
	.st5{fill:none;stroke:#2D1C22;stroke-width:0.4071;stroke-linecap:round;stroke-linejoin:round;stroke-miterlimit:10;}
	.st6{fill:#7C83BB;}
	.st7{clip-path:url(#SVGID_2_);}
	.st8{fill:#3A272E;}
	.st9{fill:none;stroke:#FFFFFF;stroke-width:0.15;stroke-linecap:round;stroke-linejoin:round;stroke-miterlimit:10;}
	.st10{fill:#F1C4D3;}
	.st11{fill:#FFFFFF;}
	.st12{fill:none;stroke:#3A272E;stroke-width:0.25;stroke-linecap:round;stroke-linejoin:round;stroke-miterlimit:10;}
	.st13{fill:none;stroke:#2D1C22;stroke-width:0.25;stroke-linecap:round;stroke-linejoin:round;stroke-miterlimit:10;}
	.st14{fill:none;stroke:#2D1C22;stroke-width:0.252;stroke-linecap:round;stroke-linejoin:round;stroke-miterlimit:10;}
	.st15{fill:none;stroke:#2D1C22;stroke-width:0.2077;stroke-linecap:round;stroke-linejoin:round;stroke-miterlimit:10;}
</style>
<g>
	<g>
		<path class="st0" d="M46.01,89.71c0,0-17.45,8.49-22.04,12.83c0,0,0.51,24.26,2.3,40.34c1.13,10.16,5.11,28.17,5.11,28.17
			l-10.98,32.09h80.68l-8.6-30.72c0,0,4.26-16.04,4-34.38c-0.26-18.13,4.17-39.49,4.17-39.49L77.58,87.74L46.01,89.71z"/>
		<path class="st0" d="M98.43,97.69c0,0,9.53,1.87,15.49,23.83c5.96,21.96,7.49,36.26,7.49,36.26s-32.34,6.81-32.34,6.3
			c0-0.51,4.43-58.21,4.43-58.21L98.43,97.69z"/>
		<path class="st0" d="M31.03,97.52c0,0-15.66,8.17-21.62,21.96c-5.96,13.79-5.96,36.6-5.96,36.6l32.34,6.64L31.03,97.52z"/>
	</g>
	<g>
		<path class="st1" d="M80.14,89.39c0,0-3.01,13.32-18.07,13.32c-15.06,0-16.06-13.32-16.06-13.32s2.01-2.05,4.01-7.17
			c1.27-3.25,2.55-8.57,3.3-12.01c0.44-1.99,0.71-3.36,0.71-3.36h18.07c0,0,0.24,1.24,0.6,3.23c0.38,2.06,0.89,4.92,1.41,8.04
			C75.12,84.27,80.14,89.39,80.14,89.39z"/>
		<path class="st2" d="M72.71,70.07c-0.77,2.52-2.13,4.85-3.94,6.72c-0.73,0.76-1.55,1.44-2.48,1.91c-3.16,1.56-7.13,0.14-9.54-2.45
			c-1.6-1.72-2.63-3.85-3.42-6.05c-0.07-0.2-0.14-0.4-0.21-0.6c-0.38-1.13-1.05-2.2-0.1-2.77c0.57-0.34,2.4-0.06,3.48,0.01
			c0.22,0.02,0.41,0.03,0.55,0.02c0.06,0,0.13-0.01,0.24-0.02h14.82C72.11,66.85,72.35,68.09,72.71,70.07z"/>
	</g>
	<g>
		<path class="st3" d="M82.28,74.52c-2.15,2.49-4.4,5.18-4.91,8.49c-0.21,1.37-0.07,2.88,0.75,3.98c0.69,0.93,1.81,1.49,2.33,2.53
			c0.67,1.35,0.09,3.06-0.87,4.21c-0.96,1.15-2.24,1.95-3.3,3.01c-2.47,2.47-3.5,6.39-2.59,9.83c0.27,1.02,0.71,2.01,1.44,2.75
			c0.94,0.95,2.24,1.38,3.44,1.93c1.2,0.55,2.42,1.38,2.81,2.69c0.32,1.07,0,2.22-0.13,3.33c-0.23,1.94,0.12,3.99,1.16,5.62
			c1.04,1.63,2.78,2.8,4.66,2.91c3.22,0.2,6.12-2.55,9.34-2.32c2,0.14,3.78,1.42,5.76,1.7c1.33,0.19,2.72-0.09,3.88-0.78
			c0.89-0.53,1.68-1.34,1.95-2.37c0.32-1.18-0.07-2.45,0.11-3.65c0.23-1.52,1.3-2.73,1.99-4.08c1.14-2.22,1.25-4.98,0.29-7.29
			c-0.91-2.19-2.73-4.03-2.94-6.41c-0.17-1.87,0.7-3.65,0.97-5.51c0.57-3.93-1.93-8.09-5.57-9.26c-1.8-0.58-3.83-0.52-5.37-1.64
			c-0.74-0.54-1.29-1.31-1.76-2.12c-1.05-1.83-1.68-3.88-2.56-5.79c-0.88-1.92-2.09-3.78-3.9-4.77c-1.81-0.99-4.31-0.83-5.59,0.82"
			/>
		<path class="st4" d="M82.71,73.72c0.54,0.15,1.11,0.02,1.65-0.12c1.5-0.37,2.99-0.73,4.49-1.1c0.39-0.09,0.81-0.21,1.06-0.54
			c0.27-0.36,0.24-0.88,0.2-1.34c-0.24-2.23-0.16-5-2.62-5.43c-1.47-0.26-3.37-0.34-4.77,0.3C80.18,66.69,79.69,72.9,82.71,73.72z"
			/>
	</g>
	<g>
		<g>
			<path class="st3" d="M60.03,0.34c-2.8-0.82-5.84-0.07-8.48,1.14s-5.04,2.87-7.7,4.04c-1.78,0.78-3.69,1.36-5.18,2.59
				c-1.6,1.32-2.53,3.29-2.93,5.29c-0.46,2.22-0.34,4.58-1.23,6.68c-0.99,2.34-3.1,4.05-4.56,6.14c-1.91,2.73-2.71,6.17-2.18,9.43
				c0.41,2.55,1.6,5.06,1.15,7.6c-0.42,2.34-2.17,4.31-2.48,6.66c-0.38,2.9,1.54,5.64,3.79,7.59c2.25,1.95,4.93,3.44,6.91,5.64
				c1.47,1.64,2.67,3.75,4.81,4.4c2.21,0.68,4.82-0.44,6.83,0.68c1.14,0.64,1.84,1.9,3.05,2.42c1.77,0.76,3.9-0.48,4.77-2.16
				c0.87-1.68,0.83-3.65,0.83-5.53c0.02-5,0.5-9.99,1.45-14.91c0.48-2.51,1.09-5.02,1.08-7.57c-0.01-2.72-0.74-5.39-1.27-8.07
				c-0.78-3.91-1.14-8.1,0.46-11.77c0.94-2.16,2.51-4.02,3.37-6.2C64.33,9.84,66.72,2.3,60.03,0.34z"/>
			<path class="st3" d="M68.05,0.34c2.8-0.82,5.84-0.07,8.48,1.14c2.64,1.21,5.04,2.87,7.7,4.04C86,6.31,87.92,6.88,89.4,8.11
				c1.6,1.32,2.53,3.29,2.93,5.29c0.46,2.22,0.34,4.58,1.23,6.68c0.99,2.34,3.1,4.05,4.56,6.14c1.91,2.73,2.71,6.17,2.18,9.43
				c-0.41,2.55-1.6,5.06-1.15,7.6c0.42,2.34,2.17,4.31,2.48,6.66c0.38,2.9-1.54,5.64-3.79,7.59c-2.25,1.95-4.93,3.44-6.91,5.64
				c-1.47,1.64-2.67,3.75-4.81,4.4c-2.21,0.68-4.82-0.44-6.83,0.68c-1.14,0.64-1.84,1.9-3.05,2.42c-1.77,0.76-3.9-0.48-4.77-2.16
				c-0.87-1.68-0.83-3.65-0.83-5.53c-0.02-5-0.5-9.99-1.45-14.91c-0.48-2.51-1.09-5.02-1.08-7.57c0.01-2.72,0.74-5.39,1.27-8.07
				c0.78-3.91,1.14-8.1-0.46-11.77c-0.94-2.16-2.51-4.02-3.37-6.2C63.75,9.84,61.35,2.3,68.05,0.34z"/>
		</g>
		<g>
			<path class="st1" d="M86.62,51.81c-0.07,0.31-0.15,0.63-0.24,0.94c-2.07,7.63-7.14,14.97-14.12,18.74
				c-7.43,4.01-16.4,2.32-22.58-3.26c-5.02-4.54-8.33-11.16-9.82-18.04c-0.79-3.5-1.08-7.08-0.89-10.48
				c0.63-11.54,6.66-24.29,17.94-28.47c2.8-1.04,5.92-1.59,9.03-1.52c3.69,0.09,7.34,1.04,10.34,3.09c4.27,2.9,7.31,7.32,9.06,12.15
				C88.38,33.26,88.69,43.25,86.62,51.81z"/>
			<g>
				<g>
					<g>
						<path class="st1" d="M86.03,43.73c0.44-1.88,3.42-4.18,4.85-4.69c4.24-1.52,6.74,4.27,5.75,8.41
							c-0.85,3.56-3.51,6.91-6.49,8.21c-0.95,0.42-7.15,0.98-7.2,1.18C82.95,56.84,86.02,43.77,86.03,43.73z"/>
						<g>
							<path class="st5" d="M87.51,45.18c0.36-1.41,1.01-2.8,2.15-3.7c1.14-0.9,2.86-1.16,4.06-0.34c0.72,0.5,1.17,1.32,1.36,2.17
								c0.19,0.85,0.15,1.74,0.04,2.6c-0.36,2.83-1.5,5.7-3.74,7.46c-1.22,0.95-2.88,1.54-4.32,0.98"/>
							<path class="st5" d="M90.27,41.15c-1.33,4.22-1.53,8.79-0.58,13.11"/>
						</g>
					</g>
				</g>
				<g>
					<g>
						<path class="st1" d="M39.77,42.73c-0.44-1.88-3.42-4.18-4.85-4.69c-4.24-1.52-6.74,4.27-5.75,8.41
							c0.85,3.56,3.51,6.91,6.49,8.21c0.95,0.42,7.15,0.98,7.2,1.18C42.85,55.84,39.78,42.77,39.77,42.73z"/>
						<g>
							<path class="st5" d="M38.29,44.18c-0.36-1.41-1.01-2.8-2.15-3.7c-1.14-0.9-2.86-1.16-4.06-0.34
								c-0.72,0.5-1.17,1.32-1.36,2.17c-0.19,0.85-0.15,1.74-0.04,2.6c0.36,2.83,1.5,5.7,3.74,7.46c1.22,0.95,2.88,1.54,4.32,0.98"
								/>
							<path class="st5" d="M35.53,40.15c1.33,4.22,1.53,8.79,0.58,13.11"/>
						</g>
					</g>
				</g>
			</g>
			<g>
				<g>
					<g>
						<path class="st3" d="M56,41.09c-0.06,0.99-0.9,1.74-1.89,1.68c-0.99-0.06-1.74-0.9-1.68-1.89c0.06-0.99,0.9-1.74,1.89-1.68
							C55.3,39.26,56.05,40.1,56,41.09z"/>
						<path class="st3" d="M75.41,41.5c-0.06,0.99-0.9,1.74-1.89,1.68c-0.99-0.06-1.74-0.9-1.68-1.89c0.06-0.99,0.9-1.74,1.89-1.68
							C74.72,39.66,75.47,40.51,75.41,41.5z"/>
						<path class="st3" d="M50.32,31.97c-1.53,0.4-3.23,1.02-3.68,2.3c-0.17,0.48-0.1,1.05,0.33,1.41c0.45,0.38,1.17,0.43,1.8,0.41
							c1.23-0.03,2.45-0.19,3.67-0.34c1.75-0.22,3.49-0.45,5.24-0.67c0.86-0.11,1.9-0.37,2.03-1.08c0.05-0.29-0.07-0.58-0.24-0.84
							C57.69,30.28,53.16,31.24,50.32,31.97z"/>
						<path class="st3" d="M78.51,32.59c1.47,0.4,3.09,1.03,3.52,2.31c0.16,0.48,0.1,1.05-0.31,1.41c-0.43,0.38-1.11,0.42-1.72,0.4
							c-1.18-0.03-2.35-0.2-3.51-0.36c-1.67-0.23-3.34-0.46-5.01-0.7c-0.82-0.11-1.82-0.37-1.95-1.09
							c-0.05-0.29,0.07-0.58,0.22-0.84C71.47,30.87,75.79,31.85,78.51,32.59z"/>
					</g>
					<path class="st5" d="M62.44,36.27c1.53,3.75,1.59,8.07,0.18,11.87c-0.43,1.16-1,2.36-0.78,3.57c0.24,1.26,1.27,2.19,2.24,3.02"
						/>
				</g>
				<g>
					<path class="st6" d="M41.58,49.05c0,0,9.57-5.23,22.98-4.98c13.4,0.26,23.36,5.36,23.36,5.36s-4.09,23.36-24,24.89
						C44.01,75.86,41.58,49.05,41.58,49.05z"/>
					<g>
						<defs>
							<path id="SVGID_1_" d="M41.58,49.05c0,0,9.57-5.23,22.98-4.98c13.4,0.26,23.36,5.36,23.36,5.36s-4.09,23.36-24,24.89
								C44.01,75.86,41.58,49.05,41.58,49.05z"/>
						</defs>
						<clipPath id="SVGID_2_">
							<use xlink:href="#SVGID_1_"  style="overflow:visible;"/>
						</clipPath>
						<g class="st7">
							<path class="st0" d="M70.04,57.34c-0.63,0.98-2.06,1.27-3.64,0.88c0,0,0,0-0.01,0c-0.36-0.09-0.72-0.22-1.09-0.39
								c-0.37-0.15-0.74-0.35-1.1-0.58c-0.23-0.14-0.44-0.3-0.64-0.46c-0.28-0.21-0.53-0.44-0.76-0.67
								c-1.34-1.37-1.86-3.02-1.16-4.12c0.7-1.12,2.46-1.34,4.3-0.68c0.32,0.12,0.64,0.26,0.95,0.43c0.2,0.09,0.4,0.21,0.59,0.33
								c0.38,0.25,0.73,0.51,1.05,0.8c0.31,0.28,0.59,0.58,0.83,0.89C70.34,55.01,70.65,56.38,70.04,57.34z"/>
							<path class="st8" d="M66.89,51.75c-0.1,0.47-0.27,0.88-0.42,1.21c-0.67,1.47-1.67,2.78-2.91,3.83
								c-0.28-0.21-0.53-0.44-0.76-0.67c1.18-0.95,2.13-2.19,2.76-3.57c0.21-0.46,0.34-0.87,0.38-1.23
								C66.26,51.44,66.58,51.58,66.89,51.75z"/>
							<path class="st8" d="M69.36,53.77c-0.09,0.32-0.21,0.61-0.32,0.85c-0.62,1.36-1.52,2.59-2.64,3.6c0,0,0,0-0.01,0
								c-0.36-0.09-0.72-0.22-1.09-0.39c1.21-0.96,2.18-2.21,2.83-3.62c0.23-0.51,0.36-0.95,0.4-1.33
								C68.84,53.16,69.12,53.46,69.36,53.77z"/>
							<path class="st9" d="M67.07,51.8c-0.16-1.28,0.17-2.71,1.16-3.53c0.29-0.24,0.76-0.41,1.03-0.14
								c0.19,0.19,0.17,0.49,0.13,0.75c-0.12,0.79-0.35,1.56-0.69,2.28c0.55-0.61,1.34-1.02,2.16-1.12
								c0.16-0.02,0.32-0.02,0.47,0.05c0.19,0.1,0.29,0.32,0.29,0.53c0,0.21-0.08,0.42-0.17,0.61c-0.5,0.99-1.47,1.74-2.56,1.95"/>
						</g>
						<g class="st7">
							<path class="st0" d="M79.89,66.18c0.86,0.79,0.9,2.25,0.25,3.74c0,0,0,0,0,0.01c-0.15,0.34-0.34,0.67-0.57,1.01
								c-0.21,0.34-0.47,0.67-0.76,0.99c-0.18,0.2-0.37,0.38-0.56,0.55c-0.25,0.24-0.52,0.45-0.79,0.64
								c-1.58,1.09-3.29,1.32-4.26,0.44c-0.98-0.88-0.9-2.65,0.06-4.35c0.17-0.29,0.36-0.59,0.59-0.86
								c0.12-0.18,0.28-0.36,0.43-0.53c0.31-0.33,0.63-0.63,0.97-0.9c0.33-0.26,0.67-0.48,1.02-0.67
								C77.64,65.49,79.05,65.42,79.89,66.18z"/>
							<path class="st8" d="M73.84,68.34c0.45,0.18,0.82,0.42,1.12,0.62c1.33,0.91,2.46,2.12,3.28,3.52
								c-0.25,0.24-0.52,0.45-0.79,0.64c-0.74-1.32-1.8-2.47-3.05-3.33c-0.42-0.29-0.8-0.48-1.15-0.58
								C73.43,68.9,73.62,68.61,73.84,68.34z"/>
							<path class="st8" d="M76.26,66.25c0.3,0.14,0.57,0.31,0.78,0.46c1.23,0.84,2.29,1.94,3.1,3.21c0,0,0,0,0,0.01
								c-0.15,0.34-0.34,0.67-0.57,1.01c-0.74-1.36-1.81-2.52-3.09-3.4c-0.46-0.31-0.88-0.52-1.24-0.62
								C75.57,66.65,75.91,66.43,76.26,66.25z"/>
							<path class="st9" d="M73.92,68.17c-1.29-0.06-2.64-0.62-3.28-1.75c-0.19-0.33-0.28-0.82,0.03-1.04
								c0.21-0.15,0.51-0.09,0.76-0.01c0.76,0.25,1.48,0.61,2.13,1.07c-0.51-0.65-0.78-1.49-0.73-2.32
								c0.01-0.16,0.03-0.32,0.13-0.45c0.13-0.17,0.36-0.23,0.57-0.2c0.21,0.03,0.4,0.15,0.57,0.27c0.9,0.66,1.46,1.74,1.49,2.85"/>
						</g>
						<g class="st7">
							<path class="st0" d="M48.42,66.57c-0.86,0.79-2.31,0.71-3.74-0.07c0,0,0,0-0.01,0c-0.33-0.18-0.64-0.39-0.96-0.65
								c-0.32-0.24-0.63-0.53-0.92-0.84c-0.19-0.19-0.35-0.4-0.5-0.61c-0.22-0.27-0.4-0.56-0.57-0.84
								c-0.95-1.66-1.04-3.39-0.08-4.28c0.96-0.91,2.72-0.68,4.33,0.42c0.28,0.2,0.55,0.41,0.81,0.66c0.17,0.14,0.33,0.3,0.49,0.47
								c0.3,0.34,0.58,0.68,0.81,1.04c0.23,0.35,0.42,0.71,0.58,1.07C49.3,64.39,49.25,65.79,48.42,66.57z"/>
							<path class="st8" d="M46.78,60.36c-0.22,0.43-0.48,0.78-0.71,1.07c-1.02,1.25-2.32,2.27-3.78,2.97
								c-0.22-0.27-0.4-0.56-0.57-0.84c1.38-0.62,2.61-1.58,3.57-2.76c0.32-0.39,0.55-0.76,0.68-1.09
								C46.25,59.9,46.52,60.12,46.78,60.36z"/>
							<path class="st8" d="M48.66,62.94c-0.17,0.29-0.36,0.54-0.52,0.74c-0.94,1.16-2.12,2.12-3.46,2.82c0,0,0,0-0.01,0
								c-0.33-0.18-0.64-0.39-0.96-0.65c1.41-0.62,2.67-1.59,3.65-2.79c0.35-0.44,0.59-0.83,0.72-1.19
								C48.31,62.22,48.51,62.58,48.66,62.94z"/>
							<path class="st9" d="M46.94,60.45c0.17-1.28,0.84-2.58,2.01-3.12c0.35-0.16,0.84-0.21,1.03,0.12
								c0.13,0.23,0.04,0.51-0.06,0.76c-0.31,0.73-0.73,1.42-1.24,2.03c0.69-0.46,1.55-0.65,2.37-0.54
								c0.16,0.02,0.32,0.06,0.44,0.16c0.16,0.14,0.2,0.38,0.15,0.59c-0.05,0.21-0.18,0.38-0.32,0.55
								c-0.73,0.84-1.86,1.31-2.97,1.25"/>
						</g>
						<g class="st7">
							<path class="st10" d="M60.41,47.45c0,0.08-0.01,0.17-0.02,0.26c-0.03,0.38-0.12,0.77-0.27,1.13
								c-0.41,1.01-1.18,1.84-2.02,2.54c-0.03,0.03-0.07,0.05-0.1,0.08c-0.04,0.03-0.07,0.06-0.11,0.08
								c-1.09,0.87-2.31,1.55-3.61,2.03c-0.08,0.04-0.16,0.07-0.23,0.09c-0.82,0.3-1.67,0.51-2.53,0.64
								c-0.43,0.06-0.85,0.1-1.29,0.1c-0.09,0.01-0.17,0.01-0.26,0.01c-0.54-0.01-1.07-0.07-1.59-0.23
								c-1.01-0.29-1.95-0.94-2.42-1.88c-0.16-0.34-0.27-0.69-0.31-1.04c-0.02-0.09-0.03-0.17-0.03-0.25
								c-0.07-1.03,0.28-2.11,0.82-3.02c0.04-0.06,0.08-0.13,0.12-0.19c0.05-0.07,0.09-0.15,0.15-0.22c0.8-1.15,1.82-1.85,2.99-2.53
								c0.07-0.04,0.15-0.08,0.22-0.13c0.24-0.13,0.48-0.27,0.73-0.41c0.58-0.33,1.16-0.54,1.76-0.66c0.08-0.02,0.16-0.04,0.25-0.05
								c1.01-0.17,2.06-0.11,3.14,0.04c0.09,0.02,0.17,0.03,0.26,0.05h0.01c0.07,0.01,0.15,0.02,0.23,0.03
								c1.33,0.21,2.79,0.56,3.58,1.66C60.27,46.12,60.43,46.78,60.41,47.45z"/>
							<path class="st11" d="M51.51,50.02c-0.03,0.09-0.06,0.18-0.08,0.27c-0.44,1.35-0.84,2.74-1.2,4.11
								c-0.09,0.01-0.17,0.01-0.26,0.01c0.37-1.41,0.78-2.83,1.23-4.23c0.02-0.08,0.04-0.16,0.07-0.24L51.51,50.02z"/>
							<path class="st11" d="M54.28,53.57c-0.08,0.04-0.16,0.07-0.23,0.09c-0.1-0.17-0.17-0.35-0.23-0.53l-1.04-2.89l-0.19-0.52
								l0.24-0.08l0.19,0.53l1.04,2.88C54.12,53.23,54.19,53.41,54.28,53.57z"/>
							<path class="st11" d="M58.1,51.38c-0.03,0.03-0.07,0.05-0.1,0.08c-0.04,0.03-0.07,0.06-0.11,0.08l-3.62-2.03L53.9,49.3
								l0.12-0.22l0.45,0.25L58.1,51.38z"/>
							<path class="st11" d="M60.41,47.45c0,0.08-0.01,0.17-0.02,0.26c-1.79,0.25-3.61,0.42-5.41,0.52l-0.54,0.03l-0.01-0.25
								c0.17-0.01,0.33-0.02,0.5-0.03C56.75,47.89,58.59,47.71,60.41,47.45z"/>
							<path class="st11" d="M56.06,43.89l-0.71,1.15c-0.46,0.74-0.93,1.5-1.25,2.31c-0.03,0.06-0.06,0.12-0.08,0.18l-0.23-0.08
								c0.02-0.05,0.04-0.1,0.06-0.15c0.33-0.85,0.82-1.64,1.29-2.4l0.66-1.06C55.89,43.86,55.97,43.87,56.06,43.89z"/>
							<path class="st11" d="M52.67,48.37h-0.25c-0.01-0.34-0.01-0.68-0.01-1.03c-0.03-1.16-0.02-2.33,0-3.49
								c0.08-0.02,0.16-0.04,0.25-0.05c-0.02,1.15-0.03,2.31,0,3.47C52.66,47.64,52.66,48,52.67,48.37z"/>
							<path class="st11" d="M52.04,48.63l-0.16,0.18c-0.26-0.23-0.42-0.52-0.56-0.82c-0.03-0.06-0.05-0.11-0.08-0.17l-0.02-0.05
								c-0.44-0.94-0.95-1.85-1.52-2.72c0.07-0.04,0.15-0.08,0.22-0.13c0.57,0.88,1.08,1.8,1.52,2.74l0.03,0.05
								c0.02,0.04,0.04,0.08,0.06,0.12C51.66,48.13,51.81,48.42,52.04,48.63z"/>
							<path class="st11" d="M50.94,48.61l-0.06,0.25l-0.14-0.03l-3.43-0.84c-0.25-0.06-0.5-0.13-0.75-0.19
								c0.05-0.07,0.09-0.15,0.15-0.22c0.21,0.05,0.42,0.11,0.63,0.16l3.5,0.85L50.94,48.61z"/>
							<path class="st11" d="M51.52,49.63c-0.25,0.05-0.5,0.1-0.74,0.16c-1.73,0.38-3.45,0.87-5.13,1.47
								c-0.02-0.09-0.03-0.17-0.03-0.25c1.65-0.6,3.35-1.09,5.06-1.45c0.26-0.06,0.53-0.12,0.79-0.17L51.52,49.63z"/>
							<path class="st0" d="M50.89,48.49c-0.23,0.38-0.34,0.87-0.14,1.26c0.14,0.28,0.41,0.47,0.71,0.55
								c0.3,0.09,0.61,0.08,0.92,0.03c0.69-0.1,1.35-0.39,1.9-0.83c0.26-0.21,0.5-0.46,0.62-0.77c0.13-0.31,0.12-0.68-0.07-0.95
								c-0.23-0.32-0.66-0.42-1.05-0.49c-0.59-0.09-1.13-0.13-1.66,0.17C51.63,47.75,51.2,47.98,50.89,48.49z"/>
						</g>
						<g class="st7">
							<path class="st10" d="M65.27,70.16c-0.07,0.05-0.15,0.09-0.23,0.13c-0.33,0.19-0.7,0.34-1.09,0.41
								c-1.07,0.23-2.18,0.06-3.24-0.24c-0.04-0.01-0.08-0.03-0.12-0.04c-0.05-0.02-0.09-0.02-0.13-0.05
								c-1.33-0.41-2.58-1.03-3.71-1.84c-0.08-0.04-0.15-0.09-0.2-0.14c-0.71-0.51-1.36-1.09-1.96-1.73
								c-0.29-0.32-0.56-0.65-0.81-1.01c-0.06-0.07-0.1-0.13-0.15-0.21c-0.3-0.45-0.55-0.92-0.71-1.44c-0.33-1-0.32-2.14,0.19-3.06
								c0.19-0.32,0.42-0.61,0.68-0.84c0.06-0.07,0.12-0.12,0.19-0.17c0.81-0.64,1.9-0.96,2.96-1.03c0.07,0,0.15-0.01,0.22-0.01
								c0.09,0,0.17-0.01,0.27,0c1.4,0.01,2.55,0.46,3.78,1.04c0.07,0.04,0.15,0.08,0.23,0.11c0.24,0.12,0.49,0.24,0.75,0.37
								c0.6,0.29,1.1,0.65,1.54,1.08c0.06,0.05,0.12,0.11,0.18,0.18c0.71,0.74,1.25,1.64,1.74,2.62c0.03,0.09,0.07,0.16,0.11,0.24
								l0.01,0.01c0.03,0.06,0.07,0.14,0.1,0.21c0.58,1.22,1.11,2.62,0.65,3.89C66.29,69.29,65.84,69.8,65.27,70.16z"/>
							<path class="st11" d="M58.13,64.26c-0.09,0.03-0.18,0.05-0.27,0.09c-1.36,0.4-2.74,0.85-4.07,1.33
								c-0.06-0.07-0.1-0.13-0.15-0.21c1.37-0.49,2.78-0.95,4.19-1.37c0.08-0.03,0.15-0.06,0.24-0.08L58.13,64.26z"/>
							<path class="st11" d="M56.76,68.55c-0.08-0.04-0.15-0.09-0.2-0.14c0.08-0.18,0.19-0.34,0.31-0.49l1.8-2.49l0.32-0.45
								l0.2,0.15l-0.33,0.46l-1.79,2.48C56.95,68.22,56.84,68.38,56.76,68.55z"/>
							<path class="st11" d="M60.72,70.47c-0.04-0.01-0.08-0.03-0.12-0.04c-0.05-0.02-0.09-0.02-0.13-0.05l-0.37-4.13l-0.04-0.42
								l0.25-0.03l0.05,0.51L60.72,70.47z"/>
							<path class="st11" d="M65.27,70.16c-0.07,0.05-0.15,0.09-0.23,0.13c-1.22-1.34-2.38-2.74-3.48-4.17l-0.33-0.43l0.2-0.15
								c0.1,0.13,0.2,0.26,0.31,0.4C62.85,67.38,64.03,68.8,65.27,70.16z"/>
							<path class="st11" d="M65.76,64.56l-1.35,0.06c-0.87,0.04-1.76,0.08-2.61,0.27c-0.07,0.01-0.13,0.02-0.19,0.04l-0.06-0.24
								c0.05-0.01,0.11-0.02,0.16-0.04c0.89-0.21,1.82-0.25,2.71-0.29l1.25-0.05C65.69,64.4,65.72,64.47,65.76,64.56z"/>
							<path class="st11" d="M60.15,64.28l-0.14-0.21c0.28-0.2,0.56-0.39,0.84-0.59c0.94-0.68,1.91-1.33,2.88-1.97
								c0.06,0.05,0.12,0.11,0.18,0.18c-0.96,0.63-1.92,1.28-2.87,1.96C60.74,63.86,60.45,64.07,60.15,64.28z"/>
							<path class="st11" d="M59.58,63.91l-0.24-0.03c0.04-0.34,0.19-0.64,0.36-0.92c0.03-0.06,0.06-0.1,0.1-0.16l0.03-0.04
								c0.53-0.89,0.99-1.83,1.39-2.79c0.07,0.04,0.15,0.08,0.23,0.11c-0.41,0.97-0.88,1.91-1.41,2.8l-0.02,0.05
								c-0.02,0.04-0.04,0.08-0.07,0.12C59.78,63.31,59.62,63.6,59.58,63.91z"/>
							<path class="st11" d="M58.97,62.99l-0.24,0.09l-0.05-0.13l-1.24-3.31c-0.09-0.24-0.17-0.49-0.27-0.73
								c0.09,0,0.17-0.01,0.27,0c0.08,0.2,0.15,0.41,0.22,0.61l1.27,3.37L58.97,62.99z"/>
							<path class="st11" d="M58.46,64.05c-0.18-0.18-0.36-0.36-0.55-0.52c-1.29-1.21-2.66-2.36-4.11-3.41
								c0.06-0.07,0.12-0.12,0.19-0.17c1.43,1.02,2.79,2.15,4.05,3.36c0.2,0.18,0.4,0.37,0.59,0.56L58.46,64.05z"/>
							<path class="st0" d="M59.05,62.88c-0.44,0.03-0.91,0.21-1.12,0.59c-0.15,0.27-0.15,0.61-0.06,0.9
								c0.1,0.29,0.28,0.55,0.49,0.78c0.47,0.51,1.09,0.9,1.76,1.1c0.32,0.1,0.66,0.15,0.99,0.08c0.33-0.07,0.63-0.28,0.75-0.6
								c0.14-0.37-0.02-0.78-0.19-1.14c-0.25-0.54-0.54-1.01-1.08-1.27C60.08,63.08,59.64,62.85,59.05,62.88z"/>
						</g>
						<g class="st7">
							<path class="st10" d="M85.86,47.95c0.04,0.07,0.07,0.16,0.1,0.24c0.15,0.35,0.24,0.74,0.28,1.13
								c0.1,1.09-0.21,2.18-0.64,3.18c-0.01,0.04-0.04,0.08-0.05,0.12c-0.02,0.05-0.03,0.09-0.06,0.12
								c-0.57,1.27-1.35,2.43-2.28,3.45c-0.05,0.07-0.11,0.14-0.16,0.19c-0.59,0.64-1.25,1.22-1.96,1.73
								c-0.36,0.25-0.71,0.48-1.1,0.68c-0.08,0.05-0.15,0.09-0.23,0.13c-0.49,0.24-0.98,0.43-1.52,0.52
								c-1.03,0.2-2.16,0.05-3.01-0.57c-0.3-0.23-0.56-0.49-0.75-0.78c-0.06-0.07-0.1-0.14-0.14-0.21c-0.53-0.88-0.71-2-0.65-3.06
								c0.01-0.07,0.01-0.15,0.02-0.22c0.01-0.09,0.01-0.17,0.03-0.26c0.19-1.39,0.77-2.48,1.5-3.62c0.04-0.07,0.1-0.14,0.14-0.22
								c0.15-0.23,0.3-0.46,0.46-0.7c0.37-0.56,0.79-1.01,1.26-1.39c0.06-0.05,0.12-0.11,0.2-0.16c0.82-0.61,1.78-1.04,2.81-1.4
								c0.09-0.02,0.17-0.05,0.25-0.07l0.01,0c0.07-0.02,0.14-0.05,0.22-0.08c1.28-0.42,2.74-0.78,3.94-0.16
								C85.13,46.83,85.57,47.35,85.86,47.95z"/>
							<path class="st11" d="M79.12,54.31c0.01,0.09,0.03,0.19,0.05,0.28c0.23,1.4,0.5,2.82,0.81,4.2
								c-0.08,0.05-0.15,0.09-0.23,0.13c-0.32-1.42-0.6-2.87-0.84-4.32c-0.02-0.08-0.04-0.16-0.05-0.25L79.12,54.31z"/>
							<path class="st11" d="M83.2,56.2c-0.05,0.07-0.11,0.14-0.16,0.19c-0.17-0.11-0.31-0.23-0.45-0.37l-2.25-2.1l-0.41-0.38
								l0.18-0.18l0.41,0.38l2.24,2.09C82.9,55.97,83.05,56.1,83.2,56.2z"/>
							<path class="st11" d="M85.6,52.51c-0.01,0.04-0.04,0.08-0.05,0.12c-0.02,0.05-0.03,0.09-0.06,0.12l-4.15-0.15l-0.43-0.02
								l0.01-0.25l0.51,0.02L85.6,52.51z"/>
							<path class="st11" d="M85.86,47.95c0.04,0.07,0.07,0.16,0.1,0.24c-1.48,1.04-3.02,2.02-4.58,2.93l-0.47,0.27l-0.12-0.22
								c0.15-0.09,0.28-0.17,0.43-0.26C82.8,50.02,84.36,49.02,85.86,47.95z"/>
							<path class="st11" d="M80.36,46.77l-0.11,1.35c-0.07,0.87-0.14,1.76-0.06,2.63c0,0.07,0,0.13,0.01,0.2l-0.24,0.03
								c-0.01-0.05-0.01-0.11-0.02-0.16c-0.09-0.91-0.02-1.83,0.05-2.72l0.1-1.24C80.2,46.83,80.27,46.8,80.36,46.77z"/>
							<path class="st11" d="M79.39,52.31l-0.22,0.11c-0.16-0.3-0.32-0.6-0.48-0.91c-0.56-1.02-1.08-2.06-1.59-3.1
								c0.06-0.05,0.12-0.11,0.2-0.16c0.51,1.03,1.03,2.07,1.59,3.09C79.05,51.66,79.22,51.98,79.39,52.31z"/>
							<path class="st11" d="M78.95,52.83l-0.06,0.23c-0.34-0.09-0.61-0.27-0.87-0.47c-0.05-0.04-0.09-0.08-0.15-0.11l-0.04-0.04
								c-0.82-0.64-1.69-1.21-2.59-1.73c0.04-0.07,0.1-0.14,0.14-0.22c0.91,0.52,1.78,1.11,2.6,1.74l0.05,0.03
								c0.04,0.03,0.07,0.05,0.11,0.08C78.39,52.56,78.65,52.75,78.95,52.83z"/>
							<path class="st11" d="M77.96,53.31l0.06,0.25l-0.14,0.04l-3.43,0.82c-0.25,0.06-0.5,0.11-0.75,0.17
								c0.01-0.09,0.01-0.17,0.03-0.26c0.21-0.05,0.42-0.09,0.63-0.15l3.5-0.84L77.96,53.31z"/>
							<path class="st11" d="M78.95,53.95c-0.2,0.16-0.4,0.32-0.59,0.48c-1.37,1.13-2.67,2.35-3.89,3.65
								c-0.06-0.07-0.1-0.14-0.14-0.21c1.19-1.29,2.48-2.5,3.84-3.6c0.2-0.17,0.42-0.35,0.63-0.51L78.95,53.95z"/>
							<path class="st0" d="M77.87,53.22c-0.03,0.44,0.09,0.93,0.45,1.19c0.25,0.18,0.58,0.23,0.88,0.17
								c0.3-0.06,0.58-0.21,0.83-0.39c0.57-0.41,1.03-0.97,1.31-1.61c0.14-0.3,0.23-0.64,0.2-0.97c-0.03-0.33-0.2-0.66-0.5-0.82
								c-0.35-0.18-0.78-0.08-1.15,0.05c-0.56,0.18-1.07,0.41-1.39,0.91C78.19,52.23,77.91,52.63,77.87,53.22z"/>
						</g>
					</g>
				</g>
			</g>
		</g>
		<g>
			<path class="st3" d="M64.28,13.76c-0.1,1.01-0.24,2.04-0.76,2.93c-1.09,1.86-3.48,2.54-5.58,3.31c-3.46,1.26-6.84,3.41-8.21,6.68
				c-2.23,5.35,1.45,12.15-1.99,16.89c-0.98,1.35-2.43,2.33-3.47,3.64c-1.71,2.14-2.17,5.15-1.14,7.66
				c0.93,2.27,2.94,4.04,3.74,6.35c0.61,1.75,0.46,3.72-0.4,5.37c-0.87,1.67-2.44,3.02-2.89,4.83c-0.42,1.7,0.33,3.6,1.82,4.61
				c-3.82-0.55-6.84-4.22-6.49-7.88c0.22-2.25,1.52-4.36,1.41-6.61c-0.15-3.02-2.72-5.35-4.1-8.08c-1.31-2.59-1.53-5.67-0.58-8.41
				c0.61-1.77,1.69-3.4,2-5.23c0.46-2.73-0.83-5.41-1.48-8.1c-1.09-4.47-0.37-9.43,2.46-13.14c1.05-1.39,2.37-2.58,3.46-3.94
				c1.81-2.26,2.97-4.95,4.73-7.24c1.95-2.54,4.75-4.61,7.99-5.24c2.7-0.53,6.93,0.12,8.85,2.28C65.6,6.62,64.53,11.21,64.28,13.76z
				"/>
			<path class="st3" d="M63.77,13.76c0.1,1.01,0.23,2.04,0.72,2.93c1.04,1.86,3.32,2.54,5.31,3.31c3.29,1.26,6.51,3.41,7.81,6.68
				c2.13,5.35-1.38,12.15,1.89,16.89c0.93,1.35,2.31,2.33,3.31,3.64c1.63,2.14,2.06,5.15,1.08,7.66c-0.89,2.27-2.79,4.04-3.56,6.35
				c-0.58,1.75-0.44,3.72,0.38,5.37c0.83,1.67,2.33,3.02,2.75,4.83c0.4,1.7-0.32,3.6-1.73,4.61c3.64-0.55,6.51-4.22,6.18-7.88
				c-0.21-2.25-1.45-4.36-1.34-6.61c0.14-3.02,2.59-5.35,3.9-8.08c1.25-2.59,1.45-5.67,0.55-8.41c-0.58-1.77-1.61-3.4-1.9-5.23
				c-0.44-2.73,0.79-5.41,1.41-8.1c1.04-4.47,0.35-9.43-2.34-13.14c-1-1.39-2.25-2.58-3.29-3.94c-1.72-2.26-2.82-4.95-4.5-7.24
				c-1.86-2.54-4.52-4.61-7.6-5.24c-2.57-0.53-6.6,0.12-8.42,2.28C62.52,6.62,63.53,11.21,63.77,13.76z"/>
		</g>
	</g>
	<g>
		<path class="st1" d="M94.69,162.54l2.72,25.53c0,0,17.14-0.06,19.23-12.77c1.66-10.09,0.38-16.66,0.38-16.66L94.69,162.54z"/>
		<g>
			<path class="st1" d="M94.88,162.67l-55.34,15.96l1.28,9.7c0,0,48.26,1.45,58.77-0.47c10.68-1.95,11.45-10.17,11.45-10.17
				l-2.55-8.68l-4.6-6.3L94.88,162.67z"/>
			<g>
				<path class="st1" d="M39.54,178.63c0,0-14.81,3.15-18.21,1.79c-3.4-1.36-10.55,2.89-12.43,4.26
					c-1.87,1.36-8.85,14.47-7.66,15.83c1.19,1.36,8.17-11.06,10.21-11.23c2.04-0.17,5.62,2.72,12.94,2.38
					c7.32-0.34,16.43-3.32,16.43-3.32L39.54,178.63z"/>
				<path class="st1" d="M8.69,185.02c-1.09,1.82-6.15,10.35-7.7,14.51c-0.27,0.73,0.26,1.52,1.04,1.54
					c2.85,0.1,8.94,0.21,10.1-0.57c1.53-1.02,4.26-8.17,9.19-8.85c3.82-0.53,7.43-1.66,8.87-2.15c0.39-0.13,0.62-0.52,0.56-0.92
					l-0.55-3.98c-0.02-0.17-0.1-0.33-0.22-0.46l-1.56-1.69c-0.19-0.2-0.46-0.3-0.74-0.27l-18.39,2.44
					C9.05,184.65,8.83,184.8,8.69,185.02z"/>
				<path class="st12" d="M9.41,201.01c0,0,3.4-8.26,6.38-10.64c2.98-2.38,2.98-2.38,2.98-2.38"/>
				<path class="st12" d="M5.75,200.93c0,0,2.64-7.74,5.79-10.98c3.15-3.23,4.34-3.74,4.34-3.74"/>
				<path class="st12" d="M2.6,200.93c0,0,2.21-7.57,5.62-11.74c3.4-4.17,4.43-4.68,4.43-4.68"/>
			</g>
		</g>
	</g>
	<g>
		<g>
			<line class="st13" x1="31.03" y1="124.93" x2="29.16" y2="157.78"/>
			<line class="st13" x1="33.07" y1="129.01" x2="29.5" y2="154.2"/>
		</g>
		<g>
			<g>
				<line class="st14" x1="92.66" y1="129.86" x2="94.9" y2="162.67"/>
				<line class="st14" x1="90.6" y1="131.93" x2="94.2" y2="152.74"/>
				<line class="st14" x1="94.71" y1="159.96" x2="121.24" y2="154.46"/>
			</g>
			<g>
				<g>
					<path class="st13" d="M42.4,138.42c-0.36,9.72,0.75,19.49,3.28,28.88"/>
					<path class="st13" d="M42.39,139.05c0,0-3.23-17.53,0.85-17.36C47.33,121.86,42.39,139.05,42.39,139.05z"/>
					<path class="st13" d="M42.56,148.16c0,0,2.64-15.83,5.79-14.38C51.5,135.23,42.56,148.16,42.56,148.16z"/>
					<path class="st13" d="M42.51,148.15c0,0-9.34-13.05-6.1-14.26C39.66,132.69,42.51,148.15,42.51,148.15z"/>
					<path class="st13" d="M43.75,158.97c0,0,1.87-12.6,4.17-12.43S43.75,158.97,43.75,158.97z"/>
					<path class="st13" d="M43.94,159.11c0,0-8.52-9.47-6.92-11.13C38.61,146.32,43.94,159.11,43.94,159.11z"/>
				</g>
				<g>
					<path class="st13" d="M61.71,158.63c-0.09-0.26-0.77-13.79-1.7-19.83"/>
					<path class="st13" d="M60.52,142.12c0,0-6.47-12.17-2.47-13.62C62.05,127.05,60.52,142.12,60.52,142.12z"/>
					<path class="st13" d="M61.37,152.42c0,0,2.81-7.19,5.4-10.68"/>
					<path class="st13" d="M64.94,144.5c0,0,3.83-12.34,6.81-10.64C74.73,135.57,64.94,144.5,64.94,144.5z"/>
					<path class="st15" d="M61.31,153.86c0,0-4.21-4.36-5.97-7.52"/>
					<path class="st15" d="M56.81,148.68c0,0-8.03-7.13-5.72-8.8C53.4,138.21,56.81,148.68,56.81,148.68z"/>
				</g>
				<g>
					<path class="st13" d="M71.01,162.93c0,0,7.6-16.72,8.81-27.38"/>
					<path class="st13" d="M79.63,136.57c0,0-1.6-11.87,0.38-11.43S79.63,136.57,79.63,136.57z"/>
					<path class="st13" d="M77.46,145.82c0,0,3.45-4.47,4.79-6.64"/>
					<path class="st13" d="M81.73,140.01c0,0,2.62-9.38,4.66-9C88.43,131.4,81.73,140.01,81.73,140.01z"/>
					<path class="st13" d="M75.03,153.01c0,0-3.06-11.87-1.36-13.36C75.37,138.16,75.03,153.01,75.03,153.01z"/>
					<path class="st13" d="M73.63,156.63c0,0,10.09-10.17,10.38-8.43C84.31,149.95,73.63,156.63,73.63,156.63z"/>
				</g>
			</g>
		</g>
	</g>
	<g>
		<path class="st1" d="M8.79,101.12c0,0-2.95,51.55-2.96,60.21c-0.01,8.66,7.37,21.07,17.23,20.46c9.86-0.61,14.1-9.36,12.41-24.28
			c-1.69-14.92-17.21-57.01-17.21-57.01L8.79,101.12z"/>
		<g>
			<path class="st1" d="M8.71,101.34c0,0,0.17-0.62-0.58-1.66c-0.75-1.04-7.17-9.03-7.46-12.48c-0.29-3.45-1.48-5.67,0.24-8.51
				c1.72-2.84,4.23-6.05,5.34-6.57c1.11-0.52,3.25,1.19,3.25,1.19S8.75,58.68,9.02,57.28c0.27-1.4,0.55-3.03,2.27-2.98
				c1.72,0.05,2.1,2.95,2.35,5.46c0.24,2.51,1.27,15.66,1.27,15.66s3.74-18.88,5.15-19.07c1.41-0.19,2.9-0.15,2.75,2.11
				c-0.14,2.26-3.51,19.2-3.51,19.2s1.58,2.31,1.57,5.2c0,2.89-0.08,11.17-0.59,12.41c-0.5,1.24-2.11,5.41-2.11,5.41L8.71,101.34z"
				/>
			<path class="st13" d="M2.35,80.84c0,0,5.53,6.98,6.89,6.89s6.21-5.02,4.77-7.23c-1.45-2.21-4.42-7.36-4.42-7.36"/>
			<line class="st13" x1="4.05" y1="74.46" x2="12.31" y2="85.18"/>
			<path class="st1" d="M17.28,87.99c0,0-9.83-9.06-7.28-12.38c2.55-3.32,10.34,4.21,10.34,4.21l0.38,6.64L17.28,87.99z"/>
			<path class="st13" d="M19.71,78.97c0,0-8.26-5.66-9.62-3.53c-1.36,2.13-0.43,6.09,6.98,11.28"/>
			<path class="st13" d="M14.53,84.77c-2.24,2.07-3.87,4.78-4.66,7.73"/>
		</g>
	</g>
</g>
</svg>
