<?xml version="1.0" encoding="utf-8"?>
<!-- Generator: Adobe Illustrator 23.0.6, SVG Export Plug-In . SVG Version: 6.00 Build 0)  -->
<svg version="1.1" id="Layer_1" xmlns="http://www.w3.org/2000/svg" xmlns:xlink="http://www.w3.org/1999/xlink" x="0px" y="0px"
	 viewBox="0 0 2000 2000" style="enable-background:new 0 0 2000 2000;" xml:space="preserve">
<style type="text/css">
	.st0{fill:#F7CC7F;}
	.st1{fill:#96D9C9;}
	.st2{fill:#3C8F7C;}
	.st3{fill:#50BFA5;}
	.st4{fill:#184655;}
	.st5{fill:#86B1F2;}
	.st6{fill:#FAE0B2;}
	.st7{fill:#100062;}
	.st8{fill:#FF4C16;}
	.st9{fill:#F47458;}
	.st10{fill:#FF3B3B;}
	.st11{fill:#13375B;}
	.st12{fill:#355389;}
	.st13{fill:#9BC1F9;}
	.st14{fill:#F48C7F;}
	.st15{fill:#466EB6;}
	.st16{fill:#F7A491;}
	.st17{fill:#C98C53;}
	.st18{fill:#E8B16B;}
	.st19{fill:#FFFFFF;}
</style>
<g>
	<g>
		<polygon class="st0" points="679.73,1198.75 661.06,1202.27 656.27,1221.05 635.06,1223.51 636.14,1245.08 612.28,1248.93 
			610.82,1268.91 588.46,1276.36 585.64,1267.9 602.36,1262.33 603.9,1241.24 626.83,1237.55 625.74,1215.61 649.15,1212.9 
			653.82,1194.56 671.12,1191.3 671.67,1178.61 680.58,1179 		"/>
		<g>
			<path class="st1" d="M1193.95,1076.66l21.48-20.79c-6.72-37.59-41.98-55.68-65.2-58.14c-62.53-6.64-94.4,36.35-107.82,105.3
				c-24.48,125.85,6.34,654.29,6.34,654.29c2.31-14.03,172.13-544.71,167.78-690.51L1193.95,1076.66z"/>
			<path class="st2" d="M395.44,1534.53l-2.31,17.1l-5.53-19.78c-15.56-4.9-29.07-6.58-39.78-4.15
				c-95.7,21.75,69.67,153.36,69.67,153.36s-52.7-33.09-103.75-54.04l-0.65,17.34l-6.53-19.59c-39.66-15.53-76.46-22.7-83.81-0.28
				c-6.92,21.1,7.01,41.08,30.98,58.87l27.55,0.97l-16.24,6.81c55.36,35.46,146.93,60.82,178.54,66.59
				c-30.24-4.75-104.16-14.37-147.97-4.91l6.87,11.44l-17.3-8.65c-15.33,4.95-24.86,13.13-23.83,26.03
				c1.96,24.65,108.93,33.53,108.93,33.53l390.77-3.63l2.18,1.09C763.24,1812.63,521.42,1580.68,395.44,1534.53z"/>
			<path class="st3" d="M1752.45,1754.57c-8.69-40.35-96.92-52.21-209.38-30.09c40.04-13.68,95.06-44.83,123.55-59.06l-19.49-12.4
				l39.14,1.82c32.01-18.74,48.02-37.15,37.56-53.8c-7.81-12.44-24.95-17.61-48.17-17.55l-12.23,21.89l2.54-21.58
				c-58.58,3.38-71.87-6.18-150.9,25.76c49.38-25.64,56.52-33.59,59.76-43.88l-26.75-11.7h31.34
				c25.34-27.25,65.53-81.17,48.86-106.02c-13.76-20.51-74.15,7.96-112.7,22.75l-16.39,36.89l3.32-31.52
				c-122.57,53.39-81.02,10.55-81.02,10.55s127.94-264.67,52.57-258.72c-29.76,2.35-61.75,20.28-93.18,49.02l-0.8,26.31l-9.35-16.69
				c-22.89,22.44-45.56,49.61-67.19,78.78c29.34-61.61,51.59-122.14,53.8-167.19l-22.39-2.71l22.1-15.37
				c-2.08-22.77-11.1-39.98-29.37-49.09c-28.02-13.96-57.43,7.16-86.39,49.14l7.15,37.89l-17.96-21.23
				C1126.8,1365.71,1032,1781.73,1032,1781.73l-7.52,22.56l304.6,15.04C1329.08,1819.33,1770,1836.06,1752.45,1754.57z"/>
			<g>
				<path class="st4" d="M1790.19,1821.33H209.81c-2.63,0-4.76-2.26-4.76-5.05s2.13-5.05,4.76-5.05h1580.38
					c2.63,0,4.76,2.26,4.76,5.05C1794.94,1819.07,1792.82,1821.33,1790.19,1821.33z"/>
			</g>
			<path class="st5" d="M1304.5,1642.09H590.1c-27.29,0-49.41-20.07-49.41-44.83v-26.65c0-24.76,22.12-44.83,49.41-44.83h714.4l0,0
				c-32.68,32.41-33.24,81.93-1.31,114.95L1304.5,1642.09z"/>
			<path class="st6" d="M1294.5,1539.11H935c-24.76,0-44.83,20.07-44.83,44.83l0,0c0,24.76,20.07,44.83,44.83,44.83h359.53
				C1277.73,1601.27,1277.76,1566.54,1294.5,1539.11z"/>
			<g>
				<path class="st7" d="M1365.44,1398.65c1.57-2.69-0.81-5.8-4.43-5.8H698.97c-44.59,0-80.74,29.83-80.74,66.63l0,0
					c0,36.8,36.15,66.63,80.74,66.63h662.2c3.63,0,6.02-3.13,4.44-5.83l0,0C1343.08,1481.76,1343.13,1436.99,1365.44,1398.65z"/>
				<path class="st6" d="M1360.91,1407.19H886.07c-28.2,0-51.06,22.86-51.06,51.06v3.83c0,28.2,22.86,51.06,51.06,51.06h475.65
					C1344.62,1479.18,1344.43,1441.12,1360.91,1407.19z"/>
			</g>
			<g>
				<path class="st8" d="M1027.24,1460.58h-39.29c-8.45,0-15.3,2.62-15.3,5.85v0.52h54.59V1460.58z"/>
				<path class="st9" d="M1060.76,1475.25c0-8.11-10.26-14.68-22.92-14.68h-50.42c9.6,0,17.38,4.98,17.38,11.13l-0.24,157.34
					l27.86-20.23l28.4,20.23L1060.76,1475.25z"/>
			</g>
			<g>
				<path class="st10" d="M1598.24,1641.85H536.72c-32.96,0-59.69,26.72-59.69,59.69v50.2c0,32.96,26.72,59.69,59.69,59.69h1061.52
					l-0.56-0.58C1552.27,1763.58,1552.52,1688.82,1598.24,1641.85z"/>
				<path class="st6" d="M1579.45,1666.96h-567.47c-32.96,0-59.69,26.72-59.69,59.69l0,0c0,32.96,26.72,59.69,59.69,59.69h567.46
					C1558.57,1749.37,1558.61,1703.89,1579.45,1666.96z"/>
			</g>
			<g>
				<path class="st11" d="M1300.82,1726.95h-46.02c-9.9,0-17.92,8.02-17.92,17.92v1.6h63.94L1300.82,1726.95L1300.82,1726.95z"/>
				<path class="st12" d="M1256.68,1727.02c11-0.01,27.43,9.3,36.69,20.79l109.15,135.37l64.11-0.04l-103.81-128.75
					c-12.22-15.15-33.87-27.42-48.38-27.41L1256.68,1727.02z"/>
			</g>
			<g>
				<path class="st0" d="M652.05,276c-22.63,15.64-14.7,51.3,12.52,56.06c4.89,0.86,9.26,3.55,12.4,7.39l10.8,13.23
					c2.98,3.65,8.25,4.39,12.12,1.72l8.57-5.93c3.87-2.67,5.04-7.88,2.68-11.95c-8.6-14.86-12.85-19.72-11.08-28.99
					C705.23,280.39,674.69,260.35,652.05,276z"/>
				<g>
					<path class="st6" d="M691.84,343.87c-0.01,0-0.02,0.01-0.02,0.01c-1.15,0.78-2.71,0.48-3.48-0.67l-20.47-30.34l-10.82-2.81
						c-1.34-0.35-2.14-1.71-1.79-3.05c0.35-1.34,1.71-2.14,3.05-1.8l12.66,3.28l21.53,31.91
						C693.26,341.55,692.97,343.09,691.84,343.87z"/>
				</g>
				<g>
					<path class="st6" d="M703.01,338.01c0.01-0.01,0.02-0.01,0.02-0.02c1.13-0.8,1.4-2.36,0.6-3.49l-21.14-29.88l1.2-11.12
						c0.15-1.37-0.85-2.61-2.22-2.76c-1.37-0.15-2.61,0.85-2.76,2.22l-1.4,13l22.24,31.43
						C700.34,338.52,701.89,338.79,703.01,338.01z"/>
				</g>
				<path class="st1" d="M676.69,339.13c0.09,0.11,0.19,0.21,0.28,0.32l10.8,13.23c2.98,3.65,8.25,4.39,12.12,1.72l8.57-5.93
					c3.87-2.67,5.04-7.88,2.68-11.95c-3.83-6.61-6.79-11.24-8.75-15.16L676.69,339.13z"/>
			</g>
			<path class="st9" d="M1559.74,952.41l-10.78-15.59l-18.95,0.04c-2.16,0.01-3.39-2.47-2.08-4.18l11.49-15.07l-5.9-18.01
				c-0.67-2.05,1.3-3.98,3.34-3.27l17.88,6.27l15.31-11.17c1.74-1.27,4.19,0.01,4.14,2.16l-0.44,18.94l15.36,11.1
				c1.75,1.26,1.29,3.99-0.78,4.6l-18.15,5.43l-5.82,18.03C1563.7,953.78,1560.97,954.18,1559.74,952.41z"/>
			<path class="st9" d="M402.63,1009.47l-18.37,4.64l-6.6,17.76c-0.75,2.02-3.5,2.31-4.65,0.48l-10.09-16.04l-18.93-0.78
				c-2.16-0.09-3.28-2.61-1.89-4.27l12.14-14.55l-5.1-18.25c-0.58-2.08,1.47-3.92,3.48-3.12l17.59,7.05l15.78-10.49
				c1.8-1.2,4.18,0.19,4.04,2.34l-1.27,18.91l14.86,11.76C405.3,1006.24,404.72,1008.94,402.63,1009.47z"/>
			<path class="st13" d="M1505.03,1082.9l-7.92-11.45l-13.92,0.03c-1.59,0-2.49-1.81-1.53-3.07l8.44-11.07l-4.33-13.23
				c-0.49-1.51,0.96-2.93,2.45-2.4l13.14,4.61l11.24-8.21c1.28-0.93,3.08,0,3.04,1.59l-0.33,13.92l11.28,8.16
				c1.28,0.93,0.95,2.93-0.57,3.38l-13.34,3.99l-4.27,13.25C1507.94,1083.91,1505.94,1084.21,1505.03,1082.9z"/>
			<path class="st0" d="M1568.56,711.41l-12.1-6.87l-12.53,6.07c-1.43,0.69-3.03-0.55-2.71-2.11l2.8-13.64l-9.65-10.04
				c-1.1-1.14-0.41-3.05,1.17-3.23l13.83-1.55l6.56-12.28c0.75-1.4,2.77-1.33,3.43,0.11l5.75,12.68l13.7,2.45
				c1.56,0.28,2.12,2.23,0.95,3.3l-10.28,9.39l1.91,13.79C1571.62,711.06,1569.94,712.2,1568.56,711.41z"/>
			<path class="st13" d="M664.74,526.99l-12.35-6.43l-12.3,6.52c-1.4,0.74-3.04-0.44-2.78-2.01l2.3-13.73l-10-9.68
				c-1.14-1.1-0.52-3.03,1.05-3.27l13.77-2.05l6.11-12.51c0.7-1.42,2.72-1.43,3.43-0.01l6.21,12.46l13.78,1.95
				c1.57,0.22,2.2,2.15,1.07,3.26l-9.93,9.75l2.41,13.71C667.78,526.52,666.14,527.72,664.74,526.99z"/>
			<path class="st13" d="M863.23,297.68l-12.35-6.43l-12.3,6.52c-1.4,0.74-3.04-0.44-2.78-2.01l2.3-13.73l-10-9.68
				c-1.14-1.1-0.52-3.03,1.05-3.27l13.77-2.05l6.11-12.51c0.7-1.42,2.72-1.43,3.43-0.01l6.21,12.46l13.78,1.95
				c1.57,0.22,2.2,2.15,1.07,3.26l-9.93,9.75l2.41,13.71C866.27,297.22,864.64,298.42,863.23,297.68z"/>
			<path class="st13" d="M349.05,791.55l-12.35-6.43l-12.3,6.52c-1.4,0.74-3.04-0.44-2.78-2.01l2.3-13.73l-10-9.68
				c-1.14-1.1-0.52-3.03,1.05-3.27l13.77-2.05l6.11-12.51c0.7-1.42,2.72-1.43,3.43-0.01l6.21,12.46l13.78,1.95
				c1.57,0.22,2.2,2.15,1.07,3.26l-9.93,9.75l2.41,13.71C352.09,791.09,350.45,792.29,349.05,791.55z"/>
			<path class="st13" d="M1213.17,594.49l-7.92-11.45l-13.92,0.03c-1.59,0-2.49-1.81-1.53-3.07l8.44-11.07l-4.33-13.23
				c-0.49-1.51,0.96-2.93,2.45-2.4l13.14,4.61l11.24-8.21c1.28-0.93,3.08,0,3.04,1.59l-0.33,13.92l11.28,8.16
				c1.28,0.93,0.95,2.93-0.57,3.38l-13.34,3.99l-4.27,13.25C1216.08,595.5,1214.07,595.8,1213.17,594.49z"/>
			<path class="st13" d="M1479.78,599.49l-7.92-11.45l-13.92,0.03c-1.59,0-2.49-1.81-1.53-3.07l8.44-11.07l-4.33-13.23
				c-0.49-1.51,0.96-2.93,2.45-2.4l13.14,4.61l11.24-8.21c1.28-0.93,3.08,0,3.04,1.59l-0.33,13.92l11.28,8.16
				c1.28,0.93,0.95,2.93-0.57,3.38l-13.34,3.99l-4.27,13.25C1482.69,600.5,1480.68,600.8,1479.78,599.49z"/>
			<polygon class="st14" points="1305.65,838.42 1288.14,835.47 1277.89,850.39 1258.5,845.7 1252.48,864.96 1230.32,860.62 
				1222.59,877.67 1200.59,876.98 1200.85,868.66 1217.3,869.17 1225.46,851.18 1246.76,855.35 1252.88,835.77 1274.27,840.94 
				1284.29,826.38 1300.51,829.11 1305.09,818.17 1312.77,821.38 			"/>
			<polygon class="st15" points="1207.49,273.28 1202.14,290.2 1215.48,302.43 1208.13,320.98 1226.36,329.62 1218.98,350.96 
				1234.78,360.99 1231.04,382.68 1222.83,381.27 1225.63,365.05 1208.96,354.47 1216.05,333.95 1197.52,325.16 1205.62,304.7 
				1192.59,292.75 1197.55,277.07 1187.36,271.01 1191.61,263.85 			"/>
			<polygon class="st3" points="758.49,957.36 745.68,961.29 737.07,941.37 717.62,944.81 708.74,930.95 701.73,935.45 
				713.6,953.98 732.03,950.72 740.99,971.45 760.27,965.53 			"/>
			<path class="st14" d="M465.57,1124.07l-19.18,11.67l19.9,89.39c1.72,7.72,10.52,11.47,17.28,7.36l0,0
				c4.26-2.59,6.37-7.62,5.25-12.48l-4.86-20.99l20.13-12.25l16.64,13.93c3.79,3.18,9.19,3.58,13.42,1.01l0.36-0.22
				c6.77-4.12,7.48-13.66,1.4-18.74L465.57,1124.07z M478.55,1177.93l-3.68-16.42l12.92,10.8L478.55,1177.93z"/>
			<path class="st14" d="M1410.6,330.41l-22.29-2.68l-39.61,82.57c-3.42,7.13,1.18,15.52,9.04,16.46l0,0
				c4.95,0.6,9.72-2.05,11.84-6.56l9.15-19.5l23.39,2.81l4.48,21.24c1.02,4.84,5.01,8.5,9.92,9.09l0.42,0.05
				c7.86,0.95,14.32-6.12,12.68-13.87L1410.6,330.41z M1387.52,380.76l7.26-15.18l3.48,16.47L1387.52,380.76z"/>
			<path class="st15" d="M535.93,840.86c0.93-2.55,0.38-11.61,12.78-20.61c5.1-3.66,9.28-6.77,10.33-10.94
				c1.82-7.18-5.77-10.44-13.25-10.24c-3.87,0.11-7.1-2.93-7.31-6.79l0,0c-0.21-3.93,2.76-7.29,6.69-7.57
				c4.29-0.31,9.35,0,14.69,1.35c16.16,4.1,21.25,14.9,18.67,25.06c-2.36,9.31-9.67,13.97-15.62,17.93
				c-10.03,6.69-9.86,13.89-10.68,15.93L535.93,840.86z M528.47,856.95c1.65-6.49,7.36-9.99,13.72-8.38
				c6.61,1.68,9.72,7.42,8.2,13.94c-1.61,6.37-7.23,10.03-13.85,8.35C530.05,869.21,526.85,863.32,528.47,856.95z"/>
			<path class="st1" d="M607.95,1015.05c4.92,0.4,14.54,2.39,23.38,4.92c10.82,3.09,17.15,6.03,21.88,11.03
				c4.63,4.47,7.06,10.95,5.03,18.04c-1.99,6.98-7.93,12.33-17.7,13.06l-0.07,0.23c8.26,5,12.96,13.64,10.07,23.76
				c-2.03,7.09-6.88,11.75-12.89,14.3c-6.99,2.91-17.26,2.74-32.85-1.71c-8.72-2.49-15.07-4.94-18.86-6.65L607.95,1015.05z
				 M616.94,1050.08l5.82,1.66c9.3,2.66,15.4,0.25,17.06-5.56c1.7-5.93-1.94-10.37-9.97-12.66c-3.84-1.1-6.11-1.5-7.69-1.7
				L616.94,1050.08z M607,1084.85c1.68,0.73,3.77,1.33,6.8,2.19c8.02,2.29,15.98,1.3,18.34-6.96c2.26-7.91-3.94-13.08-12.78-15.6
				l-6.05-1.73L607,1084.85z"/>
			<path class="st9" d="M455.84,440.54c4.14-2.68,12.99-6.96,21.54-10.34c10.46-4.14,17.27-5.66,24.07-4.58
				c6.4,0.72,12.27,4.38,14.98,11.24c2.67,6.75,1.22,14.6-6.08,21.13l0.09,0.22c9.6-1.06,18.59,2.93,22.46,12.71
				c2.71,6.86,1.7,13.51-1.51,19.2c-3.78,6.57-12.02,12.69-27.09,18.65c-8.44,3.34-14.96,5.26-19,6.22L455.84,440.54z M484.3,462.84
				l5.62-2.22c9-3.56,12.37-9.18,10.14-14.81c-2.27-5.74-7.86-7.04-15.62-3.97c-3.71,1.47-5.76,2.54-7.13,3.34L484.3,462.84z
				 M497.6,496.48c1.78-0.44,3.8-1.24,6.73-2.4c7.76-3.07,13.47-8.71,10.31-16.69c-3.02-7.65-11.09-7.97-19.64-4.59l-5.85,2.31
				L497.6,496.48z"/>
			<path class="st0" d="M1366.99,1048.96c1,4.36-1.67,8.75-6.03,9.8c-4.06,0.98-9.22,1.74-15.16,1.94
				c-30.89,1.04-47.45-17.65-48.31-43.1c-1.03-30.5,20.14-48.2,47.19-49.11c5.37-0.18,10.09,0.22,13.91,0.88
				c4.6,0.8,7.58,5.29,6.58,9.85l-0.06,0.28c-0.94,4.27-5.08,7.09-9.39,6.32c-2.83-0.5-6.02-0.79-9.55-0.67
				c-16.04,0.54-28.18,10.64-27.51,30.53c0.6,17.9,11.59,28.81,29.62,28.2c3-0.1,6.15-0.53,9.04-1.14
				C1361.7,1041.82,1366,1044.61,1366.99,1048.96L1366.99,1048.96z"/>
			<path class="st0" d="M416.36,686.37c-0.67,4.42-4.77,7.52-9.2,6.9c-4.14-0.58-9.22-1.76-14.81-3.75
				c-29.12-10.36-37.68-33.82-29.14-57.81c10.22-28.75,36.41-37.46,61.91-28.39c5.06,1.8,9.31,3.9,12.62,5.92
				c3.98,2.43,5.11,7.7,2.51,11.58l-0.16,0.24c-2.44,3.63-7.32,4.74-11.05,2.44c-2.45-1.51-5.31-2.94-8.64-4.12
				c-15.12-5.38-30.12-0.43-36.79,18.32c-6,16.87,0.22,31.06,17.22,37.1c2.83,1.01,5.92,1.76,8.83,2.25
				C414.06,677.79,417.03,681.95,416.36,686.37L416.36,686.37z"/>
			<path class="st15" d="M1366.11,751.82c-1.93-6.47,1.91-13.53,8.39-15.43c6.75-1.97,12.71,1.51,15.02,8.24
				c2.18,6.77-0.74,13.32-7.78,15.59C1374.6,762.51,1368.19,758.8,1366.11,751.82z M1364.59,732.38L1345.5,682
				c-1.58-4.17,0.65-8.81,4.9-10.17l5.13-1.65c4.24-1.36,8.75,1.09,9.91,5.39l14,52.03L1364.59,732.38z"/>
			<g>
				<g>
					<g>
						<path class="st16" d="M929.49,813.34c1.15,0.48-15.19,21.54-31.11,36.43c-12.83,16.11-24.87,35.17-29.02,55.96
							c-6.3,31.61-1.06,187.76-6.54,198.87c-47.1,46.04-81.2,161.6-90.78,196.86c-1.86,6.87-5.65,13.06-10.89,17.88l0,0l2.09,39.84
							l23.4,21.56c0,0-5.21-32.46,5.2-56.55c0,0,118.58-179.58,125.62-193.31c13.45-39.09,62.42-239.38,62.42-239.38l11.37-46.04
							C991.27,845.47,929.59,813.38,929.49,813.34z"/>
						<path class="st10" d="M735.53,1332.16c0,0,14.81,22.82,16.07,31.72c1.27,8.89,9.16,29.07,17.88,30.35
							c1.98,0.29,35.92,2.78,35.67-1.46c-0.19-3.24-12.47-7.87-18.18-11.81c-9.86-6.81-25.16-62.26-25.16-62.26
							S736.17,1325.05,735.53,1332.16z"/>
					</g>
					<path class="st16" d="M1030.85,882.55c0,0,76.38,163.31,76.86,192.02c0.42,24.61-13.35,162.7-9.51,277.69
						c0.14,4.15,5.4,9.67,13.05,13.18c4.31,1.97,25.11,11.26,25.11,11.26l2.86,7.44l-71.63-5.1l-1.02-19.56
						c0,0-28.51-172.02-25.6-220.67c0.46-7.64,4.17-53.4,4.17-53.4L959,919.11l54.18-71.19L1030.85,882.55z"/>
					<g>
						<g>
							<path class="st0" d="M783.4,521.73c-0.57-18.31,6.76-47.48,29.04-74.46l2.54,2.1c-21.7,26.27-28.84,54.55-28.29,72.25
								L783.4,521.73z"/>
						</g>
						<path class="st0" d="M784.28,517.42c6.4,0.52,3.17,7.52,2.45,9.15c3.67,4.95,1.47,28.06,0.37,29.71
							c-3.12,1.65-3.06-3.3-3.06-3.3c-1.53,5.68-3.73,0-4.28,0.73c-2.02,4.03-3.67-1.77-3.67-1.77c-3.67,5.98-3.12-0.99-3.12-0.99
							c1.83-20.72,7.88-26.04,7.88-26.04c-1.07-4.83-0.28-7.05,2.94-7.49C783.95,517.41,784.12,517.41,784.28,517.42z"/>
					</g>
					<path class="st7" d="M891.94,545.2c-19.07,12.23-80.82,21.9-80.82,21.9c24.21-77.75-6.03-120.3-6.03-120.3
						c54.88-1.41,110.85-19.81,145.4-38.14c-15.4,82.66,3.62,95.36,3.62,95.36C921.14,526.02,891.94,545.2,891.94,545.2z"/>
					<path class="st10" d="M1038.01,516c-11.57-30.83-41.81-49.5-73.29-43.73c-9.66-15.6-25.77-27.17-43.29-30.93
						c-34.57-7.41-81.32,6.25-80.06,42.85c-13.41,24.59-13.92,59.74,6.59,78.45c-7.14,33.06,23.83,65.03,64.09,63.87
						c14.02,23.12,40.73,37.99,67.29,34.81c6.37-0.76,16.1-2.35,17.71-1.95c-2.02-0.38,42.67,33.89,80.53-18.8
						C1116.22,586.82,1089.07,521.74,1038.01,516z"/>
					<path class="st16" d="M1033.44,331.07c1.86-4.42,4.17-8.64,6.88-12.6l2.98-4.35c0.36-0.77,0.65-1.42,0.8-1.86
						c1.3-3.85-5.22-28.29-5.22-28.29l-20.6,18.35l1.1,9.55c-5.82-2.69-10.83-24.46-13.09-18.83c-7.03,17.44-2.58,23.7,0.02,43.63
						c0.89,6.79-13.88,111.22-18.26,131.97s-33.94,78.68-33.94,78.68l23.65,30.01c0,0,46.74-84.02,49.59-110.98
						c0.3-2.84,0.64-7.08,1-12.34L1033.44,331.07z"/>
					<path class="st7" d="M996.33,491.18c-11.94-3.84-10.27-24.21-10.27-24.21c8.62-62.72,16.87-119.38,16.87-119.38
						c7.7-4.4,34.38,3.85,34.38,3.85c-4.68,76.47-6.51,118.9-8.34,123.96C1027.14,480.48,1016.48,497.66,996.33,491.18z"/>
					<path class="st16" d="M853.33,658.26l-32.11-27.22c0,0-26,43.35-46.83,78.7c-20.66-7.47-74.04-42.27-76.68-43.87
						s-8.49-40.94-13.01-38.85s3.47,20.76-2.01,22.15c-5.49,1.4-46.59-26.07-47.43-22.4c-1.58,6.86,24.54,17.8,23.22,20.86
						s-26.26-14.02-30.23-9.75s25.05,13.9,25.21,16.68c0.15,2.79-28.45-5.29-27.7,0.71c0.41,3.26,25.6,6.54,24.01,10.01
						c-1.59,3.46-21.21,4.04-20.39,7.74c0.82,3.71,16.38-2.77,25.88,1.4c9.5,4.16,18.41,2.11,31.67,13.29
						c13.25,11.16,78.37,74.92,98.66,69.45C803.31,752.37,853.33,658.26,853.33,658.26z"/>
					<g>
						<path class="st9" d="M855.78,1078.72c0.01,0.03,0.02,0.03,0.03-0.01C855.8,1078.72,855.78,1078.72,855.78,1078.72z"/>
						<path class="st7" d="M966.78,611.61c2.05-12.56,24.49-31.31,62.19-136.2c0,0-24.62-10.6-42.91-8.44
							c0,0-61.87,113.38-75.84,114.76c-13.97,1.37-63.12,3.5-71.73,8.73c-8.62,5.23-67.38,117.98-67.38,117.98
							s2.08,59.52,12.13,54.92c20.91-9.57,63.16-91.9,65.96-94.93c1.99,6.43,32.6,105.58,32.55,128.04l0.24,0.19
							c28.61,23.21,70.35,17.84,92.42-11.87l0,0c0,0-5.02-30.64,1.14-58.51C985.92,679.31,999.19,665.55,966.78,611.61z"/>
						<path class="st7" d="M1131.88,1097.04c0,0-30.63-139.54-48.1-200.02c-17.47-60.48-99.26-247.23-99.26-247.23
							c-20.68-32.08-135.36,18.03-135.32,18.64c7.24,109.21-0.2,181.18-5.08,235.36c-5.54,61.5-40.84,196.63-38.97,203.64
							C904.82,1095.31,1103.6,1126.72,1131.88,1097.04z"/>
					</g>
					<g>
						<path class="st9" d="M1033.06,314.84c0,0-2.66,7.42-9.86,4.88c-7.79-2.75-12.44-6.47-12.44-6.47s3.97,9.08,10.95,11.58
							C1035.37,329.73,1033.06,314.84,1033.06,314.84z"/>
						<g>
							<g>
								<path class="st17" d="M1018.42,215.07c3.11,44.67,17.47,107.09,41.79,163.57c3.3,11.16-27.25,20.19-30.55,9.03
									c-3.93-41.67-20.69-113.47-45.89-163.54C980.04,209.84,1014.68,200.78,1018.42,215.07z"/>
								<path class="st18" d="M1046.19,369.29c-4.42-28.51-26.38-124.28-34.81-160.71c-11.08-3.16-30.44,4.67-27.59,15.54
									c25.19,50.07,41.96,121.87,45.89,163.54C1031.06,375.89,1038.49,370.67,1046.19,369.29z"/>
								<path class="st0" d="M1041.24,380.84c0.57-9.17,15.86-10.64,18.7-2.2c-2.2-10.27-15.68-48.19-25.95-84.37
									c-10.28-36.18-14.39-72.79-15.49-80.68c-2.3-5.72-10.05-7.39-19.72-6.6C999.68,209.37,1041.24,380.84,1041.24,380.84z"/>
								<path class="st10" d="M1006.08,284.51c5.74,11,13.61,46.21,13.61,46.21c15.15,0,23.98-7.45,23.98-7.45
									c-7.65-20.49-12.68-41.97-13.37-46.5C1021.64,274.15,1011.18,276.44,1006.08,284.51z"/>
							</g>
						</g>
					</g>
					<path class="st16" d="M884.94,545.62c0,0,5.27,28.39,4.21,39.59c-1.05,11.2,35.11,74.86,38.36,73.57
						c3.11-1.23-4.12-67.48-9.4-83.03c-3.59-10.59-2.65-44.95-2.65-44.95L884.94,545.62z"/>
					<path class="st9" d="M915.94,547.86c-0.35-9.3-0.47-17.05-0.47-17.05l-30.53,14.81c0,0,1.08,5.8,2.16,13.2
						C900.46,561.62,910.15,556.47,915.94,547.86z"/>
					<path class="st16" d="M873.78,467.25c0,0-11.76,6.8-16.07,21.53c-4.3,14.73,0.59,52.74,30.99,61.91
						c30.39,9.17,43.56-20.92,37.3-44.46C919.73,482.71,906.12,452.91,873.78,467.25z"/>
					<path class="st16" d="M929.8,497.12c-0.6,6.32-3.95,11.15-7.48,10.79c-3.54-0.36-5.92-5.78-5.32-12.1
						c0.59-6.32,3.94-11.15,7.48-10.79C928.01,485.38,930.39,490.8,929.8,497.12z"/>
					<path class="st16" d="M866.46,521.47c3.57,5.52,3.56,12.04-0.03,14.55s-9.39,0.07-12.96-5.45s-3.56-12.04,0.03-14.55
						C857.09,513.51,862.89,515.95,866.46,521.47z"/>
					<path class="st16" d="M1036.39,281.06c-5.89-1.14-26.46,17.84-26.24,20.76c0.23,3.03,20.19-8.89,20.88-6.9
						c0.54,1.57-22.87,8.25-21.42,11.04c0.99,1.91,21.55-2.75,22.21-1.53c1.04,1.91-16.42,2.13-15.01,4.24
						c1.63,2.44,25.36,4.58,25.36,4.58s-3.13-9.27-2.7-11.79c0.19-1.07,0.2-2.58,0.1-4.31c-0.08-1.39,0.53-2.58,0.34-4.14
						C1039.13,286.71,1039.65,281.69,1036.39,281.06z"/>
					<path class="st16" d="M1017.57,289.43l-8.31,10.37l-3.17-4.21c0,0-0.11-1.32,0.41-2.98
						C1006.83,291.54,1016.54,286.02,1017.57,289.43z"/>
					<path class="st10" d="M1067.35,1392.67h90.49c3.35-0.3,4.16-3,3-4.67c-2.39-3.43-12.95-5.94-24.81-11.4
						c-20.81,2.16-66.13-12.06-69.42-16.83C1064.71,1369.33,1065.49,1392.26,1067.35,1392.67z"/>
					<path class="st16" d="M1006.38,304.35c-0.3-2.4,4.25,0.13,11.18,12.07c5.09,8.76,0,26.59,0,26.59l-12.12-32.25L1006.38,304.35z
						"/>
				</g>
				<path class="st7" d="M771.11,708.44c-27.84-17.01-67.52-40.37-70.45-41.47c-2.93-1.1-17.17,23-15.34,25.2
					c1.83,2.2,90.23,77.73,97.92,71.19C790.94,756.82,771.11,708.44,771.11,708.44z"/>
				<path class="st19" d="M889.8,589.71c4.85,18.18,34.77,70.25,37.72,69.08c2.79-1.1-2.74-54.47-7.71-76.7
					C915.72,587.96,903.57,593.36,889.8,589.71z"/>
				<path class="st0" d="M888.77,572.33c-11.13,9.76-14.57,22.48-21.9,64.09c-5.42,30.74-12.47,223.36-39.98,267.37
					c44.01,28.61,89.05,15.4,89.05,15.4C900.61,761.85,891.94,587.04,888.77,572.33z"/>
				<path class="st0" d="M916.69,568.85c32.09,20.07,93.94,178.69,164.36,163.29c3.3,27.51-36.78,81.2-36.78,81.2
					c-85.35-69.1-124.47-231.26-124.47-231.26C917.56,577.04,916.69,568.85,916.69,568.85z"/>
			</g>
		</g>
	</g>
</g>
</svg>
