<?xml version="1.0" encoding="utf-8"?>
<!-- Generator: Adobe Illustrator 23.0.6, SVG Export Plug-In . SVG Version: 6.00 Build 0)  -->
<svg version="1.1" id="Слой_2" xmlns="http://www.w3.org/2000/svg" xmlns:xlink="http://www.w3.org/1999/xlink" x="0px" y="0px"
	 viewBox="0 0 2204.67 1495.15" style="enable-background:new 0 0 2204.67 1495.15;" xml:space="preserve">
<style type="text/css">
	.st0{fill:#B5451E;}
	.st1{fill:#B7BED4;}
	.st2{fill:#C3592D;}
	.st3{fill:#D3652C;}
	.st4{fill:#E5B0B4;}
	.st5{fill:#555CA3;}
	.st6{fill:#333381;}
	.st7{fill:url(#SVGID_1_);}
	.st8{fill:#EECF70;}
	.st9{fill:#D35C2B;}
	.st10{fill:#D4959A;}
	.st11{fill:#E7B2B6;}
	.st12{opacity:0.2;fill:#DC8D39;}
	.st13{fill:#FFFFFF;}
	.st14{fill:#333383;}
	.st15{fill:#DDE3F2;}
	.st16{fill:#CED4EA;}
	.st17{fill:#555CA5;}
	.st18{fill:#4F54A0;}
	.st19{fill:#B9C0D6;}
	.st20{fill:#D5652C;}
	.st21{fill:#C5592D;}
</style>
<g>
	<g>
		<path class="st0" d="M1665.23,1148.41c0.03,0.17,0.04,0.35,0.07,0.52c14.04,102.08,87.2,148.15,188.07,161.75
			c102.9,13.6,239.24-17.59,303.49-110.21c0,0,0.01,0,0.01-0.01c50.79-73.18,58.69-176.36,35.05-264.24
			c-10.75-40.09-34.07-76.18-70.29-96.82c-36-20.52-154.42-40.96-254.72,11.97C1682.29,948.77,1654.5,1069.11,1665.23,1148.41z"/>
		<path class="st1" d="M2085.08,1466.15H1932.3V1241.8h-41.07v224.35h-146.88c-7.95,0-14.45,6.5-14.45,14.45
			c0,7.95,6.5,14.45,14.45,14.45h340.74c7.95,0,14.45-6.5,14.45-14.45C2099.54,1472.66,2093.03,1466.15,2085.08,1466.15z"/>
		<path class="st2" d="M2156.86,1200.47c0,0,0.01,0,0.01-0.01c7.55-10.88,14.14-22.42,19.84-34.48
			c-59.27-17.08-192.43-49.21-312.95-37.46c-64,6.25-139.94,14.18-198.46,20.41v0c14.04,102.08,87.2,148.15,188.07,161.75
			C1956.27,1324.28,2092.62,1293.09,2156.86,1200.47z"/>
		<path class="st3" d="M2191.93,936.21c-6.13-22.86-16.36-44.42-30.73-62.56c-71.43,75.22-269.35,296.91-303.05,437.63
			c102.31,12.03,235.46-19.61,298.71-110.81c0,0,0.01,0,0.01-0.01C2207.66,1127.27,2215.56,1024.09,2191.93,936.21z"/>
	</g>
	<g>
		<polygon class="st4" points="1519.35,1411.2 1494.51,1476.65 1459.16,1469.27 1460.03,1366.07 		"/>
		<path class="st5" d="M1510.72,1457.8l-11.27,37.29h-111.88C1387.57,1495.09,1416.19,1444.79,1510.72,1457.8z"/>
		<path class="st6" d="M1470.54,642.45l-21.39,790.99h87.52c0,0,167.12-710.18,117.3-794.82L1470.54,642.45z"/>
		<linearGradient id="SVGID_1_" gradientUnits="userSpaceOnUse" x1="1433.3281" y1="154.6451" x2="1547.9443" y2="154.6451">
			<stop  offset="0" style="stop-color:#C5592D"/>
			<stop  offset="0.856" style="stop-color:#A14825"/>
		</linearGradient>
		<path class="st7" d="M1433.33,33.34c0,0,8.8-12.49,34.51-9.6c25.72,2.89,32.97,25.99,34.15,41.39
			c1.19,15.4,15.97,194.44,45.95,220.87l-95.77-14.42L1433.33,33.34z"/>
		<path class="st8" d="M1428.07,35.59c0,0,8.5-6.98,26.83-2.4c18.33,4.57,22.17,22.9,22.17,22.9L1428.07,35.59z"/>
		<path class="st9" d="M1342.94,87.26c0,0,0.51-60.47,97.84-53.51c16.54,1.18,31.55,10.65,39.1,25.42
			c10.95,21.4,15.72,59.06-19.65,119.46L1342.94,87.26z"/>
		<path class="st10" d="M1377.42,212.21c0,0,32.5,63.63,0.53,108.4l44.17,35.75l59.57-21.8l-4.54-88.37c0,0-19.07-14.22-31.28-80.55
			L1377.42,212.21z"/>
		<path class="st11" d="M1365.63,222.87c0,0,96.6,4.41,98.42-55.79s15.52-100.18-46.08-105.54c-61.6-5.36-74.29,17.25-79.78,37.19
			C1332.69,118.68,1340.54,220.17,1365.63,222.87z"/>
		<path class="st9" d="M1383.36,50.2c-26.43,1.33-57.75,19.73-61.6,51.01c-3.85,31.28,15.95,43.3,15.95,43.3
			c-4.6-33.34,38.43-59.18,38.43-59.18l0.36-0.22c16.74,7.03,46.9,16.82,49.68,35.35c4.33,28.87,38.12,39.92,38.12,39.92
			S1521.07,43.26,1383.36,50.2z"/>
		<path class="st10" d="M1382.22,278.77c0,0-56.09,17.49-60.25,29.95c-4.15,12.46,20.11,231.58,16.79,251.04
			c-2.66,15.58,1.25,96.81,6.47,141.33c-5.9-0.76-12.02-0.36-17.59,2.25c-18.77,8.81-34.65,22.58-34.65,22.58h56.29h32.93h0.04
			l-0.03-0.05c0.34-3.02,17.66-156.53,19.34-175.72C1403.26,530.76,1382.22,278.77,1382.22,278.77z"/>
		<polygon class="st4" points="1824.61,1399.45 1823.29,1469.44 1787.52,1474.42 1753.54,1376.96 		"/>
		<path class="st5" d="M1834.24,1457.8l-11.27,37.29h-111.88C1711.09,1495.09,1739.71,1444.79,1834.24,1457.8z"/>
		<path class="st5" d="M1500.76,640.75l252.78,780.61h83.11c0,0-55.75-754.68-130.29-770.65L1500.76,640.75z"/>
		<path class="st8" d="M1741.61,675.11c-0.68,1.63-11.56,3.4-28.57,5.17c-70.34,7.08-246.12,13.75-252.79,8.16
			c-8.3-6.94,4.62-30.2,0.82-37.69c-3.67-7.48-95.29-172.88-94.15-195.51c1.19-23.74-6.26-171.02-6.26-171.02l31.33-13.88
			c0,0-12.55,32.65,12.89,61.91c0,0,80-50.88,72.25-86.12l88.3,53.47l15.92,9.66c0,0,39.75,187.62,42.18,193.06
			C1629.4,515.52,1745.28,666.81,1741.61,675.11z"/>
		<path class="st8" d="M1391.99,270.35l0.42,14.99l-23.99,94.94c-0.41-0.54-0.82-0.95-1.36-1.36c-3.54-3.13-10.88-5.71-18.91-7.75
			c-15.24-3.81-33.2-5.58-33.2-5.58s-0.14-43.54,5.85-58.78C1326.78,291.57,1391.99,270.35,1391.99,270.35z"/>
		<path class="st12" d="M1741.61,675.11c-0.68,1.63-11.56,3.4-28.57,5.17c-48.16-22.99-125.17-121.09-142.31-182.58
			c-19.59-70.61-143.99-157.35-143.99-157.35l138.69-40.75l15.92,9.66c0,0,39.05,187.99,42.18,193.06
			C1652.36,549.11,1745.28,666.81,1741.61,675.11z"/>
		<path class="st12" d="M1364.93,377.39c-4.27-2.45-8.76-4.18-16.79-6.22c3.95-9.25,11.97-27.08,17.69-30.75
			C1371.4,336.61,1366.7,362.42,1364.93,377.39z"/>
		<path class="st11" d="M1547.94,322.49c-33.54-52.14-46.9-49.6-46.9-49.6l-208.33,2.67c-8.02-6.6-110.19-186.61-110.19-186.61
			l-0.16,0.12c-0.43-1.64-0.62-3.05-0.43-3.93c2.67-12.13,5.33-42.4-27.09-63.2c0,0-17.75-9.63-18.77,5.37
			c-1.02,15,1.38,9.56-0.49,30.64c-1.79,20.24,4.89,40.25,16.79,48.96c1.16,0.85,2.15,1.91,3,3.07l0.23,0.32
			c3.34,9.71,26.45,77,33.59,99.76c21.54,68.7,59.47,123.34,59.47,123.34S1595.28,396.09,1547.94,322.49z"/>
		<path class="st13" d="M1353.79,185.78c0,0,0.74,7.65,17.15,8.59c0,0,13.78,0.79,14.24-7.45
			C1385.18,186.92,1372.54,179.4,1353.79,185.78z"/>
		<g>
			<path class="st14" d="M1791.67,1390.06c-1.36-69.08-6.65-150.43-16.33-234.59c-1.48-12.87-3.08-26.09-4.76-39.31
				c-1.85-14.58-3.81-29.33-5.83-43.84c-0.69-4.98-3.04-10.48-5.31-15.8c-2.11-4.95-4.29-10.06-4.92-14.35
				c-8.07-55.1-17.83-105.17-26.44-149.33c-2.26-11.58-4.47-22.92-6.59-34.05c-19.18-100.49-29.7-157.5-29.77-158.06l0,0
				c0.07,0.57,7.33,57.84,26.54,158.47c2.12,11.13,4.34,22.47,6.6,34.06c8.6,44.12,18.35,94.14,26.41,149.15
				c0.7,4.8,2.99,10.15,5.2,15.33c2.17,5.08,4.41,10.33,5.03,14.79c2.02,14.5,3.98,29.23,5.83,43.79
				c1.67,13.2,3.27,26.41,4.75,39.26c9.67,84.05,17.33,165.72,18.7,234.68L1791.67,1390.06z"/>
		</g>
		<g>
			<path class="st8" d="M1579.3,332.66c0,0-42.18,28.16-97.55,30.2c0,0-32.11-87.62-59.86-88.98c0,0,18.5-3.95,27.89-7.07h0.14
				l0.27-0.14c1.22-0.27,2.31-0.68,3.13-1.09c15.78-6.94,22.45-17.28,23.67-19.18c0.14-0.14,0.14-0.27,0.14-0.27s0.14,0,0.27,0
				c4.49-0.41,57.82-5.03,62.58-1.9C1545.15,247.36,1594.67,270.35,1579.3,332.66z"/>
			<path class="st12" d="M1489.64,259.46l-39.46,7.21c1.22-0.27,2.31-0.68,3.13-1.09c15.78-6.94,22.45-17.28,23.67-19.18l0.27-0.14
				C1476.17,248.17,1467.32,262.86,1489.64,259.46z"/>
		</g>
	</g>
	<g id="girl_5_">
		<g>
			<polygon class="st3" points="837.53,504.4 1128.58,504.4 1068.31,716.48 779.73,716.48 			"/>
			<polygon class="st15" points="846.12,512.21 1115.73,512.21 1059.91,708.67 792.57,708.67 			"/>
			<rect x="697.53" y="716.48" class="st0" width="375.26" height="7.31"/>
		</g>
		<path class="st16" d="M1684.09,723.99H376.96c-9.05,0-16.46,7.41-16.46,16.46v24.31c0,9.05,7.41,16.46,16.46,16.46h631.88v550.79
			c-118.55,7.07-219.71,71.63-269.68,163.14h582.74c-49.97-91.5-151.13-156.07-269.68-163.14V781.22h631.88
			c9.05,0,16.46-7.41,16.46-16.46v-24.31C1700.54,731.4,1693.14,723.99,1684.09,723.99z"/>
		<g>
			<polygon class="st0" points="1466.96,504.4 1175.92,504.4 1236.18,716.48 1524.77,716.48 			"/>
			<polygon class="st3" points="1462.5,504.4 1171.45,504.4 1231.71,716.48 1520.3,716.48 			"/>
			
				<rect x="1231.71" y="716.48" transform="matrix(-1 -1.224647e-16 1.224647e-16 -1 2838.6855 1440.2661)" class="st0" width="375.26" height="7.31"/>
			<path class="st8" d="M1350.35,615.55c0-9.1-7.38-18.32-16.48-20.59c-9.1-2.27-16.48,3.27-16.48,12.37
				c0,9.1,7.38,18.32,16.48,20.59C1342.97,630.19,1350.35,624.65,1350.35,615.55z"/>
		</g>
		<g>
			<path class="st11" d="M1055.26,112.3l5.74-13.56c3.01-2.87,3.42-9.04,1.99-12.94c-5.19-14.11-13.34-49.99,22.16-80.26
				c0,0,19.72-14.46,23.4,3.37c3.68,17.83-0.09,11.7,5.6,36.68c5.46,23.99,0.72,49.1-12.14,61.5c-1.25,1.21-2.27,2.64-3.1,4.17
				l-4.79,8.88L1055.26,112.3z"/>
			<polygon class="st11" points="626.3,1407.38 651.27,1465.4 684.58,1461.37 678.67,1368.71 			"/>
			<polygon class="st11" points="915.19,1424.48 953.63,1474.6 984.93,1462.53 956.48,1374.14 			"/>
			<path class="st11" d="M720.26,95.02c-10.57-19.02-29.15-38.97-90.73-18.19c-61.58,20.78-37.66,58.22-20.83,119.28
				c4.93,17.88,16.78,28.07,31.08,33.56c-3.66,30.05-26.4,79.47-26.4,79.47h80.58c7.5-18.2,11.77-59.37,13.31-76.91
				c9.59-1.74,15.83-3.56,15.83-3.56C748.05,219.69,730.84,114.04,720.26,95.02z"/>
			<path class="st14" d="M551.13,719.93l133.22,26.89l1.72,665.8h-68.33C617.74,1412.63,499.56,949.04,551.13,719.93z"/>
			<path class="st17" d="M1057.63,98.2c-69.78,70.56-131.13,153.24-131.13,153.24c-141.53,21.21-226.62,36.28-226.62,36.28
				s0,0.02,0,0.02c-29.2-12.13-157.42,182.77-157.42,182.77s26.87,183.46-12.88,252.35c0,0-11.66,19.13,32.23,24.07
				c43.88,4.94,219.16-12.12,247.1-36.83c10.51-9.3,9.35-79.4-4.66-160.64c-0.28-1.61-0.56-3.22-0.86-4.84
				c-9.43-62.14-20.1-108.86-30.72-143.98c61.04-12.65,170.02-63.56,201.25-77.3c36.17-15.91,129.64-201.53,129.64-201.53
				L1057.63,98.2z"/>
			<path class="st17" d="M542.52,470.5c0,0-20.02-38.06-19.43-79.64c0.52,40.19,19.43,76.16,19.43,76.16s9.02,61.53,8.9,126.7
				C551.23,529.87,542.52,470.5,542.52,470.5z"/>
			<path class="st9" d="M648.17,1460.5l10.47,34.65h103.94C762.58,1495.15,736,1448.41,648.17,1460.5z"/>
			<path class="st9" d="M940.07,1460.5l10.48,34.65h103.94C1054.48,1495.15,1027.89,1448.41,940.07,1460.5z"/>
			<path class="st17" d="M561.87,746.82l231.67-28.41l190.01,689.41l-82.19,20.85C901.37,1428.67,589.81,1117.57,561.87,746.82z"/>
			<path class="st18" d="M699.87,287.72c0,0-157.04,109.55-54.81,346.18c0,0,23.07,75.91,148.48,84.52
				c1.59,0.11-223.11,29.49-231.75,28.52c-43.87-4.96-32.23-24.08-32.23-24.08c39.77-68.88,12.89-252.36,12.89-252.36
				s-88.09-156,61.24-189.13c16.15-3.58,35.71-4.93,54.95-3.19C677.56,278.81,699.87,287.72,699.87,287.72z"/>
			<path class="st9" d="M644.54,316.38c123.45-181.74,65.59-245.69,65.59-245.69c-6.51-17.78-119.87-13.33-139.12,41.02
				c-15.61,44.08-60.7,128.18-60.7,128.18C331.96,487.34,364.19,613.12,364.19,613.12l33.17-2.55c0.26-10.12,1.22-21.29,3.9-26.15
				v25.84l125.83-9.75c1-25.32,4.32-70.29,4.32-70.29l11.39,67.68l34.12-3.29c-7-141.29,23.02-210.67,31.91-227.87
				c-7.62,78.55,30.39,206.65,30.39,206.65l5.45-1.22l-12.34-64.04l15.79,63.27l15.31-3.48C626.56,439.07,635,356.65,644.54,316.38z
				"/>
			<g>
				<path class="st17" d="M983.56,1409.62l-49.83,12.64l-32.36,8.21c0,0-311.57-311.11-339.51-681.85l230.83-33.27L983.56,1409.62z"
					/>
				<g>
					<path class="st14" d="M947.5,1418.77c-30.05-62.22-62.16-137.15-91.62-216.58c-4.5-12.14-9.06-24.66-13.55-37.2
						c-4.95-13.84-9.87-27.88-14.64-41.73c-1.64-4.76-2.03-10.72-2.41-16.49c-0.36-5.37-0.72-10.91-2.11-15.03
						c-17.75-52.79-31.7-101.85-44.01-145.13c-3.23-11.35-6.39-22.46-9.53-33.34c-28.38-98.29-44.8-153.88-44.99-154.42l0,0
						c0.19,0.54,19.64,54.89,48.06,153.32c3.14,10.89,6.3,22,9.54,33.36c12.3,43.24,26.24,92.25,43.96,144.95
						c1.54,4.6,1.93,10.41,2.3,16.02c0.37,5.51,0.74,11.2,2.21,15.46c4.76,13.84,9.68,27.86,14.62,41.69
						c4.48,12.53,9.04,25.03,13.53,37.16c29.42,79.32,59.55,155.62,89.55,217.73L947.5,1418.77z"/>
				</g>
				<path class="st18" d="M933.74,1422.26l-32.36,8.21c0,0-311.56-314.79-339.5-685.52l180.39-22.33c0,0-49.9,32.89,5.53,187.57
					c55.94,156.09,67.1,216.05,67.1,216.05S842.56,1222.59,933.74,1422.26z"/>
			</g>
		</g>
	</g>
	<g>
		<path class="st19" d="M528.86,1462H360.87v-256.59h-46.97V1462H139.16c-9.09,0-16.53,7.44-16.53,16.53
			c0,9.09,7.44,16.53,16.53,16.53h389.7c9.09,0,16.53-7.44,16.53-16.53C545.39,1469.44,537.95,1462,528.86,1462z"/>
		<path class="st20" d="M619.12,1151.61c-21.15,28.13-75.81,94.53-178.15,122.62c-56.68,15.56-127.98,19.37-216.32-1.59
			c-45.58-10.81-82.51-28-112.24-49.53C-22.55,1125.5-9.21,938.94,16.95,855.91c9.33-29.63,32.21-52.37,62.24-51.66
			c1.79,0.04,3.62,0.16,5.46,0.38c42.95,4.96,95.16,21.57,150.05,44.92c163.69,69.63,351.09,199.17,387.03,258.3
			C628.86,1119.57,627.37,1140.64,619.12,1151.61z"/>
		<path class="st21" d="M440.97,1274.23c-56.68,15.56-127.98,19.37-216.32-1.59c-45.58-10.81-82.51-28-112.24-49.53
			C-21.01,1124.79-7.62,938.99,18.53,856.07c9.19-29.11,31.41-51.62,60.66-51.82c2.38-0.03,4.81,0.1,7.28,0.39
			c42.56,4.91,94.17,21.19,148.52,44.19c-0.1,0.24-0.19,0.48-0.29,0.72c-0.86,2.14-1.64,4.32-2.33,6.52
			c-32.02,101.68-44.93,358.03,208.5,418.14C440.9,1274.22,440.94,1274.23,440.97,1274.23z"/>
	</g>
</g>
</svg>
