<?xml version="1.0" encoding="utf-8"?>
<!-- Generator: Adobe Illustrator 23.0.6, SVG Export Plug-In . SVG Version: 6.00 Build 0)  -->
<svg version="1.1" id="_x3C_Layer_x3E_" xmlns="http://www.w3.org/2000/svg" xmlns:xlink="http://www.w3.org/1999/xlink" x="0px"
	 y="0px" viewBox="0 0 2049.28 1223.26" style="enable-background:new 0 0 2049.28 1223.26;" xml:space="preserve">
<style type="text/css">
	.st0{fill:#A8D29F;}
	.st1{fill:#FFB27D;}
	.st2{fill:#233862;}
	.st3{fill:#2B478B;}
	.st4{fill:#E8945B;}
	.st5{fill:#EE9849;}
	.st6{fill:#E58638;}
	.st7{fill:#C65447;}
	.st8{fill:#BA4C43;}
	.st9{fill:#F1A34F;}
	.st10{fill:#CE8032;}
	.st11{fill:#E89746;}
	.st12{fill:#82B378;}
</style>
<g>
	<path class="st0" d="M1757.51,1125.73c34.14-10.71,78.08-28.13,54.19-41.21c-25.59-14.01-58.22,15.72-75.91,35.39
		c-0.92-0.15-1.83-0.3-2.76-0.43c-4.52-0.65-9.11-0.95-13.75-0.97c33.72-54.05,71.34-126,39.3-135.15
		c-34.52-9.86-59.25,77.63-71.46,138.91c-33.73,7.32-70.02,23.69-107.82,34.6c-13.36-48.59-44.12-121.05-108.56-119.45
		c-67.67,1.68,16.82,80.33,73.74,127.47c-12.72,2.06-25.58,3.05-38.53,2.45c-82.75-3.85-134.59,52.25-134.59,52.25h444.41
		C1832.46,1193.13,1807.18,1144.34,1757.51,1125.73z"/>
	<g>
		<path class="st1" d="M1004.36,34.96c0,0-30.97-33.79-40.55-34.91c-9.57-1.13-48.99,17.76-51.25,25.21
			c-2.25,7.45,43.36-7.45,45.9,0c2.53,7.45,5.35,12.52,18.3,13.08c12.95,0.56,24.22,7.88,24.22,7.88L1004.36,34.96z"/>
		<path class="st2" d="M1041.52,1219.58c-9.84-6.01-4.24-50.82-4.24-50.82s45.86-36.69,52.17-8.6s43.57,40.7,64.78,44.14
			c14.64,2.37,19.17,10.48,20.58,15.28L1041.52,1219.58L1041.52,1219.58z"/>
		<path class="st3" d="M1033.3,1191.1c-11.75-4.43-77.19-161.52-74.47-212.52c0.33-6.05-0.86-55.68-2.72-65.97
			c-1.45-8.01-3.4-17.34-5.74-27.69c-3.58-15.76-8.04-33.91-13-53.37c-13.91-54.69-31.64-119.72-43.86-171.49
			c21.94-49.2,50.05-92.26,75.84-106.96c18.4,2.24,36.14,5.64,49.28,8.49c10.47,6.15,18.29,11.41,24.1,15.9
			c2.04,10.2,5.02,27.22,7.43,49.13c1.55,14.34,2.86,30.78,3.47,48.76c4.37,127.6-17.94,266.25,38.94,492.56
			C1094.16,1174.25,1051.5,1197.97,1033.3,1191.1z"/>
		<path class="st2" d="M1050.16,626.62c-9.48,47.44-32.29,148.83-112.78,204.93c-13.91-54.69-31.64-119.72-43.86-171.49
			c21.94-49.2,50.05-92.26,75.84-106.96c18.4,2.24,36.14,5.64,49.28,8.49c10.47,6.15,18.29,11.41,24.1,15.9
			C1044.77,587.69,1047.75,604.7,1050.16,626.62z"/>
		<path class="st1" d="M951.19,180.29l-0.04,7.96c0,0,2.17,24.89-28.48,28.52c-30.65,3.64-53.86-9.71-53.03-28.91
			c2.76-14.87,5.79-25.08,6-37.39c0.08-4.57-0.24-9.42-1.09-14.9l59.38-1.19l17.49,2.86L951.19,180.29z"/>
		<path class="st4" d="M951.42,137.24l-0.23,43.05c-6.31,2.93-13.43,4.72-21.41,4.72c-27.29,0-44.93-20.01-54.15-34.54
			c0.08-4.57-0.24-9.42-1.09-14.9l59.38-1.19L951.42,137.24z"/>
		<path class="st1" d="M954.88,158.16c0,0-76.05,15.36-84.89-32.15s-24.61-77.53,23.58-89.34c48.19-11.82,61.02,4.55,67.83,19.69
			C968.2,71.5,974.44,152.94,954.88,158.16z"/>
		<path class="st2" d="M900.12,1219.58c0,0-4.15-22.74-10.74-35.9c-6.58-13.16-48.47-4.79-48.47-4.79s-8.38,7.18-10.17,40.69
			L900.12,1219.58L900.12,1219.58z"/>
		<path class="st3" d="M982.2,578.24c0,0-41.69,185.75-55.05,269.6c-5,31.37-15.42,131.88-17.05,163.61
			c-2.23,43.54-16.59,176.79-16.59,176.79s-24.21-15.3-60.15-1.02c0,0-9.08-59.73-14.85-184.83c-1.69-36.67,5.39-91.76,4.53-109.65
			c-4.23-87.98-32.34-315.44-9.99-330.04C835.4,548.09,982.2,578.24,982.2,578.24z"/>
		<path class="st2" d="M976.18,21.06c0,0-21.21-1.63-46.23-12.51c-20.3-8.83-45.92,0.89-54.23,5.27c0.22-1.34,0.76-3.17,2.03-5
			c0,0-3.73,2.65-4.28,6.35c-0.38,0.28-0.56,0.48-0.46,0.54c0,0-4.23-0.77-6.95,0.45c0,0,1.9-0.27,2.58,0.95
			c0.07,0.13,0.18,0.24,0.3,0.34c-31.67,15.3-34.6,65.36-24.4,76.94c12.26,13.93,26.96,45.31,26.96,45.31s5.36-7.41,3.13-19.68
			c-2.23-12.26,8.36-12.26,21.74-17.84c13.38-5.57,2.23-21.18,13.93-30.66c11.71-9.48,54.62-3.9,54.07-11.15
			C980.31,54.59,976.18,22.69,976.18,21.06z"/>
		<path class="st5" d="M996.49,18.53c0,0-6.41,2.6-10.26,11.66c-4.92,11.59-0.91,17.91-0.91,17.91s80.49,73,75.26,86.29
			c-2.73,6.94-65.09,43.51-91.01,58.47c-10.66-0.89-18.9-0.82-19.16-0.82l-0.01,0.01c0,0-17.63,53.71-80.75-4.19
			c-11.09,16.13-97.03,55.74-82.11,124.1c3.51,16.06,6.54,31.22,9.15,45.51c17.74,96.86,16.35,154,12.89,185.51
			c-2.69,24.59-12.89,27.07-3.77,33.61c0,0,17.75,7.96,50.96,14.84c24.69,5.11,57.91,9.66,98.73,9.92
			c64.93,0.41,89.51-21.97,89.51-21.97c17.19-16.81-16.81-82.97-14.09-130.72c1.4-24.5-0.14-108.37-0.38-146.91
			c0,0,0.01-0.01,0.02-0.02c0.01-0.01,0.03-0.03,0.05-0.05c3.11-3.41,98.11-107.93,116.81-167.26c0-0.01,0.01-0.01,0.01-0.03
			c0.94-2.99,1.69-5.86,2.22-8.61C1155.34,96.57,996.49,18.53,996.49,18.53z"/>
		<path class="st6" d="M809.57,542.98c3.46-31.51,4.84-88.65-12.89-185.51c1.22-3.85,2.42-7.56,3.61-11.09
			c5.38-15.97,28.23-15.17,32.45,1.15C845.85,398.21,857.65,484.36,809.57,542.98z"/>
		<path class="st1" d="M790.19,490.03c0,0,39.48-23.87,51.71-20.84c12.24,3.02,38.78,14.56,37.14,21.62
			c-1.64,7.05-32.48,11.87-37.85,11.04s-14.03,0.14-17.54,3.18c-3.52,3.03-31.49,4.17-34.91-4.03
			C785.32,492.81,790.19,490.03,790.19,490.03z"/>
		<path class="st5" d="M869.63,187.86c0,0-48.4,3.51-74.7,18.92c-17.01,9.97-115.61,167.07-115.61,190.19
			s103.54,105.15,103.54,105.15s19.22,6.38,19.9-24.22c0,0-51.65-76.35-48.93-85.19c1.71-5.55,77.83-66.62,77.83-66.62
			L869.63,187.86z"/>
		<path class="st6" d="M1147.43,134.41c-18.7,59.33-113.69,163.84-116.81,167.26c-0.03,0.03-0.04,0.04-0.05,0.05
			c-0.01,0.01-0.03,0.03-0.03,0.03s0-0.01-0.01-0.03c-0.27-1.05-8.11-30.94,10.6-52.32
			C1060.17,227.64,1125.88,173.09,1147.43,134.41z"/>
		<g>
			<path class="st6" d="M851.38,196.81c-0.21-4.19,19.66-9.99,19.66-9.99s22.74,31.52,60.19,32.07c0,0-10.67,20.77-23.26,26.15
				C907.98,245.04,852.62,221.71,851.38,196.81z"/>
			<path class="st6" d="M931.23,218.15c0,0,19.84-11.76,19.91-24.52c0,0,12.81-1.6,18.41,4.61c0,0,4.71,21.86-1.54,34.55
				C968.02,232.79,939.45,228.44,931.23,218.15z"/>
			<path class="st7" d="M1000.22,514.26c-0.38,10.3-4.58,20.09-11.79,27.46l-11.33,11.59c-2.84,2.91-7.56,2.77-10.24-0.29
				l-15.72-17.95c-4.22-4.81-6.41-11.07-6.13-17.46c0.64-14.24,1.78-41.67,2.46-68.13c0.56-21.44,0.82-42.25,0.26-54.87
				c-1.78-40.3-16.49-168.34-16.49-168.34h9.68c0,0,26.59,48.61,42.69,115.8c3.97,16.54,7.29,34.19,9.44,52.54
				C993.06,394.61,1001.93,467.71,1000.22,514.26z"/>
			<path class="st8" d="M917.76,216.26l26.91-6.45c0,0,3.51,0.31,3.42,4.69c-0.1,4.38-7.58,17.19-10.89,18.21
				C933.88,233.73,911.4,225.13,917.76,216.26z"/>
			<path class="st5" d="M851.38,190.68c-0.21-4.19,19.66-9.99,19.66-9.99s22.74,31.52,60.19,32.07c0,0-10.67,20.77-23.26,26.15
				C907.98,238.92,852.62,215.59,851.38,190.68z"/>
			<path class="st5" d="M931.23,212.77c0,0,19.84-11.76,19.91-24.52c0,0,12.81-1.6,18.41,4.61c0,0,4.71,21.86-1.54,34.55
				C968.02,227.41,939.45,223.06,931.23,212.77z"/>
			<path class="st8" d="M1000.22,514.26c-0.38,10.3-4.58,20.09-11.79,27.46l-11.33,11.59c-2.84,2.91-7.56,2.77-10.24-0.29
				l-15.72-17.95c-4.22-4.81-6.41-11.07-6.13-17.46c0.64-14.24,1.78-41.67,2.46-68.13c25.12-31.38,33.77-73.38,36.15-107.41
				c3.97,16.54,7.29,34.19,9.44,52.54C993.06,394.61,1001.93,467.71,1000.22,514.26z"/>
		</g>
	</g>
	<g>
		<path class="st2" d="M758.16,1219.58H593.58c-8.98,0-16.32-7.34-16.32-16.32v-110.57c0-8.98,7.34-16.32,16.32-16.32h164.58
			c8.98,0,16.32,7.34,16.32,16.32v110.57C774.48,1212.24,767.14,1219.58,758.16,1219.58z"/>
		<path class="st3" d="M759.52,1092.69v110.58c0,8.98-7.34,16.32-16.32,16.32H578.62c-8.98,0-16.32-7.34-16.32-16.32v-110.58
			c0-8.98,7.34-16.32,16.32-16.32H743.2C752.17,1076.36,759.52,1083.71,759.52,1092.69z"/>
		<g>
			<path class="st2" d="M624.95,1076.36c10.53-12.44,24.24-17.34,33.01-17.34c21.46,0,33.44,16.7,33.89,17.34l-5.23,0.35
				c-0.38-0.54-8.87-11.23-27.42-11.23c-7.62,0-18.8,0.03-27.98,10.88C630.63,1077.07,624.82,1076.52,624.95,1076.36z"/>
		</g>
		<path class="st2" d="M759.52,1097.22v32.14c0,8.98-7.34,16.32-16.32,16.32H578.62c-8.98,0-16.32-7.34-16.32-16.32v-32.14
			c0-8.98,7.34-16.32,16.32-16.32H743.2C752.17,1080.9,759.52,1088.24,759.52,1097.22z"/>
		<path class="st3" d="M759.52,1092.69v32.14c0,8.98-7.34,16.32-16.32,16.32H578.62c-8.98,0-16.32-7.34-16.32-16.32v-32.14
			c0-8.98,7.34-16.32,16.32-16.32H743.2C752.17,1076.36,759.52,1083.71,759.52,1092.69z"/>
		<path class="st2" d="M652.97,1128.5c0-2.75,2.23-4.99,4.99-4.99c2.75,0,4.99,2.23,4.99,4.99c0,2.75-2.23,4.99-4.99,4.99
			C655.21,1133.49,652.97,1131.26,652.97,1128.5z"/>
	</g>
	<g>
		<path class="st9" d="M1670.5,324.93v880.25c0,7.92-6.04,14.4-13.42,14.4h-13.42c-3.68,0-7.02-1.61-9.46-4.21
			c-2.44-2.61-3.96-6.23-3.96-10.19V324.93c0-5.17,2.57-9.73,6.41-12.25c2.04-1.36,4.45-2.15,7.01-2.15h13.42
			C1664.46,310.53,1670.5,317,1670.5,324.93z"/>
		<path class="st6" d="M1640.6,322.87v880.25c0,5.16-2.57,9.73-6.4,12.25c-2.44-2.61-3.96-6.23-3.96-10.19V324.93
			c0-5.17,2.57-9.73,6.41-12.25C1639.08,315.28,1640.6,318.89,1640.6,322.87z"/>
		<polygon class="st9" points="1486.85,668.45 1412.56,718.53 1479.93,777.59 1646.66,767.08 1646.66,699.73 		"/>
		<path class="st10" d="M1635.53,708.93c-0.76,2.05-0.52,4.91,0.54,6.39c1.06,1.47,2.53,1,3.29-1.05s0.52-4.91-0.54-6.39
			C1637.76,706.4,1636.29,706.87,1635.53,708.93z"/>
		<path class="st10" d="M1635.53,748.75c-0.76,2.05-0.52,4.91,0.54,6.39c1.06,1.47,2.53,1,3.29-1.05s0.52-4.91-0.54-6.39
			C1637.76,746.23,1636.29,746.7,1635.53,748.75z"/>
		<g>
			<polygon class="st9" points="1916.32,532.39 2032.42,582.37 1920.78,641.66 1653.63,632.38 1653.63,548.99 			"/>
			<polygon class="st11" points="1916.32,532.39 1933.19,532.39 2049.28,582.37 2032.42,582.37 			"/>
			<polygon class="st10" points="1920.78,641.66 1929.77,641.66 2049.28,582.37 2032.42,582.37 			"/>
			<path class="st10" d="M1671.11,561.5c0.98,2.63,0.67,6.3-0.69,8.19s-3.25,1.29-4.22-1.34c-0.98-2.63-0.67-6.3,0.69-8.19
				C1668.25,558.27,1670.14,558.87,1671.11,561.5z"/>
			<path class="st10" d="M1671.11,612.6c0.98,2.63,0.67,6.3-0.69,8.19s-3.25,1.29-4.22-1.34c-0.98-2.63-0.67-6.3,0.69-8.19
				C1668.25,609.36,1670.14,609.96,1671.11,612.6z"/>
		</g>
		<g>
			<polygon class="st9" points="1390.95,387.79 1274.85,437.77 1386.48,497.06 1653.63,487.78 1653.63,404.39 			"/>
			<polygon class="st11" points="1390.95,387.79 1374.08,387.79 1257.99,437.77 1274.85,437.77 			"/>
			<polygon class="st10" points="1386.48,497.06 1377.5,497.06 1257.99,437.77 1274.85,437.77 			"/>
			<path class="st10" d="M1636.15,416.9c-0.98,2.63-0.67,6.3,0.69,8.19s3.25,1.29,4.22-1.34s0.67-6.3-0.69-8.19
				C1639.02,413.67,1637.13,414.27,1636.15,416.9z"/>
			<path class="st10" d="M1636.15,468c-0.98,2.63-0.67,6.3,0.69,8.19s3.25,1.29,4.22-1.34s0.67-6.3-0.69-8.19
				C1639.02,464.76,1637.13,465.36,1636.15,468z"/>
		</g>
		<polygon class="st11" points="1486.85,668.45 1477.23,668.45 1398.33,718.97 1412.56,718.97 		"/>
		<polygon class="st10" points="1479.93,777.59 1466.97,777.59 1398.33,718.97 1412.56,718.97 		"/>
		<path class="st9" d="M1700.39,1120.24v99.34h-100.07v-99.73c0-18.51,14.05-33.72,32.06-35.58c1.22-0.12,2.46-0.19,3.71-0.19h28.13
			C1684.21,1084.09,1700.39,1100.28,1700.39,1120.24z"/>
		<path class="st6" d="M1664.79,1120.24v99.34h-64.47v-99.73c0-18.51,14.05-33.72,32.06-35.58
			C1650.6,1086.15,1664.79,1101.55,1664.79,1120.24z"/>
		<g>
			<g>
				<path class="st6" d="M1655.01,282.6v-3.47h-8.84v0.06c-2.41,0.23-4.5,1.2-6.26,2.92c-2.03,1.98-3.05,4.43-3.05,7.33
					c0,2.81,1.04,5.22,3.12,7.26c2.08,2.03,4.52,3.05,7.33,3.05h7.69v-3.46c1.64-1.89,2.47-4.17,2.47-6.84
					C1657.48,286.77,1656.65,284.49,1655.01,282.6z"/>
				<path class="st6" d="M1671.99,198.16c-6.29-5.32-14.13-7.98-23.51-7.98c-6,0-11.71,1.38-17.12,4.14
					c-5.42,2.76-9.63,6.65-12.63,11.68c-1.84,3.1-2.76,6.19-2.76,9.29c0,2.42,0.75,4.43,2.25,6.02c1.5,1.6,3.41,2.39,5.73,2.39h7.69
					c0,0-0.09-2.89-0.1-4.86l5.32-7.18c2.8-2.8,6.53-4.21,11.18-4.21c3.96,0,7.28,1.09,9.94,3.27c2.66,2.18,3.99,5.25,3.99,9.21
					c0,4.55-1.4,8.08-4.21,10.59c-2.03,1.84-5.51,3.53-10.45,5.08c-3.68,1.16-6.12,2.35-7.33,3.56c-1.21,1.21-1.82,3.02-1.82,5.44
					v14.51c0,2.9,0.77,5.32,2.32,7.26c1.55,1.94,3.72,2.9,6.53,2.9h7.69v-4.4c0.35-0.69,0.65-1.43,0.87-2.28
					c0.38-1.55,0.58-5.51,0.58-11.9c7.93-1.55,14.2-4.96,18.79-10.23c4.59-5.27,6.89-11.92,6.89-19.96
					C1681.86,211.32,1678.57,203.87,1671.99,198.16z"/>
			</g>
			<g>
				<path class="st9" d="M1689.55,220.51c0,8.03-2.3,14.68-6.89,19.96c-4.6,5.27-10.86,8.68-18.79,10.23
					c0,6.39-0.19,10.36-0.58,11.9c-1.16,4.45-4.02,6.68-8.56,6.68c-2.81,0-4.98-0.97-6.53-2.9s-2.32-4.35-2.32-7.26V244.6
					c0-2.42,0.6-4.23,1.82-5.44c1.21-1.21,3.65-2.39,7.33-3.56c4.93-1.55,8.42-3.24,10.45-5.08c2.81-2.51,4.21-6.04,4.21-10.59
					c0-3.97-1.33-7.04-3.99-9.21c-2.66-2.18-5.98-3.27-9.94-3.27c-4.64,0-8.37,1.4-11.18,4.21l-5.8,7.84
					c-2.03,2.81-4.4,4.21-7.11,4.21c-2.32,0-4.23-0.8-5.73-2.39c-1.5-1.6-2.25-3.6-2.25-6.02c0-3.09,0.92-6.19,2.76-9.29
					c3-5.03,7.21-8.92,12.63-11.68s11.12-4.14,17.12-4.14c9.38,0,17.22,2.66,23.51,7.98
					C1686.26,203.87,1689.55,211.32,1689.55,220.51z M1665.17,289.44c0,2.9-0.97,5.35-2.9,7.33c-1.94,1.98-4.35,2.97-7.26,2.97
					c-2.81,0-5.25-1.02-7.33-3.05s-3.12-4.45-3.12-7.25c0-2.9,1.02-5.35,3.05-7.33c2.03-1.98,4.5-2.98,7.4-2.98s5.32,0.99,7.26,2.98
					C1664.2,284.1,1665.17,286.54,1665.17,289.44z"/>
			</g>
		</g>
	</g>
	<path class="st12" d="M0,1220.2l468.16,3.06c0,0-43.29-87.03-150.71-68.41c-67.8,11.75-90.25-5.97-118.15-23.35
		c51.65-19.54,128.16-51.84,92.55-59.65c-33.99-7.45-80.32,25.66-108.85,50.26c-5.97-3.07-12.47-5.92-19.83-8.37
		c61.06-57.03,175.97-170.74,125.21-173.98c-49.8-3.18-112.82,109.31-142.81,169.34c-3.45-0.69-7.08-1.29-10.89-1.79
		c-15.54-2.05-30.03,0.76-43.32,6.65c-6.62-24.91-18.84-53.4-35.09-47.6c-16.4,5.86,2.14,34.72,19.16,56.41
		C28.28,1154.1,0,1220.2,0,1220.2z"/>
</g>
</svg>
