<?xml version="1.0" encoding="utf-8"?>
<!-- Generator: Adobe Illustrator 23.0.6, SVG Export Plug-In . SVG Version: 6.00 Build 0)  -->
<svg version="1.1" id="_x2018_лой_x5F_1" xmlns="http://www.w3.org/2000/svg" xmlns:xlink="http://www.w3.org/1999/xlink"
	 x="0px" y="0px" viewBox="0 0 2256.25 1574.6" style="enable-background:new 0 0 2256.25 1574.6;" xml:space="preserve">
<style type="text/css">
	.st0{fill:#AFCDFB;}
	.st1{opacity:0.6;fill:#FFFFFF;}
	.st2{fill:#699DEE;}
	.st3{fill:#DDE7FE;}
	.st4{opacity:0.5;fill:#CDE0FB;}
	.st5{opacity:0.5;fill:#7C9AF2;}
	.st6{opacity:0.3;}
	.st7{fill:#BDD1F9;}
	.st8{fill:#F99746;}
	.st9{fill:#ED7D2B;}
	.st10{fill:#474FEA;}
	.st11{fill:#B5453C;}
	.st12{fill:#233862;}
	.st13{fill:#2B478B;}
	.st14{fill:#FCECDB;}
	.st15{fill:#548EE2;}
	.st16{fill:#F4D2B8;}
	.st17{fill:#568CDB;}
	.st18{fill:#A4C4F4;}
	.st19{fill:#ED985F;}
	.st20{fill:#FFB27D;}
	.st21{fill:#F9DDBF;}
	.st22{fill:#DD6D22;}
	.st23{fill:#163560;}
	.st24{fill:#1C468A;}
	.st25{fill:#EFDECE;}
	.st26{fill:#ED975D;}
	.st27{fill:#F2CCAA;}
	.st28{fill:#FFFFFF;}
	.st29{fill:#C65447;}
	.st30{fill:#2C3A64;}
</style>
<g>
	<g>
		<g>
			<path class="st0" d="M549.98,1346.51l-4.89-2.68c-5.22-2.86-7.14-9.43-4.28-14.64l22.46-41.01c2.86-5.22,9.43-7.14,14.64-4.28
				l7,3.83c1.02,0.56,1.4,1.84,0.84,2.87c-0.56,1.02-1.84,1.4-2.87,0.84l-7-3.83c-3.18-1.74-7.17-0.57-8.91,2.61l-22.46,41.01
				c-1.74,3.17-0.57,7.17,2.61,8.91l4.89,2.68c3.18,1.74,7.17,0.57,8.91-2.61l14.91-27.22c0.56-1.02,1.84-1.4,2.87-0.84
				c1.02,0.56,1.4,1.84,0.84,2.87l-14.91,27.22C561.77,1347.44,555.2,1349.36,549.98,1346.51z"/>
		</g>
		<g>
			<path class="st0" d="M529.15,1389.57l-8.76-4.8c-8.13-4.45-10.87-15.17-6.1-23.88l33.76-61.65c0.56-1.02,1.84-1.4,2.87-0.84
				c1.02,0.56,1.4,1.84,0.84,2.87l-33.76,61.66c-3.65,6.67-1.67,14.82,4.42,18.15l8.76,4.8c6.09,3.34,14.02,0.62,17.68-6.05
				l38.46-70.23c3.65-6.67,1.67-14.82-4.42-18.15c-1.02-0.56-1.4-1.84-0.84-2.87c0.56-1.02,1.84-1.4,2.87-0.84
				c8.13,4.45,10.87,15.17,6.1,23.88l-38.45,70.23C547.78,1390.56,537.28,1394.02,529.15,1389.57z"/>
		</g>
	</g>
	<g>
		<path class="st1" d="M1373.2,1118.43H297.71c-26.44,0-47.87-21.43-47.87-47.87V167.88c0-26.44,21.43-47.87,47.87-47.87H1373.2
			c26.44,0,47.87,21.43,47.87,47.87v902.68C1421.07,1096.99,1399.64,1118.43,1373.2,1118.43z"/>
		<path class="st2" d="M1421.07,230.79H249.83v-75.05c0-19.74,16-35.74,35.74-35.74h1099.76c19.74,0,35.74,16,35.74,35.74V230.79z"
			/>
		<g>
			<path class="st3" d="M297.2,174.73c0-7.32,5.93-13.25,13.25-13.25c7.32,0,13.25,5.93,13.25,13.25c0,7.32-5.93,13.25-13.25,13.25
				C303.13,187.98,297.2,182.05,297.2,174.73z"/>
			<path class="st3" d="M352.79,174.73c0-7.32,5.93-13.25,13.25-13.25c7.31,0,13.25,5.93,13.25,13.25c0,7.32-5.93,13.25-13.25,13.25
				C358.72,187.98,352.79,182.05,352.79,174.73z"/>
			<path class="st3" d="M408.38,174.73c0-7.32,5.93-13.25,13.25-13.25c7.32,0,13.25,5.93,13.25,13.25c0,7.32-5.93,13.25-13.25,13.25
				C414.31,187.98,408.38,182.05,408.38,174.73z"/>
		</g>
		<rect x="342.65" y="318.7" class="st4" width="332.01" height="332.01"/>
		<path class="st5" d="M1029.02,343.45H764.94c-6.93,0-12.55-5.62-12.55-12.55l0,0c0-6.93,5.62-12.55,12.55-12.55h264.08
			c6.93,0,12.55,5.62,12.55,12.55l0,0C1041.57,337.83,1035.95,343.45,1029.02,343.45z"/>
		<path class="st5" d="M1344.82,326.62h-264.08c-6.93,0-12.55-5.62-12.55-12.55l0,0c0-6.93,5.62-12.55,12.55-12.55h264.08
			c6.93,0,12.55,5.62,12.55,12.55l0,0C1357.37,321,1351.75,326.62,1344.82,326.62z"/>
		<g class="st6">
			<path class="st7" d="M1081.3,440.04H760.52c-4.49,0-8.13-3.64-8.13-8.13l0,0c0-4.49,3.64-8.13,8.13-8.13h320.78
				c4.49,0,8.13,3.64,8.13,8.13l0,0C1089.43,436.4,1085.79,440.04,1081.3,440.04z"/>
			<path class="st7" d="M1203.24,440.04h-84.68c-4.49,0-8.13-3.64-8.13-8.13l0,0c0-4.49,3.64-8.13,8.13-8.13h84.68
				c4.49,0,8.13,3.64,8.13,8.13l0,0C1211.37,436.4,1207.73,440.04,1203.24,440.04z"/>
			<path class="st7" d="M881.55,490.48H760.52c-4.49,0-8.13-3.64-8.13-8.13l0,0c0-4.49,3.64-8.13,8.13-8.13h121.03
				c4.49,0,8.13,3.64,8.13,8.13l0,0C889.69,486.84,886.04,490.48,881.55,490.48z"/>
			<path class="st7" d="M1077.59,490.48H911.74c-4.49,0-8.13-3.64-8.13-8.13l0,0c0-4.49,3.64-8.13,8.13-8.13h165.85
				c4.49,0,8.13,3.64,8.13,8.13l0,0C1085.72,486.84,1082.08,490.48,1077.59,490.48z"/>
			<path class="st7" d="M1203.24,490.48h-84.68c-4.49,0-8.13-3.64-8.13-8.13l0,0c0-4.49,3.64-8.13,8.13-8.13h84.68
				c4.49,0,8.13,3.64,8.13,8.13l0,0C1211.37,486.84,1207.73,490.48,1203.24,490.48z"/>
			<path class="st7" d="M924.75,534.09H760.52c-4.49,0-8.13-3.64-8.13-8.13l0,0c0-4.49,3.64-8.13,8.13-8.13h164.23
				c4.49,0,8.13,3.64,8.13,8.13l0,0C932.88,530.45,929.24,534.09,924.75,534.09z"/>
			<path class="st7" d="M1238.36,534.09h-268.6c-4.49,0-8.13-3.64-8.13-8.13l0,0c0-4.49,3.64-8.13,8.13-8.13h268.6
				c4.49,0,8.13,3.64,8.13,8.13l0,0C1246.49,530.45,1242.85,534.09,1238.36,534.09z"/>
		</g>
		<g class="st6">
			<path class="st7" d="M1081.3,600.27H760.52c-4.49,0-8.13-3.64-8.13-8.13l0,0c0-4.49,3.64-8.13,8.13-8.13h320.78
				c4.49,0,8.13,3.64,8.13,8.13l0,0C1089.43,596.63,1085.79,600.27,1081.3,600.27z"/>
			<path class="st7" d="M1203.24,600.27h-84.68c-4.49,0-8.13-3.64-8.13-8.13l0,0c0-4.49,3.64-8.13,8.13-8.13h84.68
				c4.49,0,8.13,3.64,8.13,8.13l0,0C1211.37,596.63,1207.73,600.27,1203.24,600.27z"/>
			<path class="st7" d="M881.55,650.71H760.52c-4.49,0-8.13-3.64-8.13-8.13l0,0c0-4.49,3.64-8.13,8.13-8.13h121.03
				c4.49,0,8.13,3.64,8.13,8.13l0,0C889.69,647.07,886.04,650.71,881.55,650.71z"/>
			<path class="st7" d="M1077.59,650.71H911.74c-4.49,0-8.13-3.64-8.13-8.13l0,0c0-4.49,3.64-8.13,8.13-8.13h165.85
				c4.49,0,8.13,3.64,8.13,8.13l0,0C1085.72,647.07,1082.08,650.71,1077.59,650.71z"/>
		</g>
		<g>
			<path class="st7" d="M491.51,368.19h34.29l92.64,212.04h-39.1l-21.35-50.83h-99.55l-21.66,50.83h-37.9L491.51,368.19z
				 M544.45,496.62l-36.39-84.21l-36.09,84.21H544.45z"/>
		</g>
		<g>
			<rect x="342.65" y="717.59" class="st8" width="185.46" height="35.8"/>
			<rect x="342.65" y="753.39" class="st9" width="185.46" height="35.8"/>
			<rect x="342.65" y="789.19" class="st10" width="185.46" height="35.8"/>
		</g>
		<g>
			<path class="st7" d="M664.77,737.86H562.72c-4.27,0-7.73-3.46-7.73-7.73l0,0c0-4.27,3.46-7.73,7.73-7.73h102.04
				c4.27,0,7.73,3.46,7.73,7.73l0,0C672.5,734.39,669.04,737.86,664.77,737.86z"/>
			<path class="st7" d="M630.39,765.11h-67.67c-4.27,0-7.73-3.46-7.73-7.73l0,0c0-4.27,3.46-7.73,7.73-7.73h67.67
				c4.27,0,7.73,3.46,7.73,7.73l0,0C638.12,761.65,634.66,765.11,630.39,765.11z"/>
		</g>
		<g>
			<rect x="342.65" y="902.71" class="st8" width="185.46" height="73.16"/>
			<rect x="342.65" y="957.8" class="st11" width="185.46" height="52.32"/>
			<polygon class="st10" points="342.65,902.71 409.19,958.6 342.65,1010.12 			"/>
		</g>
		<g>
			<path class="st7" d="M664.77,922.98H562.72c-4.27,0-7.73-3.46-7.73-7.73l0,0c0-4.27,3.46-7.73,7.73-7.73h102.04
				c4.27,0,7.73,3.46,7.73,7.73l0,0C672.5,919.52,669.04,922.98,664.77,922.98z"/>
			<path class="st7" d="M630.39,950.23h-67.67c-4.27,0-7.73-3.46-7.73-7.73l0,0c0-4.27,3.46-7.73,7.73-7.73h67.67
				c4.27,0,7.73,3.46,7.73,7.73l0,0C638.12,946.77,634.66,950.23,630.39,950.23z"/>
		</g>
	</g>
	<g>
		<path class="st12" d="M1432.9,210.42c0,0,4.83,57.57-8.29,56.7c-13.11-0.87-39.01-26.21-91.27-22.09s-116.2,15.56-154.85-52.84
			c-38.65-68.4,49.43-88.08,49.43-88.08L1432.9,210.42L1432.9,210.42z"/>
		<polygon class="st13" points="1321.81,206.2 1585.13,227.86 1590.61,216.14 1338.15,29.79 1083.14,0 1078.24,10.48 1321.81,206.2 
					"/>
		<g>
			<path class="st8" d="M1501.01,404.52c-1.55-5.42-7.21-8.56-12.63-7.01c-5.42,1.55-8.55,7.2-7,12.63
				c1.55,5.42,7.2,8.56,12.62,7.01C1499.43,415.58,1502.56,409.94,1501.01,404.52L1501.01,404.52z"/>
			<path class="st8" d="M1492.23,407.35c10.56-0.82,13.03,95.28,13.03,95.28s-6.89,3.24-10.27,2.48
				c-3.39-0.76-5.11-13.74-5.11-13.74l-0.33,13.61c0,0-11.58,0.4-15.6-2.42C1473.95,502.56,1475.52,408.65,1492.23,407.35
				L1492.23,407.35z"/>
		</g>
		<polygon class="st8" points="1495.68,409.51 1493.77,199.56 1492.41,198.54 1354.86,96.79 1349.92,103.48 1486.1,204.21 
			1489.17,409.15 		"/>
	</g>
	<g>
		<g>
			<g>
				<path class="st14" d="M1673.14,1400.06h-578.48v-219.79h580.41c46.91,0,84.94,38.03,84.94,84.94v47.98
					C1760.01,1361.17,1721.11,1400.06,1673.14,1400.06z"/>
				<path class="st2" d="M2256.25,1270.7v33.07c0,17.67-4.44,34.21-12.2,48.44c-15.59,28.62-44.58,47.85-77.77,47.85H1076.83
					c-7.21,0-13.05-6.25-13.05-13.96v-4.95c0-7.7,5.84-13.96,13.05-13.96h664.12c3.55-4.63,6.68-9.65,9.32-14.99
					c6.22-12.54,9.73-26.84,9.73-42.02v-42.03c0-7.73-0.93-15.23-2.69-22.37c-2.97-12.1-8.3-23.18-15.4-32.64h-665.08
					c-7.21,0-13.05-6.25-13.05-13.97v-4.94c0-7.72,5.84-13.97,13.05-13.97h1094.93c38.58,0,71.13,27.69,81.23,65.51
					C2255.11,1253.7,2256.25,1262.06,2256.25,1270.7z"/>
				<path class="st15" d="M2252.99,1245.78h-495.68c-2.97-12.1-8.3-23.18-15.4-32.64h-665.08c-7.21,0-13.05-6.25-13.05-13.97v-4.94
					c0-7.72,5.84-13.97,13.05-13.97h1094.93C2210.35,1180.27,2242.89,1207.96,2252.99,1245.78z"/>
			</g>
			<polygon class="st16" points="1094.65,1290.17 1175.32,1293.86 1094.65,1296.09 			"/>
			<polygon class="st16" points="1094.65,1324.65 1286.56,1328.35 1094.65,1330.57 			"/>
		</g>
		<g>
			<g>
				<g>
					<path class="st8" d="M1010.12,1570.56h567.87V1399.6h-572.88c-42.55,0-77.04,34.49-77.04,77.04v11.88
						C928.08,1533.83,964.81,1570.56,1010.12,1570.56z"/>
					<path class="st14" d="M1550.63,1570.56h647.21V1399.6h-648.99c-43.26,0-78.33,35.07-78.33,78.33v12.53
						C1470.53,1534.7,1506.4,1570.56,1550.63,1570.56z"/>
					<path class="st8" d="M1427.77,1570.56h791.92c6.57,0,11.9-5.33,11.9-11.9v-1.78c0-6.57-5.33-11.9-11.9-11.9h-791.92
						c-6.57,0-11.9,5.33-11.9,11.9v1.78C1415.88,1565.23,1421.2,1570.56,1427.77,1570.56z"/>
					<path class="st8" d="M1427.77,1425.17h791.92c6.57,0,11.9-5.33,11.9-11.9v-1.78c0-6.57-5.33-11.9-11.9-11.9h-791.92
						c-6.57,0-11.9,5.33-11.9,11.9v1.78C1415.88,1419.84,1421.2,1425.17,1427.77,1425.17z"/>
				</g>
				<polygon class="st16" points="2197.85,1485.08 2109.67,1487.95 2197.85,1489.69 				"/>
				<polygon class="st16" points="2197.85,1445.74 1988.07,1448.61 2197.85,1450.34 				"/>
			</g>
			<g>
				<path class="st2" d="M1990.23,1448.04c0,0,8.99,7.35,11.97,19.42c0.53,2.11,0.86,4.37,0.93,6.75c0.5,16.04,0,52.35,0,52.35
					l26.54-18.15l26.47,18.15v-49.21c0-9.3-2.27-18.36-6.49-24.28c-2.04-2.87-4.52-5.03-7.33-5.03H1990.23z"/>
				<path class="st17" d="M1990.23,1448.04c0,0,8.99,7.35,11.97,19.42l53.19,0.72c0,0-2.09-17.29-13.06-20.14H1990.23z"/>
			</g>
		</g>
		<g>
			<g>
				<g>
					<path class="st14" d="M1507.6,1180.73H948.69V929.56h560.96c49.6,0,89.81,40.21,89.81,89.81v69.53
						C1599.45,1139.62,1558.33,1180.73,1507.6,1180.73z"/>
					<path class="st0" d="M1599.77,1027.02v54.06c-0.14,23.09-10.84,43.12-26.56,53.83c-7.74,5.25-16.69,8.26-26.19,8.26H931.56
						c-7.21,0-13.06,6.98-13.06,15.6v6.38c0,8.61,5.85,15.6,13.06,15.6h1063.2c30.51,0,57.47-18.11,73.75-45.83
						c10.27-17.47,16.3-38.74,16.3-61.71v-42.65c0-15.74-3.01-30.64-8.4-43.91c-13.67-33.77-42.63-57.06-76.15-57.06H931.56
						c-7.21,0-13.06,6.97-13.06,15.58v6.38c0,8.61,5.85,15.6,13.06,15.6h617.33c14.75,0,28.11,7.5,37.44,19.5
						C1594.58,997.26,1599.68,1011.42,1599.77,1027.02z"/>
					<path class="st18" d="M918.5,1158.76v6.38c0,8.61,5.85,15.6,13.06,15.6h1063.2c30.51,0,57.47-18.11,73.75-45.83h-495.3
						c-7.74,5.25-16.69,8.26-26.19,8.26H931.56C924.35,1143.16,918.5,1150.15,918.5,1158.76z"/>
				</g>
				<polygon class="st16" points="948.69,1055.15 1027.58,1059.37 948.69,1061.91 				"/>
				<polygon class="st16" points="948.69,997.34 1136.39,1001.57 948.69,1004.11 				"/>
			</g>
			<g>
				<path class="st8" d="M1134.45,1000.73c0,0-12.39,7.96-16.49,21.06c-0.72,2.29-1.19,4.74-1.29,7.32c-0.68,17.39,0,56.76,0,56.76
					l-36.57-19.68l-36.48,19.68v-53.35c0-10.09,3.13-19.9,8.94-26.33c2.82-3.11,6.24-5.46,10.1-5.46H1134.45z"/>
				<path class="st9" d="M1134.45,1000.73c0,0-12.39,7.96-16.49,21.06l-73.29,0.78c0,0,2.88-18.75,18-21.84H1134.45z"/>
			</g>
		</g>
	</g>
	<g id="girl_2_15_">
		<path class="st19" d="M200.2,1158.52c0,0,114.57,49.92,135.36,49.01c20.8-0.91,148.94-39.03,148.94-39.03l-3.26,22.04
			c0,0-98.89,56.88-133.47,60.1c-34.04,3.18-150.43-30.55-161.67-37.67S167.54,1165.73,200.2,1158.52z"/>
		<path class="st12" d="M182.98,974.9c0,0-42.27-8.03-63.31,7.34c-38.13,27.85-40.18,123.85-54.47,138.15
			c-14.29,14.3-48.74,8.2-51.81,82.2c-3.07,74,13.71,80.18-6.27,113.21c-19.99,33.03,8.46,66.09,8.46,66.09s-11.65-18.23-6.66-31.4
			c0,0,4.85,29.05,23.3,35.86c18.45,6.81,21.18,11.8,24.13,21.79c0,0,157.43-80.67,157.6-137.88s30.98-113.89,15.85-138.69
			c0,0,6.74,10.61,7.56,22.41c0,0,9.08-17.39-6.66-33.58c-15.73-16.19,18.46-49.7,13.39-88.5
			C240.62,1005.24,221.93,976.06,182.98,974.9z"/>
		<path class="st20" d="M214.12,1213.03c-10.06,6.98-22.68,12.74-38.52,16.39c-59.37,13.72-82.12-36.46-90.67-70.91
			c8.1-4.63,15.71-5.65,20.11-6.18c4.29-0.51,8.8-0.84,12.54-1.03c6.67-5.11,16.6-26,18.8-58.45l2.79,0.75l46.79,12.81
			c0,0-2.14,14.87-3.19,28.93c-0.81,11-0.94,21.51,1.14,24.09c3.65,0.79,5.84,1.31,5.84,1.31s0,0.02,0.02,0.04
			C190.42,1161.82,203.99,1184.14,214.12,1213.03z"/>
		<path class="st19" d="M185.97,1106.42c0,0-2.15,14.86-3.19,28.93c-26.51-2.65-38.81-27.89-43.6-41.74L185.97,1106.42z"/>
		<path class="st20" d="M193.89,1120.39c0,0-62.92-3.47-60.16-42.62c2.77-39.15-3.49-65.97,36.8-65.4
			c40.29,0.56,47.03,16.05,49.29,29.34C222.07,1054.99,210.33,1120.28,193.89,1120.39z"/>
		<path class="st12" d="M219.51,1019.8c-8.87-12.47-16.4-10.41-20.76-7.17c-33-21.35-57.13,4.98-57.13,4.98
			c-6.22,27.79-27.63,42.43-27.63,42.43s10.95,7.9,37.84,3c8.22-1.5,15.83-6.71,22.45-13.23c-11.97,17.15-27.44,29.01-27.44,29.01
			c32.59-12.32,48.4-55.28,50-59.83c3.59,3.72,10.62,11.75,12.39,19.25c2.42,10.19,12.85,26.13,18.88,25.86
			C228.1,1064.1,232.81,1038.51,219.51,1019.8z"/>
		<path class="st21" d="M67.01,1340.96c-5.68-29.05-24.21-145.1-5.68-182.44c6.65-13.42,32.76-14.63,61.41-13.45
			c8.91,5.75,42.88,27.5,56.83,24.79c0.15-0.03,0.42-0.09,0.78-0.18c6.57-1.64,9.05-6.26,3.57-10.24
			c-0.01-0.01,14.19-1.37,31.81,1.95c9.95,1.87,36.79,15.76,36.79,15.76s-13.52,24.42-33.45,32.85
			c3.39,30.32-1.65,43.69-33.1,113.72c-26.58,59.19,3.59,112.48,3.59,112.48S33.1,1561.99,32.23,1497.94
			C31.57,1449.72,74.27,1378.09,67.01,1340.96z"/>
		<path class="st22" d="M197.31,1572.98c8.51-0.96,16.17-5.62,20.93-12.74c0.75-1.13,1.56-2.34,2.42-3.64
			c17.81-26.96,24.74-109.52,64.8-197.48c9.76-21.41,44.78-25.26,54.33-49.47c0,0,23.51-78.46-44.99-80.78
			c-68.5-2.31-183.45,218.31-185.26,241.45C107.77,1492.74,64.25,1588,197.31,1572.98z"/>
		<path class="st12" d="M469.56,1571.18h-97.49c0,0-3.64-15.55,2.76-26.13c5.67-9.36,3.49-14.7-0.7-22.44
			c4.42,1.81,10.13,3.45,16.42,3.09c4.86-0.28,9.99-2.48,14.5-5.1c4.2,4.78,22.16,25.15,27.78,29.18
			C439.19,1554.36,467.6,1552.73,469.56,1571.18z"/>
		<path class="st9" d="M342.01,1251.55c5.87,44.01,28.8,182.92,69.24,250.69c13.04,21.85-32.85,34.1-33.1,34.03
			c-6.15-1.61-16.41-11.42-21.13-15.68c-32.83-29.59-99.48-113.37-99.48-180.54c0-32.75-0.58-95.3,23.24-111.2
			C295.45,1219.06,339.68,1234.07,342.01,1251.55z"/>
		<path class="st8" d="M139.18,1571.18c0,0,3.61-5.03,9.91-14.58c7.5-11.36,15.79-33.7,25.86-62.35
			c10.58-30.07,23.12-67.07,38.8-105.57c4.84-11.88,9.98-23.91,15.44-35.92c9.76-21.41,36.6-18.45,46.15-42.66
			c0,0,37.26-83.92-31.23-86.23c-68.5-2.31-198.66,224.49-206.14,246.46C29.78,1494.37-10.17,1594.22,139.18,1571.18z"/>
		<path class="st13" d="M397.99,1571.18H300.5c0,0-3.64-15.55,2.76-26.13c5.67-9.36,3.49-14.7-0.7-22.44
			c4.42,1.81,10.13,3.45,16.42,3.09c4.86-0.28,9.99-2.48,14.5-5.1c4.2,4.78,22.16,25.15,27.78,29.18
			C367.62,1554.36,396.03,1552.73,397.99,1571.18z"/>
		<path class="st9" d="M174.95,1494.25c10.58-30.07,23.12-67.07,38.8-105.57c-4.09-29.17-12.93-54.68-27.78-64.97
			C185.97,1323.71,149.94,1435.33,174.95,1494.25z"/>
		<path class="st8" d="M285.1,1248.43c5.87,44.01,14.14,186.04,54.58,253.81c13.04,21.85-32.85,34.1-33.1,34.03
			c-6.15-1.61-16.41-11.42-21.13-15.68c-32.83-29.59-99.48-113.37-99.48-180.54c0-32.75,38.44-92.68,62.25-108.58
			C262.89,1221.69,282.77,1230.95,285.1,1248.43z"/>
		<g>
			<g>
				<polygon class="st23" points="496.73,1122.38 476.52,1085.91 432.79,1207.92 458.59,1235.61 				"/>
				<polygon class="st24" points="391.19,1143.74 350.55,1259.85 458.59,1235.61 496.73,1122.38 				"/>
				<polygon class="st25" points="352.7,1253.99 350.81,1250.68 389.27,1140.8 391.19,1143.74 				"/>
				<polygon class="st14" points="389.27,1140.8 491.7,1120.87 496.73,1122.38 391.19,1143.74 				"/>
			</g>
			<polygon class="st25" points="496.73,1122.38 474.87,1087.68 460.94,1126.85 491.7,1120.87 			"/>
		</g>
		<path class="st20" d="M422.39,1160.55c-3.51-0.68-11.05-3.52-18.68-5.62c2.28-1.77,4.81-3.94,5.52-6.17
			c1.36-4.3,2.27-5.68-2.27-4.32c-4.54,1.36-20.42,8.65-20.42,8.65s0.03,0.02,0.04,0.02c-9.02,2.64-17.34,15.39-17.34,15.39
			s-111.7,39.27-125.14,39.94c-20.79,1.04-159.17-49.92-159.17-49.92c-32.66,7.21-25.33,47.33-14.09,54.45
			s110.81,43.34,169.82,44.02c29.89,0.35,138.61-69.53,138.61-69.53s12.71-5.81,22.69-3.99c9.98,1.82,33.13,0,38.12-8.17
			C445.08,1167.13,428.29,1161.69,422.39,1160.55z"/>
		<path class="st21" d="M156.23,1183.65c0,0-12.38,39.18-54.88,48.09c0,0-70.19-21.62-35.24-69.44
			C66.1,1162.3,100.66,1136.63,156.23,1183.65z"/>
		<path class="st20" d="M494.91,1163.5L494.91,1163.5c0.02-1.08-0.09-2.15-0.38-3.18c0,0-10.01-15.84-13.29-16.48
			c-9.99-1.97-9.99,11.18-7.87,19.66c1.48,5.91,5.23,11.58,8.27,14.64l0,0l-0.4,12.39C498.11,1181.27,494.91,1163.5,494.91,1163.5z"
			/>
	</g>
	<g>
		<path class="st12" d="M1579.64,1136.67c18.36,32.48,41.65,45.14,41.65,45.14l97.26,0.69
			C1718.55,1182.49,1565.63,1111.89,1579.64,1136.67z"/>
		<g>
			<path class="st20" d="M1652.57,1387.51c2.51,2.92,2.81,6.17,1.54,9.63c0,0.01-0.01,0.04-0.03,0.05
				c-2.37,6.39-10.08,13.5-19.03,20.58c-1.14,0.91-2.16,1.74-3.05,2.51c-0.23,0.2-0.47,0.4-0.68,0.61
				c-0.18,0.16-0.35,0.32-0.53,0.47c-8.36,7.59-5.24,9.37-20.27,24.79c-17.13,17.57-28.84,17.81-32.16,16.17
				c-2.81-1.39,2.98-10.74,9.4-21.24c0.31-0.51,0.62-1.02,0.93-1.53c0.85-1.4,1.7-2.81,2.55-4.22c7.52-12.64,5.66-18.61,4.03-37.52
				c-1.32-15.36-23.28-85.94-23.28-85.94l32.63-5.38c0,0,9.42,56.14,20.17,64.85c5.75,4.64,12.22,4.75,17.76,8.2
				c0.39,0.24,0.78,0.49,1.15,0.74C1646.85,1382.39,1650.05,1384.58,1652.57,1387.51z"/>
			<path class="st12" d="M1652.57,1387.51c2.51,2.92,2.81,6.17,1.54,9.63c0,0.01-0.01,0.04-0.03,0.05
				c-2.89,6.38-10.41,13.45-19.06,20.52c-1.13,0.93-2.13,1.78-3.02,2.57c-0.23,0.2-0.47,0.4-0.68,0.61
				c-0.18,0.16-0.35,0.32-0.53,0.47c-8.36,7.59-5.24,9.37-20.27,24.79c-17.13,17.57-28.84,17.81-32.16,16.17
				c-2.81-1.39,2.98-10.74,9.4-21.24c3.32-1.19,18.74-7.33,30.47-22.12c10.33-13,17.28-29.74,24.32-39.41
				c0.39,0.24,0.78,0.49,1.15,0.74C1646.85,1382.39,1650.05,1384.58,1652.57,1387.51z"/>
			<path class="st20" d="M1389.93,1365.3c-2.08,10.05-16.41,8.27-32.4,4.24c-15.99-4.03-12.22,0.65-35-2.03
				c-22.78-2.68-29.63-11.23-30.3-14.63c-0.6-3.01,10.67-3.99,22.77-5.3c1.52-0.16,3.05-0.34,4.58-0.51
				c13.66-1.62,23.71-10.35,36.15-17.49c11.79-6.77,29.5-34.55,29.5-34.55l31.25,2.7c0,0-16.58,24.81-23.01,35.6
				c-3.78,6.35-3.64,14.78-3.22,21.29C1390.46,1358.14,1390.67,1361.76,1389.93,1365.3z"/>
			<path class="st12" d="M1357.53,1369.54c-15.99-4.03-12.22,0.65-35-2.03c-22.78-2.68-29.63-11.23-30.3-14.63
				c-0.6-3.01,10.67-3.99,22.77-5.3l0.11,0.23c0,0,13.61,9.79,32.58,10.38c15.47,0.49,31.88-3.83,42.56-3.58
				c0.22,3.54,0.42,7.16-0.32,10.69C1387.85,1375.34,1373.52,1373.56,1357.53,1369.54z"/>
			<path class="st12" d="M1511.17,1166.2l28.68,78.86l37.44,102.97c0,0,10.35,1.07,20.29-1.71c9.15-2.57,19.68-9.41,19.68-9.41
				s-9.82-110.35-29.14-173.79c-4.95-16.28-10.54-29.47-16.75-36.91C1540.97,1089.79,1511.17,1166.2,1511.17,1166.2z"/>
			<path class="st13" d="M1541.77,1041.5c19.19-6.04,73.76,2.27,128.55,13.4l11.62-18.87l118.57-8.42c0,0,38.49,87,16.7,142.11
				c-3.2,8.1-11.02,11.47-21.68,11.57c0,0.01-0.01,0.01-0.01,0.02c0,0-70.73,1.23-93.63,1.07c-58.94-0.42-124.44-41.39-132.94-43.16
				c-13.91-2.88-19.68,24.94-33.82,54.09c-14.14,29.16-131.87,128.63-131.87,128.63s-17.99,0.05-25.4-2.79
				c-7.97-3.05-10.86-6.96-10.86-6.96S1498.49,1055.12,1541.77,1041.5z"/>
			<path class="st12" d="M1683.79,872.83c42.04,23.53,127.31,72.31,127.76,72c0,0,31.38,12.08,49.32,0.35
				c29.89-19.55,46.22-72.62-7.87-118.77c-26.98-23.02-46.22-28.71-48.89-65.17c-1.45-19.78-28.02-85.23-72.97-79.51
				c-3.76,0.48-7.54,0.81-11.32,0.66c-5.24-0.21-13.91,0.5-22.83,5.72C1671.46,703.07,1620.59,863.39,1683.79,872.83z"/>
			<path class="st20" d="M1719.3,853.3c-0.19,0.12,20.71,7.42,34.76,1.31c13.22-5.73,23.36-27.34,23.16-27.35
				c-5.99-0.32-12.54-5.61-17.36-40.03l-2.56,0.9l-43.03,15.14c0,0,3.01,13.79,4.93,26.92
				C1720.82,841.21,1721.65,851.76,1719.3,853.3z"/>
			<path class="st26" d="M1714.27,803.27c0,0,1.83,9.67,4.38,23.48c24.68-4.26,35.08-25.32,38.65-38.62L1714.27,803.27z"/>
			<path class="st20" d="M1707.78,816.89c0,0,58.78-7.47,53.56-44c-5.21-36.53-1.14-62.1-38.89-58.88
				c-37.75,3.22-43.04,18.2-44.26,30.82C1676.97,757.45,1692.36,817.89,1707.78,816.89z"/>
			<path class="st12" d="M1680.48,724.84c0,0,37.36,32.66,62.91,35.45c25.55,2.79,35.29-5.35,35.29-5.35s-14.98-12.62-23.91-32.88
				c-2.63-5.97-8.25-10.1-14.75-10.7C1721.78,709.66,1687.17,708.7,1680.48,724.84z"/>
			<path class="st12" d="M1704,722.11c0,0-12.66,12.07-16.69,21.06c-3.88,8.68-5.18,29.48-2.19,37.77c0,0-19.33-38.24-8.1-56.67
				C1688.92,704.73,1704,722.11,1704,722.11z"/>
			<path class="st21" d="M1669.24,939.46c0.94,118.88-0.18,94.03,12.75,105.41c3.11,2.74,11.91,4.42,23.5,5.27
				c36.43,2.68,100.55-2.88,103.03-9.6c8.57-23.25,2.69-30.53,9.95-66.16c0.76-3.79,1.69-7.89,2.79-12.36
				c6.02-24.47,11.77-32.76-8.7-72.29c-18.57-35.8-37.91-64.88-39.67-63.85c-49.85,29.12-53.68,4.32-53.68,4.32
				S1668.78,881.47,1669.24,939.46z"/>
			<path class="st13" d="M1539.85,1245.06l37.44,102.97c0,0,10.35,1.07,20.29-1.71c9.15-2.57,19.68-9.41,19.68-9.41
				s-9.82-110.35-29.14-173.79L1539.85,1245.06z"/>
			<path class="st21" d="M1719.2,830.19c0,0-51.14,8.3-57.3,30.25c-6.15,21.95-42.36,151-42.36,151s25.94,4.85,38.02-7.06
				s42.53-111,42.53-111L1719.2,830.19z"/>
			<path class="st27" d="M1705.49,1050.13c36.43,2.68,100.55-2.88,103.03-9.6c8.57-23.25,2.69-30.53,9.95-66.16l-17.23-49.63
				c0,0,2.52,55.15-13.84,69.53c-16.34,14.38-66.76,27.52-74.75,39.58C1708.8,1039.64,1706.25,1045.45,1705.49,1050.13z"/>
			<path class="st20" d="M1747.41,1027.24c0,0-35.9-8.26-41.73-5.11c-5.82,3.15-20.09,14.67-21.89,18.7
				c-1.8,4.03,12.94-2.98,17.73-4.23c3.1-0.81,11.23,2.08,15.25,3.45c16.93,5.78,27.35,2.94,27.35,2.94L1747.41,1027.24z"/>
			<path class="st21" d="M1772.92,825.85c0,0,48.26,3.32,64.81,26.75c23.3,32.98,68.99,173.17,42.1,191.64
				c-30.27,20.79-137.15,4.53-137.15,4.53s-3.44-16.67,1.57-24.68c5.01-8.01,85.6-20.45,89.34-24.14
				c3.74-3.69-45.93-72.77-45.85-83.92C1787.82,904.88,1772.92,825.85,1772.92,825.85z"/>
			<path class="st20" d="M1703.87,1032.12c0,0-7.6,9.67-10.08,10.81c-2.48,1.14-4.07,0.84-4.07,0.84l5.14-9.1L1703.87,1032.12z"/>
			<path class="st20" d="M1705.68,1022.13l-21.98,10.48c0,0,0.92,1.53,3.62,1.43c2.7-0.1,9.52-2.54,9.52-2.54L1705.68,1022.13z"/>
		</g>
		<g>
			<g>
				<polygon class="st8" points="1698.48,1058.62 1525.19,1057.4 1473.98,927.4 1647,928.62 				"/>
				<polygon class="st9" points="1523.2,1052.33 1752.02,1053.95 1751.99,1059 1525.19,1057.4 				"/>
			</g>
			<path class="st28" d="M1569.39,992.89c-1.27-4.57,1.39-8.24,5.94-8.21c4.56,0.03,9.28,3.76,10.56,8.33
				c1.27,4.57-1.39,8.24-5.94,8.21C1575.4,1001.19,1570.67,997.46,1569.39,992.89z"/>
		</g>
	</g>
	<g>
		
			<rect x="856.29" y="1256.8" transform="matrix(1.958630e-04 -1 1 1.958630e-04 -611.6061 2428.3699)" class="st29" width="104.67" height="526.5"/>
		<path class="st14" d="M645.36,1572.33l-77.38-33.1l-45.01-19.25l46.07-19.69l76.35-32.63c0,0,10.19,25.49,10.34,49.45
			C655.96,1554.73,645.36,1572.33,645.36,1572.33z"/>
		<path class="st14" d="M1233.08,1502.5l-0.01,33.09c0,20.35-16.51,36.85-36.86,36.85l-24.35-0.01l0.02-104.66l26.49,0
			C1217.54,1467.77,1233.08,1483.32,1233.08,1502.5z"/>
		<path class="st13" d="M569.04,1500.29c1.92,10.58,3.58,26.78-1.06,38.94l-45.01-19.25L569.04,1500.29z"/>
	</g>
	<g>
		<path class="st8" d="M758.56,922.7c0,0,9.43,40.92,36.92,40.92c23.56,0,55.89-53.26,55.89-53.26L758.56,922.7z"/>
		<path class="st13" d="M1074.17,1527.1l-17.66,12.14c0,0-84.94-90.54-105.45-177.32c-3.66-15.5-5.14-30.78-3.57-45.28
			c0,0-1.24-3.93-3.41-10.88c-0.1-0.3-0.19-0.62-0.29-0.93c-0.95-3.05-2.09-6.64-3.35-10.7c-4.12-13.11-9.78-31.06-16.22-51.49
			c-14.85-47.02-48.8-153.06-63.31-197.16l104.28-37.73c0,0,11.84,27.01,28.86,100.42c2.62,9.58,5.25,20.18,7.7,31.72
			c2.78,13.08,5.38,27.37,7.54,42.82c3.66,26.17,6.1,55.61,6.25,87.9c0.06,13.14-0.26,26.76-1.04,40.81
			c-0.57,10.31,0.96,24.04,3.83,39.66C1031.47,1422.52,1074.17,1527.1,1074.17,1527.1z"/>
		<path class="st12" d="M1129.72,1570.73h-84.31c0,0-3.15-13.45,2.38-22.6c4.9-8.1,3.02-12.71-0.61-19.41
			c3.82,1.56,8.76,2.99,14.2,2.67c4.2-0.24,8.64-2.15,12.54-4.41c3.63,4.14,19.17,21.75,24.02,25.23
			C1103.46,1556.18,1128.03,1554.77,1129.72,1570.73z"/>
		<path class="st12" d="M1009.29,1182.72l-65.5,122.11c-0.95-3.05-2.09-6.64-3.35-10.7c-4.12-13.11-9.78-31.06-16.22-51.49
			c-14.85-47.02-48.8-153.06-63.31-197.16l104.28-37.73c0,0,11.84,27.01,28.86,100.42c2.62,9.58,5.25,20.18,7.7,31.72
			C1004.53,1152.98,1007.13,1167.27,1009.29,1182.72z"/>
		<path class="st12" d="M859.21,1544.34c0,0-5.84,14.32-0.34,26.39h45.86c0,0,0.95-10.89-15.69-23.51
			C876.43,1537.66,859.21,1544.34,859.21,1544.34z"/>
		<path class="st30" d="M909.11,612.17c0.03-2.28,1.2-26.9,38.6-29.08c0,0-18.35,2.64-21.34,10.81c0,0,12.29-10.3,22.58-7.33
			c10.28,2.97,16.71,20.71,16.91,26.59c0.2,5.88-5.01,24.98-11.45,26.74c-2.44,0.67-5.27,0.57-7.84,0.2
			c1.79,2.65,3.55,5.58,5.24,8.85c15.67,30.3,2.15,65.99-10.57,62.98c-8.16-1.93-13.12,12.21-13.12,12.21l-78.48-67.49
			C849.64,656.65,877.13,596.08,909.11,612.17z"/>
		<path class="st20" d="M859.78,817.24c8.7,6.04,19.61,11.01,33.31,14.17c51.34,11.86,71.02-31.53,78.41-61.32
			c-7-4.01-13.59-4.89-17.39-5.34c-3.71-0.44-7.61-0.73-10.85-0.89c-5.77-4.42-14.36-22.49-16.25-50.55l-2.42,0.65l-40.46,11.07
			c0,0,1.85,12.86,2.76,25.02c0.7,9.51,0.81,18.61-0.99,20.83c-3.16,0.68-5.05,1.13-5.05,1.13s0,0.01-0.02,0.04
			C880.28,772.95,868.54,792.26,859.78,817.24z"/>
		<path class="st19" d="M884.12,725.05c0,0,1.86,12.85,2.76,25.02c22.92-2.29,33.56-24.12,37.7-36.09L884.12,725.05z"/>
		<path class="st20" d="M883.65,744.35c0,0,52.78-13.56,43.83-46.3c-8.95-32.74-8.17-56.54-42.25-49.26
			c-34.08,7.27-37.18,21.55-36.85,33.2S869.69,747.04,883.65,744.35z"/>
		<path class="st30" d="M844.95,663.37c5.42-12.08,12.15-11.6,16.4-9.58c24.38-23.68,49.3-5.41,49.3-5.41
			c9.96,22.52,30.59,31.32,30.59,31.32s-7.95,8.55-31.59,8.93c-7.22,0.12-14.56-3.02-21.27-7.43
			c13.05,12.52,28.17,19.97,28.17,19.97c-29.72-4.95-50.38-38.72-52.5-42.31c-2.42,3.76-7.02,11.75-7.26,18.42
			c-0.33,9.05,3.2,26.53-1.96,27.32C854.83,704.6,836.82,681.48,844.95,663.37z"/>
		<path class="st20" d="M868.47,769.3c0,0,88.64-21.52,127.18,10.27l-19.26,268.63l-173.36-41.88c0,0,4.88-17,38.12-62.2
			C874.4,898.92,859.94,832.62,868.47,769.3z"/>
		<path class="st13" d="M920.15,1018.3c0,0-0.1,0.91-0.28,2.65c-0.08,0.75-0.18,1.65-0.29,2.7c-0.75,6.96-2.16,20.32-3.98,37.69
			c-4.76,45.56-12.22,118.73-17.31,176.49c-3.98,45.16-6.51,80.9-5.14,86.64c4.1,17.27,0,223.71,0,223.71
			c-14.73,7.07-37.07,0-37.07,0s-39.25-186.04-33.75-211.89c5.49-25.86-3.67-47.93-3.67-47.93
			c-30.47-141.91-27.14-220.57-21.08-258.22c1.76-10.95,3.75-18.43,5.21-22.99c1.23-3.88,2.09-5.65,2.09-5.65
			C872.07,983.41,920.15,1018.3,920.15,1018.3z"/>
		<path class="st8" d="M1007.6,856.19c-4.28,32.32-21.4,71.86-27.51,93.15c0,0,10.22,73.9,0.46,94.2c-1.11,2.32-2.48,3.93-4.16,4.66
			c-36.15,15.75-176.92,0.46-182.86-44.96c-2.16-16.5,53.62-74.54,56.87-81.58c1.35-2.91,2.79-12.36-3.75-31.92
			c-9.27,28.58-60.43,20.36-60.43,20.36c6-10.28,20.97-81.36,37.67-113.45c12.56-24.12,46.09-27.62,46.09-27.62
			s13.96,22.14,47.71,19c33.75-3.14,39.93-23.8,39.93-23.8s29.94,3.98,39.16,11.42C998.37,776.94,1013.22,813.85,1007.6,856.19z"/>
		<path class="st9" d="M980.09,949.34c0,0,10.22,73.9,0.46,94.2c-26.34-13.22-47.09-48.98-42.3-88.81
			c3.54-29.45,8.81-36.16,24.56-53.01c11.58-12.38,38.34-13.08,36.24-7.19C992.81,912.06,983.32,938.09,980.09,949.34z"/>
		<g>
			<polygon class="st24" points="870.16,861.94 930.52,958.78 827.81,958.78 770.31,864.04 			"/>
			<polygon class="st25" points="927.38,953.91 928.42,950.53 871.3,858.89 870.16,861.94 			"/>
			<polygon class="st14" points="871.3,858.89 774.55,861.65 770.31,864.04 870.16,861.94 			"/>
			<polygon class="st23" points="770.31,864.04 716.03,834.66 779.3,934.01 827.81,958.78 			"/>
		</g>
		<path class="st20" d="M1057.53,931.9c-5.81,2.66-20.74,20.23-26.06,22.02c-23.95,8.01-125.87-13.31-125.87-13.31l3.16-17.85
			c0,0,100.04,2.66,111.03-0.29c2.07-0.56,12.88-17.47,17.04-19.89L1057.53,931.9z"/>
		<path class="st20" d="M908.76,922.75c0,0-12.06-9.82-20.21-7.6c-8.15,2.22-20.15,12.53-24.6,14.97
			c-4.45,2.44-16.55,11.17-10.42,16.45c6.13,5.28,25.23,0.75,32.79-3.3c7.56-4.05,19.29-2.67,19.29-2.67L908.76,922.75z"/>
		<path class="st20" d="M890.85,914.83c0,0-14.66-1.75-18.67-1.67c-4,0.08-2.92,0.96-0.71,4.07c2.21,3.11,9.84,4.29,10.19,5.38
			S890.85,914.83,890.85,914.83z"/>
		<path class="st8" d="M957.61,764.23c0,0,43.48,5.16,55.45,23.8c15.14,23.57,50.86,117.46,49.71,141.12
			c0,0-26.12,44.45-115.67,37.33c0,0-9.32-32.91,9.52-43.78c0,0,46-8.18,51.3-12.85l-37.5-68.16L957.61,764.23z"/>
		<path class="st20" d="M784.21,899.44c-1.35-5.48-13.29-2.06-17.32,1.1c-0.98,0.77-2.03,2.07-3.06,3.6
			c-0.13-0.92-0.23-1.79-0.29-2.48c-0.23-2.57-3.22-7.18-3.97-3.73c-0.74,3.45-1.97,17.95-1.97,17.95
			c-0.15,11.68,7.36,16.5,12.18,12.7C774.61,924.77,785.56,904.91,784.21,899.44z"/>
	</g>
</g>
</svg>
